<svg xmlns="http://www.w3.org/2000/svg" width="1920" height="1920">
<rect x="0.00" y="0.00" width="1920.00" height="1920.00" fill="rgb(255,255,255)" stroke="rgb(255,255,255)" stroke-width="0.0"/>
<path d="M 960.0 644.3 L 969.0 643.3 L 978.1 642.4 L 987.2 641.9 L 996.4 641.7 L 1005.6 641.7 L 1014.8 642.0 L 1024.1 642.5 L 1033.4 643.4 L 1042.6 644.5 L 1051.9 646.0 L 1061.2 647.7 L 1070.4 649.7 L 1079.6 652.0 L 1088.8 654.5 L 1097.9 657.4 L 1107.0 660.5 L 1116.0 664.0 L 1125.0 667.7 L 1133.8 671.7 L 1142.6 675.9 L 1151.2 680.5 L 1159.8 685.3 L 1168.2 690.4 L 1176.5 695.8 L 1184.7 701.4 L 1192.7 707.4 L 1200.5 713.5 L 1208.2 719.9 L 1215.8 726.6 L 1223.1 733.6 L 1230.3 740.7 L 1237.3 748.1 L 1244.0 755.8 L 1250.6 763.6 L 1256.9 771.7 L 1263.1 780.0 L 1268.9 788.5 L 1274.6 797.3 L 1280.0 806.2 L 1285.1 815.3 L 1290.0 824.6 L 1294.6 834.0 L 1299.0 843.7 L 1303.1 853.4 L 1306.8 863.4 L 1310.3 873.5 L 1313.6 883.7 L 1316.5 894.0 L 1319.1 904.5 L 1321.4 915.1 L 1323.3 925.7 L 1325.0 936.5 L 1326.4 947.3 L 1327.4 958.2 L 1328.1 969.2 L 1328.4 980.2 L 1328.5 991.3 L 1328.2 1002.4 L 1327.6 1013.5 L 1326.6 1024.6 L 1325.3 1035.8 L 1323.6 1046.9 L 1321.7 1058.0 L 1319.3 1069.1 L 1316.7 1080.1 L 1313.7 1091.1 L 1310.3 1102.0 L 1306.7 1112.9 L 1302.7 1123.6 L 1298.3 1134.3 L 1293.6 1144.9 L 1288.6 1155.4 L 1283.3 1165.7 L 1277.6 1175.9 L 1271.6 1186.0 L 1265.3 1195.9 L 1258.7 1205.6 L 1251.8 1215.2 L 1244.5 1224.6 L 1237.0 1233.8 L 1229.2 1242.8 L 1221.0 1251.5 L 1212.6 1260.1 L 1203.9 1268.4 L 1195.0 1276.5 L 1185.8 1284.3 L 1176.3 1291.9 L 1166.5 1299.2 L 1156.6 1306.3 L 1146.4 1313.0 L 1135.9 1319.5 L 1125.2 1325.6 L 1114.4 1331.5 L 1103.3 1337.0 L 1092.0 1342.3 L 1080.6 1347.2 L 1068.9 1351.8 L 1057.2 1356.0 L 1045.2 1359.9 L 1033.1 1363.4 L 1020.9 1366.6 L 1008.5 1369.4 L 996.0 1371.9 L 983.5 1374.0 L 970.8 1375.7 L 958.1 1377.0 L 945.2 1378.0 L 932.4 1378.6 L 919.4 1378.8 L 906.5 1378.6 L 893.5 1378.0 L 880.5 1377.0 L 867.5 1375.7 L 854.5 1373.9 L 841.6 1371.8 L 828.6 1369.2 L 815.8 1366.3 L 802.9 1362.9 L 790.2 1359.2 L 777.5 1355.1 L 764.9 1350.6 L 752.5 1345.7 L 740.1 1340.4 L 727.9 1334.8 L 715.9 1328.7 L 703.9 1322.3 L 692.2 1315.5 L 680.6 1308.4 L 669.2 1300.9 L 658.0 1293.0 L 647.1 1284.8 L 636.3 1276.2 L 625.8 1267.3 L 615.5 1258.0 L 605.5 1248.5 L 595.8 1238.6 L 586.3 1228.4 L 577.1 1217.9 L 568.2 1207.0 L 559.6 1195.9 L 551.4 1184.6 L 543.4 1172.9 L 535.8 1161.0 L 528.5 1148.8 L 521.6 1136.4 L 515.0 1123.8 L 508.8 1110.9 L 503.0 1097.8 L 497.5 1084.5 L 492.5 1071.1 L 487.8 1057.4 L 483.5 1043.6 L 479.7 1029.6 L 476.2 1015.5 L 473.2 1001.2 L 470.6 986.9 L 468.4 972.4 L 466.6 957.8 L 465.3 943.2 L 464.4 928.4 L 463.9 913.7 L 463.9 898.8 L 464.4 884.0 L 465.2 869.1 L 466.6 854.2 L 468.3 839.4 L 470.5 824.5 L 473.2 809.7 L 476.3 795.0 L 479.9 780.3 L 483.9 765.7 L 488.4 751.2 L 493.3 736.8 L 498.6 722.5 L 504.4 708.4 L 510.6 694.3 L 517.2 680.5 L 524.3 666.8 L 531.8 653.3 L 539.7 640.0 L 548.0 627.0 L 556.8 614.1 L 565.9 601.5 L 575.4 589.1 L 585.3 577.0 L 595.6 565.2 L 606.3 553.6 L 617.3 542.4 L 628.7 531.4 L 640.4 520.8 L 652.5 510.5 L 664.9 500.6 L 677.6 491.0 L 690.7 481.8 L 704.0 472.9 L 717.6 464.5 L 731.5 456.4 L 745.7 448.7 L 760.1 441.4 L 774.8 434.6 L 789.7 428.2 L 804.8 422.2 L 820.1 416.6 L 835.6 411.5 L 851.3 406.9 L 867.2 402.7 L 883.2 399.0 L 899.3 395.8 L 915.6 393.0 L 932.0 390.7 L 948.5 388.9 L 965.0 387.6 L 981.7 386.8 L 998.3 386.5 L 1015.1 386.7 L 1031.8 387.3 L 1048.6 388.5 L 1065.3 390.2 L 1082.0 392.4 L 1098.7 395.1 L 1115.3 398.3 L 1131.9 402.0 L 1148.4 406.2 L 1164.8 410.9 L 1181.0 416.1 L 1197.2 421.7 L 1213.2 427.9 L 1229.0 434.6 L 1244.7 441.7 L 1260.2 449.4 L 1275.5 457.5 L 1290.5 466.1 L 1305.3 475.1 L 1319.9 484.6 L 1334.2 494.6 L 1348.3 505.0 L 1362.0 515.8 L 1375.5 527.1 L 1388.6 538.7 L 1401.5 550.8 L 1413.9 563.3 L 1426.1 576.2 L 1437.8 589.5 L 1449.2 603.1 L 1460.2 617.1 L 1470.8 631.5 L 1480.9 646.2 L 1490.7 661.2 L 1500.0 676.5 L 1508.9 692.1 L 1517.3 708.1 L 1525.2 724.3 L 1532.7 740.7 L 1539.7 757.4 L 1546.3 774.4 L 1552.3 791.6 L 1557.8 808.9 L 1562.8 826.5 L 1567.3 844.2 L 1571.3 862.1 L 1574.7 880.2 L 1577.6 898.4 L 1580.0 916.6 L 1581.8 935.0 L 1583.1 953.5 L 1583.8 972.0 L 1584.0 990.6 L 1583.6 1009.2 L 1582.7 1027.9 L 1581.2 1046.5 L 1579.1 1065.1 L 1576.5 1083.7 L 1573.3 1102.2 L 1569.6 1120.7 L 1565.3 1139.1 L 1560.5 1157.4 L 1555.1 1175.5 L 1549.1 1193.6 L 1542.7 1211.4 L 1535.6 1229.1 L 1528.1 1246.7 L 1519.9 1264.0 L 1511.3 1281.1 L 1502.2 1298.0 L 1492.5 1314.6 L 1482.3 1330.9 L 1471.6 1347.0 L 1460.4 1362.8 L 1448.8 1378.3 L 1436.6 1393.4 L 1424.0 1408.2 L 1410.9 1422.7 L 1397.4 1436.7 L 1383.5 1450.4 L 1369.1 1463.7 L 1354.3 1476.6 L 1339.0 1489.1 L 1323.4 1501.1 L 1307.5 1512.7 L 1291.1 1523.8 L 1274.4 1534.4 L 1257.4 1544.6 L 1240.0 1554.2 L 1222.3 1563.4 L 1204.3 1572.0 L 1186.0 1580.1 L 1167.5 1587.7 L 1148.7 1594.8 L 1129.7 1601.3 L 1110.5 1607.2 L 1091.0 1612.5 L 1071.4 1617.3 L 1051.6 1621.5 L 1031.7 1625.2 L 1011.6 1628.2 L 991.4 1630.7 L 971.1 1632.5 L 950.7 1633.7 L 930.3 1634.4 L 909.8 1634.4 L 889.3 1633.8 L 868.8 1632.6 L 848.2 1630.8 L 827.8 1628.4 L 807.3 1625.3 L 786.9 1621.7 L 766.6 1617.4 L 746.4 1612.5 L 726.4 1607.0 L 706.4 1600.9 L 686.7 1594.2 L 667.1 1586.9 L 647.6 1579.0 L 628.4 1570.6 L 609.5 1561.5 L 590.7 1551.9 L 572.3 1541.6 L 554.1 1530.9 L 536.2 1519.5 L 518.6 1507.7 L 501.4 1495.3 L 484.5 1482.3 L 468.0 1468.8 L 451.9 1454.9 L 436.1 1440.4 L 420.8 1425.4 L 405.9 1410.0 L 391.4 1394.1 L 377.4 1377.8 L 363.9 1361.0 L 350.8 1343.8 L 338.3 1326.1 L 326.2 1308.1 L 314.7 1289.7 L 303.7 1271.0 L 293.3 1251.8 L 283.4 1232.4 L 274.1 1212.6 L 265.3 1192.6 L 257.2 1172.2 L 249.6 1151.6 L 242.7 1130.7 L 236.4 1109.6 L 230.7 1088.3 L 225.6 1066.8 L 221.1 1045.1 L 217.3 1023.3 L 214.2 1001.3 L 211.7 979.2 L 209.8 957.0 L 208.6 934.7 L 208.1 912.3 L 208.2 889.9 L 209.0 867.5 L 210.5 845.1 L 212.6 822.7 L 215.5 800.4 L 218.9 778.1 L 223.1 755.8 L 227.9 733.7 L 233.4 711.7 L 239.5 689.8 L 246.4 668.1 L 253.8 646.6 L 261.9 625.3 L 270.7 604.2 L 280.1 583.3 L 290.1 562.7 L 300.8 542.3 L 312.0 522.3 L 323.9 502.5 L 336.4 483.1 L 349.5 464.1 L 363.1 445.4 L 377.3 427.1 L 392.1 409.2 L 407.5 391.7 L 423.4 374.7 L 439.8 358.1 L 456.7 342.0 L 474.1 326.4 L 492.0 311.3 L 510.4 296.7 L 529.2 282.6 L 548.4 269.1 L 568.1 256.1 L 588.2 243.7 L 608.7 231.9 L 629.6 220.7 L 650.8 210.1 L 672.3 200.1 L 694.2 190.7 L 716.4 182.0 L 738.8 174.0 L 761.6 166.6 L 784.5 159.9 L 807.7 153.8 L 831.1 148.4 L 854.7 143.8 L 878.5 139.8 L 902.4 136.5 L 926.4 133.9 L 950.5 132.1 L 974.7 131.0 L 998.9 130.5 L 1023.2 130.9 L 1047.5 131.9 L 1071.8 133.6 L 1096.1 136.1 L 1120.3 139.3 L 1144.5 143.3 L 1168.5 147.9 L 1192.5 153.3 L 1216.3 159.4 L 1239.9 166.2 L 1263.4 173.7 L 1286.7 182.0 L 1309.8 190.9 L 1332.6 200.5 L 1355.1 210.8 L 1377.4 221.8 L 1399.3 233.5 L 1421.0 245.9 L 1442.2 258.9 L 1463.2 272.5 L 1483.7 286.8 L 1503.8 301.7 L 1523.5 317.2 L 1542.8 333.3 L 1561.6 350.0 L 1579.9 367.3 L 1597.7 385.2 L 1615.0 403.6 L 1631.8 422.5 L 1648.0 442.0 L 1663.7 461.9 L 1678.8 482.4 L 1693.3 503.3 L 1707.2 524.6 L 1720.4 546.4 L 1733.1 568.6 L 1745.0 591.2 L 1756.4 614.2 L 1767.0 637.6 L 1777.0 661.3 L 1786.2 685.3 L 1794.8 709.6 L 1802.6 734.1 L 1809.7 759.0 L 1816.1 784.1 L 1821.7 809.3 L 1826.6 834.8 L 1830.8 860.5 L 1834.1 886.3 L 1836.8 912.2 L 1838.6 938.2 L 1839.7 964.3 L 1840.0 990.5 L 1839.5 1016.7 L 1838.2 1042.9 L 1836.2 1069.0 L 1833.3 1095.2 L 1829.7 1121.3 L 1825.3 1147.3 L 1820.2 1173.2 L 1814.2 1199.0 L 1807.5 1224.6 L 1800.0 1250.0 L 1791.8 1275.3 L 1782.8 1300.3 L 1773.0 1325.0 L 1762.5 1349.5 L 1751.2 1373.8 L 1739.3 1397.7 L 1726.6 1421.2 L 1713.2 1444.4 L 1699.0 1467.3 L 1684.2 1489.7 L 1668.7 1511.7" fill="none" stroke="rgb(221,221,221)" stroke-width="1.0"/>
<circle cx="960.00" cy="644.33" r="25.44" fill="rgb(25,120,20)" stroke="rgb(51,51,51)" stroke-width="3.0"/>
<circle cx="1029.28" cy="642.98" r="12.43" fill="rgb(210,130,30)" stroke="rgb(51,51,51)" stroke-width="3.0"/>
<circle cx="1099.05" cy="657.76" r="15.85" fill="rgb(240,215,50)" stroke="rgb(51,51,51)" stroke-width="3.0"/>
<circle cx="1165.52" cy="688.78" r="6.22" fill="rgb(45,25,10)" stroke="rgb(51,51,51)" stroke-width="2.0"/>
<circle cx="1224.88" cy="735.27" r="4.40" fill="rgb(45,25,10)" stroke="rgb(51,51,51)" stroke-width="2.0"/>
<circle cx="1273.49" cy="795.53" r="13.55" fill="rgb(230,175,40)" stroke="rgb(51,51,51)" stroke-width="3.0"/>
<circle cx="1326.01" cy="1030.04" r="26.37" fill="rgb(25,120,20)" stroke="rgb(51,51,51)" stroke-width="3.0"/>
<circle cx="1306.49" cy="1113.36" r="18.90" fill="rgb(165,200,50)" stroke="rgb(51,51,51)" stroke-width="3.0"/>
<circle cx="1267.83" cy="1191.99" r="6.22" fill="rgb(45,25,10)" stroke="rgb(51,51,51)" stroke-width="2.0"/>
<circle cx="1211.20" cy="1261.49" r="12.81" fill="rgb(210,130,30)" stroke="rgb(51,51,51)" stroke-width="3.0"/>
<circle cx="1138.78" cy="1317.74" r="10.31" fill="rgb(130,70,20)" stroke="rgb(51,51,51)" stroke-width="3.0"/>
<circle cx="1053.73" cy="1357.14" r="11.21" fill="rgb(175,95,25)" stroke="rgb(51,51,51)" stroke-width="3.0"/>
<circle cx="960.00" cy="1376.86" r="16.45" fill="rgb(240,215,50)" stroke="rgb(51,51,51)" stroke-width="3.0"/>
<circle cx="862.20" cy="1375.00" r="14.24" fill="rgb(230,175,40)" stroke="rgb(51,51,51)" stroke-width="3.0"/>
<circle cx="765.33" cy="1350.74" r="9.83" fill="rgb(130,70,20)" stroke="rgb(51,51,51)" stroke-width="3.0"/>
<circle cx="674.55" cy="1304.44" r="12.43" fill="rgb(210,130,30)" stroke="rgb(51,51,51)" stroke-width="3.0"/>
<circle cx="594.90" cy="1237.66" r="7.61" fill="rgb(85,45,15)" stroke="rgb(51,51,51)" stroke-width="2.0"/>
<circle cx="531.01" cy="1153.09" r="13.90" fill="rgb(230,175,40)" stroke="rgb(51,51,51)" stroke-width="3.0"/>
<circle cx="486.87" cy="1054.49" r="6.22" fill="rgb(45,25,10)" stroke="rgb(51,51,51)" stroke-width="2.0"/>
<circle cx="465.55" cy="946.50" r="10.31" fill="rgb(130,70,20)" stroke="rgb(51,51,51)" stroke-width="3.0"/>
<circle cx="469.02" cy="834.44" r="25.25" fill="rgb(25,120,20)" stroke="rgb(51,51,51)" stroke-width="3.0"/>
<circle cx="498.01" cy="724.02" r="21.53" fill="rgb(80,165,40)" stroke="rgb(51,51,51)" stroke-width="3.0"/>
<circle cx="628.88" cy="531.28" r="16.15" fill="rgb(240,215,50)" stroke="rgb(51,51,51)" stroke-width="3.0"/>
<circle cx="725.60" cy="459.76" r="9.32" fill="rgb(130,70,20)" stroke="rgb(51,51,51)" stroke-width="3.0"/>
<circle cx="837.75" cy="410.88" r="10.77" fill="rgb(175,95,25)" stroke="rgb(51,51,51)" stroke-width="3.0"/>
<circle cx="960.00" cy="387.95" r="19.66" fill="rgb(165,200,50)" stroke="rgb(51,51,51)" stroke-width="3.0"/>
<circle cx="1086.33" cy="393.03" r="6.95" fill="rgb(85,45,15)" stroke="rgb(51,51,51)" stroke-width="2.0"/>
<circle cx="1210.29" cy="426.76" r="9.32" fill="rgb(130,70,20)" stroke="rgb(51,51,51)" stroke-width="3.0"/>
<circle cx="1325.38" cy="488.33" r="9.32" fill="rgb(130,70,20)" stroke="rgb(51,51,51)" stroke-width="3.0"/>
<circle cx="1425.33" cy="575.41" r="6.95" fill="rgb(85,45,15)" stroke="rgb(51,51,51)" stroke-width="2.0"/>
<circle cx="1504.49" cy="684.29" r="5.38" fill="rgb(45,25,10)" stroke="rgb(51,51,51)" stroke-width="2.0"/>
<circle cx="1558.11" cy="809.99" r="3.11" fill="rgb(15,10,5)" stroke="rgb(51,51,51)" stroke-width="2.0"/>
<circle cx="1582.65" cy="946.50" r="23.67" fill="rgb(80,165,40)" stroke="rgb(51,51,51)" stroke-width="3.0"/>
<circle cx="1575.96" cy="1087.09" r="22.63" fill="rgb(80,165,40)" stroke="rgb(51,51,51)" stroke-width="3.0"/>
<circle cx="1537.48" cy="1224.60" r="32.15" fill="rgb(25,120,20)" stroke="rgb(51,51,51)" stroke-width="3.0"/>
<circle cx="1468.28" cy="1351.84" r="13.19" fill="rgb(210,130,30)" stroke="rgb(51,51,51)" stroke-width="3.0"/>
<circle cx="1371.05" cy="1461.94" r="8.79" fill="rgb(85,45,15)" stroke="rgb(51,51,51)" stroke-width="3.0"/>
<circle cx="1250.02" cy="1548.73" r="23.05" fill="rgb(80,165,40)" stroke="rgb(51,51,51)" stroke-width="3.0"/>
<circle cx="1110.78" cy="1607.10" r="10.31" fill="rgb(130,70,20)" stroke="rgb(51,51,51)" stroke-width="3.0"/>
<circle cx="960.00" cy="1633.24" r="25.25" fill="rgb(25,120,20)" stroke="rgb(51,51,51)" stroke-width="3.0"/>
<circle cx="805.15" cy="1624.95" r="27.09" fill="rgb(25,120,20)" stroke="rgb(51,51,51)" stroke-width="3.0"/>
<circle cx="654.09" cy="1581.73" r="11.63" fill="rgb(175,95,25)" stroke="rgb(51,51,51)" stroke-width="3.0"/>
<circle cx="514.70" cy="1504.89" r="19.41" fill="rgb(165,200,50)" stroke="rgb(51,51,51)" stroke-width="3.0"/>
<circle cx="394.45" cy="1397.51" r="12.04" fill="rgb(210,130,30)" stroke="rgb(51,51,51)" stroke-width="3.0"/>
<circle cx="300.02" cy="1264.33" r="18.12" fill="rgb(240,215,50)" stroke="rgb(51,51,51)" stroke-width="3.0"/>
<circle cx="236.91" cy="1111.54" r="12.81" fill="rgb(210,130,30)" stroke="rgb(51,51,51)" stroke-width="3.0"/>
<circle cx="209.16" cy="946.50" r="21.53" fill="rgb(80,165,40)" stroke="rgb(51,51,51)" stroke-width="3.0"/>
<circle cx="219.06" cy="777.39" r="30.45" fill="rgb(25,120,20)" stroke="rgb(51,51,51)" stroke-width="3.0"/>
<circle cx="267.02" cy="612.78" r="18.39" fill="rgb(165,200,50)" stroke="rgb(51,51,51)" stroke-width="3.0"/>
<circle cx="351.49" cy="461.23" r="11.63" fill="rgb(175,95,25)" stroke="rgb(51,51,51)" stroke-width="3.0"/>
<circle cx="469.02" cy="330.84" r="11.21" fill="rgb(175,95,25)" stroke="rgb(51,51,51)" stroke-width="3.0"/>
<circle cx="614.36" cy="228.77" r="5.38" fill="rgb(45,25,10)" stroke="rgb(51,51,51)" stroke-width="2.0"/>
<circle cx="780.70" cy="160.92" r="18.39" fill="rgb(165,200,50)" stroke="rgb(51,51,51)" stroke-width="3.0"/>
<circle cx="960.00" cy="131.57" r="14.24" fill="rgb(230,175,40)" stroke="rgb(51,51,51)" stroke-width="3.0"/>
<circle cx="1143.38" cy="143.07" r="22.19" fill="rgb(80,165,40)" stroke="rgb(51,51,51)" stroke-width="3.0"/>
<circle cx="1321.53" cy="195.77" r="15.85" fill="rgb(240,215,50)" stroke="rgb(51,51,51)" stroke-width="3.0"/>
<circle cx="1485.23" cy="287.88" r="10.77" fill="rgb(175,95,25)" stroke="rgb(51,51,51)" stroke-width="3.0"/>
<circle cx="1625.78" cy="415.56" r="3.11" fill="rgb(15,10,5)" stroke="rgb(51,51,51)" stroke-width="2.0"/>
<circle cx="1735.48" cy="573.05" r="8.79" fill="rgb(85,45,15)" stroke="rgb(51,51,51)" stroke-width="3.0"/>
<circle cx="1808.06" cy="752.93" r="14.90" fill="rgb(230,175,40)" stroke="rgb(51,51,51)" stroke-width="3.0"/>
<circle cx="1839.03" cy="946.50" r="33.90" fill="rgb(25,120,20)" stroke="rgb(51,51,51)" stroke-width="3.0"/>
<circle cx="1825.92" cy="1144.14" r="20.38" fill="rgb(165,200,50)" stroke="rgb(51,51,51)" stroke-width="3.0"/>
<circle cx="1668.73" cy="1511.69" r="13.55" fill="rgb(230,175,40)" stroke="rgb(51,51,51)" stroke-width="3.0"/>
<text x="960.00" y="614.89" fill="rgb(34,34,34)" font-size="12.0" font-family="sans-serif" text-anchor="start" dominant-baseline="central">Apr 4</text>
<text x="960.00" y="364.29" fill="rgb(34,34,34)" font-size="12.0" font-family="sans-serif" text-anchor="start" dominant-baseline="central" transform="rotate(360.00 960.00 364.29)">May 2</text>
<text x="960.00" y="113.32" fill="rgb(34,34,34)" font-size="12.0" font-family="sans-serif" text-anchor="start" dominant-baseline="central" transform="rotate(720.00 960.00 113.32)">May 30</text>
<rect x="1796.00" y="1534.00" width="108.00" height="370.00" fill="rgba(255,255,255,0.902)" stroke="rgba(153,153,153,0.800)" stroke-width="1.0"/>
<text x="1832.00" y="1554.00" fill="rgb(38,38,38)" font-size="13.0" font-family="sans-serif" text-anchor="middle" dominant-baseline="central">Fill</text>
<text x="1832.00" y="1570.00" fill="rgb(38,38,38)" font-size="13.0" font-family="sans-serif" text-anchor="middle" dominant-baseline="central">commit-count</text>
<rect x="1808.00" y="1584.00" width="28.00" height="28.00" fill="rgb(15,10,5)" stroke="rgb(102,102,102)" stroke-width="0.5"/>
<text x="1842.00" y="1612.00" fill="rgb(51,51,51)" font-size="12.0" font-family="sans-serif" text-anchor="start" dominant-baseline="central">2</text>
<rect x="1808.00" y="1612.00" width="28.00" height="28.00" fill="rgb(45,25,10)" stroke="rgb(102,102,102)" stroke-width="0.5"/>
<text x="1842.00" y="1640.00" fill="rgb(51,51,51)" font-size="12.0" font-family="sans-serif" text-anchor="start" dominant-baseline="central">5</text>
<rect x="1808.00" y="1640.00" width="28.00" height="28.00" fill="rgb(85,45,15)" stroke="rgb(102,102,102)" stroke-width="0.5"/>
<text x="1842.00" y="1668.00" fill="rgb(51,51,51)" font-size="12.0" font-family="sans-serif" text-anchor="start" dominant-baseline="central">9</text>
<rect x="1808.00" y="1668.00" width="28.00" height="28.00" fill="rgb(130,70,20)" stroke="rgb(102,102,102)" stroke-width="0.5"/>
<text x="1842.00" y="1696.00" fill="rgb(51,51,51)" font-size="12.0" font-family="sans-serif" text-anchor="start" dominant-baseline="central">12</text>
<rect x="1808.00" y="1696.00" width="28.00" height="28.00" fill="rgb(175,95,25)" stroke="rgb(102,102,102)" stroke-width="0.5"/>
<text x="1842.00" y="1724.00" fill="rgb(51,51,51)" font-size="12.0" font-family="sans-serif" text-anchor="start" dominant-baseline="central">15</text>
<rect x="1808.00" y="1724.00" width="28.00" height="28.00" fill="rgb(210,130,30)" stroke="rgb(102,102,102)" stroke-width="0.5"/>
<text x="1842.00" y="1752.00" fill="rgb(51,51,51)" font-size="12.0" font-family="sans-serif" text-anchor="start" dominant-baseline="central">19</text>
<rect x="1808.00" y="1752.00" width="28.00" height="28.00" fill="rgb(230,175,40)" stroke="rgb(102,102,102)" stroke-width="0.5"/>
<text x="1842.00" y="1780.00" fill="rgb(51,51,51)" font-size="12.0" font-family="sans-serif" text-anchor="start" dominant-baseline="central">26</text>
<rect x="1808.00" y="1780.00" width="28.00" height="28.00" fill="rgb(240,215,50)" stroke="rgb(102,102,102)" stroke-width="0.5"/>
<text x="1842.00" y="1808.00" fill="rgb(51,51,51)" font-size="12.0" font-family="sans-serif" text-anchor="start" dominant-baseline="central">35</text>
<rect x="1808.00" y="1808.00" width="28.00" height="28.00" fill="rgb(165,200,50)" stroke="rgb(102,102,102)" stroke-width="0.5"/>
<text x="1842.00" y="1836.00" fill="rgb(51,51,51)" font-size="12.0" font-family="sans-serif" text-anchor="start" dominant-baseline="central">48</text>
<rect x="1808.00" y="1836.00" width="28.00" height="28.00" fill="rgb(80,165,40)" stroke="rgb(102,102,102)" stroke-width="0.5"/>
<text x="1842.00" y="1864.00" fill="rgb(51,51,51)" font-size="12.0" font-family="sans-serif" text-anchor="start" dominant-baseline="central">66</text>
<rect x="1808.00" y="1864.00" width="28.00" height="28.00" fill="rgb(25,120,20)" stroke="rgb(102,102,102)" stroke-width="0.5"/>
<text x="960.00" y="1906.00" fill="rgba(128,128,128,0.784)" font-size="13.0" font-family="sans-serif" text-anchor="middle" dominant-baseline="central">Generated by github.com/theunrepentantgeek/code-visualizer at 21:13:13 on 2026-06-10</text>
</svg>
