<svg xmlns="http://www.w3.org/2000/svg" width="1920" height="1080">
<rect x="0.00" y="0.00" width="1920.00" height="1080.00" fill="rgb(255,255,255)" stroke="rgb(255,255,255)" stroke-width="0.0"/>
<circle cx="747.19" cy="540.00" r="313.03" fill="rgba(102,153,204,0.188)" stroke="rgb(51,51,51)" stroke-width="0.5"/>
<circle cx="1274.09" cy="540.00" r="211.75" fill="rgba(102,153,204,0.188)" stroke="rgb(51,51,51)" stroke-width="0.5"/>
<circle cx="1260.67" cy="540.00" r="184.17" fill="rgba(102,153,204,0.188)" stroke="rgb(51,51,51)" stroke-width="0.5"/>
<circle cx="699.20" cy="564.35" r="128.66" fill="rgba(102,153,204,0.188)" stroke="rgb(51,51,51)" stroke-width="0.5"/>
<circle cx="1211.09" cy="540.00" r="120.44" fill="rgba(102,153,204,0.188)" stroke="rgb(51,51,51)" stroke-width="0.5"/>
<circle cx="937.25" cy="564.35" r="107.26" fill="rgba(102,153,204,0.188)" stroke="rgb(51,51,51)" stroke-width="0.5"/>
<circle cx="838.30" cy="376.22" r="103.17" fill="rgba(102,153,204,0.188)" stroke="rgb(51,51,51)" stroke-width="0.5"/>
<circle cx="683.45" cy="564.35" r="98.75" fill="rgba(102,153,204,0.188)" stroke="rgb(51,51,51)" stroke-width="0.5"/>
<circle cx="1079.28" cy="303.46" r="92.56" fill="rgba(102,153,204,0.188)" stroke="rgb(51,51,51)" stroke-width="0.5"/>
<circle cx="1079.28" cy="303.46" r="78.41" fill="rgba(102,153,204,0.188)" stroke="rgb(51,51,51)" stroke-width="0.5"/>
<circle cx="833.88" cy="690.90" r="54.02" fill="rgba(102,153,204,0.188)" stroke="rgb(51,51,51)" stroke-width="0.5"/>
<circle cx="801.73" cy="376.22" r="52.45" fill="rgba(102,153,204,0.188)" stroke="rgb(51,51,51)" stroke-width="0.5"/>
<circle cx="683.36" cy="384.40" r="49.86" fill="rgba(102,153,204,0.188)" stroke="rgb(51,51,51)" stroke-width="0.5"/>
<circle cx="650.67" cy="578.64" r="48.84" fill="rgba(102,153,204,0.188)" stroke="rgb(51,51,51)" stroke-width="0.5"/>
<circle cx="1382.17" cy="540.00" r="48.52" fill="rgba(102,153,204,0.188)" stroke="rgb(51,51,51)" stroke-width="0.5"/>
<circle cx="742.37" cy="735.38" r="45.61" fill="rgba(102,153,204,0.188)" stroke="rgb(51,51,51)" stroke-width="0.5"/>
<circle cx="654.03" cy="729.86" r="40.78" fill="rgba(102,153,204,0.188)" stroke="rgb(51,51,51)" stroke-width="0.5"/>
<circle cx="581.70" cy="688.72" r="40.31" fill="rgba(102,153,204,0.188)" stroke="rgb(51,51,51)" stroke-width="0.5"/>
<circle cx="603.01" cy="425.39" r="38.21" fill="rgba(102,153,204,0.188)" stroke="rgb(51,51,51)" stroke-width="0.5"/>
<circle cx="916.13" cy="575.05" r="37.81" fill="rgba(102,153,204,0.188)" stroke="rgb(51,51,51)" stroke-width="0.5"/>
<circle cx="552.12" cy="483.62" r="37.00" fill="rgba(102,153,204,0.188)" stroke="rgb(51,51,51)" stroke-width="0.5"/>
<circle cx="992.70" cy="575.05" r="36.64" fill="rgba(102,153,204,0.188)" stroke="rgb(51,51,51)" stroke-width="0.5"/>
<circle cx="955.57" cy="510.22" r="35.96" fill="rgba(102,153,204,0.188)" stroke="rgb(51,51,51)" stroke-width="0.5"/>
<circle cx="891.81" cy="376.22" r="35.51" fill="rgba(102,153,204,0.188)" stroke="rgb(51,51,51)" stroke-width="0.5"/>
<circle cx="1068.28" cy="680.55" r="35.35" fill="rgba(102,153,204,0.188)" stroke="rgb(51,51,51)" stroke-width="0.5"/>
<circle cx="533.65" cy="555.41" r="35.01" fill="rgba(102,153,204,0.188)" stroke="rgb(51,51,51)" stroke-width="0.5"/>
<circle cx="483.54" cy="506.23" r="33.08" fill="rgba(102,153,204,0.188)" stroke="rgb(51,51,51)" stroke-width="0.5"/>
<circle cx="733.84" cy="578.64" r="32.22" fill="rgba(102,153,204,0.188)" stroke="rgb(51,51,51)" stroke-width="0.5"/>
<circle cx="648.19" cy="578.64" r="32.20" fill="rgba(102,153,204,0.188)" stroke="rgb(51,51,51)" stroke-width="0.5"/>
<circle cx="707.21" cy="517.65" r="32.20" fill="rgba(102,153,204,0.188)" stroke="rgb(51,51,51)" stroke-width="0.5"/>
<circle cx="548.55" cy="621.06" r="30.19" fill="rgba(102,153,204,0.188)" stroke="rgb(51,51,51)" stroke-width="0.5"/>
<circle cx="489.39" cy="604.65" r="29.08" fill="rgba(102,153,204,0.188)" stroke="rgb(51,51,51)" stroke-width="0.5"/>
<circle cx="892.40" cy="514.38" r="25.22" fill="rgba(102,153,204,0.188)" stroke="rgb(51,51,51)" stroke-width="0.5"/>
<circle cx="540.25" cy="423.18" r="22.47" fill="rgba(102,153,204,0.188)" stroke="rgb(51,51,51)" stroke-width="0.5"/>
<circle cx="1068.28" cy="680.55" r="21.20" fill="rgba(102,153,204,0.188)" stroke="rgb(51,51,51)" stroke-width="0.5"/>
<circle cx="1059.93" cy="417.30" r="20.79" fill="rgba(102,153,204,0.188)" stroke="rgb(51,51,51)" stroke-width="0.5"/>
<circle cx="704.46" cy="622.47" r="18.43" fill="rgba(102,153,204,0.188)" stroke="rgb(51,51,51)" stroke-width="0.5"/>
<circle cx="1028.05" cy="717.13" r="16.90" fill="rgba(102,153,204,0.188)" stroke="rgb(51,51,51)" stroke-width="0.5"/>
<circle cx="731.37" cy="578.96" r="15.57" fill="rgba(102,153,204,0.188)" stroke="rgb(51,51,51)" stroke-width="0.5"/>
<circle cx="704.73" cy="517.65" r="15.57" fill="rgba(102,153,204,0.188)" stroke="rgb(51,51,51)" stroke-width="0.5"/>
<circle cx="645.71" cy="578.64" r="15.57" fill="rgba(102,153,204,0.188)" stroke="rgb(51,51,51)" stroke-width="0.5"/>
<circle cx="1059.45" cy="450.02" r="9.81" fill="rgb(31,120,180)" stroke="rgb(0,68,27)" stroke-width="0.5"/>
<circle cx="994.84" cy="744.99" r="6.33" fill="rgb(106,61,154)" stroke="rgb(253,174,97)" stroke-width="0.5"/>
<circle cx="977.30" cy="761.25" r="4.07" fill="rgb(255,127,0)" stroke="rgb(254,224,139)" stroke-width="0.5"/>
<circle cx="970.13" cy="766.87" r="2.92" fill="rgb(251,154,153)" stroke="rgb(26,152,80)" stroke-width="0.5"/>
<circle cx="1061.08" cy="468.63" r="6.75" fill="rgb(31,120,180)" stroke="rgb(26,152,80)" stroke-width="0.5"/>
<circle cx="985.08" cy="753.72" r="4.64" fill="rgb(178,223,138)" stroke="rgb(244,109,67)" stroke-width="0.5"/>
<circle cx="1006.28" cy="733.15" r="8.01" fill="rgb(227,26,28)" stroke="rgb(254,224,139)" stroke-width="0.5"/>
<circle cx="1049.70" cy="296.52" r="12.30" fill="rgb(166,206,227)" stroke="rgb(215,48,39)" stroke-width="0.5"/>
<circle cx="1031.53" cy="314.70" r="11.28" fill="rgb(166,206,227)" stroke="rgb(253,174,97)" stroke-width="0.5"/>
<circle cx="1041.32" cy="272.48" r="11.03" fill="rgb(166,206,227)" stroke="rgb(253,174,97)" stroke-width="0.5"/>
<circle cx="1110.94" cy="264.69" r="4.31" fill="rgb(166,206,227)" stroke="rgb(215,48,39)" stroke-width="0.5"/>
<circle cx="1131.58" cy="315.43" r="5.48" fill="rgb(166,206,227)" stroke="rgb(217,239,139)" stroke-width="0.5"/>
<circle cx="1129.93" cy="291.73" r="4.19" fill="rgb(166,206,227)" stroke="rgb(102,189,99)" stroke-width="0.5"/>
<circle cx="1073.30" cy="334.61" r="7.56" fill="rgb(166,206,227)" stroke="rgb(244,109,67)" stroke-width="0.5"/>
<circle cx="1091.75" cy="350.48" r="6.49" fill="rgb(166,206,227)" stroke="rgb(254,224,139)" stroke-width="0.5"/>
<circle cx="1037.19" cy="337.42" r="10.01" fill="rgb(166,206,227)" stroke="rgb(254,224,139)" stroke-width="0.5"/>
<circle cx="1025.92" cy="292.26" r="9.73" fill="rgb(166,206,227)" stroke="rgb(217,239,139)" stroke-width="0.5"/>
<circle cx="1078.79" cy="303.68" r="15.54" fill="rgb(166,206,227)" stroke="rgb(253,174,97)" stroke-width="0.5"/>
<circle cx="1075.26" cy="350.77" r="6.60" fill="rgb(166,206,227)" stroke="rgb(215,48,39)" stroke-width="0.5"/>
<circle cx="1121.31" cy="277.67" r="10.18" fill="rgb(166,206,227)" stroke="rgb(255,255,255)" stroke-width="0.5"/>
<circle cx="1067.07" cy="275.59" r="12.78" fill="rgb(166,206,227)" stroke="rgb(215,48,39)" stroke-width="0.5"/>
<circle cx="1095.46" cy="329.29" r="12.90" fill="rgb(166,206,227)" stroke="rgb(253,174,97)" stroke-width="0.5"/>
<circle cx="1081.90" cy="254.47" r="10.90" fill="rgb(166,206,227)" stroke="rgb(253,174,97)" stroke-width="0.5"/>
<circle cx="1077.99" cy="323.33" r="2.00" fill="rgb(166,206,227)" stroke="rgb(166,217,106)" stroke-width="0.5"/>
<circle cx="1071.84" cy="322.21" r="2.12" fill="rgb(166,206,227)" stroke="rgb(215,48,39)" stroke-width="0.5"/>
<circle cx="1055.71" cy="322.13" r="11.89" fill="rgb(166,206,227)" stroke="rgb(215,48,39)" stroke-width="0.5"/>
<circle cx="1057.42" cy="345.86" r="9.78" fill="rgb(166,206,227)" stroke="rgb(253,174,97)" stroke-width="0.5"/>
<circle cx="1111.83" cy="303.68" r="15.38" fill="rgb(166,206,227)" stroke="rgb(244,109,67)" stroke-width="0.5"/>
<circle cx="1100.88" cy="256.28" r="6.05" fill="rgb(166,206,227)" stroke="rgb(255,255,191)" stroke-width="0.5"/>
<circle cx="1121.01" cy="330.18" r="10.55" fill="rgb(166,206,227)" stroke="rgb(215,48,39)" stroke-width="0.5"/>
<circle cx="1109.70" cy="349.12" r="9.39" fill="rgb(166,206,227)" stroke="rgb(254,224,139)" stroke-width="0.5"/>
<circle cx="1095.46" cy="277.31" r="13.54" fill="rgb(166,206,227)" stroke="rgb(244,109,67)" stroke-width="0.5"/>
<circle cx="1054.97" cy="254.40" r="9.50" fill="rgb(166,206,227)" stroke="rgb(253,174,97)" stroke-width="0.5"/>
<circle cx="1459.33" cy="540.00" r="12.36" fill="rgb(253,191,111)" stroke="rgb(215,48,39)" stroke-width="0.5"/>
<circle cx="1433.75" cy="462.93" r="3.17" fill="rgb(106,61,154)" stroke="rgb(215,48,39)" stroke-width="0.5"/>
<circle cx="1450.40" cy="491.63" r="9.50" fill="rgb(253,191,111)" stroke="rgb(215,48,39)" stroke-width="0.5"/>
<circle cx="1449.56" cy="554.70" r="3.17" fill="rgb(106,61,154)" stroke="rgb(215,48,39)" stroke-width="0.5"/>
<circle cx="1443.50" cy="472.71" r="8.52" fill="rgb(31,120,180)" stroke="rgb(217,239,139)" stroke-width="0.5"/>
<circle cx="1456.90" cy="513.98" r="11.65" fill="rgb(31,120,180)" stroke="rgb(255,255,255)" stroke-width="0.5"/>
<circle cx="1151.94" cy="587.48" r="23.04" fill="rgb(31,120,180)" stroke="rgb(26,152,80)" stroke-width="0.5"/>
<circle cx="1278.87" cy="536.40" r="38.40" fill="rgb(31,120,180)" stroke="rgb(26,152,80)" stroke-width="0.5"/>
<circle cx="1269.81" cy="590.11" r="13.94" fill="rgb(31,120,180)" stroke="rgb(26,152,80)" stroke-width="0.5"/>
<circle cx="1196.03" cy="536.40" r="42.31" fill="rgb(31,120,180)" stroke="rgb(255,255,191)" stroke-width="0.5"/>
<circle cx="1128.53" cy="544.72" r="23.58" fill="rgb(31,120,180)" stroke="rgb(215,48,39)" stroke-width="0.5"/>
<circle cx="1196.92" cy="603.37" r="22.54" fill="rgb(31,120,180)" stroke="rgb(215,48,39)" stroke-width="0.5"/>
<circle cx="1140.60" cy="496.88" r="23.64" fill="rgb(31,120,180)" stroke="rgb(215,48,39)" stroke-width="0.5"/>
<circle cx="1182.57" cy="468.24" r="25.04" fill="rgb(31,120,180)" stroke="rgb(254,224,139)" stroke-width="0.5"/>
<circle cx="1240.95" cy="475.04" r="31.61" fill="rgb(31,120,180)" stroke="rgb(215,48,39)" stroke-width="0.5"/>
<circle cx="1240.21" cy="577.68" r="16.03" fill="rgb(31,120,180)" stroke="rgb(244,109,67)" stroke-width="0.5"/>
<circle cx="1389.43" cy="517.97" r="11.17" fill="rgb(31,120,180)" stroke="rgb(26,152,80)" stroke-width="0.5"/>
<circle cx="1401.56" cy="540.71" r="12.48" fill="rgb(31,120,180)" stroke="rgb(26,152,80)" stroke-width="0.5"/>
<circle cx="1373.65" cy="565.85" r="7.15" fill="rgb(31,120,180)" stroke="rgb(26,152,80)" stroke-width="0.5"/>
<circle cx="1370.94" cy="540.71" r="16.02" fill="rgb(31,120,180)" stroke="rgb(255,255,191)" stroke-width="0.5"/>
<circle cx="1389.01" cy="558.98" r="7.56" fill="rgb(31,120,180)" stroke="rgb(244,109,67)" stroke-width="0.5"/>
<circle cx="702.01" cy="384.40" r="17.05" fill="rgb(166,206,227)" stroke="rgb(166,217,106)" stroke-width="0.5"/>
<circle cx="665.25" cy="384.40" r="17.60" fill="rgb(166,206,227)" stroke="rgb(253,174,97)" stroke-width="0.5"/>
<circle cx="683.98" cy="370.49" r="3.61" fill="rgb(166,206,227)" stroke="rgb(254,224,139)" stroke-width="0.5"/>
<circle cx="865.62" cy="614.86" r="2.45" fill="rgb(166,206,227)" stroke="rgb(253,174,97)" stroke-width="0.5"/>
<circle cx="890.42" cy="616.69" r="9.01" fill="rgb(166,206,227)" stroke="rgb(215,48,39)" stroke-width="0.5"/>
<circle cx="864.33" cy="549.67" r="17.75" fill="rgb(166,206,227)" stroke="rgb(215,48,39)" stroke-width="0.5"/>
<circle cx="882.62" cy="630.15" r="4.42" fill="rgb(166,206,227)" stroke="rgb(255,255,191)" stroke-width="0.5"/>
<circle cx="856.62" cy="597.85" r="5.79" fill="rgb(166,206,227)" stroke="rgb(255,255,191)" stroke-width="0.5"/>
<circle cx="860.20" cy="607.47" r="2.35" fill="rgb(166,206,227)" stroke="rgb(254,224,139)" stroke-width="0.5"/>
<circle cx="874.19" cy="602.70" r="10.31" fill="rgb(166,206,227)" stroke="rgb(253,174,97)" stroke-width="0.5"/>
<circle cx="874.03" cy="620.92" r="5.79" fill="rgb(166,206,227)" stroke="rgb(254,224,139)" stroke-width="0.5"/>
<circle cx="940.50" cy="615.77" r="7.52" fill="rgb(166,206,227)" stroke="rgb(254,224,139)" stroke-width="0.5"/>
<circle cx="928.88" cy="626.79" r="6.37" fill="rgb(166,206,227)" stroke="rgb(254,224,139)" stroke-width="0.5"/>
<circle cx="932.82" cy="638.01" r="3.39" fill="rgb(166,206,227)" stroke="rgb(253,174,97)" stroke-width="0.5"/>
<circle cx="909.06" cy="623.02" r="8.55" fill="rgb(166,206,227)" stroke="rgb(254,224,139)" stroke-width="0.5"/>
<circle cx="886.42" cy="544.04" r="2.92" fill="rgb(166,206,227)" stroke="rgb(255,255,191)" stroke-width="0.5"/>
<circle cx="851.53" cy="569.97" r="4.13" fill="rgb(166,206,227)" stroke="rgb(255,255,191)" stroke-width="0.5"/>
<circle cx="955.86" cy="622.56" r="7.15" fill="rgb(166,206,227)" stroke="rgb(244,109,67)" stroke-width="0.5"/>
<circle cx="865.29" cy="580.77" r="11.24" fill="rgb(166,206,227)" stroke="rgb(215,48,39)" stroke-width="0.5"/>
<circle cx="955.15" cy="604.40" r="8.90" fill="rgb(166,206,227)" stroke="rgb(254,224,139)" stroke-width="0.5"/>
<circle cx="918.98" cy="530.88" r="3.94" fill="rgb(166,206,227)" stroke="rgb(255,255,191)" stroke-width="0.5"/>
<circle cx="969.20" cy="611.79" r="4.85" fill="rgb(166,206,227)" stroke="rgb(255,255,191)" stroke-width="0.5"/>
<circle cx="943.03" cy="631.71" r="6.49" fill="rgb(166,206,227)" stroke="rgb(215,48,39)" stroke-width="0.5"/>
<circle cx="895.41" cy="633.91" r="6.79" fill="rgb(166,206,227)" stroke="rgb(253,174,97)" stroke-width="0.5"/>
<circle cx="918.11" cy="633.88" r="3.47" fill="rgb(166,206,227)" stroke="rgb(253,174,97)" stroke-width="0.5"/>
<circle cx="921.64" cy="617.63" r="3.00" fill="rgb(166,206,227)" stroke="rgb(255,255,191)" stroke-width="0.5"/>
<circle cx="955.45" cy="552.88" r="4.59" fill="rgb(166,206,227)" stroke="rgb(255,255,191)" stroke-width="0.5"/>
<circle cx="908.58" cy="638.84" r="5.15" fill="rgb(166,206,227)" stroke="rgb(253,174,97)" stroke-width="0.5"/>
<circle cx="981.19" cy="576.13" r="10.92" fill="rgb(166,206,227)" stroke="rgb(215,48,39)" stroke-width="0.5"/>
<circle cx="1004.68" cy="576.13" r="10.45" fill="rgb(166,206,227)" stroke="rgb(244,109,67)" stroke-width="0.5"/>
<circle cx="983.21" cy="559.20" r="4.00" fill="rgb(166,206,227)" stroke="rgb(244,109,67)" stroke-width="0.5"/>
<circle cx="993.28" cy="563.15" r="4.69" fill="rgb(166,206,227)" stroke="rgb(244,109,67)" stroke-width="0.5"/>
<circle cx="898.67" cy="514.38" r="4.80" fill="rgb(166,206,227)" stroke="rgb(244,109,67)" stroke-width="0.5"/>
<circle cx="886.54" cy="514.38" r="5.20" fill="rgb(166,206,227)" stroke="rgb(254,224,139)" stroke-width="0.5"/>
<circle cx="929.31" cy="575.05" r="10.47" fill="rgb(166,206,227)" stroke="rgb(244,109,67)" stroke-width="0.5"/>
<circle cx="904.60" cy="575.05" r="12.12" fill="rgb(166,206,227)" stroke="rgb(253,174,97)" stroke-width="0.5"/>
<circle cx="967.38" cy="510.22" r="9.98" fill="rgb(166,206,227)" stroke="rgb(244,109,67)" stroke-width="0.5"/>
<circle cx="944.52" cy="510.22" r="10.76" fill="rgb(166,206,227)" stroke="rgb(253,174,97)" stroke-width="0.5"/>
<circle cx="835.20" cy="718.45" r="4.00" fill="rgb(166,206,227)" stroke="rgb(217,239,139)" stroke-width="0.5"/>
<circle cx="821.91" cy="671.39" r="9.20" fill="rgb(166,206,227)" stroke="rgb(217,239,139)" stroke-width="0.5"/>
<circle cx="826.21" cy="698.31" r="15.94" fill="rgb(166,206,227)" stroke="rgb(166,217,106)" stroke-width="0.5"/>
<circle cx="804.45" cy="682.02" r="9.12" fill="rgb(166,206,227)" stroke="rgb(166,217,106)" stroke-width="0.5"/>
<circle cx="858.46" cy="698.31" r="14.19" fill="rgb(166,206,227)" stroke="rgb(255,255,191)" stroke-width="0.5"/>
<circle cx="806.35" cy="706.42" r="3.39" fill="rgb(166,206,227)" stroke="rgb(217,239,139)" stroke-width="0.5"/>
<circle cx="843.85" cy="675.26" r="10.96" fill="rgb(166,206,227)" stroke="rgb(217,239,139)" stroke-width="0.5"/>
<circle cx="804.23" cy="697.20" r="3.94" fill="rgb(166,206,227)" stroke="rgb(217,239,139)" stroke-width="0.5"/>
<circle cx="843.49" cy="712.32" r="4.19" fill="rgb(166,206,227)" stroke="rgb(217,239,139)" stroke-width="0.5"/>
<circle cx="825.52" cy="720.03" r="3.68" fill="rgb(166,206,227)" stroke="rgb(0,68,27)" stroke-width="0.5"/>
<circle cx="669.85" cy="729.86" r="10.80" fill="rgb(166,206,227)" stroke="rgb(102,189,99)" stroke-width="0.5"/>
<circle cx="642.17" cy="729.86" r="14.76" fill="rgb(166,206,227)" stroke="rgb(102,189,99)" stroke-width="0.5"/>
<circle cx="494.72" cy="506.23" r="7.75" fill="rgb(166,206,227)" stroke="rgb(166,217,106)" stroke-width="0.5"/>
<circle cx="474.73" cy="506.23" r="10.11" fill="rgb(166,206,227)" stroke="rgb(166,217,106)" stroke-width="0.5"/>
<circle cx="497.56" cy="604.65" r="6.75" fill="rgb(166,206,227)" stroke="rgb(166,217,106)" stroke-width="0.5"/>
<circle cx="481.57" cy="604.65" r="7.11" fill="rgb(166,206,227)" stroke="rgb(0,68,27)" stroke-width="0.5"/>
<circle cx="489.84" cy="613.33" r="2.74" fill="rgb(166,206,227)" stroke="rgb(26,152,80)" stroke-width="0.5"/>
<circle cx="489.84" cy="595.86" r="2.83" fill="rgb(166,206,227)" stroke="rgb(26,152,80)" stroke-width="0.5"/>
<circle cx="533.05" cy="475.79" r="2.24" fill="rgb(166,206,227)" stroke="rgb(255,255,191)" stroke-width="0.5"/>
<circle cx="559.19" cy="470.12" r="6.71" fill="rgb(166,206,227)" stroke="rgb(255,255,255)" stroke-width="0.5"/>
<circle cx="537.91" cy="471.16" r="2.35" fill="rgb(166,206,227)" stroke="rgb(255,255,191)" stroke-width="0.5"/>
<circle cx="565.53" cy="484.48" r="6.86" fill="rgb(166,206,227)" stroke="rgb(255,255,255)" stroke-width="0.5"/>
<circle cx="559.13" cy="498.48" r="6.41" fill="rgb(166,206,227)" stroke="rgb(255,255,191)" stroke-width="0.5"/>
<circle cx="546.00" cy="466.64" r="4.80" fill="rgb(166,206,227)" stroke="rgb(166,217,106)" stroke-width="0.5"/>
<circle cx="545.62" cy="484.48" r="10.92" fill="rgb(166,206,227)" stroke="rgb(166,217,106)" stroke-width="0.5"/>
<circle cx="589.88" cy="412.82" r="5.88" fill="rgb(166,206,227)" stroke="rgb(0,68,27)" stroke-width="0.5"/>
<circle cx="603.66" cy="416.62" r="6.29" fill="rgb(166,206,227)" stroke="rgb(0,68,27)" stroke-width="0.5"/>
<circle cx="591.51" cy="431.69" r="10.94" fill="rgb(166,206,227)" stroke="rgb(217,239,139)" stroke-width="0.5"/>
<circle cx="615.05" cy="431.69" r="10.47" fill="rgb(166,206,227)" stroke="rgb(217,239,139)" stroke-width="0.5"/>
<circle cx="856.01" cy="395.44" r="3.00" fill="rgb(166,206,227)" stroke="rgb(102,189,99)" stroke-width="0.5"/>
<circle cx="807.91" cy="315.29" r="6.68" fill="rgb(166,206,227)" stroke="rgb(166,217,106)" stroke-width="0.5"/>
<circle cx="823.04" cy="318.76" r="6.71" fill="rgb(166,206,227)" stroke="rgb(102,189,99)" stroke-width="0.5"/>
<circle cx="841.58" cy="324.63" r="10.62" fill="rgb(166,206,227)" stroke="rgb(166,217,106)" stroke-width="0.5"/>
<circle cx="857.48" cy="342.03" r="10.83" fill="rgb(166,206,227)" stroke="rgb(102,189,99)" stroke-width="0.5"/>
<circle cx="903.20" cy="376.22" r="9.96" fill="rgb(166,206,227)" stroke="rgb(217,239,139)" stroke-width="0.5"/>
<circle cx="880.79" cy="376.22" r="10.33" fill="rgb(166,206,227)" stroke="rgb(217,239,139)" stroke-width="0.5"/>
<circle cx="892.24" cy="367.01" r="2.24" fill="rgb(166,206,227)" stroke="rgb(166,217,106)" stroke-width="0.5"/>
<circle cx="809.22" cy="360.85" r="10.59" fill="rgb(166,206,227)" stroke="rgb(217,239,139)" stroke-width="0.5"/>
<circle cx="789.28" cy="353.62" r="8.49" fill="rgb(166,206,227)" stroke="rgb(255,255,191)" stroke-width="0.5"/>
<circle cx="773.96" cy="359.00" r="5.62" fill="rgb(166,206,227)" stroke="rgb(217,239,139)" stroke-width="0.5"/>
<circle cx="785.97" cy="384.54" r="20.48" fill="rgb(166,206,227)" stroke="rgb(217,239,139)" stroke-width="0.5"/>
<circle cx="808.01" cy="396.23" r="2.35" fill="rgb(166,206,227)" stroke="rgb(255,255,191)" stroke-width="0.5"/>
<circle cx="823.53" cy="384.54" r="14.96" fill="rgb(166,206,227)" stroke="rgb(217,239,139)" stroke-width="0.5"/>
<circle cx="596.22" cy="688.72" r="11.63" fill="rgb(166,206,227)" stroke="rgb(26,152,80)" stroke-width="0.5"/>
<circle cx="569.00" cy="688.72" r="13.47" fill="rgb(166,206,227)" stroke="rgb(253,174,97)" stroke-width="0.5"/>
<circle cx="583.85" cy="676.54" r="3.61" fill="rgb(166,206,227)" stroke="rgb(255,255,255)" stroke-width="0.5"/>
<circle cx="781.14" cy="600.58" r="3.32" fill="rgb(166,206,227)" stroke="rgb(26,152,80)" stroke-width="0.5"/>
<circle cx="784.67" cy="591.81" r="4.00" fill="rgb(166,206,227)" stroke="rgb(102,189,99)" stroke-width="0.5"/>
<circle cx="792.22" cy="537.11" r="11.26" fill="rgb(166,206,227)" stroke="rgb(166,217,106)" stroke-width="0.5"/>
<circle cx="799.02" cy="564.35" r="14.69" fill="rgb(166,206,227)" stroke="rgb(102,189,99)" stroke-width="0.5"/>
<circle cx="787.12" cy="581.73" r="4.25" fill="rgb(166,206,227)" stroke="rgb(102,189,99)" stroke-width="0.5"/>
<circle cx="701.98" cy="623.90" r="1.42" fill="rgb(51,160,44)" stroke="rgb(0,68,27)" stroke-width="0.5"/>
<circle cx="706.94" cy="623.90" r="1.42" fill="rgb(166,206,227)" stroke="rgb(0,68,27)" stroke-width="0.5"/>
<circle cx="704.46" cy="619.61" r="1.42" fill="rgb(255,127,0)" stroke="rgb(0,68,27)" stroke-width="0.5"/>
<circle cx="683.93" cy="578.64" r="1.42" fill="rgb(255,127,0)" stroke="rgb(0,68,27)" stroke-width="0.5"/>
<circle cx="664.82" cy="578.64" r="1.42" fill="rgb(166,206,227)" stroke="rgb(0,68,27)" stroke-width="0.5"/>
<circle cx="645.71" cy="578.64" r="1.42" fill="rgb(31,120,180)" stroke="rgb(0,68,27)" stroke-width="0.5"/>
<circle cx="723.84" cy="517.65" r="1.42" fill="rgb(31,120,180)" stroke="rgb(26,152,80)" stroke-width="0.5"/>
<circle cx="704.73" cy="517.65" r="1.42" fill="rgb(166,206,227)" stroke="rgb(26,152,80)" stroke-width="0.5"/>
<circle cx="750.48" cy="578.96" r="1.42" fill="rgb(255,127,0)" stroke="rgb(0,68,27)" stroke-width="0.5"/>
<circle cx="749.84" cy="574.05" r="1.42" fill="rgb(255,127,0)" stroke="rgb(0,68,27)" stroke-width="0.5"/>
<circle cx="731.37" cy="578.96" r="1.42" fill="rgb(255,127,0)" stroke="rgb(0,68,27)" stroke-width="0.5"/>
<circle cx="750.98" cy="718.99" r="9.96" fill="rgb(166,206,227)" stroke="rgb(253,174,97)" stroke-width="0.5"/>
<circle cx="729.79" cy="740.27" r="17.95" fill="rgb(166,206,227)" stroke="rgb(253,174,97)" stroke-width="0.5"/>
<circle cx="720.95" cy="718.02" r="3.88" fill="rgb(166,206,227)" stroke="rgb(255,255,255)" stroke-width="0.5"/>
<circle cx="732.92" cy="713.64" r="6.75" fill="rgb(166,206,227)" stroke="rgb(217,239,139)" stroke-width="0.5"/>
<circle cx="761.53" cy="740.27" r="11.67" fill="rgb(166,206,227)" stroke="rgb(217,239,139)" stroke-width="0.5"/>
<circle cx="558.70" cy="621.06" r="5.88" fill="rgb(166,206,227)" stroke="rgb(102,189,99)" stroke-width="0.5"/>
<circle cx="541.61" cy="621.06" r="9.09" fill="rgb(166,206,227)" stroke="rgb(102,189,99)" stroke-width="0.5"/>
<circle cx="545.32" cy="557.28" r="9.04" fill="rgb(166,206,227)" stroke="rgb(253,174,97)" stroke-width="0.5"/>
<circle cx="523.56" cy="557.28" r="10.59" fill="rgb(166,206,227)" stroke="rgb(253,174,97)" stroke-width="0.5"/>
<circle cx="524.19" cy="542.13" r="2.45" fill="rgb(166,206,227)" stroke="rgb(253,174,97)" stroke-width="0.5"/>
<circle cx="535.80" cy="541.77" r="7.04" fill="rgb(166,206,227)" stroke="rgb(26,152,80)" stroke-width="0.5"/>
<circle cx="545.73" cy="423.18" r="2.83" fill="rgb(166,206,227)" stroke="rgb(255,255,255)" stroke-width="0.5"/>
<circle cx="536.35" cy="423.18" r="4.42" fill="rgb(166,206,227)" stroke="rgb(244,109,67)" stroke-width="0.5"/>
<circle cx="1063.82" cy="417.30" r="2.74" fill="rgb(202,178,214)" stroke="rgb(102,189,99)" stroke-width="0.5"/>
<circle cx="1056.12" cy="417.30" r="2.83" fill="rgb(202,178,214)" stroke="rgb(217,239,139)" stroke-width="0.5"/>
<circle cx="1028.05" cy="717.13" r="2.74" fill="rgb(31,120,180)" stroke="rgb(254,224,139)" stroke-width="0.5"/>
<circle cx="1068.28" cy="680.55" r="7.04" fill="rgb(166,206,227)" stroke="rgb(166,217,106)" stroke-width="0.5"/>
<defs><path id="arc-24061" d="M960.00,14.00 A526.00,526.00 0 1,1 959.99,14.00" fill="none"/></defs>
<text fill="rgb(34,34,34)" font-size="14.0" font-family="sans-serif"><textPath href="#arc-24061" startOffset="50%" text-anchor="middle">code-visualizer</textPath></text>
<defs><path id="arc-24331" d="M747.19,240.97 A299.03,299.03 0 1,1 747.18,240.97" fill="none"/></defs>
<text fill="rgb(34,34,34)" font-size="14.0" font-family="sans-serif"><textPath href="#arc-24331" startOffset="50%" text-anchor="middle">internal</textPath></text>
<defs><path id="arc-24596" d="M699.20,449.68 A114.66,114.66 0 1,1 699.19,449.68" fill="none"/></defs>
<text fill="rgb(34,34,34)" font-size="14.0" font-family="sans-serif"><textPath href="#arc-24596" startOffset="50%" text-anchor="middle">scan</textPath></text>
<defs><path id="arc-24857" d="M683.45,479.60 A84.75,84.75 0 1,1 683.44,479.60" fill="none"/></defs>
<text fill="rgb(34,34,34)" font-size="14.0" font-family="sans-serif"><textPath href="#arc-24857" startOffset="50%" text-anchor="middle">testdata</textPath></text>
<defs><path id="arc-25120" d="M650.67,543.80 A34.84,34.84 0 1,1 650.66,543.80" fill="none"/></defs>
<text fill="rgb(34,34,34)" font-size="14.0" font-family="sans-serif"><textPath href="#arc-25120" startOffset="50%" text-anchor="middle">nested</textPath></text>
<defs><path id="arc-25381" d="M648.19,560.43 A18.20,18.20 0 1,1 648.18,560.43" fill="none"/></defs>
<text fill="rgb(34,34,34)" font-size="14.0" font-family="sans-serif"><textPath href="#arc-25381" startOffset="50%" text-anchor="middle">sub</textPath></text>
<defs><path id="arc-25639" d="M937.25,471.09 A93.26,93.26 0 1,1 937.24,471.09" fill="none"/></defs>
<text fill="rgb(34,34,34)" font-size="14.0" font-family="sans-serif"><textPath href="#arc-25639" startOffset="50%" text-anchor="middle">canvas</textPath></text>
<defs><path id="arc-25900" d="M916.13,551.25 A23.81,23.81 0 1,1 916.12,551.25" fill="none"/></defs>
<text fill="rgb(34,34,34)" font-size="10.4" font-family="sans-serif"><textPath href="#arc-25900" startOffset="50%" text-anchor="middle">raster</textPath></text>
<defs><path id="arc-26161" d="M955.57,488.26 A21.96,21.96 0 1,1 955.56,488.26" fill="none"/></defs>
<text fill="rgb(34,34,34)" font-size="14.0" font-family="sans-serif"><textPath href="#arc-26161" startOffset="50%" text-anchor="middle">svg</textPath></text>
<defs><path id="arc-26419" d="M838.30,287.05 A89.17,89.17 0 1,1 838.29,287.05" fill="none"/></defs>
<text fill="rgb(34,34,34)" font-size="14.0" font-family="sans-serif"><textPath href="#arc-26419" startOffset="50%" text-anchor="middle">provider</textPath></text>
<defs><path id="arc-26682" d="M801.73,337.77 A38.45,38.45 0 1,1 801.72,337.77" fill="none"/></defs>
<text fill="rgb(34,34,34)" font-size="14.0" font-family="sans-serif"><textPath href="#arc-26682" startOffset="50%" text-anchor="middle">git</textPath></text>
<defs><path id="arc-26940" d="M833.88,650.88 A40.02,40.02 0 1,1 833.87,650.88" fill="none"/></defs>
<text fill="rgb(34,34,34)" font-size="14.0" font-family="sans-serif"><textPath href="#arc-26940" startOffset="50%" text-anchor="middle">config</textPath></text>
<defs><path id="arc-27201" d="M683.36,348.54 A35.86,35.86 0 1,1 683.35,348.54" fill="none"/></defs>
<text fill="rgb(34,34,34)" font-size="9.4" font-family="sans-serif"><textPath href="#arc-27201" startOffset="50%" text-anchor="middle">bubbletree</textPath></text>
<defs><path id="arc-27465" d="M742.37,703.77 A31.61,31.61 0 1,1 742.36,703.77" fill="none"/></defs>
<text fill="rgb(34,34,34)" font-size="13.8" font-family="sans-serif"><textPath href="#arc-27465" startOffset="50%" text-anchor="middle">spiral</textPath></text>
<defs><path id="arc-27726" d="M654.03,703.08 A26.78,26.78 0 1,1 654.02,703.08" fill="none"/></defs>
<text fill="rgb(34,34,34)" font-size="11.7" font-family="sans-serif"><textPath href="#arc-27726" startOffset="50%" text-anchor="middle">export</textPath></text>
<defs><path id="arc-27987" d="M603.01,401.18 A24.21,24.21 0 1,1 603.00,401.18" fill="none"/></defs>
<text fill="rgb(34,34,34)" font-size="9.1" font-family="sans-serif"><textPath href="#arc-27987" startOffset="50%" text-anchor="middle">palette</textPath></text>
<defs><path id="arc-28248" d="M552.12,460.62 A23.00,23.00 0 1,1 552.11,460.62" fill="none"/></defs>
<text fill="rgb(34,34,34)" font-size="12.0" font-family="sans-serif"><textPath href="#arc-28248" startOffset="50%" text-anchor="middle">model</textPath></text>
<defs><path id="arc-28508" d="M533.65,534.40 A21.01,21.01 0 1,1 533.64,534.40" fill="none"/></defs>
<text fill="rgb(34,34,34)" font-size="7.9" font-family="sans-serif"><textPath href="#arc-28508" startOffset="50%" text-anchor="middle">treemap</textPath></text>
<defs><path id="arc-28769" d="M483.54,487.15 A19.08,19.08 0 1,1 483.53,487.15" fill="none"/></defs>
<text fill="rgb(34,34,34)" font-size="8.3" font-family="sans-serif"><textPath href="#arc-28769" startOffset="50%" text-anchor="middle">filter</textPath></text>
<defs><path id="arc-29029" d="M548.55,604.87 A16.19,16.19 0 1,1 548.54,604.87" fill="none"/></defs>
<text fill="rgb(34,34,34)" font-size="8.5" font-family="sans-serif"><textPath href="#arc-29029" startOffset="50%" text-anchor="middle">table</textPath></text>
<defs><path id="arc-29288" d="M540.25,414.71 A8.47,8.47 0 1,1 540.24,414.71" fill="none"/></defs>
<text fill="rgb(34,34,34)" font-size="7.4" font-family="sans-serif"><textPath href="#arc-29288" startOffset="50%" text-anchor="middle">viz</textPath></text>
<defs><path id="arc-29543" d="M1274.09,342.25 A197.75,197.75 0 1,1 1274.08,342.25" fill="none"/></defs>
<text fill="rgb(34,34,34)" font-size="14.0" font-family="sans-serif"><textPath href="#arc-29543" startOffset="50%" text-anchor="middle">docs</textPath></text>
<defs><path id="arc-29806" d="M1260.67,369.83 A170.17,170.17 0 1,1 1260.66,369.83" fill="none"/></defs>
<text fill="rgb(34,34,34)" font-size="14.0" font-family="sans-serif"><textPath href="#arc-29806" startOffset="50%" text-anchor="middle">superpowers</textPath></text>
<defs><path id="arc-30076" d="M1211.09,433.56 A106.44,106.44 0 1,1 1211.08,433.56" fill="none"/></defs>
<text fill="rgb(34,34,34)" font-size="14.0" font-family="sans-serif"><textPath href="#arc-30076" startOffset="50%" text-anchor="middle">plans</textPath></text>
<defs><path id="arc-30340" d="M1382.17,505.48 A34.52,34.52 0 1,1 1382.16,505.48" fill="none"/></defs>
<text fill="rgb(34,34,34)" font-size="14.0" font-family="sans-serif"><textPath href="#arc-30340" startOffset="50%" text-anchor="middle">specs</textPath></text>
<defs><path id="arc-30602" d="M1079.28,224.90 A78.56,78.56 0 1,1 1079.27,224.90" fill="none"/></defs>
<text fill="rgb(34,34,34)" font-size="14.0" font-family="sans-serif"><textPath href="#arc-30602" startOffset="50%" text-anchor="middle">cmd</textPath></text>
<defs><path id="arc-30862" d="M1079.28,239.06 A64.41,64.41 0 1,1 1079.27,239.06" fill="none"/></defs>
<text fill="rgb(34,34,34)" font-size="14.0" font-family="sans-serif"><textPath href="#arc-30862" startOffset="50%" text-anchor="middle">codeviz</textPath></text>
<defs><path id="arc-31126" d="M1068.28,659.20 A21.35,21.35 0 1,1 1068.27,659.20" fill="none"/></defs>
<text fill="rgb(34,34,34)" font-size="11.2" font-family="sans-serif"><textPath href="#arc-31126" startOffset="50%" text-anchor="middle">tools</textPath></text>
<rect x="1726.00" y="299.00" width="178.00" height="765.00" fill="rgba(255,255,255,0.902)" stroke="rgba(153,153,153,0.800)" stroke-width="1.0"/>
<text x="1738.00" y="324.00" fill="rgb(38,38,38)" font-size="13.0" font-family="sans-serif" text-anchor="start" dominant-baseline="central">Fill: file-type</text>
<rect x="1738.00" y="330.00" width="28.00" height="28.00" fill="rgb(166,206,227)" stroke="rgb(102,102,102)" stroke-width="0.5"/>
<text x="1772.00" y="344.00" fill="rgb(51,51,51)" font-size="12.0" font-family="sans-serif" text-anchor="start" dominant-baseline="central">go</text>
<rect x="1738.00" y="362.00" width="28.00" height="28.00" fill="rgb(31,120,180)" stroke="rgb(102,102,102)" stroke-width="0.5"/>
<text x="1772.00" y="376.00" fill="rgb(51,51,51)" font-size="12.0" font-family="sans-serif" text-anchor="start" dominant-baseline="central">md</text>
<rect x="1738.00" y="394.00" width="28.00" height="28.00" fill="rgb(178,223,138)" stroke="rgb(102,102,102)" stroke-width="0.5"/>
<text x="1772.00" y="408.00" fill="rgb(51,51,51)" font-size="12.0" font-family="sans-serif" text-anchor="start" dominant-baseline="central">mod</text>
<rect x="1738.00" y="426.00" width="28.00" height="28.00" fill="rgb(51,160,44)" stroke="rgb(102,102,102)" stroke-width="0.5"/>
<text x="1772.00" y="440.00" fill="rgb(51,51,51)" font-size="12.0" font-family="sans-serif" text-anchor="start" dominant-baseline="central">rs</text>
<rect x="1738.00" y="458.00" width="28.00" height="28.00" fill="rgb(251,154,153)" stroke="rgb(102,102,102)" stroke-width="0.5"/>
<text x="1772.00" y="472.00" fill="rgb(51,51,51)" font-size="12.0" font-family="sans-serif" text-anchor="start" dominant-baseline="central">sh</text>
<rect x="1738.00" y="490.00" width="28.00" height="28.00" fill="rgb(227,26,28)" stroke="rgb(102,102,102)" stroke-width="0.5"/>
<text x="1772.00" y="504.00" fill="rgb(51,51,51)" font-size="12.0" font-family="sans-serif" text-anchor="start" dominant-baseline="central">sum</text>
<rect x="1738.00" y="522.00" width="28.00" height="28.00" fill="rgb(253,191,111)" stroke="rgb(102,102,102)" stroke-width="0.5"/>
<text x="1772.00" y="536.00" fill="rgb(51,51,51)" font-size="12.0" font-family="sans-serif" text-anchor="start" dominant-baseline="central">svg</text>
<rect x="1738.00" y="554.00" width="28.00" height="28.00" fill="rgb(255,127,0)" stroke="rgb(102,102,102)" stroke-width="0.5"/>
<text x="1772.00" y="568.00" fill="rgb(51,51,51)" font-size="12.0" font-family="sans-serif" text-anchor="start" dominant-baseline="central">txt</text>
<rect x="1738.00" y="586.00" width="28.00" height="28.00" fill="rgb(202,178,214)" stroke="rgb(102,102,102)" stroke-width="0.5"/>
<text x="1772.00" y="600.00" fill="rgb(51,51,51)" font-size="12.0" font-family="sans-serif" text-anchor="start" dominant-baseline="central">yaml</text>
<rect x="1738.00" y="618.00" width="28.00" height="28.00" fill="rgb(106,61,154)" stroke="rgb(102,102,102)" stroke-width="0.5"/>
<text x="1772.00" y="632.00" fill="rgb(51,51,51)" font-size="12.0" font-family="sans-serif" text-anchor="start" dominant-baseline="central">yml</text>
<text x="1738.00" y="677.00" fill="rgb(38,38,38)" font-size="13.0" font-family="sans-serif" text-anchor="start" dominant-baseline="central">Border: file-freshness</text>
<rect x="1738.00" y="683.00" width="28.00" height="28.00" fill="rgb(165,0,38)" stroke="rgb(102,102,102)" stroke-width="0.5"/>
<text x="1772.00" y="711.00" fill="rgb(51,51,51)" font-size="12.0" font-family="sans-serif" text-anchor="start" dominant-baseline="central">0</text>
<rect x="1738.00" y="711.00" width="28.00" height="28.00" fill="rgb(215,48,39)" stroke="rgb(102,102,102)" stroke-width="0.5"/>
<text x="1772.00" y="739.00" fill="rgb(51,51,51)" font-size="12.0" font-family="sans-serif" text-anchor="start" dominant-baseline="central">1</text>
<rect x="1738.00" y="739.00" width="28.00" height="28.00" fill="rgb(244,109,67)" stroke="rgb(102,102,102)" stroke-width="0.5"/>
<text x="1772.00" y="767.00" fill="rgb(51,51,51)" font-size="12.0" font-family="sans-serif" text-anchor="start" dominant-baseline="central">2</text>
<rect x="1738.00" y="767.00" width="28.00" height="28.00" fill="rgb(253,174,97)" stroke="rgb(102,102,102)" stroke-width="0.5"/>
<text x="1772.00" y="795.00" fill="rgb(51,51,51)" font-size="12.0" font-family="sans-serif" text-anchor="start" dominant-baseline="central">3</text>
<rect x="1738.00" y="795.00" width="28.00" height="28.00" fill="rgb(254,224,139)" stroke="rgb(102,102,102)" stroke-width="0.5"/>
<text x="1772.00" y="823.00" fill="rgb(51,51,51)" font-size="12.0" font-family="sans-serif" text-anchor="start" dominant-baseline="central">4</text>
<rect x="1738.00" y="823.00" width="28.00" height="28.00" fill="rgb(255,255,191)" stroke="rgb(102,102,102)" stroke-width="0.5"/>
<text x="1772.00" y="851.00" fill="rgb(51,51,51)" font-size="12.0" font-family="sans-serif" text-anchor="start" dominant-baseline="central">9</text>
<rect x="1738.00" y="851.00" width="28.00" height="28.00" fill="rgb(255,255,255)" stroke="rgb(102,102,102)" stroke-width="0.5"/>
<text x="1772.00" y="879.00" fill="rgb(51,51,51)" font-size="12.0" font-family="sans-serif" text-anchor="start" dominant-baseline="central">11</text>
<rect x="1738.00" y="879.00" width="28.00" height="28.00" fill="rgb(217,239,139)" stroke="rgb(102,102,102)" stroke-width="0.5"/>
<text x="1772.00" y="907.00" fill="rgb(51,51,51)" font-size="12.0" font-family="sans-serif" text-anchor="start" dominant-baseline="central">14</text>
<rect x="1738.00" y="907.00" width="28.00" height="28.00" fill="rgb(166,217,106)" stroke="rgb(102,102,102)" stroke-width="0.5"/>
<text x="1772.00" y="935.00" fill="rgb(51,51,51)" font-size="12.0" font-family="sans-serif" text-anchor="start" dominant-baseline="central">17</text>
<rect x="1738.00" y="935.00" width="28.00" height="28.00" fill="rgb(102,189,99)" stroke="rgb(102,102,102)" stroke-width="0.5"/>
<text x="1772.00" y="963.00" fill="rgb(51,51,51)" font-size="12.0" font-family="sans-serif" text-anchor="start" dominant-baseline="central">27</text>
<rect x="1738.00" y="963.00" width="28.00" height="28.00" fill="rgb(26,152,80)" stroke="rgb(102,102,102)" stroke-width="0.5"/>
<text x="1772.00" y="991.00" fill="rgb(51,51,51)" font-size="12.0" font-family="sans-serif" text-anchor="start" dominant-baseline="central">34</text>
<rect x="1738.00" y="991.00" width="28.00" height="28.00" fill="rgb(0,68,27)" stroke="rgb(102,102,102)" stroke-width="0.5"/>
<text x="1738.00" y="1046.00" fill="rgb(38,38,38)" font-size="13.0" font-family="sans-serif" text-anchor="start" dominant-baseline="central">Size: file-lines</text>
</svg>
