<svg xmlns="http://www.w3.org/2000/svg" width="1920" height="1920">
<rect x="0.00" y="0.00" width="1920.00" height="1920.00" fill="rgb(255,255,255)" stroke="rgb(255,255,255)" stroke-width="0.0"/>
<path d="M 960.0 644.3 L 969.1 643.3 L 978.3 642.5 L 987.6 641.9 L 996.9 641.7 L 1006.3 641.8 L 1015.6 642.1 L 1025.0 642.7 L 1034.4 643.7 L 1043.9 644.9 L 1053.3 646.4 L 1062.7 648.2 L 1072.0 650.3 L 1081.4 652.7 L 1090.7 655.4 L 1099.9 658.3 L 1109.1 661.6 L 1118.2 665.2 L 1127.2 669.0 L 1136.2 673.2 L 1145.0 677.6 L 1153.7 682.3 L 1162.3 687.3 L 1170.8 692.6 L 1179.2 698.2 L 1187.4 704.0 L 1195.5 710.1 L 1203.3 716.5 L 1211.1 723.1 L 1218.6 730.0 L 1226.0 737.1 L 1233.1 744.5 L 1240.1 752.1 L 1246.8 760.0 L 1253.4 768.1 L 1259.7 776.4 L 1265.7 785.0 L 1271.5 793.7 L 1277.1 802.7 L 1282.4 811.8 L 1287.4 821.2 L 1292.2 830.7 L 1296.7 840.4 L 1300.9 850.2 L 1304.8 860.3 L 1308.5 870.4 L 1311.8 880.7 L 1314.8 891.2 L 1317.5 901.7 L 1319.9 912.4 L 1322.0 923.2 L 1323.7 934.1 L 1325.1 945.0 L 1326.2 956.1 L 1327.0 967.2 L 1327.4 978.3 L 1327.5 989.5 L 1327.2 1000.7 L 1326.6 1012.0 L 1325.7 1023.2 L 1324.4 1034.5 L 1322.7 1045.8 L 1320.7 1057.0 L 1318.4 1068.2 L 1315.7 1079.4 L 1312.6 1090.5 L 1309.2 1101.5 L 1305.5 1112.5 L 1301.4 1123.4 L 1297.0 1134.2 L 1292.2 1144.9 L 1287.1 1155.4 L 1281.7 1165.9 L 1275.9 1176.2 L 1269.8 1186.3 L 1263.4 1196.3 L 1256.6 1206.2 L 1249.5 1215.8 L 1242.2 1225.3 L 1234.5 1234.5 L 1226.5 1243.5 L 1218.2 1252.4 L 1209.6 1260.9 L 1200.7 1269.3 L 1191.6 1277.4 L 1182.2 1285.2 L 1172.5 1292.8 L 1162.6 1300.1 L 1152.4 1307.1 L 1142.0 1313.8 L 1131.4 1320.2 L 1120.5 1326.4 L 1109.4 1332.2 L 1098.1 1337.6 L 1086.7 1342.8 L 1075.0 1347.6 L 1063.2 1352.0 L 1051.2 1356.1 L 1039.0 1359.9 L 1026.7 1363.3 L 1014.3 1366.3 L 1001.7 1368.9 L 989.1 1371.2 L 976.3 1373.1 L 963.5 1374.6 L 950.5 1375.7 L 937.6 1376.5 L 924.5 1376.8 L 911.4 1376.7 L 898.3 1376.3 L 885.2 1375.4 L 872.1 1374.1 L 858.9 1372.5 L 845.8 1370.4 L 832.8 1367.9 L 819.7 1365.1 L 806.8 1361.8 L 793.9 1358.1 L 781.1 1354.0 L 768.4 1349.5 L 755.7 1344.7 L 743.3 1339.4 L 730.9 1333.7 L 718.7 1327.7 L 706.6 1321.2 L 694.8 1314.4 L 683.1 1307.2 L 671.6 1299.6 L 660.3 1291.7 L 649.2 1283.4 L 638.3 1274.8 L 627.7 1265.8 L 617.3 1256.4 L 607.2 1246.7 L 597.4 1236.7 L 587.9 1226.4 L 578.6 1215.8 L 569.6 1204.8 L 561.0 1193.6 L 552.7 1182.1 L 544.7 1170.3 L 537.1 1158.2 L 529.8 1145.9 L 522.9 1133.3 L 516.3 1120.5 L 510.1 1107.4 L 504.4 1094.2 L 498.9 1080.7 L 493.9 1067.1 L 489.3 1053.3 L 485.1 1039.3 L 481.4 1025.1 L 478.0 1010.8 L 475.1 996.4 L 472.6 981.8 L 470.6 967.2 L 468.9 952.5 L 467.8 937.6 L 467.1 922.8 L 466.8 907.8 L 467.0 892.9 L 467.6 877.9 L 468.7 862.9 L 470.3 847.9 L 472.3 832.9 L 474.8 817.9 L 477.7 803.0 L 481.1 788.2 L 484.9 773.4 L 489.2 758.7 L 494.0 744.1 L 499.2 729.7 L 504.9 715.3 L 511.0 701.2 L 517.5 687.1 L 524.5 673.3 L 531.9 659.6 L 539.8 646.1 L 548.1 632.9 L 556.8 619.8 L 565.9 607.1 L 575.4 594.5 L 585.3 582.2 L 595.6 570.3 L 606.3 558.6 L 617.3 547.2 L 628.7 536.1 L 640.5 525.3 L 652.7 514.9 L 665.1 504.8 L 677.9 495.1 L 691.0 485.8 L 704.5 476.8 L 718.2 468.3 L 732.2 460.1 L 746.5 452.3 L 761.0 445.0 L 775.8 438.1 L 790.8 431.6 L 806.1 425.6 L 821.5 420.0 L 837.2 414.9 L 853.0 410.3 L 869.0 406.1 L 885.1 402.4 L 901.4 399.2 L 917.9 396.5 L 934.4 394.2 L 951.0 392.5 L 967.7 391.3 L 984.5 390.5 L 1001.3 390.3 L 1018.2 390.6 L 1035.1 391.4 L 1052.0 392.7 L 1068.8 394.6 L 1085.7 396.9 L 1102.5 399.8 L 1119.2 403.2 L 1135.9 407.1 L 1152.5 411.5 L 1169.0 416.4 L 1185.3 421.8 L 1201.5 427.7 L 1217.6 434.2 L 1233.5 441.1 L 1249.2 448.5 L 1264.7 456.4 L 1280.0 464.8 L 1295.1 473.7 L 1309.9 483.0 L 1324.5 492.8 L 1338.7 503.1 L 1352.7 513.8 L 1366.4 525.0 L 1379.8 536.6 L 1392.9 548.6 L 1405.6 561.0 L 1417.9 573.8 L 1429.9 587.1 L 1441.5 600.7 L 1452.7 614.7 L 1463.5 629.0 L 1473.9 643.7 L 1483.8 658.7 L 1493.4 674.1 L 1502.4 689.8 L 1511.0 705.8 L 1519.1 722.0 L 1526.8 738.5 L 1533.9 755.3 L 1540.6 772.4 L 1546.7 789.6 L 1552.4 807.1 L 1557.5 824.7 L 1562.1 842.6 L 1566.2 860.6 L 1569.7 878.8 L 1572.6 897.1 L 1575.1 915.5 L 1576.9 934.0 L 1578.2 952.6 L 1579.0 971.3 L 1579.2 990.0 L 1578.8 1008.8 L 1577.8 1027.5 L 1576.3 1046.3 L 1574.2 1065.0 L 1571.5 1083.8 L 1568.3 1102.4 L 1564.5 1121.0 L 1560.1 1139.5 L 1555.1 1157.9 L 1549.6 1176.2 L 1543.6 1194.3 L 1536.9 1212.3 L 1529.8 1230.1 L 1522.0 1247.7 L 1513.7 1265.1 L 1504.9 1282.3 L 1495.6 1299.2 L 1485.7 1315.9 L 1475.3 1332.3 L 1464.4 1348.4 L 1453.0 1364.2 L 1441.1 1379.6 L 1428.7 1394.8 L 1415.8 1409.5 L 1402.5 1424.0 L 1388.7 1438.0 L 1374.5 1451.6 L 1359.8 1464.8 L 1344.7 1477.6 L 1329.2 1490.0 L 1313.3 1501.9 L 1297.1 1513.3 L 1280.4 1524.2 L 1263.4 1534.7 L 1246.1 1544.7 L 1228.4 1554.1 L 1210.5 1563.1 L 1192.2 1571.5 L 1173.6 1579.3 L 1154.8 1586.6 L 1135.8 1593.4 L 1116.5 1599.6 L 1097.0 1605.2 L 1077.3 1610.2 L 1057.4 1614.6 L 1037.4 1618.5 L 1017.2 1621.7 L 996.9 1624.3 L 976.5 1626.3 L 956.0 1627.7 L 935.5 1628.5 L 914.8 1628.7 L 894.2 1628.2 L 873.5 1627.1 L 852.9 1625.4 L 832.3 1623.0 L 811.7 1620.1 L 791.1 1616.5 L 770.7 1612.3 L 750.4 1607.4 L 730.2 1601.9 L 710.1 1595.8 L 690.2 1589.1 L 670.4 1581.8 L 650.9 1573.9 L 631.6 1565.4 L 612.5 1556.2 L 593.6 1546.5 L 575.1 1536.2 L 556.8 1525.4 L 538.8 1513.9 L 521.1 1501.9 L 503.8 1489.4 L 486.9 1476.3 L 470.3 1462.7 L 454.1 1448.5 L 438.3 1433.9 L 423.0 1418.8 L 408.1 1403.1 L 393.6 1387.1 L 379.6 1370.5 L 366.1 1353.5 L 353.1 1336.1 L 340.6 1318.3 L 328.6 1300.0 L 317.2 1281.4 L 306.3 1262.4 L 296.0 1243.1 L 286.2 1223.4 L 277.0 1203.4 L 268.5 1183.1 L 260.5 1162.5 L 253.1 1141.7 L 246.4 1120.6 L 240.3 1099.2 L 234.8 1077.7 L 230.0 1056.0 L 225.8 1034.1 L 222.3 1012.0 L 219.5 989.8 L 217.3 967.5 L 215.8 945.2 L 215.0 922.7 L 214.8 900.2 L 215.3 877.7 L 216.5 855.1 L 218.4 832.6 L 221.0 810.1 L 224.3 787.6 L 228.2 765.2 L 232.8 742.9 L 238.2 720.8 L 244.1 698.7 L 250.8 676.8 L 258.1 655.1 L 266.1 633.6 L 274.8 612.3 L 284.1 591.3 L 294.0 570.5 L 304.6 550.0 L 315.8 529.7 L 327.7 509.8 L 340.2 490.3 L 353.2 471.0 L 366.9 452.2 L 381.2 433.8 L 396.0 415.7 L 411.4 398.1 L 427.3 381.0 L 443.8 364.3 L 460.8 348.0 L 478.3 332.3 L 496.3 317.1 L 514.8 302.4 L 533.7 288.3 L 553.1 274.7 L 572.9 261.7 L 593.2 249.3 L 613.8 237.5 L 634.8 226.3 L 656.2 215.7 L 677.9 205.7 L 700.0 196.4 L 722.3 187.8 L 745.0 179.8 L 767.9 172.5 L 791.0 165.9 L 814.4 159.9 L 838.0 154.7 L 861.7 150.2 L 885.7 146.4 L 909.7 143.3 L 933.9 140.9 L 958.2 139.3 L 982.5 138.4 L 1006.9 138.2 L 1031.4 138.8 L 1055.8 140.1 L 1080.2 142.2 L 1104.6 145.0 L 1129.0 148.5 L 1153.2 152.8 L 1177.4 157.8 L 1201.4 163.6 L 1225.2 170.0 L 1248.9 177.3 L 1272.4 185.2 L 1295.7 193.8 L 1318.8 203.2 L 1341.6 213.3 L 1364.1 224.0 L 1386.3 235.5 L 1408.2 247.7 L 1429.7 260.5 L 1450.9 274.0 L 1471.6 288.1 L 1492.0 302.9 L 1512.0 318.3 L 1531.5 334.3 L 1550.5 350.9 L 1569.0 368.2 L 1587.1 386.0 L 1604.6 404.3 L 1621.6 423.2 L 1638.1 442.7 L 1653.9 462.7 L 1669.2 483.1 L 1683.9 504.1 L 1697.9 525.5 L 1711.3 547.3 L 1724.1 569.6 L 1736.2 592.3 L 1747.6 615.4 L 1758.4 638.8 L 1768.4 662.6 L 1777.8 686.7 L 1786.4 711.1 L 1794.3 735.8 L 1801.4 760.8 L 1807.8 786.0 L 1813.5 811.4 L 1818.4 837.1 L 1822.5 862.8 L 1825.8 888.8 L 1828.4 914.9 L 1830.2 941.0 L 1831.1 967.3 L 1831.3 993.6 L 1830.7 1019.9 L 1829.3 1046.2 L 1827.1 1072.5 L 1824.1 1098.8 L 1820.3 1125.0 L 1815.7 1151.1 L 1810.3 1177.2 L 1804.2 1203.0 L 1797.2 1228.7 L 1789.5 1254.2 L 1780.9 1279.5 L 1771.6 1304.6 L 1761.6 1329.4 L 1750.7 1353.9 L 1739.2 1378.2 L 1726.9 1402.1 L 1713.8 1425.6 L 1700.0 1448.8 L 1685.5 1471.6 L 1670.4 1493.9 L 1654.5 1515.8 L 1637.9 1537.3 L 1620.7 1558.3 L 1602.8 1578.7 L 1584.3 1598.7 L 1565.2 1618.1 L 1545.5 1637.0 L 1525.2 1655.2" fill="none" stroke="rgb(221,221,221)" stroke-width="1.0"/>
<circle cx="960.00" cy="644.33" r="25.44" fill="rgb(25,120,20)" stroke="rgb(51,51,51)" stroke-width="3.0"/>
<circle cx="1029.25" cy="643.12" r="12.43" fill="rgb(210,130,30)" stroke="rgb(51,51,51)" stroke-width="3.0"/>
<circle cx="1098.93" cy="658.00" r="15.85" fill="rgb(240,215,50)" stroke="rgb(51,51,51)" stroke-width="3.0"/>
<circle cx="1165.27" cy="689.10" r="6.22" fill="rgb(45,25,10)" stroke="rgb(51,51,51)" stroke-width="2.0"/>
<circle cx="1224.45" cy="735.61" r="4.40" fill="rgb(45,25,10)" stroke="rgb(51,51,51)" stroke-width="2.0"/>
<circle cx="1272.88" cy="795.83" r="13.55" fill="rgb(230,175,40)" stroke="rgb(51,51,51)" stroke-width="3.0"/>
<circle cx="1324.94" cy="1029.80" r="26.37" fill="rgb(25,120,20)" stroke="rgb(51,51,51)" stroke-width="3.0"/>
<circle cx="1305.38" cy="1112.83" r="18.90" fill="rgb(165,200,50)" stroke="rgb(51,51,51)" stroke-width="3.0"/>
<circle cx="1266.76" cy="1191.14" r="6.22" fill="rgb(45,25,10)" stroke="rgb(51,51,51)" stroke-width="2.0"/>
<circle cx="1210.26" cy="1260.32" r="12.81" fill="rgb(210,130,30)" stroke="rgb(51,51,51)" stroke-width="3.0"/>
<circle cx="1138.07" cy="1316.26" r="10.31" fill="rgb(175,95,25)" stroke="rgb(51,51,51)" stroke-width="3.0"/>
<circle cx="1053.33" cy="1355.41" r="11.21" fill="rgb(175,95,25)" stroke="rgb(51,51,51)" stroke-width="3.0"/>
<circle cx="960.00" cy="1374.95" r="16.45" fill="rgb(240,215,50)" stroke="rgb(51,51,51)" stroke-width="3.0"/>
<circle cx="862.65" cy="1373.00" r="14.24" fill="rgb(230,175,40)" stroke="rgb(51,51,51)" stroke-width="3.0"/>
<circle cx="766.28" cy="1348.77" r="9.83" fill="rgb(130,70,20)" stroke="rgb(51,51,51)" stroke-width="3.0"/>
<circle cx="676.00" cy="1302.63" r="12.43" fill="rgb(210,130,30)" stroke="rgb(51,51,51)" stroke-width="3.0"/>
<circle cx="596.82" cy="1236.13" r="7.61" fill="rgb(85,45,15)" stroke="rgb(51,51,51)" stroke-width="2.0"/>
<circle cx="533.35" cy="1151.96" r="13.90" fill="rgb(230,175,40)" stroke="rgb(51,51,51)" stroke-width="3.0"/>
<circle cx="489.53" cy="1053.88" r="6.22" fill="rgb(45,25,10)" stroke="rgb(51,51,51)" stroke-width="2.0"/>
<circle cx="468.42" cy="946.50" r="10.31" fill="rgb(175,95,25)" stroke="rgb(51,51,51)" stroke-width="3.0"/>
<circle cx="471.95" cy="835.11" r="25.25" fill="rgb(25,120,20)" stroke="rgb(51,51,51)" stroke-width="3.0"/>
<circle cx="500.84" cy="725.38" r="21.53" fill="rgb(80,165,40)" stroke="rgb(51,51,51)" stroke-width="3.0"/>
<circle cx="631.01" cy="533.96" r="16.15" fill="rgb(240,215,50)" stroke="rgb(51,51,51)" stroke-width="3.0"/>
<circle cx="727.14" cy="462.96" r="9.32" fill="rgb(130,70,20)" stroke="rgb(51,51,51)" stroke-width="3.0"/>
<circle cx="838.57" cy="414.48" r="10.77" fill="rgb(175,95,25)" stroke="rgb(51,51,51)" stroke-width="3.0"/>
<circle cx="960.00" cy="391.78" r="19.66" fill="rgb(165,200,50)" stroke="rgb(51,51,51)" stroke-width="3.0"/>
<circle cx="1085.44" cy="396.89" r="6.95" fill="rgb(85,45,15)" stroke="rgb(51,51,51)" stroke-width="2.0"/>
<circle cx="1208.51" cy="430.46" r="9.32" fill="rgb(130,70,20)" stroke="rgb(51,51,51)" stroke-width="3.0"/>
<circle cx="1322.74" cy="491.64" r="9.32" fill="rgb(130,70,20)" stroke="rgb(51,51,51)" stroke-width="3.0"/>
<circle cx="1421.91" cy="578.14" r="6.95" fill="rgb(85,45,15)" stroke="rgb(51,51,51)" stroke-width="2.0"/>
<circle cx="1500.42" cy="686.25" r="5.38" fill="rgb(45,25,10)" stroke="rgb(51,51,51)" stroke-width="2.0"/>
<circle cx="1553.58" cy="811.02" r="3.11" fill="rgb(15,10,5)" stroke="rgb(51,51,51)" stroke-width="2.0"/>
<circle cx="1577.86" cy="946.50" r="23.67" fill="rgb(80,165,40)" stroke="rgb(51,51,51)" stroke-width="3.0"/>
<circle cx="1571.17" cy="1085.99" r="22.63" fill="rgb(80,165,40)" stroke="rgb(51,51,51)" stroke-width="3.0"/>
<circle cx="1532.93" cy="1222.41" r="32.15" fill="rgb(25,120,20)" stroke="rgb(51,51,51)" stroke-width="3.0"/>
<circle cx="1464.22" cy="1348.60" r="13.19" fill="rgb(210,130,30)" stroke="rgb(51,51,51)" stroke-width="3.0"/>
<circle cx="1367.73" cy="1457.77" r="8.79" fill="rgb(85,45,15)" stroke="rgb(51,51,51)" stroke-width="3.0"/>
<circle cx="1247.65" cy="1543.81" r="23.05" fill="rgb(80,165,40)" stroke="rgb(51,51,51)" stroke-width="3.0"/>
<circle cx="1109.53" cy="1601.63" r="10.31" fill="rgb(175,95,25)" stroke="rgb(51,51,51)" stroke-width="3.0"/>
<circle cx="960.00" cy="1627.50" r="25.25" fill="rgb(25,120,20)" stroke="rgb(51,51,51)" stroke-width="3.0"/>
<circle cx="806.46" cy="1619.22" r="27.09" fill="rgb(25,120,20)" stroke="rgb(51,51,51)" stroke-width="3.0"/>
<circle cx="656.70" cy="1576.32" r="11.63" fill="rgb(210,130,30)" stroke="rgb(51,51,51)" stroke-width="3.0"/>
<circle cx="518.53" cy="1500.09" r="19.41" fill="rgb(165,200,50)" stroke="rgb(51,51,51)" stroke-width="3.0"/>
<circle cx="399.36" cy="1393.59" r="12.04" fill="rgb(210,130,30)" stroke="rgb(51,51,51)" stroke-width="3.0"/>
<circle cx="305.80" cy="1261.54" r="18.12" fill="rgb(240,215,50)" stroke="rgb(51,51,51)" stroke-width="3.0"/>
<circle cx="243.31" cy="1110.08" r="12.81" fill="rgb(210,130,30)" stroke="rgb(51,51,51)" stroke-width="3.0"/>
<circle cx="215.86" cy="946.50" r="21.53" fill="rgb(80,165,40)" stroke="rgb(51,51,51)" stroke-width="3.0"/>
<circle cx="225.72" cy="778.91" r="30.45" fill="rgb(25,120,20)" stroke="rgb(51,51,51)" stroke-width="3.0"/>
<circle cx="273.30" cy="615.80" r="18.39" fill="rgb(165,200,50)" stroke="rgb(51,51,51)" stroke-width="3.0"/>
<circle cx="357.05" cy="465.66" r="11.63" fill="rgb(210,130,30)" stroke="rgb(51,51,51)" stroke-width="3.0"/>
<circle cx="473.54" cy="336.50" r="11.21" fill="rgb(175,95,25)" stroke="rgb(51,51,51)" stroke-width="3.0"/>
<circle cx="617.56" cy="235.42" r="5.38" fill="rgb(45,25,10)" stroke="rgb(51,51,51)" stroke-width="2.0"/>
<circle cx="782.37" cy="168.25" r="18.39" fill="rgb(165,200,50)" stroke="rgb(51,51,51)" stroke-width="3.0"/>
<circle cx="960.00" cy="139.22" r="14.24" fill="rgb(230,175,40)" stroke="rgb(51,51,51)" stroke-width="3.0"/>
<circle cx="1141.64" cy="150.67" r="22.19" fill="rgb(80,165,40)" stroke="rgb(51,51,51)" stroke-width="3.0"/>
<circle cx="1318.09" cy="202.91" r="15.85" fill="rgb(240,215,50)" stroke="rgb(51,51,51)" stroke-width="3.0"/>
<circle cx="1480.20" cy="294.19" r="10.77" fill="rgb(175,95,25)" stroke="rgb(51,51,51)" stroke-width="3.0"/>
<circle cx="1619.37" cy="420.67" r="3.11" fill="rgb(15,10,5)" stroke="rgb(51,51,51)" stroke-width="2.0"/>
<circle cx="1727.97" cy="576.67" r="8.79" fill="rgb(85,45,15)" stroke="rgb(51,51,51)" stroke-width="3.0"/>
<circle cx="1799.80" cy="754.82" r="14.90" fill="rgb(230,175,40)" stroke="rgb(51,51,51)" stroke-width="3.0"/>
<circle cx="1830.42" cy="946.50" r="33.90" fill="rgb(25,120,20)" stroke="rgb(51,51,51)" stroke-width="3.0"/>
<circle cx="1817.39" cy="1142.19" r="20.38" fill="rgb(165,200,50)" stroke="rgb(51,51,51)" stroke-width="3.0"/>
<circle cx="1661.68" cy="1506.07" r="13.55" fill="rgb(230,175,40)" stroke="rgb(51,51,51)" stroke-width="3.0"/>
<circle cx="1525.19" cy="1655.23" r="7.61" fill="rgb(85,45,15)" stroke="rgb(51,51,51)" stroke-width="2.0"/>
<text x="960.00" y="614.89" fill="rgb(34,34,34)" font-size="12.0" font-family="sans-serif" text-anchor="start" dominant-baseline="central">Apr 4</text>
<text x="960.00" y="368.12" fill="rgb(34,34,34)" font-size="12.0" font-family="sans-serif" text-anchor="start" dominant-baseline="central" transform="rotate(360.00 960.00 368.12)">May 2</text>
<text x="960.00" y="120.98" fill="rgb(34,34,34)" font-size="12.0" font-family="sans-serif" text-anchor="start" dominant-baseline="central" transform="rotate(720.00 960.00 120.98)">May 30</text>
<rect x="1796.00" y="1534.00" width="108.00" height="370.00" fill="rgba(255,255,255,0.902)" stroke="rgba(153,153,153,0.800)" stroke-width="1.0"/>
<text x="1832.00" y="1554.00" fill="rgb(38,38,38)" font-size="13.0" font-family="sans-serif" text-anchor="middle" dominant-baseline="central">Fill</text>
<text x="1832.00" y="1570.00" fill="rgb(38,38,38)" font-size="13.0" font-family="sans-serif" text-anchor="middle" dominant-baseline="central">commit-count</text>
<rect x="1808.00" y="1584.00" width="28.00" height="28.00" fill="rgb(15,10,5)" stroke="rgb(102,102,102)" stroke-width="0.5"/>
<text x="1842.00" y="1612.00" fill="rgb(51,51,51)" font-size="12.0" font-family="sans-serif" text-anchor="start" dominant-baseline="central">2</text>
<rect x="1808.00" y="1612.00" width="28.00" height="28.00" fill="rgb(45,25,10)" stroke="rgb(102,102,102)" stroke-width="0.5"/>
<text x="1842.00" y="1640.00" fill="rgb(51,51,51)" font-size="12.0" font-family="sans-serif" text-anchor="start" dominant-baseline="central">5</text>
<rect x="1808.00" y="1640.00" width="28.00" height="28.00" fill="rgb(85,45,15)" stroke="rgb(102,102,102)" stroke-width="0.5"/>
<text x="1842.00" y="1668.00" fill="rgb(51,51,51)" font-size="12.0" font-family="sans-serif" text-anchor="start" dominant-baseline="central">9</text>
<rect x="1808.00" y="1668.00" width="28.00" height="28.00" fill="rgb(130,70,20)" stroke="rgb(102,102,102)" stroke-width="0.5"/>
<text x="1842.00" y="1696.00" fill="rgb(51,51,51)" font-size="12.0" font-family="sans-serif" text-anchor="start" dominant-baseline="central">11</text>
<rect x="1808.00" y="1696.00" width="28.00" height="28.00" fill="rgb(175,95,25)" stroke="rgb(102,102,102)" stroke-width="0.5"/>
<text x="1842.00" y="1724.00" fill="rgb(51,51,51)" font-size="12.0" font-family="sans-serif" text-anchor="start" dominant-baseline="central">14</text>
<rect x="1808.00" y="1724.00" width="28.00" height="28.00" fill="rgb(210,130,30)" stroke="rgb(102,102,102)" stroke-width="0.5"/>
<text x="1842.00" y="1752.00" fill="rgb(51,51,51)" font-size="12.0" font-family="sans-serif" text-anchor="start" dominant-baseline="central">19</text>
<rect x="1808.00" y="1752.00" width="28.00" height="28.00" fill="rgb(230,175,40)" stroke="rgb(102,102,102)" stroke-width="0.5"/>
<text x="1842.00" y="1780.00" fill="rgb(51,51,51)" font-size="12.0" font-family="sans-serif" text-anchor="start" dominant-baseline="central">26</text>
<rect x="1808.00" y="1780.00" width="28.00" height="28.00" fill="rgb(240,215,50)" stroke="rgb(102,102,102)" stroke-width="0.5"/>
<text x="1842.00" y="1808.00" fill="rgb(51,51,51)" font-size="12.0" font-family="sans-serif" text-anchor="start" dominant-baseline="central">35</text>
<rect x="1808.00" y="1808.00" width="28.00" height="28.00" fill="rgb(165,200,50)" stroke="rgb(102,102,102)" stroke-width="0.5"/>
<text x="1842.00" y="1836.00" fill="rgb(51,51,51)" font-size="12.0" font-family="sans-serif" text-anchor="start" dominant-baseline="central">48</text>
<rect x="1808.00" y="1836.00" width="28.00" height="28.00" fill="rgb(80,165,40)" stroke="rgb(102,102,102)" stroke-width="0.5"/>
<text x="1842.00" y="1864.00" fill="rgb(51,51,51)" font-size="12.0" font-family="sans-serif" text-anchor="start" dominant-baseline="central">66</text>
<rect x="1808.00" y="1864.00" width="28.00" height="28.00" fill="rgb(25,120,20)" stroke="rgb(102,102,102)" stroke-width="0.5"/>
<text x="960.00" y="1906.00" fill="rgba(128,128,128,0.784)" font-size="13.0" font-family="sans-serif" text-anchor="middle" dominant-baseline="central">Generated by github.com/theunrepentantgeek/code-visualizer at 21:19:15 on 2026-06-10</text>
</svg>
