<svg xmlns="http://www.w3.org/2000/svg" width="1920" height="1920">
<rect x="0.00" y="0.00" width="1920.00" height="1920.00" fill="rgb(255,255,255)" stroke="rgb(255,255,255)" stroke-width="0.0"/>
<path d="M 960.0 644.3 L 968.9 643.3 L 977.8 642.4 L 986.8 641.9 L 995.8 641.6 L 1004.9 641.6 L 1014.0 641.8 L 1023.1 642.3 L 1032.3 643.1 L 1041.4 644.2 L 1050.6 645.6 L 1059.7 647.2 L 1068.8 649.1 L 1077.9 651.3 L 1087.0 653.7 L 1096.0 656.5 L 1105.0 659.5 L 1113.9 662.8 L 1122.7 666.4 L 1131.5 670.2 L 1140.1 674.3 L 1148.7 678.7 L 1157.2 683.4 L 1165.5 688.3 L 1173.8 693.5 L 1181.9 698.9 L 1189.9 704.7 L 1197.7 710.6 L 1205.4 716.8 L 1212.9 723.3 L 1220.2 730.0 L 1227.4 737.0 L 1234.4 744.2 L 1241.2 751.6 L 1247.8 759.2 L 1254.1 767.1 L 1260.3 775.1 L 1266.3 783.4 L 1272.0 791.9 L 1277.5 800.6 L 1282.7 809.5 L 1287.7 818.5 L 1292.5 827.7 L 1296.9 837.1 L 1301.2 846.7 L 1305.1 856.4 L 1308.8 866.2 L 1312.1 876.2 L 1315.2 886.3 L 1318.0 896.6 L 1320.6 906.9 L 1322.8 917.4 L 1324.7 928.0 L 1326.3 938.6 L 1327.6 949.3 L 1328.5 960.1 L 1329.2 970.9 L 1329.5 981.8 L 1329.5 992.8 L 1329.2 1003.7 L 1328.6 1014.7 L 1327.6 1025.7 L 1326.3 1036.7 L 1324.7 1047.7 L 1322.7 1058.7 L 1320.4 1069.6 L 1317.8 1080.5 L 1314.9 1091.4 L 1311.6 1102.2 L 1308.0 1112.9 L 1304.0 1123.6 L 1299.8 1134.1 L 1295.2 1144.6 L 1290.3 1155.0 L 1285.1 1165.2 L 1279.5 1175.3 L 1273.7 1185.3 L 1267.5 1195.1 L 1261.0 1204.8 L 1254.2 1214.3 L 1247.1 1223.6 L 1239.8 1232.8 L 1232.1 1241.7 L 1224.2 1250.4 L 1215.9 1259.0 L 1207.4 1267.3 L 1198.7 1275.3 L 1189.6 1283.2 L 1180.3 1290.8 L 1170.8 1298.1 L 1161.0 1305.2 L 1151.0 1312.0 L 1140.8 1318.5 L 1130.3 1324.7 L 1119.7 1330.6 L 1108.8 1336.3 L 1097.8 1341.6 L 1086.5 1346.6 L 1075.1 1351.3 L 1063.5 1355.7 L 1051.8 1359.7 L 1039.9 1363.4 L 1027.9 1366.8 L 1015.7 1369.8 L 1003.4 1372.4 L 991.1 1374.7 L 978.6 1376.6 L 966.0 1378.2 L 953.4 1379.4 L 940.7 1380.2 L 927.9 1380.7 L 915.1 1380.8 L 902.3 1380.5 L 889.4 1379.8 L 876.6 1378.8 L 863.7 1377.3 L 850.9 1375.5 L 838.0 1373.3 L 825.2 1370.7 L 812.5 1367.7 L 799.8 1364.3 L 787.2 1360.6 L 774.7 1356.5 L 762.3 1352.0 L 749.9 1347.1 L 737.7 1341.8 L 725.6 1336.2 L 713.7 1330.2 L 701.9 1323.9 L 690.3 1317.1 L 678.8 1310.0 L 667.5 1302.6 L 656.5 1294.8 L 645.6 1286.7 L 634.9 1278.2 L 624.5 1269.4 L 614.3 1260.3 L 604.4 1250.8 L 594.7 1241.1 L 585.3 1231.0 L 576.1 1220.6 L 567.3 1210.0 L 558.7 1199.0 L 550.5 1187.8 L 542.5 1176.3 L 534.9 1164.6 L 527.6 1152.6 L 520.7 1140.3 L 514.1 1127.9 L 507.8 1115.2 L 501.9 1102.3 L 496.4 1089.2 L 491.3 1075.9 L 486.5 1062.4 L 482.2 1048.8 L 478.2 1035.0 L 474.6 1021.1 L 471.4 1007.0 L 468.7 992.8 L 466.3 978.5 L 464.4 964.1 L 462.9 949.6 L 461.8 935.1 L 461.1 920.5 L 460.9 905.8 L 461.1 891.1 L 461.7 876.4 L 462.8 861.6 L 464.3 846.9 L 466.2 832.2 L 468.6 817.5 L 471.4 802.8 L 474.7 788.2 L 478.4 773.7 L 482.5 759.3 L 487.1 744.9 L 492.1 730.7 L 497.5 716.5 L 503.3 702.6 L 509.6 688.7 L 516.3 675.0 L 523.4 661.5 L 530.9 648.2 L 538.9 635.0 L 547.2 622.1 L 555.9 609.4 L 565.0 597.0 L 574.5 584.7 L 584.4 572.8 L 594.7 561.1 L 605.3 549.7 L 616.2 538.5 L 627.6 527.7 L 639.2 517.2 L 651.2 507.0 L 663.5 497.2 L 676.1 487.7 L 689.1 478.5 L 702.3 469.7 L 715.8 461.3 L 729.6 453.3 L 743.6 445.7 L 757.9 438.4 L 772.4 431.6 L 787.1 425.2 L 802.1 419.2 L 817.3 413.6 L 832.6 408.5 L 848.2 403.8 L 863.8 399.6 L 879.7 395.8 L 895.7 392.5 L 911.8 389.7 L 928.0 387.3 L 944.4 385.4 L 960.8 383.9 L 977.2 383.0 L 993.8 382.5 L 1010.3 382.6 L 1026.9 383.1 L 1043.6 384.1 L 1060.2 385.6 L 1076.8 387.5 L 1093.3 390.0 L 1109.9 393.0 L 1126.3 396.4 L 1142.7 400.4 L 1159.0 404.8 L 1175.2 409.7 L 1191.3 415.2 L 1207.2 421.0 L 1223.0 427.4 L 1238.7 434.3 L 1254.1 441.6 L 1269.4 449.4 L 1284.5 457.6 L 1299.3 466.3 L 1313.9 475.5 L 1328.3 485.1 L 1342.4 495.1 L 1356.3 505.6 L 1369.8 516.5 L 1383.1 527.8 L 1396.0 539.5 L 1408.6 551.6 L 1420.9 564.1 L 1432.9 577.0 L 1444.4 590.3 L 1455.6 603.9 L 1466.4 617.9 L 1476.9 632.2 L 1486.9 646.8 L 1496.5 661.8 L 1505.7 677.0 L 1514.4 692.6 L 1522.7 708.4 L 1530.6 724.5 L 1537.9 740.9 L 1544.9 757.5 L 1551.3 774.4 L 1557.2 791.4 L 1562.7 808.7 L 1567.7 826.1 L 1572.1 843.7 L 1576.1 861.5 L 1579.5 879.4 L 1582.4 897.4 L 1584.8 915.6 L 1586.6 933.8 L 1587.9 952.1 L 1588.7 970.5 L 1588.9 989.0 L 1588.6 1007.5 L 1587.8 1026.0 L 1586.4 1044.5 L 1584.4 1063.0 L 1582.0 1081.4 L 1578.9 1099.8 L 1575.4 1118.2 L 1571.2 1136.4 L 1566.6 1154.6 L 1561.4 1172.7 L 1555.6 1190.6 L 1549.3 1208.4 L 1542.5 1226.1 L 1535.2 1243.5 L 1527.3 1260.8 L 1518.9 1277.8 L 1510.0 1294.7 L 1500.6 1311.3 L 1490.7 1327.6 L 1480.3 1343.7 L 1469.4 1359.5 L 1458.0 1375.0 L 1446.2 1390.2 L 1433.9 1405.1 L 1421.1 1419.6 L 1407.9 1433.8 L 1394.3 1447.6 L 1380.2 1461.0 L 1365.7 1474.0 L 1350.9 1486.6 L 1335.6 1498.8 L 1319.9 1510.6 L 1303.9 1521.9 L 1287.5 1532.8 L 1270.8 1543.1 L 1253.8 1553.1 L 1236.4 1562.5 L 1218.8 1571.4 L 1200.8 1579.9 L 1182.6 1587.8 L 1164.1 1595.2 L 1145.4 1602.0 L 1126.5 1608.3 L 1107.3 1614.1 L 1088.0 1619.3 L 1068.5 1624.0 L 1048.8 1628.0 L 1028.9 1631.5 L 1009.0 1634.5 L 988.9 1636.8 L 968.7 1638.6 L 948.5 1639.8 L 928.2 1640.3 L 907.8 1640.3 L 887.4 1639.7 L 867.0 1638.5 L 846.6 1636.7 L 826.3 1634.2 L 806.0 1631.2 L 785.7 1627.6 L 765.6 1623.4 L 745.5 1618.6 L 725.6 1613.1 L 705.7 1607.1 L 686.1 1600.5 L 666.6 1593.4 L 647.3 1585.6 L 628.1 1577.3 L 609.3 1568.3 L 590.6 1558.9 L 572.2 1548.8 L 554.1 1538.2 L 536.3 1527.1 L 518.7 1515.4 L 501.5 1503.2 L 484.6 1490.5 L 468.1 1477.3 L 452.0 1463.5 L 436.2 1449.3 L 420.8 1434.6 L 405.9 1419.4 L 391.4 1403.8 L 377.3 1387.7 L 363.6 1371.2 L 350.5 1354.2 L 337.8 1336.9 L 325.6 1319.1 L 313.9 1301.0 L 302.8 1282.5 L 292.1 1263.7 L 282.0 1244.5 L 272.5 1225.0 L 263.5 1205.3 L 255.1 1185.2 L 247.3 1164.8 L 240.0 1144.2 L 233.4 1123.4 L 227.3 1102.3 L 221.9 1081.1 L 217.1 1059.6 L 212.9 1038.0 L 209.3 1016.2 L 206.4 994.3 L 204.1 972.3 L 202.5 950.2 L 201.5 928.1 L 201.1 905.9 L 201.4 883.6 L 202.4 861.3 L 204.0 839.0 L 206.3 816.8 L 209.2 794.6 L 212.8 772.4 L 217.0 750.3 L 221.9 728.4 L 227.5 706.5 L 233.6 684.8 L 240.5 663.2 L 247.9 641.8 L 256.1 620.7 L 264.8 599.7 L 274.2 578.9 L 284.1 558.5 L 294.7 538.2 L 305.9 518.3 L 317.7 498.7 L 330.1 479.4 L 343.1 460.4 L 356.6 441.8 L 370.7 423.6 L 385.4 405.8 L 400.6 388.3 L 416.3 371.4 L 432.5 354.8 L 449.3 338.7 L 466.5 323.1 L 484.2 308.0 L 502.4 293.4 L 521.0 279.2 L 540.1 265.7 L 559.5 252.6 L 579.4 240.2 L 599.7 228.3 L 620.3 216.9 L 641.3 206.2 L 662.6 196.1 L 684.3 186.6 L 706.2 177.7 L 728.4 169.4 L 750.9 161.8 L 773.7 154.9 L 796.7 148.6 L 819.8 143.0 L 843.2 138.0 L 866.8 133.7 L 890.4 130.2 L 914.3 127.3 L 938.2 125.1 L 962.2 123.6 L 986.3 122.8 L 1010.4 122.7 L 1034.6 123.3 L 1058.8 124.6 L 1082.9 126.7 L 1107.1 129.4 L 1131.1 132.9 L 1155.1 137.1 L 1179.0 141.9 L 1202.8 147.5 L 1226.4 153.8 L 1249.9 160.8 L 1273.2 168.5 L 1296.3 176.9 L 1319.1 185.9 L 1341.8 195.7 L 1364.1 206.1 L 1386.2 217.2 L 1408.0 228.9 L 1429.4 241.3 L 1450.5 254.3 L 1471.3 268.0 L 1491.7 282.3 L 1511.6 297.2 L 1531.2 312.7 L 1550.3 328.8 L 1569.0 345.4 L 1587.2 362.7 L 1604.9 380.4 L 1622.1 398.8 L 1638.7 417.6 L 1654.9 436.9 L 1670.5 456.8 L 1685.5 477.1 L 1699.9 497.9 L 1713.8 519.1 L 1727.0 540.7 L 1739.7 562.8 L 1751.6 585.2 L 1763.0 608.1 L 1773.6 631.2 L 1783.7 654.8 L 1793.0 678.6 L 1801.6 702.7 L 1809.6 727.1 L 1816.8 751.8 L 1823.3 776.6 L 1829.1 801.7 L 1834.2 827.0 L 1838.5 852.5 L 1842.1 878.1 L 1844.9 903.9 L 1847.0 929.7 L 1848.3 955.7 L 1848.8 981.7 L 1848.6 1007.7 L 1847.7 1033.8 L 1846.0 1059.9 L 1843.5 1085.9 L 1840.2 1111.9 L 1836.2 1137.8 L 1831.4 1163.6 L 1825.8 1189.3 L 1819.5 1214.9 L 1812.5 1240.3 L 1804.6 1265.5 L 1796.1 1290.5 L 1786.8 1315.3 L 1776.7 1339.8" fill="none" stroke="rgb(221,221,221)" stroke-width="1.0"/>
<circle cx="960.00" cy="644.33" r="26.83" fill="rgb(25,120,20)" stroke="rgb(51,51,51)" stroke-width="3.0"/>
<circle cx="1029.31" cy="642.84" r="13.11" fill="rgb(210,130,30)" stroke="rgb(51,51,51)" stroke-width="3.0"/>
<circle cx="1099.17" cy="657.50" r="16.71" fill="rgb(240,215,50)" stroke="rgb(51,51,51)" stroke-width="3.0"/>
<circle cx="1165.79" cy="688.45" r="6.56" fill="rgb(85,45,15)" stroke="rgb(51,51,51)" stroke-width="2.0"/>
<circle cx="1225.32" cy="734.91" r="4.64" fill="rgb(45,25,10)" stroke="rgb(51,51,51)" stroke-width="2.0"/>
<circle cx="1274.13" cy="795.22" r="14.29" fill="rgb(230,175,40)" stroke="rgb(51,51,51)" stroke-width="3.0"/>
<circle cx="1327.11" cy="1030.29" r="27.81" fill="rgb(25,120,20)" stroke="rgb(51,51,51)" stroke-width="3.0"/>
<circle cx="1307.63" cy="1113.91" r="19.94" fill="rgb(165,200,50)" stroke="rgb(51,51,51)" stroke-width="3.0"/>
<circle cx="1268.93" cy="1192.87" r="6.56" fill="rgb(85,45,15)" stroke="rgb(51,51,51)" stroke-width="2.0"/>
<circle cx="1212.16" cy="1262.70" r="13.51" fill="rgb(230,175,40)" stroke="rgb(51,51,51)" stroke-width="3.0"/>
<circle cx="1139.51" cy="1319.26" r="10.87" fill="rgb(175,95,25)" stroke="rgb(51,51,51)" stroke-width="3.0"/>
<circle cx="1054.13" cy="1358.93" r="11.82" fill="rgb(210,130,30)" stroke="rgb(51,51,51)" stroke-width="3.0"/>
<circle cx="960.00" cy="1378.83" r="17.34" fill="rgb(240,215,50)" stroke="rgb(51,51,51)" stroke-width="3.0"/>
<circle cx="861.73" cy="1377.06" r="15.02" fill="rgb(240,215,50)" stroke="rgb(51,51,51)" stroke-width="3.0"/>
<circle cx="764.35" cy="1352.77" r="10.36" fill="rgb(130,70,20)" stroke="rgb(51,51,51)" stroke-width="3.0"/>
<circle cx="673.06" cy="1306.32" r="13.11" fill="rgb(210,130,30)" stroke="rgb(51,51,51)" stroke-width="3.0"/>
<circle cx="592.91" cy="1239.24" r="8.03" fill="rgb(130,70,20)" stroke="rgb(51,51,51)" stroke-width="3.0"/>
<circle cx="528.60" cy="1154.25" r="14.66" fill="rgb(230,175,40)" stroke="rgb(51,51,51)" stroke-width="3.0"/>
<circle cx="484.12" cy="1055.12" r="6.56" fill="rgb(85,45,15)" stroke="rgb(51,51,51)" stroke-width="2.0"/>
<circle cx="462.59" cy="946.50" r="10.87" fill="rgb(175,95,25)" stroke="rgb(51,51,51)" stroke-width="3.0"/>
<circle cx="465.99" cy="833.75" r="26.63" fill="rgb(80,165,40)" stroke="rgb(51,51,51)" stroke-width="3.0"/>
<circle cx="495.09" cy="722.61" r="22.71" fill="rgb(80,165,40)" stroke="rgb(51,51,51)" stroke-width="3.0"/>
<circle cx="626.68" cy="528.53" r="17.03" fill="rgb(240,215,50)" stroke="rgb(51,51,51)" stroke-width="3.0"/>
<circle cx="724.01" cy="456.46" r="9.83" fill="rgb(130,70,20)" stroke="rgb(51,51,51)" stroke-width="3.0"/>
<circle cx="836.90" cy="407.17" r="11.35" fill="rgb(175,95,25)" stroke="rgb(51,51,51)" stroke-width="3.0"/>
<circle cx="960.00" cy="384.01" r="20.73" fill="rgb(165,200,50)" stroke="rgb(51,51,51)" stroke-width="3.0"/>
<circle cx="1087.24" cy="389.04" r="7.33" fill="rgb(85,45,15)" stroke="rgb(51,51,51)" stroke-width="2.0"/>
<circle cx="1212.13" cy="422.96" r="9.83" fill="rgb(130,70,20)" stroke="rgb(51,51,51)" stroke-width="3.0"/>
<circle cx="1328.10" cy="484.92" r="9.83" fill="rgb(130,70,20)" stroke="rgb(51,51,51)" stroke-width="3.0"/>
<circle cx="1428.85" cy="572.60" r="7.33" fill="rgb(85,45,15)" stroke="rgb(51,51,51)" stroke-width="2.0"/>
<circle cx="1508.67" cy="682.27" r="5.68" fill="rgb(85,45,15)" stroke="rgb(51,51,51)" stroke-width="2.0"/>
<circle cx="1562.78" cy="808.92" r="3.28" fill="rgb(45,25,10)" stroke="rgb(51,51,51)" stroke-width="2.0"/>
<circle cx="1587.58" cy="946.50" r="24.96" fill="rgb(80,165,40)" stroke="rgb(51,51,51)" stroke-width="3.0"/>
<circle cx="1580.91" cy="1088.22" r="23.86" fill="rgb(80,165,40)" stroke="rgb(51,51,51)" stroke-width="3.0"/>
<circle cx="1542.18" cy="1226.86" r="33.90" fill="rgb(25,120,20)" stroke="rgb(51,51,51)" stroke-width="3.0"/>
<circle cx="1472.47" cy="1355.18" r="13.91" fill="rgb(230,175,40)" stroke="rgb(51,51,51)" stroke-width="3.0"/>
<circle cx="1374.48" cy="1466.24" r="9.27" fill="rgb(130,70,20)" stroke="rgb(51,51,51)" stroke-width="3.0"/>
<circle cx="1252.47" cy="1553.81" r="24.31" fill="rgb(80,165,40)" stroke="rgb(51,51,51)" stroke-width="3.0"/>
<circle cx="1112.06" cy="1612.73" r="10.87" fill="rgb(175,95,25)" stroke="rgb(51,51,51)" stroke-width="3.0"/>
<circle cx="960.00" cy="1639.16" r="27.03" fill="rgb(25,120,20)" stroke="rgb(51,51,51)" stroke-width="3.0"/>
<circle cx="803.80" cy="1630.86" r="28.57" fill="rgb(25,120,20)" stroke="rgb(51,51,51)" stroke-width="3.0"/>
<circle cx="651.40" cy="1587.32" r="12.26" fill="rgb(210,130,30)" stroke="rgb(51,51,51)" stroke-width="3.0"/>
<circle cx="510.74" cy="1509.85" r="20.47" fill="rgb(165,200,50)" stroke="rgb(51,51,51)" stroke-width="3.0"/>
<circle cx="389.38" cy="1401.55" r="12.69" fill="rgb(210,130,30)" stroke="rgb(51,51,51)" stroke-width="3.0"/>
<circle cx="294.05" cy="1267.20" r="19.11" fill="rgb(240,215,50)" stroke="rgb(51,51,51)" stroke-width="3.0"/>
<circle cx="230.32" cy="1113.04" r="13.51" fill="rgb(230,175,40)" stroke="rgb(51,51,51)" stroke-width="3.0"/>
<circle cx="202.26" cy="946.50" r="22.71" fill="rgb(80,165,40)" stroke="rgb(51,51,51)" stroke-width="3.0"/>
<circle cx="212.19" cy="775.82" r="32.45" fill="rgb(25,120,20)" stroke="rgb(51,51,51)" stroke-width="3.0"/>
<circle cx="260.55" cy="609.66" r="19.39" fill="rgb(165,200,50)" stroke="rgb(51,51,51)" stroke-width="3.0"/>
<circle cx="345.77" cy="456.67" r="12.26" fill="rgb(210,130,30)" stroke="rgb(51,51,51)" stroke-width="3.0"/>
<circle cx="464.37" cy="325.00" r="11.82" fill="rgb(210,130,30)" stroke="rgb(51,51,51)" stroke-width="3.0"/>
<circle cx="611.06" cy="221.92" r="5.68" fill="rgb(85,45,15)" stroke="rgb(51,51,51)" stroke-width="2.0"/>
<circle cx="778.97" cy="153.37" r="19.39" fill="rgb(165,200,50)" stroke="rgb(51,51,51)" stroke-width="3.0"/>
<circle cx="960.00" cy="123.68" r="15.02" fill="rgb(240,215,50)" stroke="rgb(51,51,51)" stroke-width="3.0"/>
<circle cx="1145.16" cy="135.24" r="23.41" fill="rgb(80,165,40)" stroke="rgb(51,51,51)" stroke-width="3.0"/>
<circle cx="1325.08" cy="188.41" r="17.03" fill="rgb(240,215,50)" stroke="rgb(51,51,51)" stroke-width="3.0"/>
<circle cx="1490.41" cy="281.38" r="11.35" fill="rgb(175,95,25)" stroke="rgb(51,51,51)" stroke-width="3.0"/>
<circle cx="1816.58" cy="750.99" r="5.68" fill="rgb(85,45,15)" stroke="rgb(51,51,51)" stroke-width="2.0"/>
<circle cx="1834.71" cy="1146.15" r="3.28" fill="rgb(45,25,10)" stroke="rgb(51,51,51)" stroke-width="2.0"/>
<circle cx="1776.73" cy="1339.82" r="3.28" fill="rgb(45,25,10)" stroke="rgb(51,51,51)" stroke-width="2.0"/>
<text x="960.00" y="613.51" fill="rgb(34,34,34)" font-size="12.0" font-family="sans-serif" text-anchor="start" dominant-baseline="central">Apr 4</text>
<text x="960.00" y="359.28" fill="rgb(34,34,34)" font-size="12.0" font-family="sans-serif" text-anchor="start" dominant-baseline="central" transform="rotate(360.00 960.00 359.28)">May 2</text>
<text x="960.00" y="104.66" fill="rgb(34,34,34)" font-size="12.0" font-family="sans-serif" text-anchor="start" dominant-baseline="central" transform="rotate(720.00 960.00 104.66)">May 30</text>
<rect x="1796.00" y="1534.00" width="108.00" height="370.00" fill="rgba(255,255,255,0.902)" stroke="rgba(153,153,153,0.800)" stroke-width="1.0"/>
<text x="1832.00" y="1554.00" fill="rgb(38,38,38)" font-size="13.0" font-family="sans-serif" text-anchor="middle" dominant-baseline="central">Fill</text>
<text x="1832.00" y="1570.00" fill="rgb(38,38,38)" font-size="13.0" font-family="sans-serif" text-anchor="middle" dominant-baseline="central">commit-count</text>
<rect x="1808.00" y="1584.00" width="28.00" height="28.00" fill="rgb(15,10,5)" stroke="rgb(102,102,102)" stroke-width="0.5"/>
<text x="1842.00" y="1612.00" fill="rgb(51,51,51)" font-size="12.0" font-family="sans-serif" text-anchor="start" dominant-baseline="central">1</text>
<rect x="1808.00" y="1612.00" width="28.00" height="28.00" fill="rgb(45,25,10)" stroke="rgb(102,102,102)" stroke-width="0.5"/>
<text x="1842.00" y="1640.00" fill="rgb(51,51,51)" font-size="12.0" font-family="sans-serif" text-anchor="start" dominant-baseline="central">3</text>
<rect x="1808.00" y="1640.00" width="28.00" height="28.00" fill="rgb(85,45,15)" stroke="rgb(102,102,102)" stroke-width="0.5"/>
<text x="1842.00" y="1668.00" fill="rgb(51,51,51)" font-size="12.0" font-family="sans-serif" text-anchor="start" dominant-baseline="central">6</text>
<rect x="1808.00" y="1668.00" width="28.00" height="28.00" fill="rgb(130,70,20)" stroke="rgb(102,102,102)" stroke-width="0.5"/>
<text x="1842.00" y="1696.00" fill="rgb(51,51,51)" font-size="12.0" font-family="sans-serif" text-anchor="start" dominant-baseline="central">11</text>
<rect x="1808.00" y="1696.00" width="28.00" height="28.00" fill="rgb(175,95,25)" stroke="rgb(102,102,102)" stroke-width="0.5"/>
<text x="1842.00" y="1724.00" fill="rgb(51,51,51)" font-size="12.0" font-family="sans-serif" text-anchor="start" dominant-baseline="central">13</text>
<rect x="1808.00" y="1724.00" width="28.00" height="28.00" fill="rgb(210,130,30)" stroke="rgb(102,102,102)" stroke-width="0.5"/>
<text x="1842.00" y="1752.00" fill="rgb(51,51,51)" font-size="12.0" font-family="sans-serif" text-anchor="start" dominant-baseline="central">17</text>
<rect x="1808.00" y="1752.00" width="28.00" height="28.00" fill="rgb(230,175,40)" stroke="rgb(102,102,102)" stroke-width="0.5"/>
<text x="1842.00" y="1780.00" fill="rgb(51,51,51)" font-size="12.0" font-family="sans-serif" text-anchor="start" dominant-baseline="central">21</text>
<rect x="1808.00" y="1780.00" width="28.00" height="28.00" fill="rgb(240,215,50)" stroke="rgb(102,102,102)" stroke-width="0.5"/>
<text x="1842.00" y="1808.00" fill="rgb(51,51,51)" font-size="12.0" font-family="sans-serif" text-anchor="start" dominant-baseline="central">35</text>
<rect x="1808.00" y="1808.00" width="28.00" height="28.00" fill="rgb(165,200,50)" stroke="rgb(102,102,102)" stroke-width="0.5"/>
<text x="1842.00" y="1836.00" fill="rgb(51,51,51)" font-size="12.0" font-family="sans-serif" text-anchor="start" dominant-baseline="central">48</text>
<rect x="1808.00" y="1836.00" width="28.00" height="28.00" fill="rgb(80,165,40)" stroke="rgb(102,102,102)" stroke-width="0.5"/>
<text x="1842.00" y="1864.00" fill="rgb(51,51,51)" font-size="12.0" font-family="sans-serif" text-anchor="start" dominant-baseline="central">67</text>
<rect x="1808.00" y="1864.00" width="28.00" height="28.00" fill="rgb(25,120,20)" stroke="rgb(102,102,102)" stroke-width="0.5"/>
<text x="960.00" y="1906.00" fill="rgba(128,128,128,0.784)" font-size="13.0" font-family="sans-serif" text-anchor="middle" dominant-baseline="central">Generated by github.com/theunrepentantgeek/code-visualizer at 08:49:54 on 2026-06-10</text>
</svg>
