<svg xmlns="http://www.w3.org/2000/svg" width="1920" height="1920">
<rect x="0.00" y="0.00" width="1920.00" height="1920.00" fill="rgb(255,255,255)" stroke="rgb(255,255,255)" stroke-width="0.0"/>
<path d="M 960.0 644.3 L 971.5 643.3 L 983.0 642.8 L 994.6 642.7 L 1006.2 643.0 L 1017.9 643.8 L 1029.5 645.0 L 1041.2 646.7 L 1052.8 648.8 L 1064.4 651.4 L 1075.9 654.4 L 1087.4 657.9 L 1098.7 661.8 L 1109.9 666.2 L 1121.0 671.0 L 1131.9 676.2 L 1142.7 681.9 L 1153.3 688.0 L 1163.7 694.6 L 1173.9 701.5 L 1183.8 708.9 L 1193.5 716.7 L 1202.9 724.8 L 1212.0 733.4 L 1220.8 742.3 L 1229.3 751.6 L 1237.5 761.2 L 1245.3 771.2 L 1252.8 781.5 L 1259.9 792.1 L 1266.6 803.1 L 1272.9 814.3 L 1278.8 825.8 L 1284.3 837.5 L 1289.4 849.5 L 1294.0 861.7 L 1298.1 874.1 L 1301.8 886.7 L 1305.0 899.5 L 1307.7 912.5 L 1310.0 925.5 L 1311.7 938.7 L 1313.0 952.1 L 1313.7 965.4 L 1314.0 978.9 L 1313.7 992.4 L 1312.9 1005.9 L 1311.6 1019.5 L 1309.8 1033.0 L 1307.4 1046.5 L 1304.5 1059.9 L 1301.1 1073.2 L 1297.2 1086.5 L 1292.8 1099.6 L 1287.9 1112.6 L 1282.4 1125.5 L 1276.5 1138.2 L 1270.0 1150.7 L 1263.1 1162.9 L 1255.6 1175.0 L 1247.7 1186.7 L 1239.3 1198.2 L 1230.5 1209.5 L 1221.2 1220.4 L 1211.5 1230.9 L 1201.3 1241.2 L 1190.8 1251.0 L 1179.8 1260.5 L 1168.4 1269.6 L 1156.7 1278.3 L 1144.6 1286.6 L 1132.2 1294.4 L 1119.4 1301.7 L 1106.3 1308.6 L 1093.0 1315.0 L 1079.3 1320.9 L 1065.4 1326.4 L 1051.3 1331.2 L 1036.9 1335.6 L 1022.4 1339.4 L 1007.6 1342.7 L 992.7 1345.4 L 977.7 1347.6 L 962.5 1349.2 L 947.3 1350.2 L 932.0 1350.6 L 916.6 1350.5 L 901.2 1349.8 L 885.8 1348.4 L 870.4 1346.5 L 855.0 1344.0 L 839.8 1341.0 L 824.5 1337.3 L 809.4 1333.0 L 794.5 1328.2 L 779.7 1322.7 L 765.0 1316.7 L 750.6 1310.1 L 736.3 1303.0 L 722.3 1295.3 L 708.6 1287.0 L 695.2 1278.3 L 682.1 1268.9 L 669.3 1259.1 L 656.8 1248.7 L 644.7 1237.9 L 633.0 1226.6 L 621.7 1214.8 L 610.8 1202.5 L 600.4 1189.8 L 590.5 1176.7 L 581.0 1163.2 L 572.0 1149.3 L 563.5 1135.0 L 555.6 1120.4 L 548.2 1105.4 L 541.3 1090.2 L 535.0 1074.6 L 529.3 1058.8 L 524.2 1042.7 L 519.7 1026.4 L 515.8 1009.8 L 512.5 993.2 L 509.9 976.3 L 507.8 959.3 L 506.5 942.2 L 505.7 925.0 L 505.7 907.8 L 506.3 890.5 L 507.5 873.2 L 509.4 855.9 L 512.0 838.7 L 515.2 821.5 L 519.1 804.5 L 523.6 787.5 L 528.8 770.7 L 534.7 754.0 L 541.1 737.5 L 548.3 721.3 L 556.0 705.3 L 564.4 689.5 L 573.4 674.1 L 583.0 658.9 L 593.2 644.1 L 604.0 629.7 L 615.3 615.6 L 627.2 602.0 L 639.7 588.8 L 652.6 576.0 L 666.1 563.7 L 680.1 551.9 L 694.5 540.6 L 709.4 529.8 L 724.7 519.6 L 740.5 509.9 L 756.6 500.8 L 773.1 492.3 L 790.0 484.5 L 807.2 477.2 L 824.7 470.6 L 842.5 464.7 L 860.5 459.4 L 878.8 454.8 L 897.3 450.9 L 915.9 447.7 L 934.7 445.1 L 953.7 443.3 L 972.7 442.2 L 991.8 441.9 L 1011.0 442.2 L 1030.1 443.3 L 1049.3 445.1 L 1068.4 447.7 L 1087.5 451.0 L 1106.5 455.0 L 1125.3 459.7 L 1144.0 465.2 L 1162.5 471.3 L 1180.9 478.2 L 1198.9 485.8 L 1216.8 494.1 L 1234.3 503.1 L 1251.5 512.8 L 1268.4 523.1 L 1284.9 534.1 L 1301.1 545.8 L 1316.8 558.0 L 1332.0 570.9 L 1346.8 584.4 L 1361.2 598.5 L 1375.0 613.1 L 1388.2 628.3 L 1400.9 644.0 L 1413.1 660.3 L 1424.6 677.0 L 1435.5 694.1 L 1445.8 711.7 L 1455.4 729.8 L 1464.4 748.2 L 1472.7 767.0 L 1480.2 786.1 L 1487.1 805.6 L 1493.2 825.3 L 1498.6 845.3 L 1503.2 865.5 L 1507.1 886.0 L 1510.2 906.6 L 1512.5 927.4 L 1514.1 948.2 L 1514.8 969.2 L 1514.8 990.2 L 1513.9 1011.3 L 1512.3 1032.4 L 1509.8 1053.4 L 1506.6 1074.4 L 1502.5 1095.2 L 1497.7 1116.0 L 1492.0 1136.6 L 1485.6 1157.0 L 1478.4 1177.2 L 1470.4 1197.1 L 1461.6 1216.8 L 1452.1 1236.2 L 1441.8 1255.2 L 1430.8 1273.9 L 1419.1 1292.1 L 1406.7 1310.0 L 1393.5 1327.4 L 1379.7 1344.3 L 1365.2 1360.8 L 1350.1 1376.7 L 1334.4 1392.0 L 1318.0 1406.8 L 1301.1 1421.0 L 1283.6 1434.5 L 1265.6 1447.4 L 1247.0 1459.7 L 1228.0 1471.2 L 1208.5 1482.1 L 1188.6 1492.2 L 1168.2 1501.6 L 1147.5 1510.2 L 1126.4 1518.0 L 1105.0 1525.1 L 1083.3 1531.3 L 1061.3 1536.8 L 1039.1 1541.4 L 1016.7 1545.1 L 994.1 1548.0 L 971.4 1550.1 L 948.6 1551.3 L 925.7 1551.7 L 902.7 1551.2 L 879.8 1549.8 L 856.8 1547.5 L 834.0 1544.4 L 811.2 1540.3 L 788.5 1535.5 L 766.0 1529.7 L 743.7 1523.1 L 721.6 1515.6 L 699.8 1507.3 L 678.2 1498.2 L 657.0 1488.2 L 636.1 1477.4 L 615.7 1465.8 L 595.6 1453.4 L 576.0 1440.3 L 556.8 1426.3 L 538.2 1411.7 L 520.0 1396.3 L 502.5 1380.2 L 485.5 1363.4 L 469.2 1345.9 L 453.5 1327.8 L 438.5 1309.1 L 424.1 1289.8 L 410.5 1269.9 L 397.6 1249.5 L 385.5 1228.6 L 374.1 1207.2 L 363.6 1185.3 L 353.8 1163.1 L 344.9 1140.4 L 336.9 1117.3 L 329.7 1093.9 L 323.4 1070.3 L 318.0 1046.3 L 313.5 1022.1 L 309.8 997.8 L 307.2 973.2 L 305.4 948.6 L 304.6 923.8 L 304.7 899.0 L 305.8 874.1 L 307.8 849.3 L 310.7 824.5 L 314.6 799.8 L 319.4 775.2 L 325.2 750.8 L 331.9 726.6 L 339.5 702.6 L 348.1 678.8 L 357.5 655.4 L 367.9 632.3 L 379.1 609.5 L 391.2 587.2 L 404.2 565.3 L 418.0 543.8 L 432.7 522.9 L 448.2 502.5 L 464.4 482.6 L 481.4 463.4 L 499.2 444.8 L 517.7 426.8 L 536.9 409.5 L 556.7 392.9 L 577.3 377.1 L 598.4 362.0 L 620.1 347.7 L 642.4 334.2 L 665.3 321.6 L 688.6 309.8 L 712.4 298.9 L 736.7 288.8 L 761.3 279.7 L 786.3 271.5 L 811.7 264.2 L 837.3 257.9 L 863.3 252.6 L 889.4 248.2 L 915.8 244.9 L 942.3 242.5 L 968.9 241.1 L 995.6 240.7 L 1022.3 241.4 L 1049.1 243.0 L 1075.8 245.7 L 1102.4 249.4 L 1128.9 254.1 L 1155.3 259.8 L 1181.4 266.5 L 1207.4 274.2 L 1233.0 282.9 L 1258.4 292.6 L 1283.4 303.2 L 1308.1 314.9 L 1332.3 327.4 L 1356.1 340.9 L 1379.4 355.3 L 1402.1 370.6 L 1424.3 386.8 L 1446.0 403.8 L 1467.0 421.7 L 1487.3 440.4 L 1506.9 459.8 L 1525.9 480.1 L 1544.0 501.0 L 1561.4 522.7 L 1578.0 545.1 L 1593.8 568.1 L 1608.7 591.7 L 1622.7 615.9 L 1635.8 640.7 L 1648.0 666.0 L 1659.2 691.7 L 1669.5 717.9 L 1678.8 744.6 L 1687.1 771.6 L 1694.4 798.9 L 1700.6 826.6 L 1705.8 854.5 L 1710.0 882.6 L 1713.1 910.9 L 1715.1 939.4 L 1716.0 967.9 L 1715.9 996.5 L 1714.7 1025.2 L 1712.3 1053.8 L 1708.9 1082.3 L 1704.5 1110.8 L 1698.9 1139.1 L 1692.3 1167.2 L 1684.6 1195.1 L 1675.8 1222.7 L 1665.9 1250.0 L 1655.1 1277.0 L 1643.2 1303.6 L 1630.2 1329.7 L 1616.3 1355.4 L 1601.4 1380.6 L 1585.5 1405.2 L 1568.7 1429.3 L 1551.0 1452.7 L 1532.3 1475.5 L 1512.8 1497.6 L 1492.4 1518.9 L 1471.2 1539.5 L 1449.2 1559.4 L 1426.4 1578.4 L 1402.9 1596.6 L 1378.7 1613.8 L 1353.8 1630.2 L 1328.3 1645.7 L 1302.1 1660.2 L 1275.4 1673.7 L 1248.1 1686.2 L 1220.4 1697.7 L 1192.2 1708.2 L 1163.6 1717.6 L 1134.6 1725.9 L 1105.2 1733.1 L 1075.6 1739.3 L 1045.7 1744.3 L 1015.6 1748.1 L 985.3 1750.9 L 954.9 1752.5 L 924.4 1752.9 L 893.9 1752.2 L 863.4 1750.3 L 832.9 1747.3 L 802.5 1743.1 L 772.3 1737.8 L 742.2 1731.3 L 712.3 1723.7 L 682.8 1714.9 L 653.5 1705.0 L 624.6 1694.0 L 596.0 1681.9 L 567.9 1668.7 L 540.3 1654.4 L 513.2 1639.0 L 486.7 1622.7 L 460.8 1605.3 L 435.5 1586.9 L 410.9 1567.5 L 387.0 1547.2 L 363.8 1526.0 L 341.5 1503.9 L 319.9 1480.9 L 299.3 1457.1 L 279.5 1432.5 L 260.6 1407.1 L 242.6 1381.0 L 225.7 1354.2 L 209.7 1326.7 L 194.8 1298.6 L 180.9 1269.9 L 168.1 1240.7 L 156.5 1210.9 L 145.9 1180.7 L 136.4 1150.1 L 128.1 1119.1 L 121.0 1087.8 L 115.1 1056.2 L 110.3 1024.3 L 106.8 992.2 L 104.5 960.0 L 103.4 927.6 L 103.5 895.2 L 104.8 862.8 L 107.4 830.4 L 111.2 798.1 L 116.2 765.9 L 122.5 733.8 L 129.9 702.0 L 138.6 670.4 L 148.5 639.2 L 159.6 608.3 L 171.8 577.8 L 185.2 547.7 L 199.8 518.2 L 215.5 489.1 L 232.3 460.7 L 250.1 432.8 L 269.1 405.6 L 289.1 379.1 L 310.1 353.4 L 332.1 328.4 L 355.1 304.3 L 379.0 281.0 L 403.7 258.5 L 429.4 237.1 L 455.9 216.5 L 483.2 197.0 L 511.2 178.5 L 539.9 161.0 L 569.4 144.6 L 599.5 129.3 L 630.1 115.2 L 661.4 102.2 L 693.1 90.3 L 725.3 79.7 L 757.9 70.3 L 790.9 62.1 L 824.3 55.1 L 857.9 49.4 L 891.8 45.0 L 925.8 41.9 L 960.0 40.0" fill="none" stroke="rgb(221,221,221)" stroke-width="1.0"/>
<circle cx="960.00" cy="644.33" r="23.88" fill="rgb(80,165,40)" stroke="rgb(51,51,51)" stroke-width="3.0"/>
<circle cx="1028.84" cy="644.90" r="11.67" fill="rgb(230,175,40)" stroke="rgb(51,51,51)" stroke-width="3.0"/>
<circle cx="1097.35" cy="661.29" r="14.88" fill="rgb(240,215,50)" stroke="rgb(51,51,51)" stroke-width="3.0"/>
<circle cx="1161.85" cy="693.38" r="5.84" fill="rgb(85,45,15)" stroke="rgb(51,51,51)" stroke-width="2.0"/>
<circle cx="1218.74" cy="740.16" r="4.13" fill="rgb(45,25,10)" stroke="rgb(51,51,51)" stroke-width="2.0"/>
<circle cx="1264.65" cy="799.79" r="12.72" fill="rgb(230,175,40)" stroke="rgb(51,51,51)" stroke-width="3.0"/>
<circle cx="1310.70" cy="1026.55" r="24.06" fill="rgb(25,120,20)" stroke="rgb(51,51,51)" stroke-width="3.0"/>
<circle cx="1290.58" cy="1105.70" r="17.75" fill="rgb(165,200,50)" stroke="rgb(51,51,51)" stroke-width="3.0"/>
<circle cx="1252.49" cy="1179.75" r="5.84" fill="rgb(85,45,15)" stroke="rgb(51,51,51)" stroke-width="2.0"/>
<circle cx="1197.74" cy="1244.62" r="10.92" fill="rgb(210,130,30)" stroke="rgb(51,51,51)" stroke-width="3.0"/>
<circle cx="1128.56" cy="1296.53" r="9.68" fill="rgb(175,95,25)" stroke="rgb(51,51,51)" stroke-width="3.0"/>
<circle cx="1048.05" cy="1332.27" r="10.52" fill="rgb(210,130,30)" stroke="rgb(51,51,51)" stroke-width="3.0"/>
<circle cx="960.00" cy="1349.39" r="15.44" fill="rgb(165,200,50)" stroke="rgb(51,51,51)" stroke-width="3.0"/>
<circle cx="868.75" cy="1346.30" r="13.37" fill="rgb(230,175,40)" stroke="rgb(51,51,51)" stroke-width="3.0"/>
<circle cx="778.95" cy="1322.45" r="9.23" fill="rgb(130,70,20)" stroke="rgb(51,51,51)" stroke-width="3.0"/>
<circle cx="695.35" cy="1278.37" r="11.67" fill="rgb(230,175,40)" stroke="rgb(51,51,51)" stroke-width="3.0"/>
<circle cx="622.51" cy="1215.64" r="7.15" fill="rgb(85,45,15)" stroke="rgb(51,51,51)" stroke-width="2.0"/>
<circle cx="564.60" cy="1136.91" r="13.37" fill="rgb(230,175,40)" stroke="rgb(51,51,51)" stroke-width="3.0"/>
<circle cx="525.13" cy="1045.76" r="5.84" fill="rgb(85,45,15)" stroke="rgb(51,51,51)" stroke-width="2.0"/>
<circle cx="506.75" cy="946.50" r="9.68" fill="rgb(175,95,25)" stroke="rgb(51,51,51)" stroke-width="3.0"/>
<circle cx="511.10" cy="844.04" r="23.52" fill="rgb(80,165,40)" stroke="rgb(51,51,51)" stroke-width="3.0"/>
<circle cx="538.67" cy="743.60" r="20.00" fill="rgb(80,165,40)" stroke="rgb(51,51,51)" stroke-width="3.0"/>
<circle cx="659.46" cy="569.64" r="15.16" fill="rgb(240,215,50)" stroke="rgb(51,51,51)" stroke-width="3.0"/>
<circle cx="747.73" cy="505.73" r="8.75" fill="rgb(130,70,20)" stroke="rgb(51,51,51)" stroke-width="3.0"/>
<circle cx="849.54" cy="462.53" r="10.11" fill="rgb(175,95,25)" stroke="rgb(51,51,51)" stroke-width="3.0"/>
<circle cx="960.00" cy="442.89" r="18.45" fill="rgb(165,200,50)" stroke="rgb(51,51,51)" stroke-width="3.0"/>
<circle cx="1073.66" cy="448.50" r="6.52" fill="rgb(85,45,15)" stroke="rgb(51,51,51)" stroke-width="2.0"/>
<circle cx="1184.75" cy="479.80" r="8.75" fill="rgb(130,70,20)" stroke="rgb(51,51,51)" stroke-width="3.0"/>
<circle cx="1287.45" cy="535.89" r="8.75" fill="rgb(130,70,20)" stroke="rgb(51,51,51)" stroke-width="3.0"/>
<circle cx="1376.24" cy="614.56" r="6.52" fill="rgb(85,45,15)" stroke="rgb(51,51,51)" stroke-width="2.0"/>
<circle cx="1446.15" cy="712.38" r="5.05" fill="rgb(45,25,10)" stroke="rgb(51,51,51)" stroke-width="2.0"/>
<circle cx="1493.07" cy="824.83" r="3.00" fill="rgb(15,10,5)" stroke="rgb(51,51,51)" stroke-width="2.0"/>
<circle cx="1513.97" cy="946.50" r="19.57" fill="rgb(80,165,40)" stroke="rgb(51,51,51)" stroke-width="3.0"/>
<circle cx="1507.10" cy="1071.37" r="18.91" fill="rgb(165,200,50)" stroke="rgb(51,51,51)" stroke-width="3.0"/>
<circle cx="1472.08" cy="1193.10" r="28.14" fill="rgb(25,120,20)" stroke="rgb(51,51,51)" stroke-width="3.0"/>
<circle cx="1409.99" cy="1305.35" r="11.30" fill="rgb(210,130,30)" stroke="rgb(51,51,51)" stroke-width="3.0"/>
<circle cx="1323.34" cy="1402.11" r="7.72" fill="rgb(85,45,15)" stroke="rgb(51,51,51)" stroke-width="2.0"/>
<circle cx="1215.97" cy="1478.02" r="20.00" fill="rgb(80,165,40)" stroke="rgb(51,51,51)" stroke-width="3.0"/>
<circle cx="1092.88" cy="1528.67" r="9.68" fill="rgb(175,95,25)" stroke="rgb(51,51,51)" stroke-width="3.0"/>
<circle cx="960.00" cy="1550.83" r="23.71" fill="rgb(80,165,40)" stroke="rgb(51,51,51)" stroke-width="3.0"/>
<circle cx="823.92" cy="1542.70" r="24.93" fill="rgb(25,120,20)" stroke="rgb(51,51,51)" stroke-width="3.0"/>
<circle cx="691.55" cy="1503.95" r="10.11" fill="rgb(175,95,25)" stroke="rgb(51,51,51)" stroke-width="3.0"/>
<circle cx="569.75" cy="1435.86" r="15.44" fill="rgb(165,200,50)" stroke="rgb(51,51,51)" stroke-width="3.0"/>
<circle cx="465.01" cy="1341.24" r="9.68" fill="rgb(175,95,25)" stroke="rgb(51,51,51)" stroke-width="3.0"/>
<circle cx="383.10" cy="1224.32" r="14.29" fill="rgb(240,215,50)" stroke="rgb(51,51,51)" stroke-width="3.0"/>
<circle cx="328.73" cy="1090.58" r="10.92" fill="rgb(210,130,30)" stroke="rgb(51,51,51)" stroke-width="3.0"/>
<circle cx="305.31" cy="946.50" r="18.68" fill="rgb(165,200,50)" stroke="rgb(51,51,51)" stroke-width="3.0"/>
<circle cx="314.71" cy="799.22" r="28.44" fill="rgb(25,120,20)" stroke="rgb(51,51,51)" stroke-width="3.0"/>
<circle cx="357.18" cy="656.20" r="17.26" fill="rgb(165,200,50)" stroke="rgb(51,51,51)" stroke-width="3.0"/>
<circle cx="431.26" cy="524.85" r="10.11" fill="rgb(175,95,25)" stroke="rgb(51,51,51)" stroke-width="3.0"/>
<circle cx="533.86" cy="412.14" r="10.11" fill="rgb(175,95,25)" stroke="rgb(51,51,51)" stroke-width="3.0"/>
<circle cx="660.33" cy="324.23" r="5.05" fill="rgb(45,25,10)" stroke="rgb(51,51,51)" stroke-width="2.0"/>
<circle cx="804.71" cy="266.14" r="14.29" fill="rgb(240,215,50)" stroke="rgb(51,51,51)" stroke-width="3.0"/>
<circle cx="960.00" cy="241.44" r="13.37" fill="rgb(230,175,40)" stroke="rgb(51,51,51)" stroke-width="3.0"/>
<circle cx="1118.49" cy="252.11" r="19.79" fill="rgb(80,165,40)" stroke="rgb(51,51,51)" stroke-width="3.0"/>
<circle cx="1272.16" cy="298.30" r="14.88" fill="rgb(240,215,50)" stroke="rgb(51,51,51)" stroke-width="3.0"/>
<circle cx="1413.05" cy="378.39" r="10.11" fill="rgb(175,95,25)" stroke="rgb(51,51,51)" stroke-width="3.0"/>
<circle cx="1533.73" cy="488.96" r="3.00" fill="rgb(15,10,5)" stroke="rgb(51,51,51)" stroke-width="2.0"/>
<circle cx="1627.64" cy="624.98" r="8.25" fill="rgb(85,45,15)" stroke="rgb(51,51,51)" stroke-width="3.0"/>
<circle cx="1689.46" cy="780.00" r="14.29" fill="rgb(240,215,50)" stroke="rgb(51,51,51)" stroke-width="3.0"/>
<circle cx="1715.42" cy="946.50" r="31.83" fill="rgb(25,120,20)" stroke="rgb(51,51,51)" stroke-width="3.0"/>
<circle cx="1703.49" cy="1116.20" r="19.36" fill="rgb(165,200,50)" stroke="rgb(51,51,51)" stroke-width="3.0"/>
<circle cx="1653.57" cy="1280.51" r="7.15" fill="rgb(85,45,15)" stroke="rgb(51,51,51)" stroke-width="2.0"/>
<circle cx="1567.48" cy="1430.95" r="13.05" fill="rgb(230,175,40)" stroke="rgb(51,51,51)" stroke-width="3.0"/>
<circle cx="1448.94" cy="1559.61" r="11.67" fill="rgb(230,175,40)" stroke="rgb(51,51,51)" stroke-width="3.0"/>
<circle cx="1303.37" cy="1659.52" r="8.25" fill="rgb(85,45,15)" stroke="rgb(51,51,51)" stroke-width="3.0"/>
<circle cx="1137.70" cy="1725.06" r="5.05" fill="rgb(45,25,10)" stroke="rgb(51,51,51)" stroke-width="2.0"/>
<circle cx="960.00" cy="1752.28" r="24.06" fill="rgb(25,120,20)" stroke="rgb(51,51,51)" stroke-width="3.0"/>
<circle cx="779.10" cy="1739.09" r="33.40" fill="rgb(25,120,20)" stroke="rgb(51,51,51)" stroke-width="3.0"/>
<circle cx="604.14" cy="1685.44" r="31.96" fill="rgb(25,120,20)" stroke="rgb(51,51,51)" stroke-width="3.0"/>
<circle cx="444.15" cy="1593.36" r="14.29" fill="rgb(240,215,50)" stroke="rgb(51,51,51)" stroke-width="3.0"/>
<circle cx="307.52" cy="1466.84" r="9.23" fill="rgb(130,70,20)" stroke="rgb(51,51,51)" stroke-width="3.0"/>
<circle cx="201.61" cy="1311.72" r="4.13" fill="rgb(45,25,10)" stroke="rgb(51,51,51)" stroke-width="2.0"/>
<circle cx="132.34" cy="1135.41" r="12.03" fill="rgb(230,175,40)" stroke="rgb(51,51,51)" stroke-width="3.0"/>
<circle cx="103.86" cy="946.50" r="10.11" fill="rgb(175,95,25)" stroke="rgb(51,51,51)" stroke-width="3.0"/>
<circle cx="118.31" cy="754.39" r="33.90" fill="rgb(25,120,20)" stroke="rgb(51,51,51)" stroke-width="3.0"/>
<circle cx="175.68" cy="568.79" r="10.52" fill="rgb(210,130,30)" stroke="rgb(51,51,51)" stroke-width="3.0"/>
<circle cx="273.77" cy="399.25" r="5.05" fill="rgb(45,25,10)" stroke="rgb(51,51,51)" stroke-width="2.0"/>
<circle cx="408.26" cy="254.64" r="13.69" fill="rgb(230,175,40)" stroke="rgb(51,51,51)" stroke-width="3.0"/>
<circle cx="572.93" cy="142.74" r="10.92" fill="rgb(210,130,30)" stroke="rgb(51,51,51)" stroke-width="3.0"/>
<circle cx="960.00" cy="40.00" r="3.00" fill="rgb(15,10,5)" stroke="rgb(51,51,51)" stroke-width="2.0"/>
<text x="960.00" y="616.45" fill="rgb(34,34,34)" font-size="12.0" font-family="sans-serif" text-anchor="start" dominant-baseline="central">Apr 4</text>
<text x="960.00" y="420.43" fill="rgb(34,34,34)" font-size="12.0" font-family="sans-serif" text-anchor="start" dominant-baseline="central" transform="rotate(360.00 960.00 420.43)">May 2</text>
<text x="960.00" y="224.07" fill="rgb(34,34,34)" font-size="12.0" font-family="sans-serif" text-anchor="start" dominant-baseline="central" transform="rotate(720.00 960.00 224.07)">May 30</text>
<text x="960.00" y="33.00" fill="rgb(34,34,34)" font-size="12.0" font-family="sans-serif" text-anchor="start" dominant-baseline="central" transform="rotate(1080.00 960.00 33.00)">Jun 27</text>
<rect x="1796.00" y="1534.00" width="108.00" height="370.00" fill="rgba(255,255,255,0.902)" stroke="rgba(153,153,153,0.800)" stroke-width="1.0"/>
<text x="1850.00" y="1554.00" fill="rgb(38,38,38)" font-size="13.0" font-family="sans-serif" text-anchor="middle" dominant-baseline="central">Fill</text>
<text x="1850.00" y="1570.00" fill="rgb(38,38,38)" font-size="13.0" font-family="sans-serif" text-anchor="middle" dominant-baseline="central">commit-count</text>
<rect x="1826.00" y="1584.00" width="28.00" height="28.00" fill="rgb(15,10,5)" stroke="rgb(102,102,102)" stroke-width="0.5"/>
<text x="1860.00" y="1612.00" fill="rgb(51,51,51)" font-size="12.0" font-family="sans-serif" text-anchor="start" dominant-baseline="central">2</text>
<rect x="1826.00" y="1612.00" width="28.00" height="28.00" fill="rgb(45,25,10)" stroke="rgb(102,102,102)" stroke-width="0.5"/>
<text x="1860.00" y="1640.00" fill="rgb(51,51,51)" font-size="12.0" font-family="sans-serif" text-anchor="start" dominant-baseline="central">4</text>
<rect x="1826.00" y="1640.00" width="28.00" height="28.00" fill="rgb(85,45,15)" stroke="rgb(102,102,102)" stroke-width="0.5"/>
<text x="1860.00" y="1668.00" fill="rgb(51,51,51)" font-size="12.0" font-family="sans-serif" text-anchor="start" dominant-baseline="central">9</text>
<rect x="1826.00" y="1668.00" width="28.00" height="28.00" fill="rgb(130,70,20)" stroke="rgb(102,102,102)" stroke-width="0.5"/>
<text x="1860.00" y="1696.00" fill="rgb(51,51,51)" font-size="12.0" font-family="sans-serif" text-anchor="start" dominant-baseline="central">11</text>
<rect x="1826.00" y="1696.00" width="28.00" height="28.00" fill="rgb(175,95,25)" stroke="rgb(102,102,102)" stroke-width="0.5"/>
<text x="1860.00" y="1724.00" fill="rgb(51,51,51)" font-size="12.0" font-family="sans-serif" text-anchor="start" dominant-baseline="central">13</text>
<rect x="1826.00" y="1724.00" width="28.00" height="28.00" fill="rgb(210,130,30)" stroke="rgb(102,102,102)" stroke-width="0.5"/>
<text x="1860.00" y="1752.00" fill="rgb(51,51,51)" font-size="12.0" font-family="sans-serif" text-anchor="start" dominant-baseline="central">16</text>
<rect x="1826.00" y="1752.00" width="28.00" height="28.00" fill="rgb(230,175,40)" stroke="rgb(102,102,102)" stroke-width="0.5"/>
<text x="1860.00" y="1780.00" fill="rgb(51,51,51)" font-size="12.0" font-family="sans-serif" text-anchor="start" dominant-baseline="central">24</text>
<rect x="1826.00" y="1780.00" width="28.00" height="28.00" fill="rgb(240,215,50)" stroke="rgb(102,102,102)" stroke-width="0.5"/>
<text x="1860.00" y="1808.00" fill="rgb(51,51,51)" font-size="12.0" font-family="sans-serif" text-anchor="start" dominant-baseline="central">28</text>
<rect x="1826.00" y="1808.00" width="28.00" height="28.00" fill="rgb(165,200,50)" stroke="rgb(102,102,102)" stroke-width="0.5"/>
<text x="1860.00" y="1836.00" fill="rgb(51,51,51)" font-size="12.0" font-family="sans-serif" text-anchor="start" dominant-baseline="central">45</text>
<rect x="1826.00" y="1836.00" width="28.00" height="28.00" fill="rgb(80,165,40)" stroke="rgb(102,102,102)" stroke-width="0.5"/>
<text x="1860.00" y="1864.00" fill="rgb(51,51,51)" font-size="12.0" font-family="sans-serif" text-anchor="start" dominant-baseline="central">68</text>
<rect x="1826.00" y="1864.00" width="28.00" height="28.00" fill="rgb(25,120,20)" stroke="rgb(102,102,102)" stroke-width="0.5"/>
<text x="960.00" y="1906.00" fill="rgba(128,128,128,0.784)" font-size="13.0" font-family="sans-serif" text-anchor="middle" dominant-baseline="central">Generated by github.com/theunrepentantgeek/code-visualizer at 16:16:27 on 2026-06-27</text>
</svg>
