<svg xmlns="http://www.w3.org/2000/svg" width="1920" height="1920">
<rect x="0.00" y="0.00" width="1920.00" height="1920.00" fill="rgb(255,255,255)" stroke="rgb(255,255,255)" stroke-width="0.0"/>
<path d="M 960.0 644.3 L 971.6 643.3 L 983.3 642.8 L 995.0 642.7 L 1006.8 643.1 L 1018.5 643.9 L 1030.3 645.2 L 1042.1 646.9 L 1053.9 649.1 L 1065.6 651.8 L 1077.2 654.9 L 1088.8 658.5 L 1100.2 662.5 L 1111.6 667.0 L 1122.7 672.0 L 1133.8 677.4 L 1144.6 683.2 L 1155.3 689.5 L 1165.7 696.2 L 1175.9 703.4 L 1185.9 710.9 L 1195.6 718.9 L 1205.1 727.3 L 1214.2 736.0 L 1223.0 745.1 L 1231.5 754.6 L 1239.6 764.5 L 1247.4 774.7 L 1254.9 785.2 L 1261.9 796.1 L 1268.5 807.2 L 1274.7 818.7 L 1280.5 830.4 L 1285.9 842.3 L 1290.8 854.5 L 1295.2 867.0 L 1299.2 879.6 L 1302.7 892.4 L 1305.8 905.4 L 1308.3 918.6 L 1310.3 931.8 L 1311.8 945.2 L 1312.8 958.7 L 1313.3 972.3 L 1313.3 985.9 L 1312.7 999.6 L 1311.6 1013.2 L 1310.0 1026.9 L 1307.8 1040.5 L 1305.1 1054.1 L 1301.9 1067.6 L 1298.2 1081.0 L 1293.9 1094.3 L 1289.1 1107.5 L 1283.7 1120.6 L 1277.9 1133.4 L 1271.5 1146.1 L 1264.7 1158.5 L 1257.3 1170.8 L 1249.5 1182.7 L 1241.1 1194.4 L 1232.3 1205.8 L 1223.1 1216.9 L 1213.4 1227.6 L 1203.2 1238.1 L 1192.6 1248.1 L 1181.6 1257.8 L 1170.2 1267.0 L 1158.5 1275.8 L 1146.3 1284.2 L 1133.8 1292.2 L 1121.0 1299.7 L 1107.8 1306.7 L 1094.4 1313.2 L 1080.6 1319.3 L 1066.6 1324.8 L 1052.4 1329.7 L 1037.9 1334.2 L 1023.2 1338.1 L 1008.4 1341.4 L 993.3 1344.2 L 978.2 1346.4 L 962.9 1348.0 L 947.5 1349.0 L 932.1 1349.4 L 916.5 1349.3 L 901.0 1348.5 L 885.5 1347.2 L 869.9 1345.2 L 854.5 1342.6 L 839.0 1339.5 L 823.7 1335.7 L 808.5 1331.3 L 793.4 1326.4 L 778.5 1320.8 L 763.7 1314.7 L 749.2 1308.0 L 734.9 1300.7 L 720.8 1292.8 L 707.1 1284.4 L 693.6 1275.4 L 680.4 1265.9 L 667.6 1255.9 L 655.1 1245.3 L 643.0 1234.2 L 631.3 1222.7 L 620.0 1210.7 L 609.2 1198.2 L 598.8 1185.3 L 588.9 1171.9 L 579.5 1158.2 L 570.6 1144.0 L 562.3 1129.5 L 554.5 1114.6 L 547.2 1099.4 L 540.5 1083.9 L 534.4 1068.1 L 528.9 1052.1 L 524.0 1035.8 L 519.7 1019.2 L 516.0 1002.5 L 513.0 985.6 L 510.6 968.5 L 508.9 951.4 L 507.8 934.1 L 507.4 916.7 L 507.7 899.3 L 508.6 881.9 L 510.2 864.5 L 512.5 847.1 L 515.5 829.8 L 519.1 812.5 L 523.4 795.4 L 528.4 778.4 L 534.0 761.5 L 540.3 744.8 L 547.2 728.4 L 554.8 712.2 L 563.0 696.2 L 571.9 680.5 L 581.4 665.2 L 591.4 650.1 L 602.1 635.5 L 613.4 621.2 L 625.2 607.3 L 637.6 593.9 L 650.5 580.9 L 664.0 568.4 L 677.9 556.4 L 692.4 544.9 L 707.3 533.9 L 722.7 523.5 L 738.4 513.7 L 754.6 504.4 L 771.2 495.8 L 788.2 487.7 L 805.4 480.4 L 823.0 473.6 L 840.9 467.6 L 859.0 462.2 L 877.4 457.5 L 896.0 453.5 L 914.8 450.2 L 933.7 447.6 L 952.8 445.8 L 972.0 444.6 L 991.2 444.3 L 1010.5 444.6 L 1029.8 445.7 L 1049.1 447.6 L 1068.4 450.1 L 1087.6 453.5 L 1106.7 457.5 L 1125.6 462.4 L 1144.4 467.9 L 1163.1 474.2 L 1181.5 481.2 L 1199.7 488.9 L 1217.6 497.4 L 1235.2 506.5 L 1252.5 516.4 L 1269.4 526.9 L 1286.0 538.1 L 1302.2 549.9 L 1317.9 562.4 L 1333.2 575.5 L 1348.0 589.2 L 1362.3 603.5 L 1376.0 618.4 L 1389.2 633.8 L 1401.9 649.8 L 1413.9 666.2 L 1425.4 683.2 L 1436.2 700.6 L 1446.3 718.5 L 1455.8 736.8 L 1464.6 755.4 L 1472.7 774.5 L 1480.0 793.8 L 1486.6 813.5 L 1492.5 833.5 L 1497.6 853.7 L 1502.0 874.2 L 1505.6 894.8 L 1508.4 915.6 L 1510.4 936.6 L 1511.5 957.7 L 1511.9 978.8 L 1511.5 1000.0 L 1510.2 1021.2 L 1508.2 1042.4 L 1505.3 1063.5 L 1501.6 1084.6 L 1497.1 1105.5 L 1491.8 1126.3 L 1485.6 1146.9 L 1478.7 1167.3 L 1471.0 1187.5 L 1462.5 1207.4 L 1453.2 1227.0 L 1443.1 1246.3 L 1432.3 1265.2 L 1420.8 1283.8 L 1408.5 1301.9 L 1395.5 1319.5 L 1381.8 1336.7 L 1367.5 1353.4 L 1352.5 1369.6 L 1336.8 1385.2 L 1320.5 1400.2 L 1303.6 1414.6 L 1286.2 1428.4 L 1268.1 1441.6 L 1249.6 1454.0 L 1230.5 1465.8 L 1211.0 1476.9 L 1191.0 1487.2 L 1170.6 1496.8 L 1149.9 1505.5 L 1128.7 1513.6 L 1107.2 1520.8 L 1085.4 1527.2 L 1063.3 1532.7 L 1041.0 1537.4 L 1018.5 1541.3 L 995.8 1544.3 L 973.0 1546.5 L 950.0 1547.7 L 927.0 1548.1 L 903.9 1547.6 L 880.8 1546.2 L 857.7 1544.0 L 834.7 1540.8 L 811.8 1536.8 L 789.0 1531.8 L 766.4 1526.0 L 744.0 1519.3 L 721.8 1511.8 L 699.8 1503.3 L 678.2 1494.1 L 656.9 1484.0 L 635.9 1473.0 L 615.3 1461.2 L 595.2 1448.7 L 575.5 1435.3 L 556.4 1421.2 L 537.7 1406.3 L 519.6 1390.7 L 502.0 1374.4 L 485.1 1357.4 L 468.8 1339.7 L 453.2 1321.3 L 438.2 1302.4 L 424.0 1282.8 L 410.5 1262.7 L 397.7 1242.0 L 385.7 1220.8 L 374.6 1199.2 L 364.2 1177.0 L 354.7 1154.5 L 346.0 1131.6 L 338.2 1108.3 L 331.3 1084.7 L 325.3 1060.7 L 320.2 1036.6 L 316.0 1012.2 L 312.8 987.6 L 310.5 962.9 L 309.1 938.0 L 308.7 913.1 L 309.2 888.1 L 310.7 863.1 L 313.2 838.2 L 316.6 813.3 L 321.0 788.5 L 326.4 763.9 L 332.6 739.4 L 339.9 715.2 L 348.1 691.2 L 357.2 667.5 L 367.2 644.1 L 378.1 621.1 L 390.0 598.4 L 402.7 576.2 L 416.2 554.5 L 430.7 533.2 L 445.9 512.5 L 462.0 492.4 L 478.8 472.8 L 496.5 453.9 L 514.8 435.7 L 533.9 418.1 L 553.7 401.2 L 574.1 385.1 L 595.2 369.7 L 616.9 355.2 L 639.2 341.4 L 662.0 328.5 L 685.4 316.5 L 709.2 305.3 L 733.5 295.0 L 758.2 285.7 L 783.3 277.3 L 808.8 269.8 L 834.5 263.4 L 860.5 257.9 L 886.8 253.4 L 913.3 249.9 L 939.9 247.4 L 966.6 245.9 L 993.4 245.5 L 1020.3 246.1 L 1047.2 247.7 L 1074.0 250.3 L 1100.8 254.0 L 1127.4 258.7 L 1153.9 264.4 L 1180.2 271.2 L 1206.3 279.0 L 1232.1 287.8 L 1257.6 297.5 L 1282.7 308.3 L 1307.4 320.0 L 1331.7 332.7 L 1355.6 346.4 L 1378.9 360.9 L 1401.8 376.4 L 1424.0 392.8 L 1445.6 410.0 L 1466.6 428.1 L 1486.9 447.0 L 1506.6 466.7 L 1525.4 487.2 L 1543.5 508.4 L 1560.9 530.3 L 1577.3 553.0 L 1593.0 576.2 L 1607.7 600.1 L 1621.6 624.6 L 1634.5 649.6 L 1646.5 675.2 L 1657.5 701.2 L 1667.5 727.7 L 1676.5 754.6 L 1684.5 781.8 L 1691.5 809.4 L 1697.4 837.3 L 1702.2 865.4 L 1706.0 893.7 L 1708.7 922.3 L 1710.3 950.9 L 1710.8 979.6 L 1710.1 1008.4 L 1708.4 1037.1 L 1705.6 1065.9 L 1701.7 1094.5 L 1696.7 1123.0 L 1690.6 1151.4 L 1683.4 1179.5 L 1675.1 1207.4 L 1665.7 1235.0 L 1655.2 1262.3 L 1643.8 1289.1 L 1631.2 1315.6 L 1617.7 1341.6 L 1603.1 1367.1 L 1587.5 1392.1 L 1571.0 1416.5 L 1553.5 1440.3 L 1535.1 1463.4 L 1515.8 1485.8 L 1495.7 1507.6 L 1474.6 1528.5 L 1452.8 1548.7 L 1430.1 1568.1 L 1406.7 1586.6 L 1382.6 1604.2 L 1357.8 1620.9 L 1332.3 1636.7 L 1306.2 1651.5 L 1279.5 1665.3 L 1252.2 1678.1 L 1224.4 1689.9 L 1196.2 1700.6 L 1167.5 1710.3 L 1138.5 1718.8 L 1109.1 1726.3 L 1079.3 1732.6 L 1049.3 1737.8 L 1019.1 1741.8 L 988.7 1744.7 L 958.2 1746.4 L 927.6 1747.0 L 896.9 1746.4 L 866.3 1744.6 L 835.6 1741.6 L 805.1 1737.5 L 774.7 1732.1 L 744.5 1725.7 L 714.5 1718.0 L 684.8 1709.2 L 655.4 1699.2 L 626.4 1688.2 L 597.7 1676.0 L 569.5 1662.6 L 541.8 1648.2 L 514.7 1632.8 L 488.1 1616.2 L 462.1 1598.7 L 436.8 1580.1 L 412.1 1560.5 L 388.2 1540.0 L 365.1 1518.6 L 342.7 1496.2 L 321.3 1473.0 L 300.6 1449.0 L 280.9 1424.1 L 262.2 1398.5 L 244.4 1372.1 L 227.5 1345.0 L 211.8 1317.2 L 197.0 1288.9 L 183.4 1259.9 L 170.8 1230.4 L 159.4 1200.4 L 149.1 1170.0 L 140.0 1139.1 L 132.1 1107.9 L 125.3 1076.3 L 119.7 1044.4 L 115.4 1012.3 L 112.3 980.1 L 110.4 947.6 L 109.8 915.1 L 110.4 882.6 L 112.3 850.0 L 115.4 817.5 L 119.7 785.1 L 125.3 752.8 L 132.2 720.8 L 140.2 688.9 L 149.5 657.4 L 160.1 626.2 L 171.8 595.3 L 184.7 564.9 L 198.8 535.0 L 214.0 505.6 L 230.4 476.8 L 247.9 448.5 L 266.5 421.0 L 286.1 394.1 L 306.8 367.9 L 328.5 342.5 L 351.2 318.0 L 374.9 294.3 L 399.5 271.5 L 424.9 249.6 L 451.3 228.6 L 478.4 208.7 L 506.3 189.8 L 535.0 172.0 L 564.4 155.2 L 594.4 139.6 L 625.0 125.0 L 656.3 111.7 L 688.0 99.6 L 720.2 88.6 L 752.9 78.9 L 786.0 70.4 L 819.4 63.2 L 853.1 57.3 L 887.1 52.7 L 921.2 49.3 L 955.6 47.3 L 990.0 46.6 L 1024.4 47.1 L 1058.9 49.1 L 1093.3 52.3 L 1127.6 56.9 L 1161.7 62.7" fill="none" stroke="rgb(221,221,221)" stroke-width="1.0"/>
<circle cx="960.00" cy="644.33" r="23.88" fill="rgb(80,165,40)" stroke="rgb(51,51,51)" stroke-width="3.0"/>
<circle cx="1028.82" cy="644.98" r="11.67" fill="rgb(210,130,30)" stroke="rgb(51,51,51)" stroke-width="3.0"/>
<circle cx="1097.27" cy="661.45" r="14.88" fill="rgb(240,215,50)" stroke="rgb(51,51,51)" stroke-width="3.0"/>
<circle cx="1161.70" cy="693.58" r="5.84" fill="rgb(45,25,10)" stroke="rgb(51,51,51)" stroke-width="2.0"/>
<circle cx="1218.48" cy="740.37" r="4.13" fill="rgb(45,25,10)" stroke="rgb(51,51,51)" stroke-width="2.0"/>
<circle cx="1264.27" cy="799.97" r="12.38" fill="rgb(230,175,40)" stroke="rgb(51,51,51)" stroke-width="3.0"/>
<circle cx="1310.04" cy="1026.40" r="24.06" fill="rgb(80,165,40)" stroke="rgb(51,51,51)" stroke-width="3.0"/>
<circle cx="1289.89" cy="1105.37" r="17.75" fill="rgb(165,200,50)" stroke="rgb(51,51,51)" stroke-width="3.0"/>
<circle cx="1251.83" cy="1179.23" r="5.84" fill="rgb(45,25,10)" stroke="rgb(51,51,51)" stroke-width="2.0"/>
<circle cx="1197.16" cy="1243.89" r="10.52" fill="rgb(210,130,30)" stroke="rgb(51,51,51)" stroke-width="3.0"/>
<circle cx="1128.12" cy="1295.61" r="9.68" fill="rgb(130,70,20)" stroke="rgb(51,51,51)" stroke-width="3.0"/>
<circle cx="1047.81" cy="1331.20" r="10.52" fill="rgb(210,130,30)" stroke="rgb(51,51,51)" stroke-width="3.0"/>
<circle cx="960.00" cy="1348.20" r="15.44" fill="rgb(240,215,50)" stroke="rgb(51,51,51)" stroke-width="3.0"/>
<circle cx="869.03" cy="1345.06" r="13.05" fill="rgb(230,175,40)" stroke="rgb(51,51,51)" stroke-width="3.0"/>
<circle cx="779.54" cy="1321.23" r="9.23" fill="rgb(130,70,20)" stroke="rgb(51,51,51)" stroke-width="3.0"/>
<circle cx="696.24" cy="1277.24" r="11.67" fill="rgb(210,130,30)" stroke="rgb(51,51,51)" stroke-width="3.0"/>
<circle cx="623.70" cy="1214.69" r="7.15" fill="rgb(85,45,15)" stroke="rgb(51,51,51)" stroke-width="2.0"/>
<circle cx="566.05" cy="1136.22" r="13.37" fill="rgb(230,175,40)" stroke="rgb(51,51,51)" stroke-width="3.0"/>
<circle cx="526.78" cy="1045.38" r="5.84" fill="rgb(45,25,10)" stroke="rgb(51,51,51)" stroke-width="2.0"/>
<circle cx="508.53" cy="946.50" r="9.68" fill="rgb(130,70,20)" stroke="rgb(51,51,51)" stroke-width="3.0"/>
<circle cx="512.92" cy="844.46" r="23.52" fill="rgb(80,165,40)" stroke="rgb(51,51,51)" stroke-width="3.0"/>
<circle cx="540.43" cy="744.44" r="20.00" fill="rgb(80,165,40)" stroke="rgb(51,51,51)" stroke-width="3.0"/>
<circle cx="660.78" cy="571.29" r="14.88" fill="rgb(240,215,50)" stroke="rgb(51,51,51)" stroke-width="3.0"/>
<circle cx="748.69" cy="507.71" r="8.75" fill="rgb(130,70,20)" stroke="rgb(51,51,51)" stroke-width="3.0"/>
<circle cx="850.05" cy="464.76" r="10.11" fill="rgb(175,95,25)" stroke="rgb(51,51,51)" stroke-width="3.0"/>
<circle cx="960.00" cy="445.26" r="18.45" fill="rgb(165,200,50)" stroke="rgb(51,51,51)" stroke-width="3.0"/>
<circle cx="1073.12" cy="450.89" r="6.52" fill="rgb(85,45,15)" stroke="rgb(51,51,51)" stroke-width="2.0"/>
<circle cx="1183.65" cy="482.09" r="8.75" fill="rgb(130,70,20)" stroke="rgb(51,51,51)" stroke-width="3.0"/>
<circle cx="1285.82" cy="537.94" r="8.75" fill="rgb(130,70,20)" stroke="rgb(51,51,51)" stroke-width="3.0"/>
<circle cx="1374.12" cy="616.25" r="6.52" fill="rgb(85,45,15)" stroke="rgb(51,51,51)" stroke-width="2.0"/>
<circle cx="1443.63" cy="713.60" r="5.05" fill="rgb(45,25,10)" stroke="rgb(51,51,51)" stroke-width="2.0"/>
<circle cx="1490.26" cy="825.47" r="3.00" fill="rgb(15,10,5)" stroke="rgb(51,51,51)" stroke-width="2.0"/>
<circle cx="1511.01" cy="946.50" r="19.57" fill="rgb(80,165,40)" stroke="rgb(51,51,51)" stroke-width="3.0"/>
<circle cx="1504.13" cy="1070.69" r="18.68" fill="rgb(165,200,50)" stroke="rgb(51,51,51)" stroke-width="3.0"/>
<circle cx="1469.25" cy="1191.74" r="28.14" fill="rgb(25,120,20)" stroke="rgb(51,51,51)" stroke-width="3.0"/>
<circle cx="1407.47" cy="1303.35" r="11.30" fill="rgb(210,130,30)" stroke="rgb(51,51,51)" stroke-width="3.0"/>
<circle cx="1321.28" cy="1399.53" r="7.72" fill="rgb(85,45,15)" stroke="rgb(51,51,51)" stroke-width="2.0"/>
<circle cx="1214.50" cy="1474.97" r="20.00" fill="rgb(80,165,40)" stroke="rgb(51,51,51)" stroke-width="3.0"/>
<circle cx="1092.10" cy="1525.28" r="9.68" fill="rgb(130,70,20)" stroke="rgb(51,51,51)" stroke-width="3.0"/>
<circle cx="960.00" cy="1547.28" r="23.71" fill="rgb(80,165,40)" stroke="rgb(51,51,51)" stroke-width="3.0"/>
<circle cx="824.73" cy="1539.15" r="25.10" fill="rgb(25,120,20)" stroke="rgb(51,51,51)" stroke-width="3.0"/>
<circle cx="693.16" cy="1500.59" r="10.11" fill="rgb(175,95,25)" stroke="rgb(51,51,51)" stroke-width="3.0"/>
<circle cx="572.12" cy="1432.88" r="15.71" fill="rgb(165,200,50)" stroke="rgb(51,51,51)" stroke-width="3.0"/>
<circle cx="468.06" cy="1338.81" r="9.68" fill="rgb(130,70,20)" stroke="rgb(51,51,51)" stroke-width="3.0"/>
<circle cx="386.69" cy="1222.59" r="14.29" fill="rgb(240,215,50)" stroke="rgb(51,51,51)" stroke-width="3.0"/>
<circle cx="332.70" cy="1089.68" r="11.30" fill="rgb(210,130,30)" stroke="rgb(51,51,51)" stroke-width="3.0"/>
<circle cx="309.45" cy="946.50" r="18.68" fill="rgb(165,200,50)" stroke="rgb(51,51,51)" stroke-width="3.0"/>
<circle cx="318.83" cy="800.16" r="28.29" fill="rgb(25,120,20)" stroke="rgb(51,51,51)" stroke-width="3.0"/>
<circle cx="361.07" cy="658.07" r="17.26" fill="rgb(165,200,50)" stroke="rgb(51,51,51)" stroke-width="3.0"/>
<circle cx="434.71" cy="527.59" r="10.11" fill="rgb(175,95,25)" stroke="rgb(51,51,51)" stroke-width="3.0"/>
<circle cx="536.66" cy="415.65" r="10.11" fill="rgb(175,95,25)" stroke="rgb(51,51,51)" stroke-width="3.0"/>
<circle cx="662.31" cy="328.35" r="5.05" fill="rgb(45,25,10)" stroke="rgb(51,51,51)" stroke-width="2.0"/>
<circle cx="805.75" cy="270.67" r="14.88" fill="rgb(240,215,50)" stroke="rgb(51,51,51)" stroke-width="3.0"/>
<circle cx="960.00" cy="246.18" r="13.37" fill="rgb(230,175,40)" stroke="rgb(51,51,51)" stroke-width="3.0"/>
<circle cx="1117.42" cy="256.81" r="19.57" fill="rgb(80,165,40)" stroke="rgb(51,51,51)" stroke-width="3.0"/>
<circle cx="1270.03" cy="302.73" r="14.88" fill="rgb(240,215,50)" stroke="rgb(51,51,51)" stroke-width="3.0"/>
<circle cx="1409.94" cy="382.30" r="10.11" fill="rgb(175,95,25)" stroke="rgb(51,51,51)" stroke-width="3.0"/>
<circle cx="1529.76" cy="492.13" r="3.00" fill="rgb(15,10,5)" stroke="rgb(51,51,51)" stroke-width="2.0"/>
<circle cx="1622.99" cy="627.22" r="8.25" fill="rgb(85,45,15)" stroke="rgb(51,51,51)" stroke-width="3.0"/>
<circle cx="1684.35" cy="781.17" r="13.99" fill="rgb(240,215,50)" stroke="rgb(51,51,51)" stroke-width="3.0"/>
<circle cx="1710.08" cy="946.50" r="31.83" fill="rgb(25,120,20)" stroke="rgb(51,51,51)" stroke-width="3.0"/>
<circle cx="1698.21" cy="1114.99" r="19.36" fill="rgb(165,200,50)" stroke="rgb(51,51,51)" stroke-width="3.0"/>
<circle cx="1648.61" cy="1278.12" r="7.15" fill="rgb(85,45,15)" stroke="rgb(51,51,51)" stroke-width="2.0"/>
<circle cx="1563.12" cy="1427.47" r="13.05" fill="rgb(230,175,40)" stroke="rgb(51,51,51)" stroke-width="3.0"/>
<circle cx="1445.40" cy="1555.17" r="13.69" fill="rgb(230,175,40)" stroke="rgb(51,51,51)" stroke-width="3.0"/>
<circle cx="1300.87" cy="1654.33" r="8.25" fill="rgb(85,45,15)" stroke="rgb(51,51,51)" stroke-width="3.0"/>
<circle cx="1136.40" cy="1719.37" r="4.13" fill="rgb(45,25,10)" stroke="rgb(51,51,51)" stroke-width="2.0"/>
<circle cx="960.00" cy="1746.35" r="24.41" fill="rgb(25,120,20)" stroke="rgb(51,51,51)" stroke-width="3.0"/>
<circle cx="780.43" cy="1733.23" r="33.40" fill="rgb(25,120,20)" stroke="rgb(51,51,51)" stroke-width="3.0"/>
<circle cx="606.79" cy="1679.95" r="31.96" fill="rgb(25,120,20)" stroke="rgb(51,51,51)" stroke-width="3.0"/>
<circle cx="448.00" cy="1588.53" r="14.29" fill="rgb(240,215,50)" stroke="rgb(51,51,51)" stroke-width="3.0"/>
<circle cx="312.42" cy="1462.93" r="9.23" fill="rgb(130,70,20)" stroke="rgb(51,51,51)" stroke-width="3.0"/>
<circle cx="207.33" cy="1308.97" r="4.13" fill="rgb(45,25,10)" stroke="rgb(51,51,51)" stroke-width="2.0"/>
<circle cx="138.61" cy="1133.98" r="12.03" fill="rgb(210,130,30)" stroke="rgb(51,51,51)" stroke-width="3.0"/>
<circle cx="110.38" cy="946.50" r="10.11" fill="rgb(175,95,25)" stroke="rgb(51,51,51)" stroke-width="3.0"/>
<circle cx="124.75" cy="755.86" r="33.90" fill="rgb(25,120,20)" stroke="rgb(51,51,51)" stroke-width="3.0"/>
<circle cx="181.71" cy="571.69" r="10.52" fill="rgb(210,130,30)" stroke="rgb(51,51,51)" stroke-width="3.0"/>
<circle cx="279.06" cy="403.47" r="5.05" fill="rgb(45,25,10)" stroke="rgb(51,51,51)" stroke-width="2.0"/>
<circle cx="412.54" cy="260.00" r="18.68" fill="rgb(165,200,50)" stroke="rgb(51,51,51)" stroke-width="3.0"/>
<circle cx="575.94" cy="148.99" r="13.05" fill="rgb(230,175,40)" stroke="rgb(51,51,51)" stroke-width="3.0"/>
<circle cx="761.45" cy="76.59" r="6.52" fill="rgb(85,45,15)" stroke="rgb(51,51,51)" stroke-width="2.0"/>
<circle cx="960.00" cy="47.11" r="11.67" fill="rgb(210,130,30)" stroke="rgb(51,51,51)" stroke-width="3.0"/>
<circle cx="1161.72" cy="62.73" r="12.72" fill="rgb(230,175,40)" stroke="rgb(51,51,51)" stroke-width="3.0"/>
<text x="960.00" y="616.45" fill="rgb(34,34,34)" font-size="12.0" font-family="sans-serif" text-anchor="start" dominant-baseline="central">Apr 4</text>
<text x="960.00" y="422.80" fill="rgb(34,34,34)" font-size="12.0" font-family="sans-serif" text-anchor="start" dominant-baseline="central" transform="rotate(360.00 960.00 422.80)">May 2</text>
<text x="960.00" y="228.81" fill="rgb(34,34,34)" font-size="12.0" font-family="sans-serif" text-anchor="start" dominant-baseline="central" transform="rotate(720.00 960.00 228.81)">May 30</text>
<text x="960.00" y="31.44" fill="rgb(34,34,34)" font-size="12.0" font-family="sans-serif" text-anchor="start" dominant-baseline="central" transform="rotate(1080.00 960.00 31.44)">Jun 27</text>
<rect x="1796.00" y="1534.00" width="108.00" height="370.00" fill="rgba(255,255,255,0.902)" stroke="rgba(153,153,153,0.800)" stroke-width="1.0"/>
<text x="1850.00" y="1554.00" fill="rgb(38,38,38)" font-size="13.0" font-family="sans-serif" text-anchor="middle" dominant-baseline="central">Fill</text>
<text x="1850.00" y="1570.00" fill="rgb(38,38,38)" font-size="13.0" font-family="sans-serif" text-anchor="middle" dominant-baseline="central">commit-count</text>
<rect x="1826.00" y="1584.00" width="28.00" height="28.00" fill="rgb(15,10,5)" stroke="rgb(102,102,102)" stroke-width="0.5"/>
<text x="1860.00" y="1612.00" fill="rgb(51,51,51)" font-size="12.0" font-family="sans-serif" text-anchor="start" dominant-baseline="central">2</text>
<rect x="1826.00" y="1612.00" width="28.00" height="28.00" fill="rgb(45,25,10)" stroke="rgb(102,102,102)" stroke-width="0.5"/>
<text x="1860.00" y="1640.00" fill="rgb(51,51,51)" font-size="12.0" font-family="sans-serif" text-anchor="start" dominant-baseline="central">5</text>
<rect x="1826.00" y="1640.00" width="28.00" height="28.00" fill="rgb(85,45,15)" stroke="rgb(102,102,102)" stroke-width="0.5"/>
<text x="1860.00" y="1668.00" fill="rgb(51,51,51)" font-size="12.0" font-family="sans-serif" text-anchor="start" dominant-baseline="central">9</text>
<rect x="1826.00" y="1668.00" width="28.00" height="28.00" fill="rgb(130,70,20)" stroke="rgb(102,102,102)" stroke-width="0.5"/>
<text x="1860.00" y="1696.00" fill="rgb(51,51,51)" font-size="12.0" font-family="sans-serif" text-anchor="start" dominant-baseline="central">12</text>
<rect x="1826.00" y="1696.00" width="28.00" height="28.00" fill="rgb(175,95,25)" stroke="rgb(102,102,102)" stroke-width="0.5"/>
<text x="1860.00" y="1724.00" fill="rgb(51,51,51)" font-size="12.0" font-family="sans-serif" text-anchor="start" dominant-baseline="central">13</text>
<rect x="1826.00" y="1724.00" width="28.00" height="28.00" fill="rgb(210,130,30)" stroke="rgb(102,102,102)" stroke-width="0.5"/>
<text x="1860.00" y="1752.00" fill="rgb(51,51,51)" font-size="12.0" font-family="sans-serif" text-anchor="start" dominant-baseline="central">18</text>
<rect x="1826.00" y="1752.00" width="28.00" height="28.00" fill="rgb(230,175,40)" stroke="rgb(102,102,102)" stroke-width="0.5"/>
<text x="1860.00" y="1780.00" fill="rgb(51,51,51)" font-size="12.0" font-family="sans-serif" text-anchor="start" dominant-baseline="central">23</text>
<rect x="1826.00" y="1780.00" width="28.00" height="28.00" fill="rgb(240,215,50)" stroke="rgb(102,102,102)" stroke-width="0.5"/>
<text x="1860.00" y="1808.00" fill="rgb(51,51,51)" font-size="12.0" font-family="sans-serif" text-anchor="start" dominant-baseline="central">29</text>
<rect x="1826.00" y="1808.00" width="28.00" height="28.00" fill="rgb(165,200,50)" stroke="rgb(102,102,102)" stroke-width="0.5"/>
<text x="1860.00" y="1836.00" fill="rgb(51,51,51)" font-size="12.0" font-family="sans-serif" text-anchor="start" dominant-baseline="central">45</text>
<rect x="1826.00" y="1836.00" width="28.00" height="28.00" fill="rgb(80,165,40)" stroke="rgb(102,102,102)" stroke-width="0.5"/>
<text x="1860.00" y="1864.00" fill="rgb(51,51,51)" font-size="12.0" font-family="sans-serif" text-anchor="start" dominant-baseline="central">70</text>
<rect x="1826.00" y="1864.00" width="28.00" height="28.00" fill="rgb(25,120,20)" stroke="rgb(102,102,102)" stroke-width="0.5"/>
<text x="960.00" y="1906.00" fill="rgba(128,128,128,0.784)" font-size="13.0" font-family="sans-serif" text-anchor="middle" dominant-baseline="central">Generated by github.com/theunrepentantgeek/code-visualizer at 22:44:29 on 2026-06-28</text>
</svg>
