<svg xmlns="http://www.w3.org/2000/svg" width="1920" height="1080">
<rect x="0.00" y="0.00" width="1920.00" height="1080.00" fill="rgb(255,255,255)" stroke="rgb(255,255,255)" stroke-width="0.0"/>
<circle cx="735.70" cy="540.00" r="302.64" fill="rgba(102,153,204,0.188)" stroke="rgb(51,51,51)" stroke-width="0.5"/>
<circle cx="1263.62" cy="540.00" r="223.32" fill="rgba(102,153,204,0.188)" stroke="rgb(51,51,51)" stroke-width="0.5"/>
<circle cx="1251.89" cy="540.00" r="198.52" fill="rgba(102,153,204,0.188)" stroke="rgb(51,51,51)" stroke-width="0.5"/>
<circle cx="1197.46" cy="540.00" r="131.03" fill="rgba(102,153,204,0.188)" stroke="rgb(51,51,51)" stroke-width="0.5"/>
<circle cx="704.33" cy="552.93" r="118.74" fill="rgba(102,153,204,0.188)" stroke="rgb(51,51,51)" stroke-width="0.5"/>
<circle cx="924.93" cy="552.93" r="99.90" fill="rgba(102,153,204,0.188)" stroke="rgb(51,51,51)" stroke-width="0.5"/>
<circle cx="832.54" cy="375.21" r="98.44" fill="rgba(102,153,204,0.188)" stroke="rgb(51,51,51)" stroke-width="0.5"/>
<circle cx="689.79" cy="552.93" r="91.14" fill="rgba(102,153,204,0.188)" stroke="rgb(51,51,51)" stroke-width="0.5"/>
<circle cx="1048.18" cy="356.06" r="58.00" fill="rgba(102,153,204,0.188)" stroke="rgb(51,51,51)" stroke-width="0.5"/>
<circle cx="677.38" cy="379.49" r="54.82" fill="rgba(102,153,204,0.188)" stroke="rgb(51,51,51)" stroke-width="0.5"/>
<circle cx="1383.89" cy="540.00" r="53.45" fill="rgba(102,153,204,0.188)" stroke="rgb(51,51,51)" stroke-width="0.5"/>
<circle cx="828.65" cy="674.15" r="52.94" fill="rgba(102,153,204,0.188)" stroke="rgb(51,51,51)" stroke-width="0.5"/>
<circle cx="798.79" cy="375.21" r="51.63" fill="rgba(102,153,204,0.188)" stroke="rgb(51,51,51)" stroke-width="0.5"/>
<circle cx="584.17" cy="431.64" r="50.03" fill="rgba(102,153,204,0.188)" stroke="rgb(51,51,51)" stroke-width="0.5"/>
<circle cx="972.70" cy="280.43" r="46.89" fill="rgba(102,153,204,0.188)" stroke="rgb(51,51,51)" stroke-width="0.5"/>
<circle cx="736.67" cy="717.08" r="46.61" fill="rgba(102,153,204,0.188)" stroke="rgb(51,51,51)" stroke-width="0.5"/>
<circle cx="642.22" cy="707.97" r="46.32" fill="rgba(102,153,204,0.188)" stroke="rgb(51,51,51)" stroke-width="0.5"/>
<circle cx="659.53" cy="566.11" r="45.07" fill="rgba(102,153,204,0.188)" stroke="rgb(51,51,51)" stroke-width="0.5"/>
<circle cx="1048.18" cy="356.06" r="44.94" fill="rgba(102,153,204,0.188)" stroke="rgb(51,51,51)" stroke-width="0.5"/>
<circle cx="573.25" cy="649.53" r="42.13" fill="rgba(102,153,204,0.188)" stroke="rgb(51,51,51)" stroke-width="0.5"/>
<circle cx="547.15" cy="572.08" r="37.64" fill="rgba(102,153,204,0.188)" stroke="rgb(51,51,51)" stroke-width="0.5"/>
<circle cx="904.45" cy="563.80" r="36.01" fill="rgba(102,153,204,0.188)" stroke="rgb(51,51,51)" stroke-width="0.5"/>
<circle cx="496.98" cy="627.65" r="35.27" fill="rgba(102,153,204,0.188)" stroke="rgb(51,51,51)" stroke-width="0.5"/>
<circle cx="562.01" cy="726.95" r="34.15" fill="rgba(102,153,204,0.188)" stroke="rgb(51,51,51)" stroke-width="0.5"/>
<circle cx="976.53" cy="563.80" r="34.11" fill="rgba(102,153,204,0.188)" stroke="rgb(51,51,51)" stroke-width="0.5"/>
<circle cx="942.36" cy="502.84" r="33.81" fill="rgba(102,153,204,0.188)" stroke="rgb(51,51,51)" stroke-width="0.5"/>
<circle cx="682.79" cy="779.05" r="33.56" fill="rgba(102,153,204,0.188)" stroke="rgb(51,51,51)" stroke-width="0.5"/>
<circle cx="885.14" cy="375.21" r="32.77" fill="rgba(102,153,204,0.188)" stroke="rgb(51,51,51)" stroke-width="0.5"/>
<circle cx="477.66" cy="562.70" r="30.53" fill="rgba(102,153,204,0.188)" stroke="rgb(51,51,51)" stroke-width="0.5"/>
<circle cx="513.24" cy="510.85" r="30.40" fill="rgba(102,153,204,0.188)" stroke="rgb(51,51,51)" stroke-width="0.5"/>
<circle cx="805.00" cy="755.51" r="29.83" fill="rgba(102,153,204,0.188)" stroke="rgb(51,51,51)" stroke-width="0.5"/>
<circle cx="736.30" cy="566.11" r="29.73" fill="rgba(102,153,204,0.188)" stroke="rgb(51,51,51)" stroke-width="0.5"/>
<circle cx="657.25" cy="566.11" r="29.72" fill="rgba(102,153,204,0.188)" stroke="rgb(51,51,51)" stroke-width="0.5"/>
<circle cx="711.72" cy="509.83" r="29.72" fill="rgba(102,153,204,0.188)" stroke="rgb(51,51,51)" stroke-width="0.5"/>
<circle cx="597.39" cy="353.41" r="27.35" fill="rgba(102,153,204,0.188)" stroke="rgb(51,51,51)" stroke-width="0.5"/>
<circle cx="515.65" cy="686.14" r="24.17" fill="rgba(102,153,204,0.188)" stroke="rgb(51,51,51)" stroke-width="0.5"/>
<circle cx="883.41" cy="506.28" r="23.27" fill="rgba(102,153,204,0.188)" stroke="rgb(51,51,51)" stroke-width="0.5"/>
<circle cx="567.95" cy="515.45" r="20.74" fill="rgba(102,153,204,0.188)" stroke="rgb(51,51,51)" stroke-width="0.5"/>
<circle cx="709.18" cy="606.57" r="17.01" fill="rgba(102,153,204,0.188)" stroke="rgb(51,51,51)" stroke-width="0.5"/>
<circle cx="908.98" cy="270.75" r="15.59" fill="rgba(102,153,204,0.188)" stroke="rgb(51,51,51)" stroke-width="0.5"/>
<circle cx="709.43" cy="509.83" r="14.37" fill="rgba(102,153,204,0.188)" stroke="rgb(51,51,51)" stroke-width="0.5"/>
<circle cx="734.02" cy="566.41" r="14.37" fill="rgba(102,153,204,0.188)" stroke="rgb(51,51,51)" stroke-width="0.5"/>
<circle cx="654.96" cy="566.11" r="14.37" fill="rgba(102,153,204,0.188)" stroke="rgb(51,51,51)" stroke-width="0.5"/>
<circle cx="1040.83" cy="612.62" r="9.05" fill="rgb(31,120,180)" stroke="rgb(0,68,27)" stroke-width="2.0"/>
<circle cx="885.38" cy="267.54" r="6.27" fill="rgb(106,61,154)" stroke="rgb(215,48,39)" stroke-width="2.0"/>
<circle cx="864.29" cy="259.74" r="3.75" fill="rgb(255,127,0)" stroke="rgb(255,255,255)" stroke-width="2.0"/>
<circle cx="856.23" cy="257.33" r="2.69" fill="rgb(251,154,153)" stroke="rgb(26,152,80)" stroke-width="2.0"/>
<circle cx="1028.51" cy="644.29" r="6.23" fill="rgb(31,120,180)" stroke="rgb(0,68,27)" stroke-width="2.0"/>
<circle cx="873.52" cy="263.57" r="4.28" fill="rgb(178,223,138)" stroke="rgb(255,255,191)" stroke-width="2.0"/>
<circle cx="1034.46" cy="629.89" r="7.39" fill="rgb(227,26,28)" stroke="rgb(255,255,255)" stroke-width="2.0"/>
<circle cx="1031.57" cy="339.35" r="7.87" fill="rgb(166,206,227)" stroke="rgb(215,48,39)" stroke-width="2.0"/>
<circle cx="1063.76" cy="368.55" r="3.97" fill="rgb(166,206,227)" stroke="rgb(255,255,191)" stroke-width="2.0"/>
<circle cx="1030.02" cy="369.39" r="5.69" fill="rgb(166,206,227)" stroke="rgb(215,48,39)" stroke-width="2.0"/>
<circle cx="1040.00" cy="375.14" r="3.86" fill="rgb(166,206,227)" stroke="rgb(255,255,255)" stroke-width="2.0"/>
<circle cx="1071.80" cy="356.88" r="8.24" fill="rgb(166,206,227)" stroke="rgb(215,48,39)" stroke-width="2.0"/>
<circle cx="1047.65" cy="356.88" r="13.96" fill="rgb(166,206,227)" stroke="rgb(215,48,39)" stroke-width="2.0"/>
<circle cx="1024.05" cy="355.21" r="7.73" fill="rgb(166,206,227)" stroke="rgb(165,0,38)" stroke-width="2.0"/>
<circle cx="1056.84" cy="372.09" r="1.85" fill="rgb(166,206,227)" stroke="rgb(26,152,80)" stroke-width="2.0"/>
<circle cx="1048.17" cy="333.02" r="7.95" fill="rgb(166,206,227)" stroke="rgb(215,48,39)" stroke-width="2.0"/>
<circle cx="1064.74" cy="340.03" r="8.08" fill="rgb(166,206,227)" stroke="rgb(215,48,39)" stroke-width="2.0"/>
<circle cx="1459.25" cy="519.79" r="7.87" fill="rgb(31,120,180)" stroke="rgb(26,152,80)" stroke-width="2.0"/>
<circle cx="1463.12" cy="540.00" r="10.75" fill="rgb(31,120,180)" stroke="rgb(166,217,106)" stroke-width="2.0"/>
<circle cx="1103.31" cy="540.46" r="21.27" fill="rgb(31,120,180)" stroke="rgb(255,255,255)" stroke-width="2.0"/>
<circle cx="1279.94" cy="542.54" r="35.44" fill="rgb(31,120,180)" stroke="rgb(255,255,255)" stroke-width="2.0"/>
<circle cx="1287.95" cy="592.16" r="12.87" fill="rgb(31,120,180)" stroke="rgb(26,152,80)" stroke-width="2.0"/>
<circle cx="1203.49" cy="542.54" r="39.05" fill="rgb(31,120,180)" stroke="rgb(255,255,255)" stroke-width="2.0"/>
<circle cx="1130.77" cy="609.34" r="21.76" fill="rgb(31,120,180)" stroke="rgb(215,48,39)" stroke-width="2.0"/>
<circle cx="1133.17" cy="467.14" r="20.80" fill="rgb(31,120,180)" stroke="rgb(215,48,39)" stroke-width="2.0"/>
<circle cx="1175.02" cy="598.55" r="21.82" fill="rgb(31,120,180)" stroke="rgb(215,48,39)" stroke-width="2.0"/>
<circle cx="1143.13" cy="564.17" r="23.11" fill="rgb(31,120,180)" stroke="rgb(255,255,255)" stroke-width="2.0"/>
<circle cx="1184.51" cy="474.98" r="29.17" fill="rgb(31,120,180)" stroke="rgb(215,48,39)" stroke-width="2.0"/>
<circle cx="1219.58" cy="445.33" r="14.79" fill="rgb(31,120,180)" stroke="rgb(255,255,191)" stroke-width="2.0"/>
<circle cx="1244.99" cy="484.74" r="30.14" fill="rgb(31,120,180)" stroke="rgb(215,48,39)" stroke-width="2.0"/>
<circle cx="1143.80" cy="513.90" r="25.20" fill="rgb(31,120,180)" stroke="rgb(215,48,39)" stroke-width="2.0"/>
<circle cx="1244.92" cy="598.57" r="28.67" fill="rgb(31,120,180)" stroke="rgb(215,48,39)" stroke-width="2.0"/>
<circle cx="1358.04" cy="555.37" r="10.31" fill="rgb(31,120,180)" stroke="rgb(0,68,27)" stroke-width="2.0"/>
<circle cx="1371.47" cy="514.77" r="11.52" fill="rgb(31,120,180)" stroke="rgb(0,68,27)" stroke-width="2.0"/>
<circle cx="1390.56" cy="562.67" r="6.60" fill="rgb(31,120,180)" stroke="rgb(26,152,80)" stroke-width="2.0"/>
<circle cx="1381.15" cy="541.32" r="14.78" fill="rgb(31,120,180)" stroke="rgb(166,217,106)" stroke-width="2.0"/>
<circle cx="1375.11" cy="564.25" r="6.97" fill="rgb(31,120,180)" stroke="rgb(255,255,191)" stroke-width="2.0"/>
<circle cx="1397.65" cy="516.83" r="12.78" fill="rgb(31,120,180)" stroke="rgb(215,48,39)" stroke-width="2.0"/>
<circle cx="1411.07" cy="541.32" r="13.18" fill="rgb(31,120,180)" stroke="rgb(215,48,39)" stroke-width="2.0"/>
<circle cx="1355.14" cy="532.60" r="10.69" fill="rgb(31,120,180)" stroke="rgb(215,48,39)" stroke-width="2.0"/>
<circle cx="835.98" cy="691.89" r="4.53" fill="rgb(166,206,227)" stroke="rgb(165,0,38)" stroke-width="2.0"/>
<circle cx="794.68" cy="675.30" r="5.88" fill="rgb(166,206,227)" stroke="rgb(215,48,39)" stroke-width="2.0"/>
<circle cx="852.61" cy="677.16" r="15.73" fill="rgb(166,206,227)" stroke="rgb(255,255,255)" stroke-width="2.0"/>
<circle cx="818.68" cy="677.16" r="16.24" fill="rgb(166,206,227)" stroke="rgb(255,255,255)" stroke-width="2.0"/>
<circle cx="804.87" cy="693.68" r="3.33" fill="rgb(166,206,227)" stroke="rgb(255,255,255)" stroke-width="2.0"/>
<circle cx="836.08" cy="653.87" r="10.87" fill="rgb(166,206,227)" stroke="rgb(165,0,38)" stroke-width="2.0"/>
<circle cx="798.44" cy="686.72" r="4.18" fill="rgb(166,206,227)" stroke="rgb(215,48,39)" stroke-width="2.0"/>
<circle cx="814.32" cy="650.05" r="9.26" fill="rgb(166,206,227)" stroke="rgb(215,48,39)" stroke-width="2.0"/>
<circle cx="799.07" cy="660.72" r="7.39" fill="rgb(166,206,227)" stroke="rgb(215,48,39)" stroke-width="2.0"/>
<circle cx="827.29" cy="697.41" r="3.81" fill="rgb(166,206,227)" stroke="rgb(215,48,39)" stroke-width="2.0"/>
<circle cx="901.22" cy="613.37" r="2.26" fill="rgb(166,206,227)" stroke="rgb(255,255,255)" stroke-width="2.0"/>
<circle cx="941.69" cy="591.29" r="8.31" fill="rgb(166,206,227)" stroke="rgb(255,255,191)" stroke-width="2.0"/>
<circle cx="856.57" cy="538.08" r="16.38" fill="rgb(166,206,227)" stroke="rgb(255,255,191)" stroke-width="2.0"/>
<circle cx="933.84" cy="616.54" r="4.08" fill="rgb(166,206,227)" stroke="rgb(166,217,106)" stroke-width="2.0"/>
<circle cx="862.54" cy="604.25" r="5.35" fill="rgb(166,206,227)" stroke="rgb(166,217,106)" stroke-width="2.0"/>
<circle cx="849.86" cy="589.85" r="2.17" fill="rgb(166,206,227)" stroke="rgb(255,255,255)" stroke-width="2.0"/>
<circle cx="863.29" cy="587.45" r="9.51" fill="rgb(166,206,227)" stroke="rgb(255,255,255)" stroke-width="2.0"/>
<circle cx="943.06" cy="606.85" r="5.35" fill="rgb(166,206,227)" stroke="rgb(255,255,255)" stroke-width="2.0"/>
<circle cx="911.40" cy="608.17" r="6.94" fill="rgb(166,206,227)" stroke="rgb(255,255,255)" stroke-width="2.0"/>
<circle cx="894.68" cy="621.06" r="5.88" fill="rgb(166,206,227)" stroke="rgb(255,255,255)" stroke-width="2.0"/>
<circle cx="844.98" cy="556.16" r="3.13" fill="rgb(166,206,227)" stroke="rgb(255,255,255)" stroke-width="2.0"/>
<circle cx="877.33" cy="600.78" r="7.89" fill="rgb(166,206,227)" stroke="rgb(255,255,255)" stroke-width="2.0"/>
<circle cx="877.10" cy="533.49" r="2.69" fill="rgb(166,206,227)" stroke="rgb(166,217,106)" stroke-width="2.0"/>
<circle cx="907.78" cy="522.09" r="3.81" fill="rgb(166,206,227)" stroke="rgb(166,217,106)" stroke-width="2.0"/>
<circle cx="892.65" cy="606.77" r="6.60" fill="rgb(166,206,227)" stroke="rgb(255,255,191)" stroke-width="2.0"/>
<circle cx="856.21" cy="566.79" r="10.37" fill="rgb(166,206,227)" stroke="rgb(255,255,191)" stroke-width="2.0"/>
<circle cx="927.89" cy="603.59" r="8.21" fill="rgb(166,206,227)" stroke="rgb(255,255,255)" stroke-width="2.0"/>
<circle cx="870.25" cy="612.26" r="3.64" fill="rgb(166,206,227)" stroke="rgb(255,255,255)" stroke-width="2.0"/>
<circle cx="941.67" cy="543.09" r="4.48" fill="rgb(166,206,227)" stroke="rgb(255,255,255)" stroke-width="2.0"/>
<circle cx="921.99" cy="618.63" r="5.99" fill="rgb(166,206,227)" stroke="rgb(255,255,191)" stroke-width="2.0"/>
<circle cx="881.37" cy="616.38" r="6.27" fill="rgb(166,206,227)" stroke="rgb(255,255,255)" stroke-width="2.0"/>
<circle cx="954.26" cy="596.14" r="3.20" fill="rgb(166,206,227)" stroke="rgb(255,255,255)" stroke-width="2.0"/>
<circle cx="854.28" cy="598.48" r="2.77" fill="rgb(166,206,227)" stroke="rgb(255,255,255)" stroke-width="2.0"/>
<circle cx="848.73" cy="581.57" r="4.23" fill="rgb(166,206,227)" stroke="rgb(166,217,106)" stroke-width="2.0"/>
<circle cx="909.67" cy="621.72" r="4.76" fill="rgb(166,206,227)" stroke="rgb(255,255,255)" stroke-width="2.0"/>
<circle cx="931.73" cy="503.83" r="10.08" fill="rgb(166,206,227)" stroke="rgb(255,255,191)" stroke-width="2.0"/>
<circle cx="953.41" cy="503.83" r="9.64" fill="rgb(166,206,227)" stroke="rgb(255,255,191)" stroke-width="2.0"/>
<circle cx="933.60" cy="488.21" r="3.70" fill="rgb(166,206,227)" stroke="rgb(255,255,191)" stroke-width="2.0"/>
<circle cx="942.90" cy="491.86" r="4.33" fill="rgb(166,206,227)" stroke="rgb(255,255,191)" stroke-width="2.0"/>
<circle cx="889.19" cy="506.28" r="4.43" fill="rgb(166,206,227)" stroke="rgb(255,255,191)" stroke-width="2.0"/>
<circle cx="878.00" cy="506.28" r="4.80" fill="rgb(166,206,227)" stroke="rgb(255,255,255)" stroke-width="2.0"/>
<circle cx="917.51" cy="563.80" r="9.88" fill="rgb(166,206,227)" stroke="rgb(253,174,97)" stroke-width="2.0"/>
<circle cx="893.59" cy="563.80" r="12.08" fill="rgb(166,206,227)" stroke="rgb(253,174,97)" stroke-width="2.0"/>
<circle cx="988.04" cy="563.80" r="9.53" fill="rgb(166,206,227)" stroke="rgb(253,174,97)" stroke-width="2.0"/>
<circle cx="966.02" cy="563.80" r="10.53" fill="rgb(166,206,227)" stroke="rgb(253,174,97)" stroke-width="2.0"/>
<circle cx="559.06" cy="447.27" r="3.70" fill="rgb(166,206,227)" stroke="rgb(26,152,80)" stroke-width="2.0"/>
<circle cx="556.83" cy="423.71" r="8.49" fill="rgb(166,206,227)" stroke="rgb(255,255,255)" stroke-width="2.0"/>
<circle cx="577.33" cy="438.29" r="14.71" fill="rgb(166,206,227)" stroke="rgb(255,255,255)" stroke-width="2.0"/>
<circle cx="573.01" cy="413.08" r="8.91" fill="rgb(166,206,227)" stroke="rgb(215,48,39)" stroke-width="2.0"/>
<circle cx="607.10" cy="438.29" r="13.10" fill="rgb(166,206,227)" stroke="rgb(255,255,255)" stroke-width="2.0"/>
<circle cx="581.75" cy="457.59" r="3.13" fill="rgb(166,206,227)" stroke="rgb(26,152,80)" stroke-width="2.0"/>
<circle cx="593.62" cy="417.02" r="10.12" fill="rgb(166,206,227)" stroke="rgb(255,255,255)" stroke-width="2.0"/>
<circle cx="565.00" cy="454.42" r="3.64" fill="rgb(166,206,227)" stroke="rgb(26,152,80)" stroke-width="2.0"/>
<circle cx="556.80" cy="438.03" r="3.86" fill="rgb(166,206,227)" stroke="rgb(26,152,80)" stroke-width="2.0"/>
<circle cx="573.27" cy="457.93" r="3.39" fill="rgb(166,206,227)" stroke="rgb(26,152,80)" stroke-width="2.0"/>
<circle cx="561.76" cy="572.08" r="9.97" fill="rgb(166,206,227)" stroke="rgb(255,255,255)" stroke-width="2.0"/>
<circle cx="536.20" cy="572.08" r="13.62" fill="rgb(166,206,227)" stroke="rgb(255,255,255)" stroke-width="2.0"/>
<circle cx="487.97" cy="562.70" r="7.16" fill="rgb(166,206,227)" stroke="rgb(26,152,80)" stroke-width="2.0"/>
<circle cx="469.52" cy="562.70" r="9.33" fill="rgb(166,206,227)" stroke="rgb(26,152,80)" stroke-width="2.0"/>
<circle cx="814.53" cy="755.51" r="7.24" fill="rgb(166,206,227)" stroke="rgb(215,48,39)" stroke-width="2.0"/>
<circle cx="796.78" cy="755.51" r="8.54" fill="rgb(166,206,227)" stroke="rgb(215,48,39)" stroke-width="2.0"/>
<circle cx="524.38" cy="512.11" r="6.13" fill="rgb(166,206,227)" stroke="rgb(215,48,39)" stroke-width="2.0"/>
<circle cx="506.15" cy="512.11" r="10.14" fill="rgb(166,206,227)" stroke="rgb(215,48,39)" stroke-width="2.0"/>
<circle cx="518.65" cy="500.05" r="5.27" fill="rgb(166,206,227)" stroke="rgb(215,48,39)" stroke-width="2.0"/>
<circle cx="605.47" cy="354.27" r="6.16" fill="rgb(166,206,227)" stroke="rgb(253,174,97)" stroke-width="2.0"/>
<circle cx="590.26" cy="354.27" r="7.10" fill="rgb(166,206,227)" stroke="rgb(253,174,97)" stroke-width="2.0"/>
<circle cx="592.22" cy="342.86" r="2.53" fill="rgb(166,206,227)" stroke="rgb(26,152,80)" stroke-width="2.0"/>
<circle cx="598.55" cy="346.07" r="2.61" fill="rgb(166,206,227)" stroke="rgb(0,68,27)" stroke-width="2.0"/>
<circle cx="544.42" cy="719.72" r="2.07" fill="rgb(166,206,227)" stroke="rgb(166,217,106)" stroke-width="2.0"/>
<circle cx="568.54" cy="714.49" r="6.20" fill="rgb(166,206,227)" stroke="rgb(166,217,106)" stroke-width="2.0"/>
<circle cx="548.90" cy="715.45" r="2.17" fill="rgb(166,206,227)" stroke="rgb(166,217,106)" stroke-width="2.0"/>
<circle cx="574.39" cy="727.74" r="6.33" fill="rgb(166,206,227)" stroke="rgb(166,217,106)" stroke-width="2.0"/>
<circle cx="568.48" cy="740.66" r="5.91" fill="rgb(166,206,227)" stroke="rgb(255,255,255)" stroke-width="2.0"/>
<circle cx="556.37" cy="711.28" r="4.43" fill="rgb(166,206,227)" stroke="rgb(26,152,80)" stroke-width="2.0"/>
<circle cx="556.02" cy="727.74" r="10.08" fill="rgb(166,206,227)" stroke="rgb(26,152,80)" stroke-width="2.0"/>
<circle cx="484.86" cy="616.04" r="5.43" fill="rgb(166,206,227)" stroke="rgb(0,68,27)" stroke-width="2.0"/>
<circle cx="497.57" cy="619.56" r="5.81" fill="rgb(166,206,227)" stroke="rgb(0,68,27)" stroke-width="2.0"/>
<circle cx="486.36" cy="633.46" r="10.10" fill="rgb(166,206,227)" stroke="rgb(26,152,80)" stroke-width="2.0"/>
<circle cx="508.08" cy="633.46" r="9.67" fill="rgb(166,206,227)" stroke="rgb(26,152,80)" stroke-width="2.0"/>
<circle cx="523.69" cy="686.14" r="3.06" fill="rgb(166,206,227)" stroke="rgb(215,48,39)" stroke-width="2.0"/>
<circle cx="511.60" cy="686.14" r="7.07" fill="rgb(166,206,227)" stroke="rgb(215,48,39)" stroke-width="2.0"/>
<circle cx="845.07" cy="410.59" r="4.66" fill="rgb(166,206,227)" stroke="rgb(253,174,97)" stroke-width="2.0"/>
<circle cx="822.43" cy="319.46" r="6.97" fill="rgb(166,206,227)" stroke="rgb(253,174,97)" stroke-width="2.0"/>
<circle cx="852.96" cy="400.49" r="6.20" fill="rgb(166,206,227)" stroke="rgb(255,255,255)" stroke-width="2.0"/>
<circle cx="839.68" cy="326.78" r="9.80" fill="rgb(166,206,227)" stroke="rgb(255,255,255)" stroke-width="2.0"/>
<circle cx="853.79" cy="343.32" r="9.99" fill="rgb(166,206,227)" stroke="rgb(255,255,255)" stroke-width="2.0"/>
<circle cx="895.66" cy="375.21" r="9.19" fill="rgb(166,206,227)" stroke="rgb(255,255,255)" stroke-width="2.0"/>
<circle cx="874.97" cy="375.21" r="9.53" fill="rgb(166,206,227)" stroke="rgb(255,255,255)" stroke-width="2.0"/>
<circle cx="885.54" cy="366.71" r="2.07" fill="rgb(166,206,227)" stroke="rgb(255,255,255)" stroke-width="2.0"/>
<circle cx="806.87" cy="359.03" r="9.78" fill="rgb(166,206,227)" stroke="rgb(26,152,80)" stroke-width="2.0"/>
<circle cx="806.55" cy="399.67" r="6.85" fill="rgb(166,206,227)" stroke="rgb(215,48,39)" stroke-width="2.0"/>
<circle cx="765.58" cy="366.34" r="4.18" fill="rgb(166,206,227)" stroke="rgb(253,174,97)" stroke-width="2.0"/>
<circle cx="773.59" cy="357.53" r="5.77" fill="rgb(166,206,227)" stroke="rgb(215,48,39)" stroke-width="2.0"/>
<circle cx="788.37" cy="352.65" r="7.84" fill="rgb(166,206,227)" stroke="rgb(255,255,255)" stroke-width="2.0"/>
<circle cx="793.60" cy="407.19" r="6.16" fill="rgb(166,206,227)" stroke="rgb(253,174,97)" stroke-width="2.0"/>
<circle cx="785.74" cy="381.28" r="18.95" fill="rgb(166,206,227)" stroke="rgb(253,174,97)" stroke-width="2.0"/>
<circle cx="763.70" cy="374.44" r="2.17" fill="rgb(166,206,227)" stroke="rgb(255,255,255)" stroke-width="2.0"/>
<circle cx="821.61" cy="381.28" r="14.95" fill="rgb(166,206,227)" stroke="rgb(253,174,97)" stroke-width="2.0"/>
<circle cx="635.62" cy="734.60" r="4.48" fill="rgb(166,206,227)" stroke="rgb(215,48,39)" stroke-width="2.0"/>
<circle cx="625.60" cy="692.78" r="10.73" fill="rgb(166,206,227)" stroke="rgb(255,255,255)" stroke-width="2.0"/>
<circle cx="635.79" cy="715.74" r="12.43" fill="rgb(166,206,227)" stroke="rgb(255,255,255)" stroke-width="2.0"/>
<circle cx="621.92" cy="724.94" r="2.26" fill="rgb(166,206,227)" stroke="rgb(215,48,39)" stroke-width="2.0"/>
<circle cx="626.59" cy="730.88" r="3.33" fill="rgb(166,206,227)" stroke="rgb(255,255,255)" stroke-width="2.0"/>
<circle cx="649.44" cy="694.11" r="11.18" fill="rgb(166,206,227)" stroke="rgb(215,48,39)" stroke-width="2.0"/>
<circle cx="662.10" cy="715.74" r="11.92" fill="rgb(166,206,227)" stroke="rgb(215,48,39)" stroke-width="2.0"/>
<circle cx="649.36" cy="732.81" r="7.42" fill="rgb(166,206,227)" stroke="rgb(215,48,39)" stroke-width="2.0"/>
<circle cx="619.31" cy="708.03" r="3.81" fill="rgb(166,206,227)" stroke="rgb(215,48,39)" stroke-width="2.0"/>
<circle cx="779.95" cy="586.36" r="3.06" fill="rgb(166,206,227)" stroke="rgb(0,68,27)" stroke-width="2.0"/>
<circle cx="783.20" cy="578.27" r="3.70" fill="rgb(166,206,227)" stroke="rgb(26,152,80)" stroke-width="2.0"/>
<circle cx="790.17" cy="527.79" r="10.39" fill="rgb(166,206,227)" stroke="rgb(255,255,255)" stroke-width="2.0"/>
<circle cx="796.45" cy="552.93" r="13.56" fill="rgb(166,206,227)" stroke="rgb(255,255,255)" stroke-width="2.0"/>
<circle cx="785.47" cy="568.97" r="3.92" fill="rgb(166,206,227)" stroke="rgb(26,152,80)" stroke-width="2.0"/>
<circle cx="706.89" cy="607.89" r="1.31" fill="rgb(51,160,44)" stroke="rgb(0,68,27)" stroke-width="2.0"/>
<circle cx="711.47" cy="607.89" r="1.31" fill="rgb(166,206,227)" stroke="rgb(0,68,27)" stroke-width="2.0"/>
<circle cx="709.18" cy="603.93" r="1.31" fill="rgb(255,127,0)" stroke="rgb(0,68,27)" stroke-width="2.0"/>
<circle cx="690.23" cy="566.11" r="1.31" fill="rgb(255,127,0)" stroke="rgb(0,68,27)" stroke-width="2.0"/>
<circle cx="672.60" cy="566.11" r="1.31" fill="rgb(166,206,227)" stroke="rgb(0,68,27)" stroke-width="2.0"/>
<circle cx="654.96" cy="566.11" r="1.31" fill="rgb(31,120,180)" stroke="rgb(0,68,27)" stroke-width="2.0"/>
<circle cx="727.07" cy="509.83" r="1.31" fill="rgb(31,120,180)" stroke="rgb(0,68,27)" stroke-width="2.0"/>
<circle cx="709.43" cy="509.83" r="1.31" fill="rgb(166,206,227)" stroke="rgb(0,68,27)" stroke-width="2.0"/>
<circle cx="751.65" cy="566.41" r="1.31" fill="rgb(255,127,0)" stroke="rgb(0,68,27)" stroke-width="2.0"/>
<circle cx="751.06" cy="561.88" r="1.31" fill="rgb(255,127,0)" stroke="rgb(0,68,27)" stroke-width="2.0"/>
<circle cx="734.02" cy="566.41" r="1.31" fill="rgb(255,127,0)" stroke="rgb(0,68,27)" stroke-width="2.0"/>
<circle cx="663.18" cy="359.21" r="7.13" fill="rgb(166,206,227)" stroke="rgb(165,0,38)" stroke-width="2.0"/>
<circle cx="654.98" cy="372.46" r="6.50" fill="rgb(166,206,227)" stroke="rgb(165,0,38)" stroke-width="2.0"/>
<circle cx="691.76" cy="412.06" r="4.08" fill="rgb(166,206,227)" stroke="rgb(215,48,39)" stroke-width="2.0"/>
<circle cx="665.66" cy="346.38" r="3.97" fill="rgb(166,206,227)" stroke="rgb(165,0,38)" stroke-width="2.0"/>
<circle cx="655.36" cy="387.38" r="6.47" fill="rgb(166,206,227)" stroke="rgb(165,0,38)" stroke-width="2.0"/>
<circle cx="649.34" cy="400.96" r="6.43" fill="rgb(166,206,227)" stroke="rgb(215,48,39)" stroke-width="2.0"/>
<circle cx="664.12" cy="399.42" r="6.47" fill="rgb(166,206,227)" stroke="rgb(215,48,39)" stroke-width="2.0"/>
<circle cx="679.83" cy="351.67" r="9.19" fill="rgb(166,206,227)" stroke="rgb(255,255,255)" stroke-width="2.0"/>
<circle cx="679.03" cy="379.37" r="16.56" fill="rgb(166,206,227)" stroke="rgb(255,255,255)" stroke-width="2.0"/>
<circle cx="648.01" cy="359.69" r="6.09" fill="rgb(166,206,227)" stroke="rgb(215,48,39)" stroke-width="2.0"/>
<circle cx="657.68" cy="409.55" r="3.58" fill="rgb(166,206,227)" stroke="rgb(255,255,255)" stroke-width="2.0"/>
<circle cx="698.58" cy="359.67" r="9.24" fill="rgb(166,206,227)" stroke="rgb(215,48,39)" stroke-width="2.0"/>
<circle cx="665.79" cy="410.33" r="2.61" fill="rgb(166,206,227)" stroke="rgb(215,48,39)" stroke-width="2.0"/>
<circle cx="682.05" cy="404.18" r="6.47" fill="rgb(166,206,227)" stroke="rgb(215,48,39)" stroke-width="2.0"/>
<circle cx="698.52" cy="398.70" r="8.93" fill="rgb(166,206,227)" stroke="rgb(215,48,39)" stroke-width="2.0"/>
<circle cx="693.57" cy="345.35" r="3.97" fill="rgb(166,206,227)" stroke="rgb(215,48,39)" stroke-width="2.0"/>
<circle cx="642.54" cy="380.27" r="6.23" fill="rgb(166,206,227)" stroke="rgb(255,255,255)" stroke-width="2.0"/>
<circle cx="708.34" cy="379.37" r="10.79" fill="rgb(166,206,227)" stroke="rgb(253,174,97)" stroke-width="2.0"/>
<circle cx="732.46" cy="703.46" r="5.14" fill="rgb(166,206,227)" stroke="rgb(215,48,39)" stroke-width="2.0"/>
<circle cx="735.75" cy="735.57" r="5.50" fill="rgb(166,206,227)" stroke="rgb(215,48,39)" stroke-width="2.0"/>
<circle cx="753.67" cy="741.69" r="2.85" fill="rgb(166,206,227)" stroke="rgb(215,48,39)" stroke-width="2.0"/>
<circle cx="713.07" cy="725.32" r="5.06" fill="rgb(166,206,227)" stroke="rgb(215,48,39)" stroke-width="2.0"/>
<circle cx="763.10" cy="704.48" r="3.75" fill="rgb(166,206,227)" stroke="rgb(215,48,39)" stroke-width="2.0"/>
<circle cx="760.34" cy="734.36" r="4.23" fill="rgb(166,206,227)" stroke="rgb(215,48,39)" stroke-width="2.0"/>
<circle cx="725.54" cy="694.68" r="4.08" fill="rgb(166,206,227)" stroke="rgb(215,48,39)" stroke-width="2.0"/>
<circle cx="716.43" cy="734.82" r="3.06" fill="rgb(166,206,227)" stroke="rgb(215,48,39)" stroke-width="2.0"/>
<circle cx="733.80" cy="746.67" r="3.81" fill="rgb(166,206,227)" stroke="rgb(215,48,39)" stroke-width="2.0"/>
<circle cx="721.34" cy="703.83" r="4.03" fill="rgb(166,206,227)" stroke="rgb(215,48,39)" stroke-width="2.0"/>
<circle cx="724.87" cy="728.87" r="5.31" fill="rgb(166,206,227)" stroke="rgb(215,48,39)" stroke-width="2.0"/>
<circle cx="748.58" cy="701.23" r="9.17" fill="rgb(166,206,227)" stroke="rgb(215,48,39)" stroke-width="2.0"/>
<circle cx="758.87" cy="718.91" r="9.33" fill="rgb(166,206,227)" stroke="rgb(215,48,39)" stroke-width="2.0"/>
<circle cx="735.76" cy="692.41" r="4.43" fill="rgb(166,206,227)" stroke="rgb(215,48,39)" stroke-width="2.0"/>
<circle cx="724.61" cy="741.11" r="4.97" fill="rgb(166,206,227)" stroke="rgb(215,48,39)" stroke-width="2.0"/>
<circle cx="721.82" cy="716.80" r="5.18" fill="rgb(166,206,227)" stroke="rgb(215,48,39)" stroke-width="2.0"/>
<circle cx="748.57" cy="732.47" r="5.73" fill="rgb(166,206,227)" stroke="rgb(215,48,39)" stroke-width="2.0"/>
<circle cx="738.20" cy="718.91" r="9.38" fill="rgb(166,206,227)" stroke="rgb(215,48,39)" stroke-width="2.0"/>
<circle cx="715.81" cy="695.81" r="3.75" fill="rgb(166,206,227)" stroke="rgb(215,48,39)" stroke-width="2.0"/>
<circle cx="711.07" cy="714.67" r="3.81" fill="rgb(166,206,227)" stroke="rgb(215,48,39)" stroke-width="2.0"/>
<circle cx="744.41" cy="744.25" r="4.80" fill="rgb(166,206,227)" stroke="rgb(215,48,39)" stroke-width="2.0"/>
<circle cx="694.14" cy="779.05" r="9.14" fill="rgb(166,206,227)" stroke="rgb(215,48,39)" stroke-width="2.0"/>
<circle cx="672.66" cy="779.05" r="10.37" fill="rgb(166,206,227)" stroke="rgb(215,48,39)" stroke-width="2.0"/>
<circle cx="558.69" cy="657.94" r="4.66" fill="rgb(166,206,227)" stroke="rgb(215,48,39)" stroke-width="2.0"/>
<circle cx="564.88" cy="631.05" r="8.34" fill="rgb(166,206,227)" stroke="rgb(255,255,255)" stroke-width="2.0"/>
<circle cx="572.76" cy="649.51" r="9.78" fill="rgb(166,206,227)" stroke="rgb(255,255,255)" stroke-width="2.0"/>
<circle cx="553.07" cy="635.33" r="2.26" fill="rgb(166,206,227)" stroke="rgb(255,255,255)" stroke-width="2.0"/>
<circle cx="568.06" cy="667.13" r="6.50" fill="rgb(166,206,227)" stroke="rgb(255,255,255)" stroke-width="2.0"/>
<circle cx="593.41" cy="649.51" r="8.91" fill="rgb(166,206,227)" stroke="rgb(215,48,39)" stroke-width="2.0"/>
<circle cx="583.93" cy="632.29" r="8.79" fill="rgb(166,206,227)" stroke="rgb(215,48,39)" stroke-width="2.0"/>
<circle cx="583.87" cy="665.18" r="7.48" fill="rgb(166,206,227)" stroke="rgb(215,48,39)" stroke-width="2.0"/>
<circle cx="556.51" cy="644.26" r="5.35" fill="rgb(166,206,227)" stroke="rgb(215,48,39)" stroke-width="2.0"/>
<circle cx="555.87" cy="667.92" r="3.75" fill="rgb(166,206,227)" stroke="rgb(215,48,39)" stroke-width="2.0"/>
<circle cx="573.01" cy="515.45" r="2.61" fill="rgb(166,206,227)" stroke="rgb(166,217,106)" stroke-width="2.0"/>
<circle cx="564.36" cy="515.45" r="4.08" fill="rgb(166,206,227)" stroke="rgb(255,255,255)" stroke-width="2.0"/>
<circle cx="992.99" cy="284.77" r="13.08" fill="rgb(253,191,111)" stroke="rgb(215,48,39)" stroke-width="2.0"/>
<circle cx="970.84" cy="305.60" r="2.92" fill="rgb(106,61,154)" stroke="rgb(253,174,97)" stroke-width="2.0"/>
<circle cx="958.74" cy="284.77" r="19.21" fill="rgb(253,191,111)" stroke="rgb(215,48,39)" stroke-width="2.0"/>
<circle cx="966.88" cy="262.09" r="2.92" fill="rgb(106,61,154)" stroke="rgb(253,174,97)" stroke-width="2.0"/>
<circle cx="980.10" cy="300.81" r="5.54" fill="rgb(253,191,111)" stroke="rgb(215,48,39)" stroke-width="2.0"/>
<circle cx="951.74" cy="261.95" r="2.69" fill="rgb(106,61,154)" stroke="rgb(253,174,97)" stroke-width="2.0"/>
<circle cx="945.34" cy="265.21" r="2.53" fill="rgb(202,178,214)" stroke="rgb(26,152,80)" stroke-width="2.0"/>
<circle cx="980.73" cy="263.97" r="9.10" fill="rgb(253,191,111)" stroke="rgb(215,48,39)" stroke-width="2.0"/>
<circle cx="959.21" cy="260.68" r="2.92" fill="rgb(106,61,154)" stroke="rgb(253,174,97)" stroke-width="2.0"/>
<circle cx="963.75" cy="308.02" r="2.61" fill="rgb(202,178,214)" stroke="rgb(26,152,80)" stroke-width="2.0"/>
<circle cx="908.98" cy="270.75" r="2.53" fill="rgb(31,120,180)" stroke="rgb(255,255,255)" stroke-width="2.0"/>
<defs><path id="arc-30380" d="M434.00,540.00 A526.00,526.00 0 0,1 1486.00,540.00" fill="none"/></defs>
<text fill="rgb(34,34,34)" font-size="14.0" font-family="sans-serif"><textPath href="#arc-30380" startOffset="50%" text-anchor="middle">code-visualizer</textPath></text>
<defs><path id="arc-30653" d="M447.06,540.00 A288.64,288.64 0 0,1 1024.34,540.00" fill="none"/></defs>
<text fill="rgb(34,34,34)" font-size="14.0" font-family="sans-serif"><textPath href="#arc-30653" startOffset="50%" text-anchor="middle">internal</textPath></text>
<defs><path id="arc-30919" d="M599.59,552.93 A104.74,104.74 0 0,1 809.07,552.93" fill="none"/></defs>
<text fill="rgb(34,34,34)" font-size="14.0" font-family="sans-serif"><textPath href="#arc-30919" startOffset="50%" text-anchor="middle">scan</textPath></text>
<defs><path id="arc-31180" d="M612.65,552.93 A77.14,77.14 0 0,1 766.93,552.93" fill="none"/></defs>
<text fill="rgb(34,34,34)" font-size="14.0" font-family="sans-serif"><textPath href="#arc-31180" startOffset="50%" text-anchor="middle">testdata</textPath></text>
<defs><path id="arc-31443" d="M628.46,566.11 A31.07,31.07 0 0,1 690.61,566.11" fill="none"/></defs>
<text fill="rgb(34,34,34)" font-size="13.6" font-family="sans-serif"><textPath href="#arc-31443" startOffset="50%" text-anchor="middle">nested</textPath></text>
<defs><path id="arc-31704" d="M641.53,566.11 A15.72,15.72 0 0,1 672.97,566.11" fill="none"/></defs>
<text fill="rgb(34,34,34)" font-size="13.7" font-family="sans-serif"><textPath href="#arc-31704" startOffset="50%" text-anchor="middle">sub</textPath></text>
<defs><path id="arc-31962" d="M839.03,552.93 A85.90,85.90 0 0,1 1010.84,552.93" fill="none"/></defs>
<text fill="rgb(34,34,34)" font-size="14.0" font-family="sans-serif"><textPath href="#arc-31962" startOffset="50%" text-anchor="middle">canvas</textPath></text>
<defs><path id="arc-32224" d="M882.44,563.80 A22.01,22.01 0 0,1 926.46,563.80" fill="none"/></defs>
<text fill="rgb(34,34,34)" font-size="9.6" font-family="sans-serif"><textPath href="#arc-32224" startOffset="50%" text-anchor="middle">raster</textPath></text>
<defs><path id="arc-32484" d="M956.42,563.80 A20.11,20.11 0 0,1 996.64,563.80" fill="none"/></defs>
<text fill="rgb(34,34,34)" font-size="14.0" font-family="sans-serif"><textPath href="#arc-32484" startOffset="50%" text-anchor="middle">svg</textPath></text>
<defs><path id="arc-32742" d="M748.10,375.21 A84.44,84.44 0 0,1 916.98,375.21" fill="none"/></defs>
<text fill="rgb(34,34,34)" font-size="14.0" font-family="sans-serif"><textPath href="#arc-32742" startOffset="50%" text-anchor="middle">provider</textPath></text>
<defs><path id="arc-33005" d="M761.17,375.21 A37.63,37.63 0 0,1 836.42,375.21" fill="none"/></defs>
<text fill="rgb(34,34,34)" font-size="14.0" font-family="sans-serif"><textPath href="#arc-33005" startOffset="50%" text-anchor="middle">git</textPath></text>
<defs><path id="arc-33263" d="M636.56,379.49 A40.82,40.82 0 0,1 718.20,379.49" fill="none"/></defs>
<text fill="rgb(34,34,34)" font-size="14.0" font-family="sans-serif"><textPath href="#arc-33263" startOffset="50%" text-anchor="middle">spiral</textPath></text>
<defs><path id="arc-33524" d="M789.71,674.15 A38.94,38.94 0 0,1 867.59,674.15" fill="none"/></defs>
<text fill="rgb(34,34,34)" font-size="10.2" font-family="sans-serif"><textPath href="#arc-33524" startOffset="50%" text-anchor="middle">bubbletree</textPath></text>
<defs><path id="arc-33789" d="M548.14,431.64 A36.03,36.03 0 0,1 620.20,431.64" fill="none"/></defs>
<text fill="rgb(34,34,34)" font-size="14.0" font-family="sans-serif"><textPath href="#arc-33789" startOffset="50%" text-anchor="middle">config</textPath></text>
<defs><path id="arc-34050" d="M704.07,717.08 A32.61,32.61 0 0,1 769.28,717.08" fill="none"/></defs>
<text fill="rgb(34,34,34)" font-size="14.0" font-family="sans-serif"><textPath href="#arc-34050" startOffset="50%" text-anchor="middle">stages</textPath></text>
<defs><path id="arc-34311" d="M609.90,707.97 A32.32,32.32 0 0,1 674.55,707.97" fill="none"/></defs>
<text fill="rgb(34,34,34)" font-size="8.5" font-family="sans-serif"><textPath href="#arc-34311" startOffset="50%" text-anchor="middle">radialtree</textPath></text>
<defs><path id="arc-34575" d="M545.13,649.53 A28.13,28.13 0 0,1 601.38,649.53" fill="none"/></defs>
<text fill="rgb(34,34,34)" font-size="10.5" font-family="sans-serif"><textPath href="#arc-34575" startOffset="50%" text-anchor="middle">treemap</textPath></text>
<defs><path id="arc-34837" d="M523.52,572.08 A23.64,23.64 0 0,1 570.79,572.08" fill="none"/></defs>
<text fill="rgb(34,34,34)" font-size="10.3" font-family="sans-serif"><textPath href="#arc-34837" startOffset="50%" text-anchor="middle">export</textPath></text>
<defs><path id="arc-35098" d="M475.71,627.65 A21.27,21.27 0 0,1 518.24,627.65" fill="none"/></defs>
<text fill="rgb(34,34,34)" font-size="8.0" font-family="sans-serif"><textPath href="#arc-35098" startOffset="50%" text-anchor="middle">palette</textPath></text>
<defs><path id="arc-35359" d="M541.86,726.95 A20.15,20.15 0 0,1 582.16,726.95" fill="none"/></defs>
<text fill="rgb(34,34,34)" font-size="10.5" font-family="sans-serif"><textPath href="#arc-35359" startOffset="50%" text-anchor="middle">model</textPath></text>
<defs><path id="arc-35619" d="M663.23,779.05 A19.56,19.56 0 0,1 702.35,779.05" fill="none"/></defs>
<text fill="rgb(34,34,34)" font-size="10.2" font-family="sans-serif"><textPath href="#arc-35619" startOffset="50%" text-anchor="middle">table</textPath></text>
<defs><path id="arc-35879" d="M461.13,562.70 A16.53,16.53 0 0,1 494.19,562.70" fill="none"/></defs>
<text fill="rgb(34,34,34)" font-size="7.2" font-family="sans-serif"><textPath href="#arc-35879" startOffset="50%" text-anchor="middle">filter</textPath></text>
<defs><path id="arc-36139" d="M496.84,510.85 A16.40,16.40 0 0,1 529.65,510.85" fill="none"/></defs>
<text fill="rgb(34,34,34)" font-size="7.2" font-family="sans-serif"><textPath href="#arc-36139" startOffset="50%" text-anchor="middle">legend</textPath></text>
<defs><path id="arc-36399" d="M789.17,755.51 A15.83,15.83 0 0,1 820.83,755.51" fill="none"/></defs>
<text fill="rgb(34,34,34)" font-size="10.4" font-family="sans-serif"><textPath href="#arc-36399" startOffset="50%" text-anchor="middle">inks</textPath></text>
<defs><path id="arc-36658" d="M1054.30,540.00 A209.32,209.32 0 0,1 1472.94,540.00" fill="none"/></defs>
<text fill="rgb(34,34,34)" font-size="14.0" font-family="sans-serif"><textPath href="#arc-36658" startOffset="50%" text-anchor="middle">docs</textPath></text>
<defs><path id="arc-36921" d="M1067.36,540.00 A184.52,184.52 0 0,1 1436.41,540.00" fill="none"/></defs>
<text fill="rgb(34,34,34)" font-size="14.0" font-family="sans-serif"><textPath href="#arc-36921" startOffset="50%" text-anchor="middle">superpowers</textPath></text>
<defs><path id="arc-37191" d="M1080.43,540.00 A117.03,117.03 0 0,1 1314.49,540.00" fill="none"/></defs>
<text fill="rgb(34,34,34)" font-size="14.0" font-family="sans-serif"><textPath href="#arc-37191" startOffset="50%" text-anchor="middle">plans</textPath></text>
<defs><path id="arc-37455" d="M1344.45,540.00 A39.45,39.45 0 0,1 1423.34,540.00" fill="none"/></defs>
<text fill="rgb(34,34,34)" font-size="14.0" font-family="sans-serif"><textPath href="#arc-37455" startOffset="50%" text-anchor="middle">specs</textPath></text>
<defs><path id="arc-37717" d="M1004.18,356.06 A44.00,44.00 0 0,1 1092.18,356.06" fill="none"/></defs>
<text fill="rgb(34,34,34)" font-size="14.0" font-family="sans-serif"><textPath href="#arc-37717" startOffset="50%" text-anchor="middle">cmd</textPath></text>
<defs><path id="arc-37977" d="M1017.24,356.06 A30.94,30.94 0 0,1 1079.12,356.06" fill="none"/></defs>
<text fill="rgb(34,34,34)" font-size="11.6" font-family="sans-serif"><textPath href="#arc-37977" startOffset="50%" text-anchor="middle">codeviz</textPath></text>
<defs><path id="arc-38241" d="M939.81,280.43 A32.89,32.89 0 0,1 1005.59,280.43" fill="none"/></defs>
<text fill="rgb(34,34,34)" font-size="12.3" font-family="sans-serif"><textPath href="#arc-38241" startOffset="50%" text-anchor="middle">samples</textPath></text>
<rect x="1726.00" y="411.00" width="178.00" height="653.00" fill="rgba(255,255,255,0.902)" stroke="rgba(153,153,153,0.800)" stroke-width="1.0"/>
<text x="1738.00" y="436.00" fill="rgb(38,38,38)" font-size="13.0" font-family="sans-serif" text-anchor="start" dominant-baseline="central">Fill: file-type</text>
<rect x="1738.00" y="442.00" width="28.00" height="28.00" fill="rgb(166,206,227)" stroke="rgb(102,102,102)" stroke-width="0.5"/>
<text x="1772.00" y="456.00" fill="rgb(51,51,51)" font-size="12.0" font-family="sans-serif" text-anchor="start" dominant-baseline="central">go</text>
<rect x="1738.00" y="474.00" width="28.00" height="28.00" fill="rgb(31,120,180)" stroke="rgb(102,102,102)" stroke-width="0.5"/>
<text x="1772.00" y="488.00" fill="rgb(51,51,51)" font-size="12.0" font-family="sans-serif" text-anchor="start" dominant-baseline="central">md</text>
<rect x="1738.00" y="506.00" width="28.00" height="28.00" fill="rgb(178,223,138)" stroke="rgb(102,102,102)" stroke-width="0.5"/>
<text x="1772.00" y="520.00" fill="rgb(51,51,51)" font-size="12.0" font-family="sans-serif" text-anchor="start" dominant-baseline="central">mod</text>
<rect x="1738.00" y="538.00" width="28.00" height="28.00" fill="rgb(51,160,44)" stroke="rgb(102,102,102)" stroke-width="0.5"/>
<text x="1772.00" y="552.00" fill="rgb(51,51,51)" font-size="12.0" font-family="sans-serif" text-anchor="start" dominant-baseline="central">rs</text>
<rect x="1738.00" y="570.00" width="28.00" height="28.00" fill="rgb(251,154,153)" stroke="rgb(102,102,102)" stroke-width="0.5"/>
<text x="1772.00" y="584.00" fill="rgb(51,51,51)" font-size="12.0" font-family="sans-serif" text-anchor="start" dominant-baseline="central">sh</text>
<rect x="1738.00" y="602.00" width="28.00" height="28.00" fill="rgb(227,26,28)" stroke="rgb(102,102,102)" stroke-width="0.5"/>
<text x="1772.00" y="616.00" fill="rgb(51,51,51)" font-size="12.0" font-family="sans-serif" text-anchor="start" dominant-baseline="central">sum</text>
<rect x="1738.00" y="634.00" width="28.00" height="28.00" fill="rgb(253,191,111)" stroke="rgb(102,102,102)" stroke-width="0.5"/>
<text x="1772.00" y="648.00" fill="rgb(51,51,51)" font-size="12.0" font-family="sans-serif" text-anchor="start" dominant-baseline="central">svg</text>
<rect x="1738.00" y="666.00" width="28.00" height="28.00" fill="rgb(255,127,0)" stroke="rgb(102,102,102)" stroke-width="0.5"/>
<text x="1772.00" y="680.00" fill="rgb(51,51,51)" font-size="12.0" font-family="sans-serif" text-anchor="start" dominant-baseline="central">txt</text>
<rect x="1738.00" y="698.00" width="28.00" height="28.00" fill="rgb(202,178,214)" stroke="rgb(102,102,102)" stroke-width="0.5"/>
<text x="1772.00" y="712.00" fill="rgb(51,51,51)" font-size="12.0" font-family="sans-serif" text-anchor="start" dominant-baseline="central">yaml</text>
<rect x="1738.00" y="730.00" width="28.00" height="28.00" fill="rgb(106,61,154)" stroke="rgb(102,102,102)" stroke-width="0.5"/>
<text x="1772.00" y="744.00" fill="rgb(51,51,51)" font-size="12.0" font-family="sans-serif" text-anchor="start" dominant-baseline="central">yml</text>
<text x="1738.00" y="789.00" fill="rgb(38,38,38)" font-size="13.0" font-family="sans-serif" text-anchor="start" dominant-baseline="central">Border: file-freshness</text>
<rect x="1738.00" y="795.00" width="28.00" height="28.00" fill="rgb(165,0,38)" stroke="rgb(102,102,102)" stroke-width="0.5"/>
<text x="1772.00" y="823.00" fill="rgb(51,51,51)" font-size="12.0" font-family="sans-serif" text-anchor="start" dominant-baseline="central">2</text>
<rect x="1738.00" y="823.00" width="28.00" height="28.00" fill="rgb(215,48,39)" stroke="rgb(102,102,102)" stroke-width="0.5"/>
<text x="1772.00" y="851.00" fill="rgb(51,51,51)" font-size="12.0" font-family="sans-serif" text-anchor="start" dominant-baseline="central">5</text>
<rect x="1738.00" y="851.00" width="28.00" height="28.00" fill="rgb(253,174,97)" stroke="rgb(102,102,102)" stroke-width="0.5"/>
<text x="1772.00" y="879.00" fill="rgb(51,51,51)" font-size="12.0" font-family="sans-serif" text-anchor="start" dominant-baseline="central">6</text>
<rect x="1738.00" y="879.00" width="28.00" height="28.00" fill="rgb(255,255,191)" stroke="rgb(102,102,102)" stroke-width="0.5"/>
<text x="1772.00" y="907.00" fill="rgb(51,51,51)" font-size="12.0" font-family="sans-serif" text-anchor="start" dominant-baseline="central">8</text>
<rect x="1738.00" y="907.00" width="28.00" height="28.00" fill="rgb(255,255,255)" stroke="rgb(102,102,102)" stroke-width="0.5"/>
<text x="1772.00" y="935.00" fill="rgb(51,51,51)" font-size="12.0" font-family="sans-serif" text-anchor="start" dominant-baseline="central">10</text>
<rect x="1738.00" y="935.00" width="28.00" height="28.00" fill="rgb(166,217,106)" stroke="rgb(102,102,102)" stroke-width="0.5"/>
<text x="1772.00" y="963.00" fill="rgb(51,51,51)" font-size="12.0" font-family="sans-serif" text-anchor="start" dominant-baseline="central">17</text>
<rect x="1738.00" y="963.00" width="28.00" height="28.00" fill="rgb(26,152,80)" stroke="rgb(102,102,102)" stroke-width="0.5"/>
<text x="1772.00" y="991.00" fill="rgb(51,51,51)" font-size="12.0" font-family="sans-serif" text-anchor="start" dominant-baseline="central">36</text>
<rect x="1738.00" y="991.00" width="28.00" height="28.00" fill="rgb(0,68,27)" stroke="rgb(102,102,102)" stroke-width="0.5"/>
<text x="1738.00" y="1046.00" fill="rgb(38,38,38)" font-size="13.0" font-family="sans-serif" text-anchor="start" dominant-baseline="central">Size: file-lines</text>
</svg>
