<svg xmlns="http://www.w3.org/2000/svg" width="1920" height="1920">
<rect x="0.00" y="0.00" width="1920.00" height="1920.00" fill="rgb(255,255,255)" stroke="rgb(255,255,255)" stroke-width="0.0"/>
<path d="M 960.0 653.3 L 965.4 652.2 L 970.8 651.1 L 976.3 650.1 L 981.8 649.2 L 987.4 648.4 L 993.0 647.7 L 998.6 647.1 L 1004.3 646.6 L 1009.9 646.2 L 1015.7 645.9 L 1021.4 645.8 L 1027.1 645.7 L 1032.9 645.7 L 1038.7 645.8 L 1044.5 646.1 L 1050.4 646.4 L 1056.2 646.9 L 1062.1 647.5 L 1067.9 648.1 L 1073.8 648.9 L 1079.7 649.8 L 1085.6 650.8 L 1091.5 651.9 L 1097.4 653.2 L 1103.2 654.5 L 1109.1 656.0 L 1115.0 657.5 L 1120.8 659.2 L 1126.7 661.0 L 1132.5 662.9 L 1138.3 664.9 L 1144.1 667.1 L 1149.9 669.3 L 1155.7 671.7 L 1161.4 674.2 L 1167.1 676.7 L 1172.8 679.4 L 1178.5 682.2 L 1184.1 685.2 L 1189.6 688.2 L 1195.2 691.3 L 1200.7 694.6 L 1206.2 698.0 L 1211.6 701.4 L 1216.9 705.0 L 1222.3 708.7 L 1227.5 712.5 L 1232.7 716.4 L 1237.9 720.5 L 1243.0 724.6 L 1248.0 728.8 L 1253.0 733.1 L 1257.9 737.6 L 1262.8 742.1 L 1267.6 746.8 L 1272.3 751.5 L 1276.9 756.4 L 1281.5 761.3 L 1286.0 766.3 L 1290.4 771.5 L 1294.7 776.7 L 1299.0 782.0 L 1303.2 787.5 L 1307.2 793.0 L 1311.2 798.6 L 1315.1 804.3 L 1319.0 810.0 L 1322.7 815.9 L 1326.3 821.9 L 1329.8 827.9 L 1333.2 834.0 L 1336.6 840.2 L 1339.8 846.5 L 1342.9 852.8 L 1345.9 859.2 L 1348.8 865.7 L 1351.6 872.3 L 1354.3 878.9 L 1356.9 885.6 L 1359.3 892.4 L 1361.7 899.2 L 1363.9 906.1 L 1366.0 913.1 L 1368.0 920.1 L 1369.8 927.1 L 1371.6 934.2 L 1373.2 941.4 L 1374.7 948.6 L 1376.0 955.9 L 1377.3 963.2 L 1378.4 970.5 L 1379.4 977.9 L 1380.2 985.4 L 1380.9 992.8 L 1381.5 1000.3 L 1382.0 1007.8 L 1382.3 1015.4 L 1382.5 1023.0 L 1382.5 1030.6 L 1382.4 1038.2 L 1382.2 1045.8 L 1381.8 1053.5 L 1381.3 1061.2 L 1380.6 1068.8 L 1379.9 1076.5 L 1378.9 1084.2 L 1377.9 1091.9 L 1376.6 1099.6 L 1375.3 1107.3 L 1373.8 1115.0 L 1372.2 1122.7 L 1370.4 1130.4 L 1368.4 1138.0 L 1366.4 1145.7 L 1364.2 1153.3 L 1361.8 1160.9 L 1359.3 1168.5 L 1356.7 1176.0 L 1353.9 1183.6 L 1351.0 1191.1 L 1347.9 1198.5 L 1344.7 1206.0 L 1341.4 1213.4 L 1337.9 1220.7 L 1334.2 1228.0 L 1330.5 1235.3 L 1326.6 1242.5 L 1322.5 1249.6 L 1318.3 1256.7 L 1314.0 1263.8 L 1309.5 1270.7 L 1304.9 1277.7 L 1300.2 1284.5 L 1295.3 1291.3 L 1290.3 1298.0 L 1285.2 1304.6 L 1279.9 1311.2 L 1274.5 1317.7 L 1269.0 1324.1 L 1263.3 1330.4 L 1257.6 1336.6 L 1251.7 1342.7 L 1245.6 1348.8 L 1239.5 1354.7 L 1233.2 1360.6 L 1226.8 1366.4 L 1220.3 1372.0 L 1213.7 1377.6 L 1206.9 1383.0 L 1200.1 1388.3 L 1193.1 1393.6 L 1186.0 1398.7 L 1178.9 1403.7 L 1171.6 1408.6 L 1164.2 1413.3 L 1156.7 1418.0 L 1149.1 1422.5 L 1141.4 1426.9 L 1133.6 1431.1 L 1125.7 1435.3 L 1117.7 1439.3 L 1109.7 1443.1 L 1101.5 1446.9 L 1093.3 1450.5 L 1085.0 1453.9 L 1076.6 1457.2 L 1068.1 1460.4 L 1059.5 1463.4 L 1050.9 1466.3 L 1042.2 1469.0 L 1033.4 1471.6 L 1024.6 1474.0 L 1015.7 1476.3 L 1006.8 1478.4 L 997.7 1480.4 L 988.7 1482.2 L 979.6 1483.9 L 970.4 1485.3 L 961.2 1486.7 L 951.9 1487.8 L 942.6 1488.9 L 933.3 1489.7 L 923.9 1490.4 L 914.5 1490.9 L 905.1 1491.2 L 895.6 1491.4 L 886.2 1491.4 L 876.7 1491.2 L 867.2 1490.9 L 857.6 1490.4 L 848.1 1489.7 L 838.5 1488.9 L 829.0 1487.9 L 819.4 1486.7 L 809.9 1485.3 L 800.3 1483.8 L 790.8 1482.1 L 781.3 1480.2 L 771.7 1478.1 L 762.2 1475.9 L 752.8 1473.5 L 743.3 1470.9 L 733.9 1468.1 L 724.5 1465.2 L 715.1 1462.1 L 705.8 1458.8 L 696.5 1455.4 L 687.3 1451.8 L 678.1 1448.0 L 668.9 1444.0 L 659.8 1439.9 L 650.8 1435.6 L 641.8 1431.1 L 632.9 1426.4 L 624.0 1421.6 L 615.3 1416.6 L 606.5 1411.5 L 597.9 1406.2 L 589.3 1400.7 L 580.9 1395.1 L 572.5 1389.3 L 564.2 1383.3 L 555.9 1377.2 L 547.8 1370.9 L 539.8 1364.4 L 531.9 1357.8 L 524.0 1351.1 L 516.3 1344.2 L 508.7 1337.1 L 501.2 1329.9 L 493.8 1322.6 L 486.5 1315.1 L 479.4 1307.5 L 472.4 1299.7 L 465.5 1291.8 L 458.7 1283.7 L 452.0 1275.5 L 445.5 1267.2 L 439.2 1258.7 L 432.9 1250.1 L 426.8 1241.4 L 420.9 1232.6 L 415.1 1223.6 L 409.4 1214.5 L 403.9 1205.3 L 398.6 1196.0 L 393.4 1186.6 L 388.3 1177.1 L 383.5 1167.4 L 378.7 1157.7 L 374.2 1147.8 L 369.8 1137.9 L 365.6 1127.8 L 361.6 1117.7 L 357.7 1107.5 L 354.0 1097.2 L 350.5 1086.8 L 347.2 1076.3 L 344.0 1065.7 L 341.0 1055.1 L 338.2 1044.4 L 335.6 1033.6 L 333.2 1022.8 L 331.0 1011.9 L 328.9 1000.9 L 327.1 989.9 L 325.4 978.8 L 324.0 967.7 L 322.7 956.6 L 321.6 945.4 L 320.8 934.1 L 320.1 922.8 L 319.6 911.5 L 319.3 900.2 L 319.3 888.8 L 319.4 877.4 L 319.7 866.0 L 320.3 854.6 L 321.0 843.2 L 321.9 831.8 L 323.1 820.3 L 324.4 808.9 L 326.0 797.5 L 327.8 786.1 L 329.7 774.7 L 331.9 763.3 L 334.3 751.9 L 336.9 740.5 L 339.7 729.2 L 342.7 717.9 L 345.9 706.7 L 349.3 695.4 L 352.9 684.3 L 356.7 673.1 L 360.7 662.1 L 364.9 651.0 L 369.4 640.0 L 374.0 629.1 L 378.8 618.3 L 383.9 607.5 L 389.1 596.8 L 394.5 586.2 L 400.2 575.6 L 406.0 565.1 L 412.0 554.7 L 418.2 544.5 L 424.6 534.2 L 431.2 524.1 L 438.0 514.1 L 445.0 504.2 L 452.2 494.4 L 459.5 484.8 L 467.1 475.2 L 474.8 465.8 L 482.7 456.4 L 490.8 447.2 L 499.0 438.2 L 507.4 429.2 L 516.0 420.4 L 524.8 411.7 L 533.7 403.2 L 542.8 394.8 L 552.1 386.6 L 561.5 378.5 L 571.1 370.6 L 580.8 362.8 L 590.7 355.2 L 600.8 347.8 L 611.0 340.5 L 621.3 333.4 L 631.8 326.5 L 642.4 319.7 L 653.1 313.1 L 664.0 306.7 L 675.0 300.5 L 686.2 294.5 L 697.4 288.6 L 708.8 283.0 L 720.3 277.5 L 731.9 272.3 L 743.7 267.2 L 755.5 262.3 L 767.5 257.7 L 779.5 253.2 L 791.6 248.9 L 803.9 244.9 L 816.2 241.1 L 828.6 237.4 L 841.1 234.0 L 853.7 230.9 L 866.3 227.9 L 879.0 225.1 L 891.8 222.6 L 904.7 220.3 L 917.6 218.2 L 930.6 216.3 L 943.6 214.7 L 956.6 213.3 L 969.8 212.1 L 982.9 211.2 L 996.1 210.5 L 1009.3 210.0 L 1022.6 209.8 L 1035.8 209.8 L 1049.1 210.0 L 1062.4 210.4 L 1075.7 211.1 L 1089.1 212.1 L 1102.4 213.2 L 1115.7 214.7 L 1129.0 216.3 L 1142.4 218.2 L 1155.6 220.3 L 1168.9 222.7 L 1182.2 225.3 L 1195.4 228.1 L 1208.6 231.2 L 1221.8 234.5 L 1234.9 238.1 L 1248.0 241.8 L 1261.0 245.9 L 1274.0 250.1 L 1286.9 254.6 L 1299.7 259.4 L 1312.5 264.3 L 1325.2 269.5 L 1337.9 275.0 L 1350.5 280.6 L 1362.9 286.5 L 1375.3 292.7 L 1387.7 299.0 L 1399.9 305.6 L 1412.0 312.4 L 1424.0 319.4 L 1435.9 326.7 L 1447.7 334.2 L 1459.3 341.9 L 1470.9 349.8 L 1482.3 357.9 L 1493.6 366.2 L 1504.8 374.8 L 1515.8 383.5 L 1526.7 392.5 L 1537.5 401.7 L 1548.1 411.1 L 1558.5 420.6 L 1568.8 430.4 L 1578.9 440.4 L 1588.9 450.5 L 1598.7 460.9 L 1608.4 471.4 L 1617.8 482.2 L 1627.1 493.1 L 1636.2 504.1 L 1645.1 515.4 L 1653.9 526.8 L 1662.4 538.4 L 1670.8 550.2 L 1678.9 562.1 L 1686.9 574.2 L 1694.6 586.5 L 1702.2 598.9 L 1709.5 611.4 L 1716.6 624.1 L 1723.5 637.0 L 1730.2 650.0 L 1736.7 663.1 L 1742.9 676.3 L 1748.9 689.7 L 1754.7 703.2 L 1760.3 716.8 L 1765.6 730.6 L 1770.7 744.4 L 1775.5 758.4 L 1780.2 772.4 L 1784.5 786.6 L 1788.6 800.8 L 1792.5 815.2 L 1796.1 829.6 L 1799.5 844.1 L 1802.6 858.7 L 1805.5 873.4 L 1808.1 888.1 L 1810.5 902.9 L 1812.6 917.8 L 1814.4 932.7 L 1816.0 947.7 L 1817.3 962.7 L 1818.4 977.8 L 1819.1 992.9 L 1819.7 1008.0 L 1819.9 1023.1 L 1819.9 1038.3 L 1819.6 1053.5 L 1819.1 1068.7 L 1818.2 1084.0 L 1817.1 1099.2 L 1815.8 1114.4 L 1814.1 1129.7 L 1812.2 1144.9 L 1810.1 1160.1 L 1807.6 1175.2 L 1804.9 1190.4 L 1801.9 1205.5 L 1798.6 1220.6 L 1795.1 1235.7 L 1791.3 1250.7 L 1787.2 1265.6 L 1782.9 1280.5 L 1778.3 1295.4 L 1773.4 1310.2 L 1768.3 1324.9 L 1762.9 1339.5 L 1757.2 1354.1 L 1751.2 1368.6 L 1745.0 1383.0 L 1738.6 1397.3 L 1731.8 1411.5 L 1724.8 1425.6 L 1717.6 1439.6 L 1710.1 1453.5 L 1702.3 1467.3 L 1694.3 1480.9 L 1686.1 1494.4 L 1677.6 1507.8 L 1668.8 1521.1 L 1659.8 1534.2 L 1650.6 1547.2 L 1641.1 1560.0 L 1631.4 1572.7 L 1621.4 1585.2 L 1611.2 1597.6 L 1600.8 1609.8 L 1590.2 1621.8 L 1579.3 1633.7 L 1568.2 1645.4 L 1556.9 1656.9 L 1545.4 1668.2 L 1533.6 1679.3" fill="none" stroke="rgb(221,221,221)" stroke-width="1.0"/>
<circle cx="960.00" cy="653.33" r="3.00" fill="rgb(80,165,40)" stroke="rgb(51,51,51)" stroke-width="2.0"/>
<circle cx="1031.74" cy="645.69" r="3.00" fill="rgb(210,130,30)" stroke="rgb(51,51,51)" stroke-width="2.0"/>
<circle cx="1106.70" cy="655.36" r="3.00" fill="rgb(240,215,50)" stroke="rgb(51,51,51)" stroke-width="2.0"/>
<circle cx="1180.62" cy="683.35" r="3.00" fill="rgb(85,45,15)" stroke="rgb(51,51,51)" stroke-width="2.0"/>
<circle cx="1248.94" cy="729.58" r="3.00" fill="rgb(45,25,10)" stroke="rgb(51,51,51)" stroke-width="2.0"/>
<circle cx="1307.14" cy="792.82" r="3.00" fill="rgb(165,200,50)" stroke="rgb(51,51,51)" stroke-width="2.0"/>
<circle cx="1381.64" cy="1056.24" r="3.00" fill="rgb(80,165,40)" stroke="rgb(51,51,51)" stroke-width="2.0"/>
<circle cx="1363.82" cy="1154.47" r="3.00" fill="rgb(165,200,50)" stroke="rgb(51,51,51)" stroke-width="2.0"/>
<circle cx="1322.72" cy="1249.26" r="3.00" fill="rgb(130,70,20)" stroke="rgb(51,51,51)" stroke-width="2.0"/>
<circle cx="1259.06" cy="1335.01" r="3.00" fill="rgb(175,95,25)" stroke="rgb(51,51,51)" stroke-width="2.0"/>
<circle cx="1174.94" cy="1406.33" r="3.00" fill="rgb(230,175,40)" stroke="rgb(51,51,51)" stroke-width="2.0"/>
<circle cx="1073.73" cy="1458.30" r="3.00" fill="rgb(240,215,50)" stroke="rgb(51,51,51)" stroke-width="2.0"/>
<circle cx="960.00" cy="1486.84" r="3.00" fill="rgb(80,165,40)" stroke="rgb(51,51,51)" stroke-width="2.0"/>
<circle cx="839.27" cy="1488.96" r="3.00" fill="rgb(240,215,50)" stroke="rgb(51,51,51)" stroke-width="2.0"/>
<circle cx="717.77" cy="1463.00" r="3.00" fill="rgb(210,130,30)" stroke="rgb(51,51,51)" stroke-width="2.0"/>
<circle cx="602.11" cy="1408.78" r="3.00" fill="rgb(240,215,50)" stroke="rgb(51,51,51)" stroke-width="2.0"/>
<circle cx="498.92" cy="1327.70" r="3.00" fill="rgb(175,95,25)" stroke="rgb(51,51,51)" stroke-width="2.0"/>
<circle cx="414.49" cy="1222.70" r="3.00" fill="rgb(230,175,40)" stroke="rgb(51,51,51)" stroke-width="2.0"/>
<circle cx="354.38" cy="1098.23" r="3.00" fill="rgb(130,70,20)" stroke="rgb(51,51,51)" stroke-width="2.0"/>
<circle cx="323.08" cy="960.00" r="3.00" fill="rgb(130,70,20)" stroke="rgb(51,51,51)" stroke-width="2.0"/>
<circle cx="323.71" cy="814.77" r="4.00" fill="rgb(25,120,20)" stroke="rgb(51,51,51)" stroke-width="2.0"/>
<circle cx="357.81" cy="670.00" r="3.00" fill="rgb(25,120,20)" stroke="rgb(51,51,51)" stroke-width="2.0"/>
<circle cx="523.66" cy="412.85" r="3.00" fill="rgb(230,175,40)" stroke="rgb(51,51,51)" stroke-width="2.0"/>
<circle cx="649.53" cy="315.31" r="3.00" fill="rgb(230,175,40)" stroke="rgb(51,51,51)" stroke-width="2.0"/>
<circle cx="797.27" cy="247.05" r="3.00" fill="rgb(175,95,25)" stroke="rgb(51,51,51)" stroke-width="2.0"/>
<circle cx="960.00" cy="212.99" r="3.00" fill="rgb(80,165,40)" stroke="rgb(51,51,51)" stroke-width="2.0"/>
<circle cx="1129.72" cy="216.39" r="3.00" fill="rgb(130,70,20)" stroke="rgb(51,51,51)" stroke-width="2.0"/>
<circle cx="1297.76" cy="258.63" r="3.00" fill="rgb(85,45,15)" stroke="rgb(51,51,51)" stroke-width="2.0"/>
<circle cx="1455.17" cy="339.08" r="3.00" fill="rgb(45,25,10)" stroke="rgb(51,51,51)" stroke-width="2.0"/>
<circle cx="1593.22" cy="455.03" r="3.00" fill="rgb(130,70,20)" stroke="rgb(51,51,51)" stroke-width="2.0"/>
<circle cx="1703.88" cy="601.77" r="3.00" fill="rgb(45,25,10)" stroke="rgb(51,51,51)" stroke-width="2.0"/>
<circle cx="1780.27" cy="772.78" r="3.00" fill="rgb(45,25,10)" stroke="rgb(51,51,51)" stroke-width="2.0"/>
<circle cx="1817.09" cy="960.00" r="3.00" fill="rgb(240,215,50)" stroke="rgb(51,51,51)" stroke-width="2.0"/>
<circle cx="1810.94" cy="1154.22" r="3.00" fill="rgb(80,165,40)" stroke="rgb(51,51,51)" stroke-width="2.0"/>
<circle cx="1760.55" cy="1345.53" r="3.50" fill="rgb(25,120,20)" stroke="rgb(51,51,51)" stroke-width="2.0"/>
<circle cx="1666.99" cy="1523.81" r="3.00" fill="rgb(210,130,30)" stroke="rgb(51,51,51)" stroke-width="2.0"/>
<circle cx="1533.61" cy="1679.28" r="3.00" fill="rgb(85,45,15)" stroke="rgb(51,51,51)" stroke-width="2.0"/>
<text x="960.00" y="646.33" fill="rgb(34,34,34)" font-size="12.0" font-family="sans-serif" text-anchor="start" dominant-baseline="central">Apr 4</text>
<text x="960.00" y="205.99" fill="rgb(34,34,34)" font-size="12.0" font-family="sans-serif" text-anchor="start" dominant-baseline="central" transform="rotate(360.00 960.00 205.99)">May 2</text>
<rect x="1754.00" y="1553.00" width="150.00" height="351.00" fill="rgba(255,255,255,0.902)" stroke="rgba(153,153,153,0.800)" stroke-width="1.0"/>
<text x="1766.00" y="1578.00" fill="rgb(38,38,38)" font-size="13.0" font-family="sans-serif" text-anchor="start" dominant-baseline="central">Fill: commit-count</text>
<rect x="1766.00" y="1584.00" width="28.00" height="28.00" fill="rgb(15,10,5)" stroke="rgb(102,102,102)" stroke-width="0.5"/>
<text x="1800.00" y="1612.00" fill="rgb(51,51,51)" font-size="12.0" font-family="sans-serif" text-anchor="start" dominant-baseline="central">5</text>
<rect x="1766.00" y="1612.00" width="28.00" height="28.00" fill="rgb(45,25,10)" stroke="rgb(102,102,102)" stroke-width="0.5"/>
<text x="1800.00" y="1640.00" fill="rgb(51,51,51)" font-size="12.0" font-family="sans-serif" text-anchor="start" dominant-baseline="central">71</text>
<rect x="1766.00" y="1640.00" width="28.00" height="28.00" fill="rgb(85,45,15)" stroke="rgb(102,102,102)" stroke-width="0.5"/>
<text x="1800.00" y="1668.00" fill="rgb(51,51,51)" font-size="12.0" font-family="sans-serif" text-anchor="start" dominant-baseline="central">85</text>
<rect x="1766.00" y="1668.00" width="28.00" height="28.00" fill="rgb(130,70,20)" stroke="rgb(102,102,102)" stroke-width="0.5"/>
<text x="1800.00" y="1696.00" fill="rgb(51,51,51)" font-size="12.0" font-family="sans-serif" text-anchor="start" dominant-baseline="central">120</text>
<rect x="1766.00" y="1696.00" width="28.00" height="28.00" fill="rgb(175,95,25)" stroke="rgb(102,102,102)" stroke-width="0.5"/>
<text x="1800.00" y="1724.00" fill="rgb(51,51,51)" font-size="12.0" font-family="sans-serif" text-anchor="start" dominant-baseline="central">230</text>
<rect x="1766.00" y="1724.00" width="28.00" height="28.00" fill="rgb(210,130,30)" stroke="rgb(102,102,102)" stroke-width="0.5"/>
<text x="1800.00" y="1752.00" fill="rgb(51,51,51)" font-size="12.0" font-family="sans-serif" text-anchor="start" dominant-baseline="central">260</text>
<rect x="1766.00" y="1752.00" width="28.00" height="28.00" fill="rgb(230,175,40)" stroke="rgb(102,102,102)" stroke-width="0.5"/>
<text x="1800.00" y="1780.00" fill="rgb(51,51,51)" font-size="12.0" font-family="sans-serif" text-anchor="start" dominant-baseline="central">320</text>
<rect x="1766.00" y="1780.00" width="28.00" height="28.00" fill="rgb(240,215,50)" stroke="rgb(102,102,102)" stroke-width="0.5"/>
<text x="1800.00" y="1808.00" fill="rgb(51,51,51)" font-size="12.0" font-family="sans-serif" text-anchor="start" dominant-baseline="central">400</text>
<rect x="1766.00" y="1808.00" width="28.00" height="28.00" fill="rgb(165,200,50)" stroke="rgb(102,102,102)" stroke-width="0.5"/>
<text x="1800.00" y="1836.00" fill="rgb(51,51,51)" font-size="12.0" font-family="sans-serif" text-anchor="start" dominant-baseline="central">620</text>
<rect x="1766.00" y="1836.00" width="28.00" height="28.00" fill="rgb(80,165,40)" stroke="rgb(102,102,102)" stroke-width="0.5"/>
<text x="1800.00" y="1864.00" fill="rgb(51,51,51)" font-size="12.0" font-family="sans-serif" text-anchor="start" dominant-baseline="central">980</text>
<rect x="1766.00" y="1864.00" width="28.00" height="28.00" fill="rgb(25,120,20)" stroke="rgb(102,102,102)" stroke-width="0.5"/>
</svg>
