<svg xmlns="http://www.w3.org/2000/svg" width="1920" height="1920">
<rect x="0.00" y="0.00" width="1920.00" height="1920.00" fill="rgb(255,255,255)" stroke="rgb(255,255,255)" stroke-width="0.0"/>
<path d="M 960.0 644.3 L 969.5 643.3 L 979.2 642.5 L 988.8 642.1 L 998.6 641.9 L 1008.3 642.1 L 1018.1 642.6 L 1027.9 643.4 L 1037.7 644.5 L 1047.5 645.9 L 1057.3 647.7 L 1067.1 649.7 L 1076.8 652.1 L 1086.5 654.8 L 1096.1 657.9 L 1105.7 661.2 L 1115.2 664.9 L 1124.6 668.9 L 1133.9 673.2 L 1143.1 677.8 L 1152.2 682.7 L 1161.1 687.9 L 1169.9 693.4 L 1178.6 699.3 L 1187.1 705.4 L 1195.4 711.8 L 1203.6 718.5 L 1211.6 725.5 L 1219.3 732.7 L 1226.9 740.3 L 1234.2 748.1 L 1241.3 756.1 L 1248.2 764.4 L 1254.8 773.0 L 1261.2 781.7 L 1267.3 790.8 L 1273.2 800.0 L 1278.8 809.4 L 1284.0 819.1 L 1289.0 829.0 L 1293.7 839.0 L 1298.1 849.2 L 1302.2 859.6 L 1305.9 870.2 L 1309.3 880.9 L 1312.4 891.7 L 1315.2 902.7 L 1317.6 913.8 L 1319.7 925.0 L 1321.4 936.3 L 1322.7 947.6 L 1323.7 959.1 L 1324.3 970.6 L 1324.6 982.2 L 1324.5 993.8 L 1324.0 1005.5 L 1323.2 1017.1 L 1322.0 1028.8 L 1320.4 1040.4 L 1318.4 1052.1 L 1316.0 1063.7 L 1313.3 1075.2 L 1310.2 1086.7 L 1306.7 1098.2 L 1302.9 1109.5 L 1298.7 1120.8 L 1294.1 1132.0 L 1289.1 1143.0 L 1283.8 1153.9 L 1278.1 1164.7 L 1272.0 1175.3 L 1265.6 1185.8 L 1258.9 1196.0 L 1251.8 1206.1 L 1244.3 1216.0 L 1236.6 1225.7 L 1228.5 1235.2 L 1220.1 1244.4 L 1211.3 1253.3 L 1202.3 1262.1 L 1192.9 1270.5 L 1183.3 1278.7 L 1173.4 1286.6 L 1163.2 1294.2 L 1152.7 1301.5 L 1142.0 1308.4 L 1131.0 1315.1 L 1119.8 1321.4 L 1108.4 1327.4 L 1096.7 1333.0 L 1084.8 1338.3 L 1072.8 1343.2 L 1060.5 1347.7 L 1048.1 1351.8 L 1035.5 1355.6 L 1022.8 1359.0 L 1009.9 1361.9 L 996.9 1364.5 L 983.8 1366.7 L 970.6 1368.4 L 957.3 1369.8 L 944.0 1370.7 L 930.5 1371.2 L 917.1 1371.2 L 903.6 1370.9 L 890.0 1370.1 L 876.5 1368.9 L 863.0 1367.2 L 849.5 1365.1 L 836.0 1362.6 L 822.6 1359.6 L 809.2 1356.2 L 796.0 1352.4 L 782.8 1348.2 L 769.7 1343.5 L 756.7 1338.4 L 743.9 1332.8 L 731.2 1326.9 L 718.7 1320.5 L 706.4 1313.7 L 694.2 1306.5 L 682.3 1298.9 L 670.6 1291.0 L 659.1 1282.6 L 647.8 1273.8 L 636.8 1264.7 L 626.0 1255.2 L 615.6 1245.3 L 605.4 1235.1 L 595.5 1224.5 L 586.0 1213.6 L 576.7 1202.4 L 567.9 1190.8 L 559.3 1179.0 L 551.1 1166.8 L 543.3 1154.4 L 535.9 1141.7 L 528.8 1128.7 L 522.2 1115.5 L 515.9 1102.0 L 510.1 1088.3 L 504.7 1074.4 L 499.7 1060.3 L 495.2 1046.0 L 491.1 1031.6 L 487.4 1016.9 L 484.3 1002.2 L 481.5 987.3 L 479.3 972.2 L 477.5 957.1 L 476.2 941.9 L 475.4 926.7 L 475.0 911.3 L 475.2 896.0 L 475.8 880.6 L 476.9 865.1 L 478.5 849.7 L 480.6 834.4 L 483.2 819.0 L 486.3 803.7 L 489.9 788.5 L 494.0 773.4 L 498.5 758.3 L 503.6 743.4 L 509.1 728.6 L 515.1 714.0 L 521.6 699.5 L 528.5 685.2 L 536.0 671.1 L 543.9 657.2 L 552.2 643.5 L 561.0 630.1 L 570.2 616.9 L 579.9 604.0 L 590.0 591.3 L 600.5 579.0 L 611.4 567.0 L 622.8 555.3 L 634.5 543.9 L 646.6 532.9 L 659.0 522.2 L 671.9 512.0 L 685.1 502.1 L 698.6 492.6 L 712.4 483.5 L 726.6 474.9 L 741.0 466.7 L 755.8 458.9 L 770.8 451.6 L 786.1 444.7 L 801.6 438.3 L 817.3 432.4 L 833.3 427.0 L 849.5 422.1 L 865.8 417.7 L 882.3 413.8 L 899.0 410.4 L 915.8 407.6 L 932.7 405.2 L 949.7 403.4 L 966.9 402.2 L 984.0 401.4 L 1001.3 401.3 L 1018.5 401.6 L 1035.8 402.5 L 1053.1 404.0 L 1070.4 406.0 L 1087.6 408.6 L 1104.8 411.7 L 1121.9 415.3 L 1138.9 419.6 L 1155.9 424.3 L 1172.7 429.6 L 1189.3 435.5 L 1205.8 441.9 L 1222.2 448.8 L 1238.3 456.2 L 1254.2 464.2 L 1269.9 472.7 L 1285.4 481.7 L 1300.6 491.2 L 1315.5 501.2 L 1330.1 511.6 L 1344.4 522.6 L 1358.4 534.0 L 1372.1 545.9 L 1385.4 558.3 L 1398.3 571.1 L 1410.8 584.3 L 1423.0 598.0 L 1434.7 612.0 L 1446.0 626.4 L 1456.9 641.3 L 1467.3 656.5 L 1477.2 672.0 L 1486.7 687.9 L 1495.7 704.1 L 1504.2 720.6 L 1512.1 737.4 L 1519.6 754.5 L 1526.5 771.8 L 1532.9 789.4 L 1538.7 807.3 L 1544.0 825.3 L 1548.7 843.5 L 1552.9 861.9 L 1556.5 880.5 L 1559.4 899.2 L 1561.8 918.1 L 1563.7 937.0 L 1564.9 956.0 L 1565.5 975.1 L 1565.5 994.2 L 1564.9 1013.4 L 1563.7 1032.6 L 1561.9 1051.8 L 1559.4 1070.9 L 1556.4 1090.0 L 1552.8 1109.0 L 1548.5 1127.9 L 1543.6 1146.8 L 1538.2 1165.5 L 1532.1 1184.0 L 1525.5 1202.4 L 1518.2 1220.6 L 1510.4 1238.6 L 1502.0 1256.4 L 1493.0 1273.9 L 1483.4 1291.2 L 1473.3 1308.2 L 1462.6 1324.9 L 1451.4 1341.3 L 1439.7 1357.4 L 1427.4 1373.1 L 1414.6 1388.4 L 1401.3 1403.4 L 1387.5 1417.9 L 1373.3 1432.1 L 1358.5 1445.8 L 1343.4 1459.1 L 1327.7 1471.9 L 1311.7 1484.2 L 1295.2 1496.0 L 1278.3 1507.4 L 1261.1 1518.2 L 1243.5 1528.5 L 1225.5 1538.2 L 1207.2 1547.4 L 1188.6 1556.0 L 1169.7 1564.0 L 1150.5 1571.5 L 1131.1 1578.3 L 1111.4 1584.6 L 1091.5 1590.2 L 1071.4 1595.2 L 1051.0 1599.6 L 1030.6 1603.4 L 1010.0 1606.5 L 989.2 1608.9 L 968.4 1610.7 L 947.4 1611.9 L 926.4 1612.4 L 905.4 1612.2 L 884.3 1611.3 L 863.3 1609.8 L 842.2 1607.6 L 821.2 1604.8 L 800.3 1601.3 L 779.4 1597.1 L 758.7 1592.2 L 738.1 1586.7 L 717.6 1580.6 L 697.3 1573.7 L 677.2 1566.3 L 657.3 1558.1 L 637.6 1549.4 L 618.2 1540.0 L 599.0 1530.0 L 580.2 1519.3 L 561.6 1508.1 L 543.4 1496.2 L 525.6 1483.8 L 508.1 1470.7 L 491.0 1457.2 L 474.3 1443.0 L 458.1 1428.3 L 442.2 1413.1 L 426.9 1397.3 L 412.0 1381.1 L 397.6 1364.4 L 383.8 1347.1 L 370.4 1329.5 L 357.6 1311.3 L 345.4 1292.8 L 333.7 1273.8 L 322.6 1254.5 L 312.2 1234.8 L 302.3 1214.7 L 293.0 1194.3 L 284.4 1173.6 L 276.4 1152.5 L 269.1 1131.2 L 262.5 1109.7 L 256.5 1087.9 L 251.2 1065.9 L 246.6 1043.7 L 242.7 1021.3 L 239.5 998.8 L 237.0 976.1 L 235.2 953.3 L 234.1 930.5 L 233.8 907.6 L 234.2 884.7 L 235.3 861.7 L 237.1 838.8 L 239.7 815.8 L 242.9 793.0 L 246.9 770.2 L 251.7 747.5 L 257.1 725.0 L 263.3 702.5 L 270.2 680.3 L 277.8 658.3 L 286.1 636.4 L 295.1 614.8 L 304.8 593.5 L 315.2 572.4 L 326.3 551.7 L 338.0 531.3 L 350.4 511.2 L 363.5 491.5 L 377.1 472.2 L 391.4 453.3 L 406.4 434.8 L 421.9 416.8 L 438.0 399.2 L 454.6 382.2 L 471.9 365.6 L 489.7 349.6 L 508.0 334.1 L 526.8 319.2 L 546.1 304.8 L 565.8 291.1 L 586.1 278.0 L 606.7 265.4 L 627.8 253.6 L 649.3 242.3 L 671.2 231.8 L 693.4 221.9 L 716.0 212.7 L 738.8 204.3 L 762.0 196.5 L 785.4 189.5 L 809.1 183.1 L 833.0 177.6 L 857.1 172.8 L 881.4 168.7 L 905.8 165.4 L 930.4 162.9 L 955.1 161.1 L 979.8 160.1 L 1004.6 160.0 L 1029.5 160.5 L 1054.3 161.9 L 1079.1 164.1 L 1103.9 167.0 L 1128.6 170.7 L 1153.3 175.3 L 1177.8 180.6 L 1202.1 186.6 L 1226.3 193.5 L 1250.3 201.1 L 1274.1 209.5 L 1297.7 218.7 L 1321.0 228.6 L 1344.0 239.2 L 1366.6 250.6 L 1389.0 262.7 L 1411.0 275.6 L 1432.6 289.1 L 1453.8 303.4 L 1474.5 318.3 L 1494.8 333.9 L 1514.7 350.1 L 1534.0 367.0 L 1552.9 384.5 L 1571.2 402.7 L 1588.9 421.4 L 1606.1 440.7 L 1622.7 460.6 L 1638.6 481.0 L 1654.0 501.9 L 1668.6 523.4 L 1682.7 545.3 L 1696.0 567.7 L 1708.7 590.5 L 1720.6 613.8 L 1731.8 637.4 L 1742.3 661.5 L 1752.0 685.8 L 1761.0 710.6 L 1769.2 735.6 L 1776.6 760.9 L 1783.3 786.4 L 1789.1 812.2 L 1794.1 838.2 L 1798.3 864.4 L 1801.7 890.8 L 1804.2 917.3 L 1805.9 943.8 L 1806.8 970.5 L 1806.9 997.2 L 1806.0 1023.9 L 1804.4 1050.7 L 1801.9 1077.4 L 1798.5 1104.1 L 1794.3 1130.6 L 1789.3 1157.1 L 1783.4 1183.4 L 1776.7 1209.6 L 1769.2 1235.6 L 1760.8 1261.3 L 1751.6 1286.9 L 1741.6 1312.1 L 1730.8 1337.1 L 1719.2 1361.7 L 1706.8 1386.1 L 1693.6 1410.0 L 1679.6 1433.5 L 1664.9 1456.6 L 1649.5 1479.3 L 1633.3 1501.5 L 1616.4 1523.2 L 1598.8 1544.4 L 1580.6 1565.1 L 1561.6 1585.2 L 1542.0 1604.7 L 1521.8 1623.7 L 1500.9 1642.0 L 1479.5 1659.6 L 1457.5 1676.6 L 1434.9 1692.9 L 1411.8 1708.6 L 1388.2 1723.5 L 1364.0 1737.6 L 1339.5 1751.1 L 1314.4 1763.7 L 1289.0 1775.6 L 1263.1 1786.7 L 1236.9 1796.9 L 1210.4 1806.4 L 1183.5 1815.0 L 1156.3 1822.8 L 1128.8 1829.7 L 1101.1 1835.8 L 1073.2 1841.0 L 1045.1 1845.3 L 1016.9 1848.8 L 988.5 1851.3 L 960.0 1853.0" fill="none" stroke="rgb(221,221,221)" stroke-width="1.0"/>
<circle cx="960.00" cy="644.33" r="25.44" fill="rgb(25,120,20)" stroke="rgb(51,51,51)" stroke-width="3.0"/>
<circle cx="1029.16" cy="643.49" r="12.43" fill="rgb(210,130,30)" stroke="rgb(51,51,51)" stroke-width="3.0"/>
<circle cx="1098.60" cy="658.70" r="15.85" fill="rgb(240,215,50)" stroke="rgb(51,51,51)" stroke-width="3.0"/>
<circle cx="1164.55" cy="690.01" r="6.22" fill="rgb(45,25,10)" stroke="rgb(51,51,51)" stroke-width="2.0"/>
<circle cx="1223.24" cy="736.57" r="4.40" fill="rgb(15,10,5)" stroke="rgb(51,51,51)" stroke-width="2.0"/>
<circle cx="1271.13" cy="796.67" r="13.55" fill="rgb(230,175,40)" stroke="rgb(51,51,51)" stroke-width="3.0"/>
<circle cx="1321.93" cy="1029.11" r="26.37" fill="rgb(25,120,20)" stroke="rgb(51,51,51)" stroke-width="3.0"/>
<circle cx="1302.25" cy="1111.32" r="18.90" fill="rgb(165,200,50)" stroke="rgb(51,51,51)" stroke-width="3.0"/>
<circle cx="1263.74" cy="1188.73" r="6.22" fill="rgb(45,25,10)" stroke="rgb(51,51,51)" stroke-width="2.0"/>
<circle cx="1207.61" cy="1256.99" r="12.81" fill="rgb(210,130,30)" stroke="rgb(51,51,51)" stroke-width="3.0"/>
<circle cx="1136.06" cy="1312.08" r="10.31" fill="rgb(175,95,25)" stroke="rgb(51,51,51)" stroke-width="3.0"/>
<circle cx="1052.21" cy="1350.51" r="11.21" fill="rgb(175,95,25)" stroke="rgb(51,51,51)" stroke-width="3.0"/>
<circle cx="960.00" cy="1369.53" r="16.45" fill="rgb(240,215,50)" stroke="rgb(51,51,51)" stroke-width="3.0"/>
<circle cx="863.95" cy="1367.34" r="14.24" fill="rgb(230,175,40)" stroke="rgb(51,51,51)" stroke-width="3.0"/>
<circle cx="768.96" cy="1343.20" r="9.83" fill="rgb(130,70,20)" stroke="rgb(51,51,51)" stroke-width="3.0"/>
<circle cx="680.09" cy="1297.49" r="12.81" fill="rgb(210,130,30)" stroke="rgb(51,51,51)" stroke-width="3.0"/>
<circle cx="602.26" cy="1231.79" r="7.61" fill="rgb(85,45,15)" stroke="rgb(51,51,51)" stroke-width="2.0"/>
<circle cx="539.97" cy="1148.78" r="14.24" fill="rgb(230,175,40)" stroke="rgb(51,51,51)" stroke-width="3.0"/>
<circle cx="497.07" cy="1052.16" r="6.22" fill="rgb(45,25,10)" stroke="rgb(51,51,51)" stroke-width="2.0"/>
<circle cx="476.53" cy="946.50" r="10.31" fill="rgb(175,95,25)" stroke="rgb(51,51,51)" stroke-width="3.0"/>
<circle cx="480.24" cy="837.00" r="25.25" fill="rgb(25,120,20)" stroke="rgb(51,51,51)" stroke-width="3.0"/>
<circle cx="508.85" cy="729.24" r="21.53" fill="rgb(80,165,40)" stroke="rgb(51,51,51)" stroke-width="3.0"/>
<circle cx="637.03" cy="541.51" r="16.15" fill="rgb(240,215,50)" stroke="rgb(51,51,51)" stroke-width="3.0"/>
<circle cx="731.50" cy="472.02" r="9.32" fill="rgb(130,70,20)" stroke="rgb(51,51,51)" stroke-width="3.0"/>
<circle cx="840.89" cy="424.65" r="10.77" fill="rgb(175,95,25)" stroke="rgb(51,51,51)" stroke-width="3.0"/>
<circle cx="960.00" cy="402.60" r="19.66" fill="rgb(165,200,50)" stroke="rgb(51,51,51)" stroke-width="3.0"/>
<circle cx="1082.95" cy="407.82" r="6.95" fill="rgb(85,45,15)" stroke="rgb(51,51,51)" stroke-width="2.0"/>
<circle cx="1203.48" cy="440.91" r="9.32" fill="rgb(130,70,20)" stroke="rgb(51,51,51)" stroke-width="3.0"/>
<circle cx="1315.26" cy="501.01" r="9.32" fill="rgb(130,70,20)" stroke="rgb(51,51,51)" stroke-width="3.0"/>
<circle cx="1412.24" cy="585.85" r="6.95" fill="rgb(85,45,15)" stroke="rgb(51,51,51)" stroke-width="2.0"/>
<circle cx="1488.93" cy="691.78" r="5.38" fill="rgb(45,25,10)" stroke="rgb(51,51,51)" stroke-width="2.0"/>
<circle cx="1540.76" cy="813.94" r="3.11" fill="rgb(15,10,5)" stroke="rgb(51,51,51)" stroke-width="2.0"/>
<circle cx="1564.33" cy="946.50" r="23.67" fill="rgb(80,165,40)" stroke="rgb(51,51,51)" stroke-width="3.0"/>
<circle cx="1557.60" cy="1082.90" r="22.63" fill="rgb(80,165,40)" stroke="rgb(51,51,51)" stroke-width="3.0"/>
<circle cx="1520.04" cy="1216.20" r="32.15" fill="rgb(25,120,20)" stroke="rgb(51,51,51)" stroke-width="3.0"/>
<circle cx="1452.74" cy="1339.44" r="13.19" fill="rgb(230,175,40)" stroke="rgb(51,51,51)" stroke-width="3.0"/>
<circle cx="1358.33" cy="1445.99" r="8.79" fill="rgb(85,45,15)" stroke="rgb(51,51,51)" stroke-width="3.0"/>
<circle cx="1240.94" cy="1529.88" r="23.05" fill="rgb(80,165,40)" stroke="rgb(51,51,51)" stroke-width="3.0"/>
<circle cx="1106.00" cy="1586.18" r="10.31" fill="rgb(175,95,25)" stroke="rgb(51,51,51)" stroke-width="3.0"/>
<circle cx="960.00" cy="1611.27" r="25.25" fill="rgb(25,120,20)" stroke="rgb(51,51,51)" stroke-width="3.0"/>
<circle cx="810.15" cy="1603.02" r="27.09" fill="rgb(25,120,20)" stroke="rgb(51,51,51)" stroke-width="3.0"/>
<circle cx="664.08" cy="1560.99" r="11.63" fill="rgb(210,130,30)" stroke="rgb(51,51,51)" stroke-width="3.0"/>
<circle cx="529.38" cy="1486.48" r="19.41" fill="rgb(165,200,50)" stroke="rgb(51,51,51)" stroke-width="3.0"/>
<circle cx="413.27" cy="1382.51" r="12.04" fill="rgb(210,130,30)" stroke="rgb(51,51,51)" stroke-width="3.0"/>
<circle cx="322.17" cy="1253.66" r="18.12" fill="rgb(240,215,50)" stroke="rgb(51,51,51)" stroke-width="3.0"/>
<circle cx="261.40" cy="1105.95" r="12.81" fill="rgb(210,130,30)" stroke="rgb(51,51,51)" stroke-width="3.0"/>
<circle cx="234.80" cy="946.50" r="21.53" fill="rgb(80,165,40)" stroke="rgb(51,51,51)" stroke-width="3.0"/>
<circle cx="244.57" cy="783.21" r="30.45" fill="rgb(25,120,20)" stroke="rgb(51,51,51)" stroke-width="3.0"/>
<circle cx="291.06" cy="624.36" r="18.39" fill="rgb(165,200,50)" stroke="rgb(51,51,51)" stroke-width="3.0"/>
<circle cx="372.77" cy="478.20" r="11.63" fill="rgb(210,130,30)" stroke="rgb(51,51,51)" stroke-width="3.0"/>
<circle cx="486.31" cy="352.52" r="11.21" fill="rgb(175,95,25)" stroke="rgb(51,51,51)" stroke-width="3.0"/>
<circle cx="626.62" cy="254.23" r="5.38" fill="rgb(45,25,10)" stroke="rgb(51,51,51)" stroke-width="2.0"/>
<circle cx="787.10" cy="188.98" r="18.39" fill="rgb(165,200,50)" stroke="rgb(51,51,51)" stroke-width="3.0"/>
<circle cx="960.00" cy="160.87" r="14.24" fill="rgb(230,175,40)" stroke="rgb(51,51,51)" stroke-width="3.0"/>
<circle cx="1136.74" cy="172.15" r="22.19" fill="rgb(80,165,40)" stroke="rgb(51,51,51)" stroke-width="3.0"/>
<circle cx="1308.37" cy="223.11" r="15.85" fill="rgb(240,215,50)" stroke="rgb(51,51,51)" stroke-width="3.0"/>
<circle cx="1465.98" cy="312.02" r="10.77" fill="rgb(175,95,25)" stroke="rgb(51,51,51)" stroke-width="3.0"/>
<circle cx="1601.23" cy="435.13" r="3.11" fill="rgb(15,10,5)" stroke="rgb(51,51,51)" stroke-width="2.0"/>
<circle cx="1706.72" cy="586.90" r="8.79" fill="rgb(85,45,15)" stroke="rgb(51,51,51)" stroke-width="3.0"/>
<circle cx="1776.44" cy="760.15" r="15.85" fill="rgb(240,215,50)" stroke="rgb(51,51,51)" stroke-width="3.0"/>
<circle cx="1806.07" cy="946.50" r="33.90" fill="rgb(25,120,20)" stroke="rgb(51,51,51)" stroke-width="3.0"/>
<circle cx="1793.27" cy="1136.69" r="20.62" fill="rgb(165,200,50)" stroke="rgb(51,51,51)" stroke-width="3.0"/>
<circle cx="1737.84" cy="1321.09" r="7.61" fill="rgb(85,45,15)" stroke="rgb(51,51,51)" stroke-width="2.0"/>
<circle cx="1641.73" cy="1490.16" r="14.24" fill="rgb(230,175,40)" stroke="rgb(51,51,51)" stroke-width="3.0"/>
<circle cx="1509.05" cy="1634.98" r="16.74" fill="rgb(240,215,50)" stroke="rgb(51,51,51)" stroke-width="3.0"/>
<circle cx="1345.82" cy="1747.67" r="8.79" fill="rgb(85,45,15)" stroke="rgb(51,51,51)" stroke-width="3.0"/>
<circle cx="1159.79" cy="1821.86" r="5.38" fill="rgb(45,25,10)" stroke="rgb(51,51,51)" stroke-width="2.0"/>
<circle cx="960.00" cy="1853.00" r="11.21" fill="rgb(175,95,25)" stroke="rgb(51,51,51)" stroke-width="3.0"/>
<text x="960.00" y="614.89" fill="rgb(34,34,34)" font-size="12.0" font-family="sans-serif" text-anchor="start" dominant-baseline="central">Apr 4</text>
<text x="960.00" y="378.94" fill="rgb(34,34,34)" font-size="12.0" font-family="sans-serif" text-anchor="start" dominant-baseline="central" transform="rotate(360.00 960.00 378.94)">May 2</text>
<text x="960.00" y="142.62" fill="rgb(34,34,34)" font-size="12.0" font-family="sans-serif" text-anchor="start" dominant-baseline="central" transform="rotate(720.00 960.00 142.62)">May 30</text>
<rect x="1796.00" y="1534.00" width="108.00" height="370.00" fill="rgba(255,255,255,0.902)" stroke="rgba(153,153,153,0.800)" stroke-width="1.0"/>
<text x="1850.00" y="1554.00" fill="rgb(38,38,38)" font-size="13.0" font-family="sans-serif" text-anchor="middle" dominant-baseline="central">Fill</text>
<text x="1850.00" y="1570.00" fill="rgb(38,38,38)" font-size="13.0" font-family="sans-serif" text-anchor="middle" dominant-baseline="central">commit-count</text>
<rect x="1826.00" y="1584.00" width="28.00" height="28.00" fill="rgb(15,10,5)" stroke="rgb(102,102,102)" stroke-width="0.5"/>
<text x="1860.00" y="1612.00" fill="rgb(51,51,51)" font-size="12.0" font-family="sans-serif" text-anchor="start" dominant-baseline="central">3</text>
<rect x="1826.00" y="1612.00" width="28.00" height="28.00" fill="rgb(45,25,10)" stroke="rgb(102,102,102)" stroke-width="0.5"/>
<text x="1860.00" y="1640.00" fill="rgb(51,51,51)" font-size="12.0" font-family="sans-serif" text-anchor="start" dominant-baseline="central">5</text>
<rect x="1826.00" y="1640.00" width="28.00" height="28.00" fill="rgb(85,45,15)" stroke="rgb(102,102,102)" stroke-width="0.5"/>
<text x="1860.00" y="1668.00" fill="rgb(51,51,51)" font-size="12.0" font-family="sans-serif" text-anchor="start" dominant-baseline="central">9</text>
<rect x="1826.00" y="1668.00" width="28.00" height="28.00" fill="rgb(130,70,20)" stroke="rgb(102,102,102)" stroke-width="0.5"/>
<text x="1860.00" y="1696.00" fill="rgb(51,51,51)" font-size="12.0" font-family="sans-serif" text-anchor="start" dominant-baseline="central">11</text>
<rect x="1826.00" y="1696.00" width="28.00" height="28.00" fill="rgb(175,95,25)" stroke="rgb(102,102,102)" stroke-width="0.5"/>
<text x="1860.00" y="1724.00" fill="rgb(51,51,51)" font-size="12.0" font-family="sans-serif" text-anchor="start" dominant-baseline="central">14</text>
<rect x="1826.00" y="1724.00" width="28.00" height="28.00" fill="rgb(210,130,30)" stroke="rgb(102,102,102)" stroke-width="0.5"/>
<text x="1860.00" y="1752.00" fill="rgb(51,51,51)" font-size="12.0" font-family="sans-serif" text-anchor="start" dominant-baseline="central">18</text>
<rect x="1826.00" y="1752.00" width="28.00" height="28.00" fill="rgb(230,175,40)" stroke="rgb(102,102,102)" stroke-width="0.5"/>
<text x="1860.00" y="1780.00" fill="rgb(51,51,51)" font-size="12.0" font-family="sans-serif" text-anchor="start" dominant-baseline="central">26</text>
<rect x="1826.00" y="1780.00" width="28.00" height="28.00" fill="rgb(240,215,50)" stroke="rgb(102,102,102)" stroke-width="0.5"/>
<text x="1860.00" y="1808.00" fill="rgb(51,51,51)" font-size="12.0" font-family="sans-serif" text-anchor="start" dominant-baseline="central">35</text>
<rect x="1826.00" y="1808.00" width="28.00" height="28.00" fill="rgb(165,200,50)" stroke="rgb(102,102,102)" stroke-width="0.5"/>
<text x="1860.00" y="1836.00" fill="rgb(51,51,51)" font-size="12.0" font-family="sans-serif" text-anchor="start" dominant-baseline="central">48</text>
<rect x="1826.00" y="1836.00" width="28.00" height="28.00" fill="rgb(80,165,40)" stroke="rgb(102,102,102)" stroke-width="0.5"/>
<text x="1860.00" y="1864.00" fill="rgb(51,51,51)" font-size="12.0" font-family="sans-serif" text-anchor="start" dominant-baseline="central">66</text>
<rect x="1826.00" y="1864.00" width="28.00" height="28.00" fill="rgb(25,120,20)" stroke="rgb(102,102,102)" stroke-width="0.5"/>
<text x="960.00" y="1906.00" fill="rgba(128,128,128,0.784)" font-size="13.0" font-family="sans-serif" text-anchor="middle" dominant-baseline="central">Generated by github.com/theunrepentantgeek/code-visualizer at 20:38:24 on 2026-06-13</text>
</svg>
