<svg xmlns="http://www.w3.org/2000/svg" width="1920" height="1080">
<rect x="0.00" y="0.00" width="1920.00" height="1080.00" fill="rgb(255,255,255)" stroke="rgb(255,255,255)" stroke-width="0.0"/>
<circle cx="586.05" cy="558.94" r="499.46" fill="rgba(102,153,204,0.188)" stroke="rgb(51,51,51)" stroke-width="0.5"/>
<circle cx="1461.05" cy="558.94" r="372.36" fill="rgba(102,153,204,0.188)" stroke="rgb(51,51,51)" stroke-width="0.5"/>
<circle cx="1442.03" cy="558.94" r="332.15" fill="rgba(102,153,204,0.188)" stroke="rgb(51,51,51)" stroke-width="0.5"/>
<circle cx="1351.44" cy="558.94" r="220.38" fill="rgba(102,153,204,0.188)" stroke="rgb(51,51,51)" stroke-width="0.5"/>
<circle cx="531.95" cy="579.24" r="192.52" fill="rgba(102,153,204,0.188)" stroke="rgb(51,51,51)" stroke-width="0.5"/>
<circle cx="895.66" cy="579.24" r="168.02" fill="rgba(102,153,204,0.188)" stroke="rgb(51,51,51)" stroke-width="0.5"/>
<circle cx="736.91" cy="289.03" r="159.60" fill="rgba(102,153,204,0.188)" stroke="rgb(51,51,51)" stroke-width="0.5"/>
<circle cx="508.37" cy="579.24" r="147.76" fill="rgba(102,153,204,0.188)" stroke="rgb(51,51,51)" stroke-width="0.5"/>
<circle cx="1101.05" cy="256.83" r="94.43" fill="rgba(102,153,204,0.188)" stroke="rgb(51,51,51)" stroke-width="0.5"/>
<circle cx="483.11" cy="296.60" r="91.13" fill="rgba(102,153,204,0.188)" stroke="rgb(51,51,51)" stroke-width="0.5"/>
<circle cx="1664.00" cy="558.94" r="89.00" fill="rgba(102,153,204,0.188)" stroke="rgb(51,51,51)" stroke-width="0.5"/>
<circle cx="732.12" cy="780.99" r="88.51" fill="rgba(102,153,204,0.188)" stroke="rgb(51,51,51)" stroke-width="0.5"/>
<circle cx="682.19" cy="289.03" r="83.70" fill="rgba(102,153,204,0.188)" stroke="rgb(51,51,51)" stroke-width="0.5"/>
<circle cx="574.90" cy="852.69" r="81.11" fill="rgba(102,153,204,0.188)" stroke="rgb(51,51,51)" stroke-width="0.5"/>
<circle cx="413.15" cy="827.39" r="79.42" fill="rgba(102,153,204,0.188)" stroke="rgb(51,51,51)" stroke-width="0.5"/>
<circle cx="978.55" cy="131.82" r="77.43" fill="rgba(102,153,204,0.188)" stroke="rgb(51,51,51)" stroke-width="0.5"/>
<circle cx="298.17" cy="717.95" r="76.14" fill="rgba(102,153,204,0.188)" stroke="rgb(51,51,51)" stroke-width="0.5"/>
<circle cx="340.03" cy="387.81" r="75.38" fill="rgba(102,153,204,0.188)" stroke="rgb(51,51,51)" stroke-width="0.5"/>
<circle cx="1101.05" cy="256.83" r="73.25" fill="rgba(102,153,204,0.188)" stroke="rgb(51,51,51)" stroke-width="0.5"/>
<circle cx="459.32" cy="600.62" r="73.07" fill="rgba(102,153,204,0.188)" stroke="rgb(51,51,51)" stroke-width="0.5"/>
<circle cx="283.31" cy="515.34" r="61.02" fill="rgba(102,153,204,0.188)" stroke="rgb(51,51,51)" stroke-width="0.5"/>
<circle cx="863.36" cy="594.11" r="60.94" fill="rgba(102,153,204,0.188)" stroke="rgb(51,51,51)" stroke-width="0.5"/>
<circle cx="208.17" cy="420.02" r="57.18" fill="rgba(102,153,204,0.188)" stroke="rgb(51,51,51)" stroke-width="0.5"/>
<circle cx="984.37" cy="594.11" r="56.89" fill="rgba(102,153,204,0.188)" stroke="rgb(51,51,51)" stroke-width="0.5"/>
<circle cx="164.33" cy="527.11" r="55.36" fill="rgba(102,153,204,0.188)" stroke="rgb(51,51,51)" stroke-width="0.5"/>
<circle cx="927.79" cy="493.55" r="55.32" fill="rgba(102,153,204,0.188)" stroke="rgb(51,51,51)" stroke-width="0.5"/>
<circle cx="278.05" cy="850.15" r="54.41" fill="rgba(102,153,204,0.188)" stroke="rgb(51,51,51)" stroke-width="0.5"/>
<circle cx="822.20" cy="289.03" r="53.13" fill="rgba(102,153,204,0.188)" stroke="rgb(51,51,51)" stroke-width="0.5"/>
<circle cx="857.98" cy="74.50" r="52.90" fill="rgba(102,153,204,0.188)" stroke="rgb(51,51,51)" stroke-width="0.5"/>
<circle cx="476.48" cy="943.31" r="49.50" fill="rgba(102,153,204,0.188)" stroke="rgb(51,51,51)" stroke-width="0.5"/>
<circle cx="344.14" cy="259.89" r="49.43" fill="rgba(102,153,204,0.188)" stroke="rgb(51,51,51)" stroke-width="0.5"/>
<circle cx="691.92" cy="915.15" r="48.36" fill="rgba(102,153,204,0.188)" stroke="rgb(51,51,51)" stroke-width="0.5"/>
<circle cx="583.78" cy="600.62" r="48.20" fill="rgba(102,153,204,0.188)" stroke="rgb(51,51,51)" stroke-width="0.5"/>
<circle cx="455.62" cy="600.62" r="48.19" fill="rgba(102,153,204,0.188)" stroke="rgb(51,51,51)" stroke-width="0.5"/>
<circle cx="543.93" cy="509.37" r="48.19" fill="rgba(102,153,204,0.188)" stroke="rgb(51,51,51)" stroke-width="0.5"/>
<circle cx="227.41" cy="608.39" r="44.34" fill="rgba(102,153,204,0.188)" stroke="rgb(51,51,51)" stroke-width="0.5"/>
<circle cx="927.34" cy="678.59" r="41.86" fill="rgba(102,153,204,0.188)" stroke="rgb(51,51,51)" stroke-width="0.5"/>
<circle cx="240.00" cy="325.70" r="39.19" fill="rgba(102,153,204,0.188)" stroke="rgb(51,51,51)" stroke-width="0.5"/>
<circle cx="857.43" cy="780.45" r="33.62" fill="rgba(102,153,204,0.188)" stroke="rgb(51,51,51)" stroke-width="0.5"/>
<circle cx="857.98" cy="74.50" r="31.72" fill="rgba(102,153,204,0.188)" stroke="rgb(51,51,51)" stroke-width="0.5"/>
<circle cx="539.81" cy="666.21" r="27.58" fill="rgba(102,153,204,0.188)" stroke="rgb(51,51,51)" stroke-width="0.5"/>
<circle cx="1091.01" cy="712.96" r="25.28" fill="rgba(102,153,204,0.188)" stroke="rgb(51,51,51)" stroke-width="0.5"/>
<circle cx="540.22" cy="509.37" r="23.30" fill="rgba(102,153,204,0.188)" stroke="rgb(51,51,51)" stroke-width="0.5"/>
<circle cx="451.91" cy="600.62" r="23.30" fill="rgba(102,153,204,0.188)" stroke="rgb(51,51,51)" stroke-width="0.5"/>
<circle cx="580.08" cy="601.10" r="23.30" fill="rgba(102,153,204,0.188)" stroke="rgb(51,51,51)" stroke-width="0.5"/>
<circle cx="787.69" cy="82.53" r="14.67" fill="rgb(31,120,180)" stroke="rgb(0,68,27)" stroke-width="2.0"/>
<circle cx="1086.24" cy="674.15" r="10.64" fill="rgb(106,61,154)" stroke="rgb(215,48,39)" stroke-width="2.0"/>
<circle cx="698.50" cy="62.80" r="6.08" fill="rgb(255,127,0)" stroke="rgb(102,189,99)" stroke-width="2.0"/>
<circle cx="684.92" cy="61.66" r="4.37" fill="rgb(251,154,153)" stroke="rgb(26,152,80)" stroke-width="2.0"/>
<circle cx="734.51" cy="68.16" r="10.10" fill="rgb(31,120,180)" stroke="rgb(0,68,27)" stroke-width="2.0"/>
<circle cx="714.43" cy="65.79" r="6.94" fill="rgb(178,223,138)" stroke="rgb(215,48,39)" stroke-width="2.0"/>
<circle cx="759.03" cy="74.25" r="11.98" fill="rgb(227,26,28)" stroke="rgb(215,48,39)" stroke-width="2.0"/>
<circle cx="1074.45" cy="229.46" r="12.75" fill="rgb(166,206,227)" stroke="rgb(254,224,139)" stroke-width="2.0"/>
<circle cx="1086.26" cy="288.37" r="6.44" fill="rgb(166,206,227)" stroke="rgb(217,239,139)" stroke-width="2.0"/>
<circle cx="1070.42" cy="278.15" r="9.23" fill="rgb(166,206,227)" stroke="rgb(217,239,139)" stroke-width="2.0"/>
<circle cx="1126.70" cy="277.50" r="6.27" fill="rgb(166,206,227)" stroke="rgb(102,189,99)" stroke-width="2.0"/>
<circle cx="1139.72" cy="258.79" r="13.35" fill="rgb(166,206,227)" stroke="rgb(255,255,255)" stroke-width="2.0"/>
<circle cx="1100.13" cy="258.79" r="23.06" fill="rgb(166,206,227)" stroke="rgb(165,0,38)" stroke-width="2.0"/>
<circle cx="1061.57" cy="254.84" r="12.53" fill="rgb(166,206,227)" stroke="rgb(215,48,39)" stroke-width="2.0"/>
<circle cx="1115.79" cy="283.47" r="3.00" fill="rgb(166,206,227)" stroke="rgb(26,152,80)" stroke-width="2.0"/>
<circle cx="1101.56" cy="219.70" r="12.88" fill="rgb(166,206,227)" stroke="rgb(254,224,139)" stroke-width="2.0"/>
<circle cx="1128.40" cy="231.31" r="13.18" fill="rgb(166,206,227)" stroke="rgb(165,0,38)" stroke-width="2.0"/>
<circle cx="1788.57" cy="526.16" r="12.75" fill="rgb(31,120,180)" stroke="rgb(26,152,80)" stroke-width="2.0"/>
<circle cx="1794.79" cy="558.94" r="17.43" fill="rgb(31,120,180)" stroke="rgb(26,152,80)" stroke-width="2.0"/>
<circle cx="1245.78" cy="444.42" r="34.48" fill="rgb(31,120,180)" stroke="rgb(102,189,99)" stroke-width="2.0"/>
<circle cx="1484.36" cy="567.51" r="57.46" fill="rgb(31,120,180)" stroke="rgb(102,189,99)" stroke-width="2.0"/>
<circle cx="1499.32" cy="487.40" r="20.86" fill="rgb(31,120,180)" stroke="rgb(26,152,80)" stroke-width="2.0"/>
<circle cx="1360.41" cy="567.51" r="63.31" fill="rgb(31,120,180)" stroke="rgb(102,189,99)" stroke-width="2.0"/>
<circle cx="1194.82" cy="561.33" r="35.28" fill="rgb(31,120,180)" stroke="rgb(255,255,255)" stroke-width="2.0"/>
<circle cx="1388.33" cy="397.62" r="33.72" fill="rgb(31,120,180)" stroke="rgb(255,255,255)" stroke-width="2.0"/>
<circle cx="1245.90" cy="684.23" r="35.38" fill="rgb(31,120,180)" stroke="rgb(255,255,255)" stroke-width="2.0"/>
<circle cx="1318.84" cy="662.80" r="37.47" fill="rgb(31,120,180)" stroke="rgb(102,189,99)" stroke-width="2.0"/>
<circle cx="1329.63" cy="457.98" r="47.29" fill="rgb(31,120,180)" stroke="rgb(255,255,255)" stroke-width="2.0"/>
<circle cx="1500.82" cy="650.52" r="23.99" fill="rgb(31,120,180)" stroke="rgb(217,239,139)" stroke-width="2.0"/>
<circle cx="1427.69" cy="473.81" r="48.86" fill="rgb(31,120,180)" stroke="rgb(255,255,255)" stroke-width="2.0"/>
<circle cx="1260.26" cy="606.14" r="40.85" fill="rgb(31,120,180)" stroke="rgb(254,224,139)" stroke-width="2.0"/>
<circle cx="1427.58" cy="658.35" r="46.49" fill="rgb(31,120,180)" stroke="rgb(254,224,139)" stroke-width="2.0"/>
<circle cx="1263.40" cy="521.12" r="41.04" fill="rgb(31,120,180)" stroke="rgb(165,0,38)" stroke-width="2.0"/>
<circle cx="1622.09" cy="579.94" r="16.71" fill="rgb(31,120,180)" stroke="rgb(0,68,27)" stroke-width="2.0"/>
<circle cx="1643.86" cy="514.11" r="18.68" fill="rgb(31,120,180)" stroke="rgb(0,68,27)" stroke-width="2.0"/>
<circle cx="1678.19" cy="614.27" r="10.70" fill="rgb(31,120,180)" stroke="rgb(26,152,80)" stroke-width="2.0"/>
<circle cx="1659.56" cy="557.15" r="23.96" fill="rgb(31,120,180)" stroke="rgb(102,189,99)" stroke-width="2.0"/>
<circle cx="1680.77" cy="589.22" r="11.31" fill="rgb(31,120,180)" stroke="rgb(217,239,139)" stroke-width="2.0"/>
<circle cx="1686.31" cy="517.46" r="20.73" fill="rgb(31,120,180)" stroke="rgb(255,255,255)" stroke-width="2.0"/>
<circle cx="1708.06" cy="557.15" r="21.37" fill="rgb(31,120,180)" stroke="rgb(254,224,139)" stroke-width="2.0"/>
<circle cx="1617.39" cy="543.01" r="17.34" fill="rgb(31,120,180)" stroke="rgb(254,224,139)" stroke-width="2.0"/>
<circle cx="1652.10" cy="599.67" r="16.03" fill="rgb(31,120,180)" stroke="rgb(165,0,38)" stroke-width="2.0"/>
<circle cx="681.13" cy="798.31" r="7.34" fill="rgb(166,206,227)" stroke="rgb(215,48,39)" stroke-width="2.0"/>
<circle cx="744.36" cy="810.37" r="9.53" fill="rgb(166,206,227)" stroke="rgb(254,224,139)" stroke-width="2.0"/>
<circle cx="772.64" cy="782.82" r="26.77" fill="rgb(166,206,227)" stroke="rgb(215,48,39)" stroke-width="2.0"/>
<circle cx="715.50" cy="782.82" r="27.19" fill="rgb(166,206,227)" stroke="rgb(215,48,39)" stroke-width="2.0"/>
<circle cx="721.56" cy="818.07" r="5.40" fill="rgb(166,206,227)" stroke="rgb(102,189,99)" stroke-width="2.0"/>
<circle cx="744.42" cy="744.40" r="17.72" fill="rgb(166,206,227)" stroke="rgb(165,0,38)" stroke-width="2.0"/>
<circle cx="692.11" cy="811.67" r="6.78" fill="rgb(166,206,227)" stroke="rgb(254,224,139)" stroke-width="2.0"/>
<circle cx="709.10" cy="737.90" r="15.01" fill="rgb(166,206,227)" stroke="rgb(254,224,139)" stroke-width="2.0"/>
<circle cx="683.96" cy="754.58" r="11.98" fill="rgb(166,206,227)" stroke="rgb(254,224,139)" stroke-width="2.0"/>
<circle cx="675.11" cy="778.41" r="10.27" fill="rgb(166,206,227)" stroke="rgb(253,174,97)" stroke-width="2.0"/>
<circle cx="706.81" cy="818.31" r="6.18" fill="rgb(166,206,227)" stroke="rgb(254,224,139)" stroke-width="2.0"/>
<circle cx="850.99" cy="487.43" r="3.67" fill="rgb(166,206,227)" stroke="rgb(102,189,99)" stroke-width="2.0"/>
<circle cx="798.25" cy="551.89" r="13.48" fill="rgb(166,206,227)" stroke="rgb(217,239,139)" stroke-width="2.0"/>
<circle cx="855.13" cy="685.35" r="27.49" fill="rgb(166,206,227)" stroke="rgb(165,0,38)" stroke-width="2.0"/>
<circle cx="926.34" cy="626.95" r="6.61" fill="rgb(166,206,227)" stroke="rgb(102,189,99)" stroke-width="2.0"/>
<circle cx="791.87" cy="527.39" r="8.67" fill="rgb(166,206,227)" stroke="rgb(102,189,99)" stroke-width="2.0"/>
<circle cx="768.17" cy="644.73" r="3.51" fill="rgb(166,206,227)" stroke="rgb(102,189,99)" stroke-width="2.0"/>
<circle cx="819.46" cy="527.40" r="15.74" fill="rgb(166,206,227)" stroke="rgb(165,0,38)" stroke-width="2.0"/>
<circle cx="825.79" cy="500.55" r="8.67" fill="rgb(166,206,227)" stroke="rgb(165,0,38)" stroke-width="2.0"/>
<circle cx="788.59" cy="607.21" r="11.79" fill="rgb(166,206,227)" stroke="rgb(165,0,38)" stroke-width="2.0"/>
<circle cx="783.69" cy="649.44" r="9.53" fill="rgb(166,206,227)" stroke="rgb(102,189,99)" stroke-width="2.0"/>
<circle cx="839.11" cy="490.11" r="5.08" fill="rgb(166,206,227)" stroke="rgb(102,189,99)" stroke-width="2.0"/>
<circle cx="787.86" cy="579.45" r="12.80" fill="rgb(166,206,227)" stroke="rgb(102,189,99)" stroke-width="2.0"/>
<circle cx="794.60" cy="663.30" r="4.37" fill="rgb(166,206,227)" stroke="rgb(102,189,99)" stroke-width="2.0"/>
<circle cx="800.14" cy="511.38" r="6.18" fill="rgb(166,206,227)" stroke="rgb(102,189,99)" stroke-width="2.0"/>
<circle cx="773.11" cy="558.79" r="9.41" fill="rgb(166,206,227)" stroke="rgb(215,48,39)" stroke-width="2.0"/>
<circle cx="853.43" cy="512.38" r="18.22" fill="rgb(166,206,227)" stroke="rgb(165,0,38)" stroke-width="2.0"/>
<circle cx="817.23" cy="658.99" r="15.49" fill="rgb(166,206,227)" stroke="rgb(215,48,39)" stroke-width="2.0"/>
<circle cx="863.73" cy="487.10" r="5.90" fill="rgb(166,206,227)" stroke="rgb(102,189,99)" stroke-width="2.0"/>
<circle cx="926.74" cy="559.29" r="7.26" fill="rgb(166,206,227)" stroke="rgb(102,189,99)" stroke-width="2.0"/>
<circle cx="773.73" cy="628.20" r="10.75" fill="rgb(166,206,227)" stroke="rgb(165,0,38)" stroke-width="2.0"/>
<circle cx="816.26" cy="685.85" r="8.20" fill="rgb(166,206,227)" stroke="rgb(165,0,38)" stroke-width="2.0"/>
<circle cx="798.24" cy="631.05" r="10.75" fill="rgb(166,206,227)" stroke="rgb(165,0,38)" stroke-width="2.0"/>
<circle cx="766.53" cy="594.83" r="10.32" fill="rgb(166,206,227)" stroke="rgb(165,0,38)" stroke-width="2.0"/>
<circle cx="766.95" cy="576.15" r="5.19" fill="rgb(166,206,227)" stroke="rgb(102,189,99)" stroke-width="2.0"/>
<circle cx="880.89" cy="661.41" r="4.49" fill="rgb(166,206,227)" stroke="rgb(102,189,99)" stroke-width="2.0"/>
<circle cx="777.99" cy="539.96" r="6.86" fill="rgb(166,206,227)" stroke="rgb(102,189,99)" stroke-width="2.0"/>
<circle cx="798.88" cy="677.94" r="7.71" fill="rgb(166,206,227)" stroke="rgb(102,189,99)" stroke-width="2.0"/>
<circle cx="910.57" cy="493.55" r="16.91" fill="rgb(166,206,227)" stroke="rgb(165,0,38)" stroke-width="2.0"/>
<circle cx="946.29" cy="493.55" r="15.64" fill="rgb(166,206,227)" stroke="rgb(253,174,97)" stroke-width="2.0"/>
<circle cx="929.34" cy="511.65" r="5.99" fill="rgb(166,206,227)" stroke="rgb(217,239,139)" stroke-width="2.0"/>
<circle cx="929.38" cy="474.02" r="7.02" fill="rgb(166,206,227)" stroke="rgb(217,239,139)" stroke-width="2.0"/>
<circle cx="935.90" cy="679.60" r="7.18" fill="rgb(166,206,227)" stroke="rgb(165,0,38)" stroke-width="2.0"/>
<circle cx="927.95" cy="693.55" r="5.70" fill="rgb(166,206,227)" stroke="rgb(165,0,38)" stroke-width="2.0"/>
<circle cx="928.05" cy="664.54" r="6.61" fill="rgb(166,206,227)" stroke="rgb(165,0,38)" stroke-width="2.0"/>
<circle cx="916.12" cy="679.60" r="9.41" fill="rgb(166,206,227)" stroke="rgb(165,0,38)" stroke-width="2.0"/>
<circle cx="884.53" cy="594.11" r="18.59" fill="rgb(166,206,227)" stroke="rgb(165,0,38)" stroke-width="2.0"/>
<circle cx="843.19" cy="594.11" r="19.58" fill="rgb(166,206,227)" stroke="rgb(165,0,38)" stroke-width="2.0"/>
<circle cx="864.69" cy="566.64" r="12.12" fill="rgb(166,206,227)" stroke="rgb(165,0,38)" stroke-width="2.0"/>
<circle cx="1003.03" cy="594.11" r="17.04" fill="rgb(166,206,227)" stroke="rgb(165,0,38)" stroke-width="2.0"/>
<circle cx="965.73" cy="594.11" r="17.08" fill="rgb(166,206,227)" stroke="rgb(165,0,38)" stroke-width="2.0"/>
<circle cx="984.41" cy="573.80" r="7.34" fill="rgb(166,206,227)" stroke="rgb(165,0,38)" stroke-width="2.0"/>
<circle cx="534.18" cy="878.04" r="5.99" fill="rgb(166,206,227)" stroke="rgb(26,152,80)" stroke-width="2.0"/>
<circle cx="530.56" cy="839.83" r="13.77" fill="rgb(166,206,227)" stroke="rgb(102,189,99)" stroke-width="2.0"/>
<circle cx="563.81" cy="863.47" r="23.85" fill="rgb(166,206,227)" stroke="rgb(102,189,99)" stroke-width="2.0"/>
<circle cx="556.79" cy="822.60" r="14.44" fill="rgb(166,206,227)" stroke="rgb(254,224,139)" stroke-width="2.0"/>
<circle cx="612.06" cy="863.47" r="21.23" fill="rgb(166,206,227)" stroke="rgb(102,189,99)" stroke-width="2.0"/>
<circle cx="570.97" cy="894.76" r="5.08" fill="rgb(166,206,227)" stroke="rgb(26,152,80)" stroke-width="2.0"/>
<circle cx="590.21" cy="828.99" r="16.41" fill="rgb(166,206,227)" stroke="rgb(102,189,99)" stroke-width="2.0"/>
<circle cx="543.81" cy="889.62" r="5.90" fill="rgb(166,206,227)" stroke="rgb(26,152,80)" stroke-width="2.0"/>
<circle cx="530.52" cy="863.04" r="6.27" fill="rgb(166,206,227)" stroke="rgb(26,152,80)" stroke-width="2.0"/>
<circle cx="557.23" cy="895.32" r="5.50" fill="rgb(166,206,227)" stroke="rgb(26,152,80)" stroke-width="2.0"/>
<circle cx="306.99" cy="515.34" r="16.17" fill="rgb(166,206,227)" stroke="rgb(102,189,99)" stroke-width="2.0"/>
<circle cx="265.56" cy="515.34" r="22.09" fill="rgb(166,206,227)" stroke="rgb(102,189,99)" stroke-width="2.0"/>
<circle cx="493.20" cy="943.31" r="11.60" fill="rgb(166,206,227)" stroke="rgb(26,152,80)" stroke-width="2.0"/>
<circle cx="463.29" cy="943.31" r="15.13" fill="rgb(166,206,227)" stroke="rgb(26,152,80)" stroke-width="2.0"/>
<circle cx="707.36" cy="915.15" r="11.75" fill="rgb(166,206,227)" stroke="rgb(254,224,139)" stroke-width="2.0"/>
<circle cx="678.59" cy="915.15" r="13.85" fill="rgb(166,206,227)" stroke="rgb(254,224,139)" stroke-width="2.0"/>
<circle cx="362.24" cy="262.28" r="9.99" fill="rgb(166,206,227)" stroke="rgb(215,48,39)" stroke-width="2.0"/>
<circle cx="332.60" cy="262.28" r="16.47" fill="rgb(166,206,227)" stroke="rgb(215,48,39)" stroke-width="2.0"/>
<circle cx="352.92" cy="242.46" r="8.73" fill="rgb(166,206,227)" stroke="rgb(215,48,39)" stroke-width="2.0"/>
<circle cx="240.51" cy="609.78" r="9.99" fill="rgb(166,206,227)" stroke="rgb(217,239,139)" stroke-width="2.0"/>
<circle cx="215.84" cy="609.78" r="11.50" fill="rgb(166,206,227)" stroke="rgb(217,239,139)" stroke-width="2.0"/>
<circle cx="219.02" cy="591.27" r="4.10" fill="rgb(166,206,227)" stroke="rgb(26,152,80)" stroke-width="2.0"/>
<circle cx="229.29" cy="596.48" r="4.24" fill="rgb(166,206,227)" stroke="rgb(0,68,27)" stroke-width="2.0"/>
<circle cx="135.81" cy="515.41" r="3.35" fill="rgb(166,206,227)" stroke="rgb(102,189,99)" stroke-width="2.0"/>
<circle cx="174.92" cy="506.91" r="10.05" fill="rgb(166,206,227)" stroke="rgb(102,189,99)" stroke-width="2.0"/>
<circle cx="143.07" cy="508.48" r="3.51" fill="rgb(166,206,227)" stroke="rgb(102,189,99)" stroke-width="2.0"/>
<circle cx="184.40" cy="528.40" r="10.27" fill="rgb(166,206,227)" stroke="rgb(102,189,99)" stroke-width="2.0"/>
<circle cx="174.82" cy="549.35" r="9.59" fill="rgb(166,206,227)" stroke="rgb(102,189,99)" stroke-width="2.0"/>
<circle cx="155.18" cy="501.71" r="7.18" fill="rgb(166,206,227)" stroke="rgb(26,152,80)" stroke-width="2.0"/>
<circle cx="154.62" cy="528.40" r="16.34" fill="rgb(166,206,227)" stroke="rgb(26,152,80)" stroke-width="2.0"/>
<circle cx="188.52" cy="401.21" r="8.80" fill="rgb(166,206,227)" stroke="rgb(0,68,27)" stroke-width="2.0"/>
<circle cx="209.14" cy="406.90" r="9.41" fill="rgb(166,206,227)" stroke="rgb(0,68,27)" stroke-width="2.0"/>
<circle cx="190.96" cy="429.45" r="16.37" fill="rgb(166,206,227)" stroke="rgb(26,152,80)" stroke-width="2.0"/>
<circle cx="226.18" cy="429.45" r="15.67" fill="rgb(166,206,227)" stroke="rgb(26,152,80)" stroke-width="2.0"/>
<circle cx="253.04" cy="325.70" r="4.97" fill="rgb(166,206,227)" stroke="rgb(255,255,255)" stroke-width="2.0"/>
<circle cx="233.44" cy="325.70" r="11.46" fill="rgb(166,206,227)" stroke="rgb(255,255,255)" stroke-width="2.0"/>
<circle cx="757.21" cy="346.39" r="7.56" fill="rgb(166,206,227)" stroke="rgb(217,239,139)" stroke-width="2.0"/>
<circle cx="720.52" cy="198.64" r="11.31" fill="rgb(166,206,227)" stroke="rgb(217,239,139)" stroke-width="2.0"/>
<circle cx="770.02" cy="330.02" r="10.05" fill="rgb(166,206,227)" stroke="rgb(102,189,99)" stroke-width="2.0"/>
<circle cx="748.48" cy="210.50" r="15.89" fill="rgb(166,206,227)" stroke="rgb(102,189,99)" stroke-width="2.0"/>
<circle cx="771.37" cy="237.33" r="16.20" fill="rgb(166,206,227)" stroke="rgb(102,189,99)" stroke-width="2.0"/>
<circle cx="839.24" cy="289.03" r="14.90" fill="rgb(166,206,227)" stroke="rgb(102,189,99)" stroke-width="2.0"/>
<circle cx="805.71" cy="289.03" r="15.46" fill="rgb(166,206,227)" stroke="rgb(102,189,99)" stroke-width="2.0"/>
<circle cx="822.83" cy="275.25" r="3.35" fill="rgb(166,206,227)" stroke="rgb(102,189,99)" stroke-width="2.0"/>
<circle cx="695.30" cy="262.80" r="15.85" fill="rgb(166,206,227)" stroke="rgb(26,152,80)" stroke-width="2.0"/>
<circle cx="694.77" cy="328.68" r="11.11" fill="rgb(166,206,227)" stroke="rgb(254,224,139)" stroke-width="2.0"/>
<circle cx="628.34" cy="274.66" r="6.78" fill="rgb(166,206,227)" stroke="rgb(217,239,139)" stroke-width="2.0"/>
<circle cx="641.33" cy="260.37" r="9.35" fill="rgb(166,206,227)" stroke="rgb(254,224,139)" stroke-width="2.0"/>
<circle cx="665.29" cy="252.46" r="12.71" fill="rgb(166,206,227)" stroke="rgb(102,189,99)" stroke-width="2.0"/>
<circle cx="673.78" cy="340.88" r="9.99" fill="rgb(166,206,227)" stroke="rgb(217,239,139)" stroke-width="2.0"/>
<circle cx="661.03" cy="298.88" r="30.73" fill="rgb(166,206,227)" stroke="rgb(217,239,139)" stroke-width="2.0"/>
<circle cx="625.30" cy="287.78" r="3.51" fill="rgb(166,206,227)" stroke="rgb(102,189,99)" stroke-width="2.0"/>
<circle cx="719.18" cy="298.88" r="24.24" fill="rgb(166,206,227)" stroke="rgb(217,239,139)" stroke-width="2.0"/>
<circle cx="258.97" cy="704.56" r="7.26" fill="rgb(166,206,227)" stroke="rgb(254,224,139)" stroke-width="2.0"/>
<circle cx="307.27" cy="754.38" r="17.40" fill="rgb(166,206,227)" stroke="rgb(102,189,99)" stroke-width="2.0"/>
<circle cx="285.33" cy="720.07" r="20.15" fill="rgb(166,206,227)" stroke="rgb(102,189,99)" stroke-width="2.0"/>
<circle cx="248.80" cy="731.83" r="3.67" fill="rgb(166,206,227)" stroke="rgb(254,224,139)" stroke-width="2.0"/>
<circle cx="260.67" cy="734.81" r="5.40" fill="rgb(166,206,227)" stroke="rgb(102,189,99)" stroke-width="2.0"/>
<circle cx="328.35" cy="720.07" r="19.70" fill="rgb(166,206,227)" stroke="rgb(165,0,38)" stroke-width="2.0"/>
<circle cx="307.29" cy="683.50" r="19.33" fill="rgb(166,206,227)" stroke="rgb(254,224,139)" stroke-width="2.0"/>
<circle cx="272.93" cy="686.96" r="12.03" fill="rgb(166,206,227)" stroke="rgb(254,224,139)" stroke-width="2.0"/>
<circle cx="276.25" cy="752.64" r="10.48" fill="rgb(166,206,227)" stroke="rgb(253,174,97)" stroke-width="2.0"/>
<circle cx="255.84" cy="720.88" r="6.18" fill="rgb(166,206,227)" stroke="rgb(254,224,139)" stroke-width="2.0"/>
<circle cx="654.55" cy="633.45" r="4.97" fill="rgb(166,206,227)" stroke="rgb(0,68,27)" stroke-width="2.0"/>
<circle cx="659.82" cy="620.33" r="5.99" fill="rgb(166,206,227)" stroke="rgb(26,152,80)" stroke-width="2.0"/>
<circle cx="671.13" cy="538.48" r="16.84" fill="rgb(166,206,227)" stroke="rgb(102,189,99)" stroke-width="2.0"/>
<circle cx="681.30" cy="579.24" r="21.99" fill="rgb(166,206,227)" stroke="rgb(102,189,99)" stroke-width="2.0"/>
<circle cx="663.50" cy="605.25" r="6.35" fill="rgb(166,206,227)" stroke="rgb(26,152,80)" stroke-width="2.0"/>
<circle cx="536.11" cy="668.35" r="2.12" fill="rgb(51,160,44)" stroke="rgb(0,68,27)" stroke-width="2.0"/>
<circle cx="543.52" cy="668.35" r="2.12" fill="rgb(166,206,227)" stroke="rgb(0,68,27)" stroke-width="2.0"/>
<circle cx="539.81" cy="661.93" r="2.12" fill="rgb(255,127,0)" stroke="rgb(0,68,27)" stroke-width="2.0"/>
<circle cx="509.10" cy="600.62" r="2.12" fill="rgb(255,127,0)" stroke="rgb(0,68,27)" stroke-width="2.0"/>
<circle cx="480.50" cy="600.62" r="2.12" fill="rgb(166,206,227)" stroke="rgb(0,68,27)" stroke-width="2.0"/>
<circle cx="451.91" cy="600.62" r="2.12" fill="rgb(31,120,180)" stroke="rgb(0,68,27)" stroke-width="2.0"/>
<circle cx="568.82" cy="509.37" r="2.12" fill="rgb(31,120,180)" stroke="rgb(0,68,27)" stroke-width="2.0"/>
<circle cx="540.22" cy="509.37" r="2.12" fill="rgb(166,206,227)" stroke="rgb(0,68,27)" stroke-width="2.0"/>
<circle cx="608.68" cy="601.10" r="2.12" fill="rgb(255,127,0)" stroke="rgb(0,68,27)" stroke-width="2.0"/>
<circle cx="607.72" cy="593.75" r="2.12" fill="rgb(255,127,0)" stroke="rgb(0,68,27)" stroke-width="2.0"/>
<circle cx="580.08" cy="601.10" r="2.12" fill="rgb(255,127,0)" stroke="rgb(0,68,27)" stroke-width="2.0"/>
<circle cx="445.57" cy="308.47" r="11.55" fill="rgb(166,206,227)" stroke="rgb(254,224,139)" stroke-width="2.0"/>
<circle cx="490.30" cy="259.06" r="10.54" fill="rgb(166,206,227)" stroke="rgb(254,224,139)" stroke-width="2.0"/>
<circle cx="466.19" cy="354.87" r="6.61" fill="rgb(166,206,227)" stroke="rgb(254,224,139)" stroke-width="2.0"/>
<circle cx="509.55" cy="354.35" r="6.44" fill="rgb(166,206,227)" stroke="rgb(254,224,139)" stroke-width="2.0"/>
<circle cx="448.91" cy="283.47" r="10.48" fill="rgb(166,206,227)" stroke="rgb(253,174,97)" stroke-width="2.0"/>
<circle cx="426.43" cy="292.13" r="10.43" fill="rgb(166,206,227)" stroke="rgb(254,224,139)" stroke-width="2.0"/>
<circle cx="464.60" cy="265.12" r="10.48" fill="rgb(166,206,227)" stroke="rgb(254,224,139)" stroke-width="2.0"/>
<circle cx="517.85" cy="331.27" r="14.90" fill="rgb(166,206,227)" stroke="rgb(102,189,99)" stroke-width="2.0"/>
<circle cx="486.16" cy="299.42" r="26.85" fill="rgb(166,206,227)" stroke="rgb(102,189,99)" stroke-width="2.0"/>
<circle cx="432.88" cy="329.54" r="9.88" fill="rgb(166,206,227)" stroke="rgb(254,224,139)" stroke-width="2.0"/>
<circle cx="474.13" cy="248.13" r="5.80" fill="rgb(166,206,227)" stroke="rgb(102,189,99)" stroke-width="2.0"/>
<circle cx="517.89" cy="267.33" r="15.09" fill="rgb(166,206,227)" stroke="rgb(165,0,38)" stroke-width="2.0"/>
<circle cx="538.87" cy="323.78" r="4.24" fill="rgb(166,206,227)" stroke="rgb(254,224,139)" stroke-width="2.0"/>
<circle cx="440.86" cy="260.71" r="10.48" fill="rgb(166,206,227)" stroke="rgb(254,224,139)" stroke-width="2.0"/>
<circle cx="487.84" cy="343.90" r="14.48" fill="rgb(166,206,227)" stroke="rgb(254,224,139)" stroke-width="2.0"/>
<circle cx="458.93" cy="333.03" r="13.23" fill="rgb(166,206,227)" stroke="rgb(253,174,97)" stroke-width="2.0"/>
<circle cx="486.72" cy="239.22" r="6.44" fill="rgb(166,206,227)" stroke="rgb(254,224,139)" stroke-width="2.0"/>
<circle cx="506.31" cy="241.43" r="10.10" fill="rgb(166,206,227)" stroke="rgb(102,189,99)" stroke-width="2.0"/>
<circle cx="533.69" cy="299.42" r="17.50" fill="rgb(166,206,227)" stroke="rgb(217,239,139)" stroke-width="2.0"/>
<circle cx="364.84" cy="828.70" r="8.34" fill="rgb(166,206,227)" stroke="rgb(255,255,255)" stroke-width="2.0"/>
<circle cx="381.95" cy="817.53" r="8.92" fill="rgb(166,206,227)" stroke="rgb(255,255,255)" stroke-width="2.0"/>
<circle cx="388.58" cy="787.27" r="4.62" fill="rgb(166,206,227)" stroke="rgb(255,255,255)" stroke-width="2.0"/>
<circle cx="376.65" cy="797.93" r="8.20" fill="rgb(166,206,227)" stroke="rgb(254,224,139)" stroke-width="2.0"/>
<circle cx="419.15" cy="775.57" r="6.08" fill="rgb(166,206,227)" stroke="rgb(255,255,255)" stroke-width="2.0"/>
<circle cx="403.77" cy="783.08" r="7.85" fill="rgb(166,206,227)" stroke="rgb(253,174,97)" stroke-width="2.0"/>
<circle cx="447.47" cy="852.11" r="6.86" fill="rgb(166,206,227)" stroke="rgb(255,255,255)" stroke-width="2.0"/>
<circle cx="448.21" cy="804.10" r="6.61" fill="rgb(166,206,227)" stroke="rgb(255,255,255)" stroke-width="2.0"/>
<circle cx="379.79" cy="854.37" r="4.97" fill="rgb(166,206,227)" stroke="rgb(254,224,139)" stroke-width="2.0"/>
<circle cx="364.88" cy="811.01" r="6.18" fill="rgb(166,206,227)" stroke="rgb(255,255,255)" stroke-width="2.0"/>
<circle cx="422.57" cy="878.24" r="6.53" fill="rgb(166,206,227)" stroke="rgb(255,255,255)" stroke-width="2.0"/>
<circle cx="398.75" cy="853.48" r="8.60" fill="rgb(166,206,227)" stroke="rgb(255,255,255)" stroke-width="2.0"/>
<circle cx="424.05" cy="799.20" r="14.86" fill="rgb(166,206,227)" stroke="rgb(254,224,139)" stroke-width="2.0"/>
<circle cx="440.72" cy="827.87" r="15.13" fill="rgb(166,206,227)" stroke="rgb(254,224,139)" stroke-width="2.0"/>
<circle cx="366.16" cy="847.36" r="7.18" fill="rgb(166,206,227)" stroke="rgb(255,255,255)" stroke-width="2.0"/>
<circle cx="405.94" cy="871.98" r="8.07" fill="rgb(166,206,227)" stroke="rgb(254,224,139)" stroke-width="2.0"/>
<circle cx="424.04" cy="855.02" r="13.56" fill="rgb(166,206,227)" stroke="rgb(165,0,38)" stroke-width="2.0"/>
<circle cx="382.44" cy="838.03" r="8.41" fill="rgb(166,206,227)" stroke="rgb(255,255,255)" stroke-width="2.0"/>
<circle cx="396.88" cy="802.20" r="9.29" fill="rgb(166,206,227)" stroke="rgb(255,255,255)" stroke-width="2.0"/>
<circle cx="407.22" cy="827.87" r="15.20" fill="rgb(166,206,227)" stroke="rgb(254,224,139)" stroke-width="2.0"/>
<circle cx="460.32" cy="842.38" r="6.08" fill="rgb(166,206,227)" stroke="rgb(255,255,255)" stroke-width="2.0"/>
<circle cx="443.11" cy="867.73" r="6.18" fill="rgb(166,206,227)" stroke="rgb(255,255,255)" stroke-width="2.0"/>
<circle cx="387.12" cy="869.21" r="7.78" fill="rgb(166,206,227)" stroke="rgb(254,224,139)" stroke-width="2.0"/>
<circle cx="296.45" cy="850.15" r="14.83" fill="rgb(166,206,227)" stroke="rgb(255,255,255)" stroke-width="2.0"/>
<circle cx="261.63" cy="850.15" r="16.81" fill="rgb(166,206,227)" stroke="rgb(217,239,139)" stroke-width="2.0"/>
<circle cx="311.48" cy="399.09" r="7.56" fill="rgb(166,206,227)" stroke="rgb(254,224,139)" stroke-width="2.0"/>
<circle cx="352.34" cy="407.47" r="11.01" fill="rgb(166,206,227)" stroke="rgb(253,174,97)" stroke-width="2.0"/>
<circle cx="321.59" cy="351.56" r="13.52" fill="rgb(166,206,227)" stroke="rgb(102,189,99)" stroke-width="2.0"/>
<circle cx="369.45" cy="382.79" r="15.85" fill="rgb(166,206,227)" stroke="rgb(102,189,99)" stroke-width="2.0"/>
<circle cx="298.93" cy="406.18" r="3.67" fill="rgb(166,206,227)" stroke="rgb(102,189,99)" stroke-width="2.0"/>
<circle cx="376.74" cy="411.44" r="10.54" fill="rgb(166,206,227)" stroke="rgb(102,189,99)" stroke-width="2.0"/>
<circle cx="333.65" cy="382.79" r="16.78" fill="rgb(166,206,227)" stroke="rgb(165,0,38)" stroke-width="2.0"/>
<circle cx="344.76" cy="431.11" r="10.64" fill="rgb(166,206,227)" stroke="rgb(165,0,38)" stroke-width="2.0"/>
<circle cx="352.43" cy="354.20" r="14.25" fill="rgb(166,206,227)" stroke="rgb(165,0,38)" stroke-width="2.0"/>
<circle cx="302.73" cy="373.58" r="12.30" fill="rgb(166,206,227)" stroke="rgb(165,0,38)" stroke-width="2.0"/>
<circle cx="327.94" cy="413.06" r="10.85" fill="rgb(166,206,227)" stroke="rgb(165,0,38)" stroke-width="2.0"/>
<circle cx="307.90" cy="415.62" r="6.18" fill="rgb(166,206,227)" stroke="rgb(165,0,38)" stroke-width="2.0"/>
<circle cx="865.63" cy="780.45" r="4.24" fill="rgb(166,206,227)" stroke="rgb(102,189,99)" stroke-width="2.0"/>
<circle cx="851.60" cy="780.45" r="6.61" fill="rgb(166,206,227)" stroke="rgb(102,189,99)" stroke-width="2.0"/>
<circle cx="1013.42" cy="139.77" r="20.48" fill="rgb(253,191,111)" stroke="rgb(215,48,39)" stroke-width="2.0"/>
<circle cx="970.26" cy="103.23" r="4.74" fill="rgb(106,61,154)" stroke="rgb(217,239,139)" stroke-width="2.0"/>
<circle cx="959.62" cy="139.77" r="30.14" fill="rgb(253,191,111)" stroke="rgb(215,48,39)" stroke-width="2.0"/>
<circle cx="957.70" cy="101.77" r="4.74" fill="rgb(106,61,154)" stroke="rgb(217,239,139)" stroke-width="2.0"/>
<circle cx="993.25" cy="165.44" r="8.99" fill="rgb(253,191,111)" stroke="rgb(215,48,39)" stroke-width="2.0"/>
<circle cx="935.05" cy="111.20" r="4.37" fill="rgb(106,61,154)" stroke="rgb(217,239,139)" stroke-width="2.0"/>
<circle cx="927.71" cy="120.23" r="4.10" fill="rgb(202,178,214)" stroke="rgb(26,152,80)" stroke-width="2.0"/>
<circle cx="994.59" cy="104.37" r="16.44" fill="rgb(253,191,111)" stroke="rgb(215,48,39)" stroke-width="2.0"/>
<circle cx="945.34" cy="104.50" r="4.74" fill="rgb(106,61,154)" stroke="rgb(217,239,139)" stroke-width="2.0"/>
<circle cx="978.36" cy="172.31" r="4.24" fill="rgb(202,178,214)" stroke="rgb(26,152,80)" stroke-width="2.0"/>
<circle cx="1091.01" cy="712.96" r="4.10" fill="rgb(31,120,180)" stroke="rgb(102,189,99)" stroke-width="2.0"/>
<circle cx="857.98" cy="74.50" r="10.54" fill="rgb(166,206,227)" stroke="rgb(102,189,99)" stroke-width="2.0"/>
<defs><path id="arc-32477" d="M79.41,558.94 A880.59,880.59 0 0,1 1840.59,558.94" fill="none"/></defs>
<text fill="rgb(34,34,34)" font-size="14.0" font-family="sans-serif"><textPath href="#arc-32477" startOffset="50%" text-anchor="middle">code-visualizer</textPath></text>
<defs><path id="arc-32749" d="M100.59,558.94 A485.46,485.46 0 0,1 1071.52,558.94" fill="none"/></defs>
<text fill="rgb(34,34,34)" font-size="14.0" font-family="sans-serif"><textPath href="#arc-32749" startOffset="50%" text-anchor="middle">internal</textPath></text>
<defs><path id="arc-33015" d="M353.43,579.24 A178.52,178.52 0 0,1 710.46,579.24" fill="none"/></defs>
<text fill="rgb(34,34,34)" font-size="14.0" font-family="sans-serif"><textPath href="#arc-33015" startOffset="50%" text-anchor="middle">scan</textPath></text>
<defs><path id="arc-33276" d="M374.61,579.24 A133.76,133.76 0 0,1 642.13,579.24" fill="none"/></defs>
<text fill="rgb(34,34,34)" font-size="14.0" font-family="sans-serif"><textPath href="#arc-33276" startOffset="50%" text-anchor="middle">testdata</textPath></text>
<defs><path id="arc-33541" d="M400.25,600.62 A59.07,59.07 0 0,1 518.39,600.62" fill="none"/></defs>
<text fill="rgb(34,34,34)" font-size="14.0" font-family="sans-serif"><textPath href="#arc-33541" startOffset="50%" text-anchor="middle">nested</textPath></text>
<defs><path id="arc-33802" d="M421.43,600.62 A34.19,34.19 0 0,1 489.80,600.62" fill="none"/></defs>
<text fill="rgb(34,34,34)" font-size="14.0" font-family="sans-serif"><textPath href="#arc-33802" startOffset="50%" text-anchor="middle">sub</textPath></text>
<defs><path id="arc-34060" d="M530.92,509.37 A9.30,9.30 0 0,1 549.52,509.37" fill="none"/></defs>
<text fill="rgb(34,34,34)" font-size="8.1" font-family="sans-serif"><textPath href="#arc-34060" startOffset="50%" text-anchor="middle">src</textPath></text>
<defs><path id="arc-34315" d="M526.23,666.21 A13.58,13.58 0 0,1 553.39,666.21" fill="none"/></defs>
<text fill="rgb(34,34,34)" font-size="8.9" font-family="sans-serif"><textPath href="#arc-34315" startOffset="50%" text-anchor="middle">flat</textPath></text>
<defs><path id="arc-34573" d="M741.64,579.24 A154.02,154.02 0 0,1 1049.67,579.24" fill="none"/></defs>
<text fill="rgb(34,34,34)" font-size="14.0" font-family="sans-serif"><textPath href="#arc-34573" startOffset="50%" text-anchor="middle">canvas</textPath></text>
<defs><path id="arc-34837" d="M816.42,594.11 A46.94,46.94 0 0,1 910.30,594.11" fill="none"/></defs>
<text fill="rgb(34,34,34)" font-size="14.0" font-family="sans-serif"><textPath href="#arc-34837" startOffset="50%" text-anchor="middle">raster</textPath></text>
<defs><path id="arc-35098" d="M941.48,594.11 A42.89,42.89 0 0,1 1027.25,594.11" fill="none"/></defs>
<text fill="rgb(34,34,34)" font-size="14.0" font-family="sans-serif"><textPath href="#arc-35098" startOffset="50%" text-anchor="middle">svg</textPath></text>
<defs><path id="arc-35357" d="M886.48,493.55 A41.32,41.32 0 0,1 969.11,493.55" fill="none"/></defs>
<text fill="rgb(34,34,34)" font-size="9.0" font-family="sans-serif"><textPath href="#arc-35357" startOffset="50%" text-anchor="middle">legendlayout</textPath></text>
<defs><path id="arc-35623" d="M899.49,678.59 A27.86,27.86 0 0,1 955.20,678.59" fill="none"/></defs>
<text fill="rgb(34,34,34)" font-size="14.0" font-family="sans-serif"><textPath href="#arc-35623" startOffset="50%" text-anchor="middle">model</textPath></text>
<defs><path id="arc-35883" d="M591.31,289.03 A145.60,145.60 0 0,1 882.50,289.03" fill="none"/></defs>
<text fill="rgb(34,34,34)" font-size="14.0" font-family="sans-serif"><textPath href="#arc-35883" startOffset="50%" text-anchor="middle">provider</textPath></text>
<defs><path id="arc-36148" d="M612.49,289.03 A69.70,69.70 0 0,1 751.89,289.03" fill="none"/></defs>
<text fill="rgb(34,34,34)" font-size="14.0" font-family="sans-serif"><textPath href="#arc-36148" startOffset="50%" text-anchor="middle">git</textPath></text>
<defs><path id="arc-36406" d="M783.07,289.03 A39.13,39.13 0 0,1 861.32,289.03" fill="none"/></defs>
<text fill="rgb(34,34,34)" font-size="10.2" font-family="sans-serif"><textPath href="#arc-36406" startOffset="50%" text-anchor="middle">filesystem</textPath></text>
<defs><path id="arc-36671" d="M405.98,296.60 A77.13,77.13 0 0,1 560.25,296.60" fill="none"/></defs>
<text fill="rgb(34,34,34)" font-size="14.0" font-family="sans-serif"><textPath href="#arc-36671" startOffset="50%" text-anchor="middle">spiral</textPath></text>
<defs><path id="arc-36932" d="M657.61,780.99 A74.51,74.51 0 0,1 806.63,780.99" fill="none"/></defs>
<text fill="rgb(34,34,34)" font-size="14.0" font-family="sans-serif"><textPath href="#arc-36932" startOffset="50%" text-anchor="middle">bubbletree</textPath></text>
<defs><path id="arc-37197" d="M507.79,852.69 A67.11,67.11 0 0,1 642.01,852.69" fill="none"/></defs>
<text fill="rgb(34,34,34)" font-size="14.0" font-family="sans-serif"><textPath href="#arc-37197" startOffset="50%" text-anchor="middle">config</textPath></text>
<defs><path id="arc-37458" d="M347.73,827.39 A65.42,65.42 0 0,1 478.58,827.39" fill="none"/></defs>
<text fill="rgb(34,34,34)" font-size="14.0" font-family="sans-serif"><textPath href="#arc-37458" startOffset="50%" text-anchor="middle">stages</textPath></text>
<defs><path id="arc-37719" d="M236.03,717.95 A62.14,62.14 0 0,1 360.31,717.95" fill="none"/></defs>
<text fill="rgb(34,34,34)" font-size="14.0" font-family="sans-serif"><textPath href="#arc-37719" startOffset="50%" text-anchor="middle">radialtree</textPath></text>
<defs><path id="arc-37984" d="M278.65,387.81 A61.38,61.38 0 0,1 401.40,387.81" fill="none"/></defs>
<text fill="rgb(34,34,34)" font-size="14.0" font-family="sans-serif"><textPath href="#arc-37984" startOffset="50%" text-anchor="middle">treemap</textPath></text>
<defs><path id="arc-38246" d="M236.29,515.34 A47.02,47.02 0 0,1 330.33,515.34" fill="none"/></defs>
<text fill="rgb(34,34,34)" font-size="14.0" font-family="sans-serif"><textPath href="#arc-38246" startOffset="50%" text-anchor="middle">export</textPath></text>
<defs><path id="arc-38507" d="M164.99,420.02 A43.18,43.18 0 0,1 251.35,420.02" fill="none"/></defs>
<text fill="rgb(34,34,34)" font-size="14.0" font-family="sans-serif"><textPath href="#arc-38507" startOffset="50%" text-anchor="middle">palette</textPath></text>
<defs><path id="arc-38769" d="M122.97,527.11 A41.36,41.36 0 0,1 205.69,527.11" fill="none"/></defs>
<text fill="rgb(34,34,34)" font-size="14.0" font-family="sans-serif"><textPath href="#arc-38769" startOffset="50%" text-anchor="middle">model</textPath></text>
<defs><path id="arc-39029" d="M237.64,850.15 A40.41,40.41 0 0,1 318.45,850.15" fill="none"/></defs>
<text fill="rgb(34,34,34)" font-size="14.0" font-family="sans-serif"><textPath href="#arc-39029" startOffset="50%" text-anchor="middle">table</textPath></text>
<defs><path id="arc-39289" d="M440.99,943.31 A35.50,35.50 0 0,1 511.98,943.31" fill="none"/></defs>
<text fill="rgb(34,34,34)" font-size="14.0" font-family="sans-serif"><textPath href="#arc-39289" startOffset="50%" text-anchor="middle">filter</textPath></text>
<defs><path id="arc-39550" d="M308.70,259.89 A35.43,35.43 0 0,1 379.57,259.89" fill="none"/></defs>
<text fill="rgb(34,34,34)" font-size="14.0" font-family="sans-serif"><textPath href="#arc-39550" startOffset="50%" text-anchor="middle">legend</textPath></text>
<defs><path id="arc-39811" d="M657.56,915.15 A34.36,34.36 0 0,1 726.29,915.15" fill="none"/></defs>
<text fill="rgb(34,34,34)" font-size="14.0" font-family="sans-serif"><textPath href="#arc-39811" startOffset="50%" text-anchor="middle">inks</textPath></text>
<defs><path id="arc-40070" d="M197.07,608.39 A30.34,30.34 0 0,1 257.75,608.39" fill="none"/></defs>
<text fill="rgb(34,34,34)" font-size="13.2" font-family="sans-serif"><textPath href="#arc-40070" startOffset="50%" text-anchor="middle">metric</textPath></text>
<defs><path id="arc-40331" d="M214.81,325.70 A25.19,25.19 0 0,1 265.19,325.70" fill="none"/></defs>
<text fill="rgb(34,34,34)" font-size="8.2" font-family="sans-serif"><textPath href="#arc-40331" startOffset="50%" text-anchor="middle">pipeline</textPath></text>
<defs><path id="arc-40593" d="M837.81,780.45 A19.62,19.62 0 0,1 877.04,780.45" fill="none"/></defs>
<text fill="rgb(34,34,34)" font-size="14.0" font-family="sans-serif"><textPath href="#arc-40593" startOffset="50%" text-anchor="middle">viz</textPath></text>
<defs><path id="arc-40851" d="M1102.70,558.94 A358.36,358.36 0 0,1 1819.41,558.94" fill="none"/></defs>
<text fill="rgb(34,34,34)" font-size="14.0" font-family="sans-serif"><textPath href="#arc-40851" startOffset="50%" text-anchor="middle">docs</textPath></text>
<defs><path id="arc-41114" d="M1123.88,558.94 A318.15,318.15 0 0,1 1760.18,558.94" fill="none"/></defs>
<text fill="rgb(34,34,34)" font-size="14.0" font-family="sans-serif"><textPath href="#arc-41114" startOffset="50%" text-anchor="middle">superpowers</textPath></text>
<defs><path id="arc-41384" d="M1145.06,558.94 A206.38,206.38 0 0,1 1557.83,558.94" fill="none"/></defs>
<text fill="rgb(34,34,34)" font-size="14.0" font-family="sans-serif"><textPath href="#arc-41384" startOffset="50%" text-anchor="middle">plans</textPath></text>
<defs><path id="arc-41648" d="M1589.00,558.94 A75.00,75.00 0 0,1 1739.00,558.94" fill="none"/></defs>
<text fill="rgb(34,34,34)" font-size="14.0" font-family="sans-serif"><textPath href="#arc-41648" startOffset="50%" text-anchor="middle">specs</textPath></text>
<defs><path id="arc-41910" d="M1020.63,256.83 A80.43,80.43 0 0,1 1181.48,256.83" fill="none"/></defs>
<text fill="rgb(34,34,34)" font-size="14.0" font-family="sans-serif"><textPath href="#arc-41910" startOffset="50%" text-anchor="middle">cmd</textPath></text>
<defs><path id="arc-42170" d="M1041.81,256.83 A59.25,59.25 0 0,1 1160.30,256.83" fill="none"/></defs>
<text fill="rgb(34,34,34)" font-size="14.0" font-family="sans-serif"><textPath href="#arc-42170" startOffset="50%" text-anchor="middle">codeviz</textPath></text>
<defs><path id="arc-42434" d="M915.12,131.82 A63.43,63.43 0 0,1 1041.97,131.82" fill="none"/></defs>
<text fill="rgb(34,34,34)" font-size="14.0" font-family="sans-serif"><textPath href="#arc-42434" startOffset="50%" text-anchor="middle">samples</textPath></text>
<defs><path id="arc-42697" d="M819.08,74.50 A38.90,38.90 0 0,1 896.88,74.50" fill="none"/></defs>
<text fill="rgb(34,34,34)" font-size="14.0" font-family="sans-serif"><textPath href="#arc-42697" startOffset="50%" text-anchor="middle">tools</textPath></text>
<rect x="1726.00" y="329.00" width="178.00" height="735.00" fill="rgba(255,255,255,0.902)" stroke="rgba(153,153,153,0.800)" stroke-width="1.0"/>
<text x="1738.00" y="354.00" fill="rgb(38,38,38)" font-size="13.0" font-family="sans-serif" text-anchor="start" dominant-baseline="central">Fill: file-type</text>
<rect x="1738.00" y="360.00" width="28.00" height="28.00" fill="rgb(166,206,227)" stroke="rgb(102,102,102)" stroke-width="0.5"/>
<text x="1772.00" y="374.00" fill="rgb(51,51,51)" font-size="12.0" font-family="sans-serif" text-anchor="start" dominant-baseline="central">go</text>
<rect x="1738.00" y="392.00" width="28.00" height="28.00" fill="rgb(31,120,180)" stroke="rgb(102,102,102)" stroke-width="0.5"/>
<text x="1772.00" y="406.00" fill="rgb(51,51,51)" font-size="12.0" font-family="sans-serif" text-anchor="start" dominant-baseline="central">md</text>
<rect x="1738.00" y="424.00" width="28.00" height="28.00" fill="rgb(178,223,138)" stroke="rgb(102,102,102)" stroke-width="0.5"/>
<text x="1772.00" y="438.00" fill="rgb(51,51,51)" font-size="12.0" font-family="sans-serif" text-anchor="start" dominant-baseline="central">mod</text>
<rect x="1738.00" y="456.00" width="28.00" height="28.00" fill="rgb(51,160,44)" stroke="rgb(102,102,102)" stroke-width="0.5"/>
<text x="1772.00" y="470.00" fill="rgb(51,51,51)" font-size="12.0" font-family="sans-serif" text-anchor="start" dominant-baseline="central">rs</text>
<rect x="1738.00" y="488.00" width="28.00" height="28.00" fill="rgb(251,154,153)" stroke="rgb(102,102,102)" stroke-width="0.5"/>
<text x="1772.00" y="502.00" fill="rgb(51,51,51)" font-size="12.0" font-family="sans-serif" text-anchor="start" dominant-baseline="central">sh</text>
<rect x="1738.00" y="520.00" width="28.00" height="28.00" fill="rgb(227,26,28)" stroke="rgb(102,102,102)" stroke-width="0.5"/>
<text x="1772.00" y="534.00" fill="rgb(51,51,51)" font-size="12.0" font-family="sans-serif" text-anchor="start" dominant-baseline="central">sum</text>
<rect x="1738.00" y="552.00" width="28.00" height="28.00" fill="rgb(253,191,111)" stroke="rgb(102,102,102)" stroke-width="0.5"/>
<text x="1772.00" y="566.00" fill="rgb(51,51,51)" font-size="12.0" font-family="sans-serif" text-anchor="start" dominant-baseline="central">svg</text>
<rect x="1738.00" y="584.00" width="28.00" height="28.00" fill="rgb(255,127,0)" stroke="rgb(102,102,102)" stroke-width="0.5"/>
<text x="1772.00" y="598.00" fill="rgb(51,51,51)" font-size="12.0" font-family="sans-serif" text-anchor="start" dominant-baseline="central">txt</text>
<rect x="1738.00" y="616.00" width="28.00" height="28.00" fill="rgb(202,178,214)" stroke="rgb(102,102,102)" stroke-width="0.5"/>
<text x="1772.00" y="630.00" fill="rgb(51,51,51)" font-size="12.0" font-family="sans-serif" text-anchor="start" dominant-baseline="central">yaml</text>
<rect x="1738.00" y="648.00" width="28.00" height="28.00" fill="rgb(106,61,154)" stroke="rgb(102,102,102)" stroke-width="0.5"/>
<text x="1772.00" y="662.00" fill="rgb(51,51,51)" font-size="12.0" font-family="sans-serif" text-anchor="start" dominant-baseline="central">yml</text>
<text x="1738.00" y="707.00" fill="rgb(38,38,38)" font-size="13.0" font-family="sans-serif" text-anchor="start" dominant-baseline="central">Border: file-freshness</text>
<rect x="1738.00" y="713.00" width="28.00" height="28.00" fill="rgb(255,255,255)" stroke="rgb(165,0,38)" stroke-width="6.0"/>
<text x="1772.00" y="741.00" fill="rgb(51,51,51)" font-size="12.0" font-family="sans-serif" text-anchor="start" dominant-baseline="central">1</text>
<rect x="1738.00" y="747.00" width="28.00" height="28.00" fill="rgb(255,255,255)" stroke="rgb(215,48,39)" stroke-width="6.0"/>
<text x="1772.00" y="775.00" fill="rgb(51,51,51)" font-size="12.0" font-family="sans-serif" text-anchor="start" dominant-baseline="central">3</text>
<rect x="1738.00" y="781.00" width="28.00" height="28.00" fill="rgb(255,255,255)" stroke="rgb(253,174,97)" stroke-width="6.0"/>
<text x="1772.00" y="809.00" fill="rgb(51,51,51)" font-size="12.0" font-family="sans-serif" text-anchor="start" dominant-baseline="central">4</text>
<rect x="1738.00" y="815.00" width="28.00" height="28.00" fill="rgb(255,255,255)" stroke="rgb(254,224,139)" stroke-width="6.0"/>
<text x="1772.00" y="843.00" fill="rgb(51,51,51)" font-size="12.0" font-family="sans-serif" text-anchor="start" dominant-baseline="central">5</text>
<rect x="1738.00" y="849.00" width="28.00" height="28.00" fill="rgb(255,255,255)" stroke="rgb(255,255,255)" stroke-width="6.0"/>
<text x="1772.00" y="877.00" fill="rgb(51,51,51)" font-size="12.0" font-family="sans-serif" text-anchor="start" dominant-baseline="central">7</text>
<rect x="1738.00" y="883.00" width="28.00" height="28.00" fill="rgb(255,255,255)" stroke="rgb(217,239,139)" stroke-width="6.0"/>
<text x="1772.00" y="911.00" fill="rgb(51,51,51)" font-size="12.0" font-family="sans-serif" text-anchor="start" dominant-baseline="central">10</text>
<rect x="1738.00" y="917.00" width="28.00" height="28.00" fill="rgb(255,255,255)" stroke="rgb(102,189,99)" stroke-width="6.0"/>
<text x="1772.00" y="945.00" fill="rgb(51,51,51)" font-size="12.0" font-family="sans-serif" text-anchor="start" dominant-baseline="central">19</text>
<rect x="1738.00" y="951.00" width="28.00" height="28.00" fill="rgb(255,255,255)" stroke="rgb(26,152,80)" stroke-width="6.0"/>
<text x="1772.00" y="979.00" fill="rgb(51,51,51)" font-size="12.0" font-family="sans-serif" text-anchor="start" dominant-baseline="central">38</text>
<rect x="1738.00" y="985.00" width="28.00" height="28.00" fill="rgb(255,255,255)" stroke="rgb(0,68,27)" stroke-width="6.0"/>
<text x="1738.00" y="1046.00" fill="rgb(38,38,38)" font-size="13.0" font-family="sans-serif" text-anchor="start" dominant-baseline="central">Size: file-lines</text>
</svg>
