<svg xmlns="http://www.w3.org/2000/svg" width="1920" height="1920">
<rect x="0.00" y="0.00" width="1920.00" height="1920.00" fill="rgb(255,255,255)" stroke="rgb(255,255,255)" stroke-width="0.0"/>
<path d="M 960.0 653.3 L 967.6 652.2 L 975.3 651.3 L 983.0 650.5 L 990.8 649.9 L 998.6 649.6 L 1006.4 649.4 L 1014.3 649.4 L 1022.2 649.7 L 1030.1 650.1 L 1038.1 650.7 L 1046.0 651.6 L 1054.0 652.6 L 1062.0 653.9 L 1069.9 655.3 L 1077.9 657.0 L 1085.8 658.9 L 1093.7 661.0 L 1101.6 663.3 L 1109.4 665.8 L 1117.3 668.5 L 1125.0 671.4 L 1132.8 674.5 L 1140.4 677.8 L 1148.0 681.3 L 1155.6 685.1 L 1163.1 689.0 L 1170.5 693.2 L 1177.8 697.5 L 1185.0 702.0 L 1192.2 706.8 L 1199.2 711.7 L 1206.1 716.8 L 1213.0 722.2 L 1219.7 727.7 L 1226.3 733.4 L 1232.8 739.2 L 1239.1 745.3 L 1245.3 751.5 L 1251.4 758.0 L 1257.4 764.6 L 1263.1 771.3 L 1268.8 778.3 L 1274.2 785.4 L 1279.6 792.6 L 1284.7 800.0 L 1289.7 807.6 L 1294.5 815.3 L 1299.1 823.1 L 1303.5 831.1 L 1307.8 839.3 L 1311.8 847.5 L 1315.7 855.9 L 1319.3 864.4 L 1322.8 873.1 L 1326.0 881.8 L 1329.0 890.7 L 1331.9 899.6 L 1334.5 908.7 L 1336.8 917.8 L 1339.0 927.0 L 1340.9 936.3 L 1342.6 945.7 L 1344.1 955.2 L 1345.3 964.7 L 1346.3 974.3 L 1347.1 983.9 L 1347.6 993.5 L 1347.8 1003.3 L 1347.9 1013.0 L 1347.7 1022.8 L 1347.2 1032.6 L 1346.5 1042.4 L 1345.5 1052.2 L 1344.3 1062.0 L 1342.9 1071.8 L 1341.1 1081.6 L 1339.2 1091.4 L 1337.0 1101.2 L 1334.5 1110.9 L 1331.8 1120.6 L 1328.8 1130.3 L 1325.6 1139.9 L 1322.1 1149.5 L 1318.4 1159.0 L 1314.4 1168.4 L 1310.2 1177.7 L 1305.7 1187.0 L 1301.0 1196.2 L 1296.1 1205.3 L 1290.9 1214.3 L 1285.4 1223.1 L 1279.8 1231.9 L 1273.9 1240.6 L 1267.7 1249.1 L 1261.4 1257.5 L 1254.8 1265.7 L 1247.9 1273.8 L 1240.9 1281.8 L 1233.6 1289.5 L 1226.2 1297.2 L 1218.5 1304.6 L 1210.6 1311.9 L 1202.5 1319.0 L 1194.2 1326.0 L 1185.7 1332.7 L 1177.1 1339.2 L 1168.2 1345.6 L 1159.2 1351.7 L 1149.9 1357.6 L 1140.5 1363.3 L 1131.0 1368.8 L 1121.3 1374.0 L 1111.4 1379.0 L 1101.4 1383.8 L 1091.2 1388.4 L 1080.9 1392.7 L 1070.5 1396.7 L 1059.9 1400.5 L 1049.2 1404.1 L 1038.4 1407.3 L 1027.5 1410.4 L 1016.5 1413.1 L 1005.4 1415.6 L 994.2 1417.8 L 983.0 1419.7 L 971.6 1421.4 L 960.2 1422.8 L 948.7 1423.9 L 937.2 1424.7 L 925.6 1425.2 L 914.0 1425.4 L 902.4 1425.4 L 890.7 1425.0 L 879.0 1424.4 L 867.3 1423.4 L 855.6 1422.2 L 843.9 1420.7 L 832.2 1418.8 L 820.6 1416.7 L 808.9 1414.3 L 797.3 1411.6 L 785.7 1408.5 L 774.2 1405.2 L 762.8 1401.6 L 751.4 1397.7 L 740.1 1393.5 L 728.8 1389.0 L 717.7 1384.3 L 706.6 1379.2 L 695.7 1373.8 L 684.8 1368.2 L 674.1 1362.2 L 663.5 1356.0 L 653.1 1349.6 L 642.7 1342.8 L 632.5 1335.8 L 622.5 1328.4 L 612.7 1320.9 L 603.0 1313.0 L 593.5 1304.9 L 584.1 1296.6 L 575.0 1288.0 L 566.0 1279.1 L 557.3 1270.0 L 548.7 1260.7 L 540.4 1251.2 L 532.3 1241.4 L 524.5 1231.4 L 516.8 1221.1 L 509.4 1210.7 L 502.3 1200.0 L 495.4 1189.2 L 488.7 1178.1 L 482.4 1166.9 L 476.2 1155.5 L 470.4 1143.9 L 464.8 1132.1 L 459.6 1120.2 L 454.6 1108.1 L 449.9 1095.9 L 445.5 1083.5 L 441.4 1071.0 L 437.6 1058.4 L 434.1 1045.6 L 430.9 1032.8 L 428.1 1019.8 L 425.5 1006.7 L 423.3 993.6 L 421.4 980.4 L 419.8 967.0 L 418.6 953.7 L 417.7 940.2 L 417.1 926.8 L 416.9 913.2 L 417.0 899.7 L 417.4 886.1 L 418.2 872.5 L 419.3 858.9 L 420.8 845.3 L 422.6 831.7 L 424.8 818.2 L 427.2 804.6 L 430.1 791.1 L 433.3 777.7 L 436.8 764.3 L 440.6 750.9 L 444.8 737.7 L 449.4 724.5 L 454.3 711.4 L 459.5 698.4 L 465.0 685.5 L 470.9 672.7 L 477.1 660.0 L 483.6 647.5 L 490.5 635.1 L 497.7 622.9 L 505.2 610.8 L 513.0 598.9 L 521.1 587.2 L 529.6 575.6 L 538.3 564.2 L 547.4 553.1 L 556.7 542.1 L 566.3 531.4 L 576.2 520.8 L 586.4 510.5 L 596.9 500.5 L 607.6 490.6 L 618.6 481.1 L 629.9 471.8 L 641.4 462.7 L 653.2 453.9 L 665.2 445.4 L 677.4 437.2 L 689.9 429.3 L 702.5 421.7 L 715.4 414.3 L 728.5 407.3 L 741.8 400.6 L 755.3 394.2 L 769.0 388.2 L 782.8 382.5 L 796.8 377.1 L 811.0 372.0 L 825.3 367.3 L 839.7 363.0 L 854.3 359.0 L 869.0 355.3 L 883.9 352.0 L 898.8 349.1 L 913.8 346.6 L 929.0 344.4 L 944.2 342.6 L 959.4 341.1 L 974.8 340.1 L 990.2 339.4 L 1005.6 339.1 L 1021.1 339.2 L 1036.5 339.7 L 1052.0 340.6 L 1067.5 341.8 L 1083.0 343.5 L 1098.5 345.5 L 1114.0 347.9 L 1129.4 350.7 L 1144.8 353.9 L 1160.1 357.5 L 1175.3 361.5 L 1190.5 365.9 L 1205.6 370.6 L 1220.6 375.7 L 1235.5 381.2 L 1250.3 387.1 L 1265.0 393.4 L 1279.5 400.1 L 1293.9 407.1 L 1308.1 414.5 L 1322.2 422.2 L 1336.1 430.3 L 1349.8 438.8 L 1363.3 447.7 L 1376.7 456.8 L 1389.8 466.4 L 1402.7 476.2 L 1415.4 486.5 L 1427.8 497.0 L 1440.0 507.9 L 1452.0 519.1 L 1463.7 530.6 L 1475.1 542.4 L 1486.2 554.5 L 1497.1 566.9 L 1507.6 579.6 L 1517.9 592.6 L 1527.9 605.8 L 1537.5 619.4 L 1546.8 633.2 L 1555.8 647.2 L 1564.5 661.5 L 1572.8 676.0 L 1580.8 690.8 L 1588.4 705.7 L 1595.6 720.9 L 1602.5 736.3 L 1609.0 751.9 L 1615.1 767.7 L 1620.9 783.6 L 1626.2 799.7 L 1631.2 816.0 L 1635.8 832.4 L 1639.9 849.0 L 1643.7 865.6 L 1647.0 882.4 L 1650.0 899.3 L 1652.5 916.3 L 1654.6 933.4 L 1656.2 950.6 L 1657.5 967.8 L 1658.3 985.1 L 1658.7 1002.5 L 1658.7 1019.8 L 1658.2 1037.2 L 1657.3 1054.6 L 1655.9 1072.1 L 1654.2 1089.5 L 1652.0 1106.8 L 1649.3 1124.2 L 1646.2 1141.5 L 1642.7 1158.8 L 1638.7 1176.0 L 1634.4 1193.1 L 1629.5 1210.1 L 1624.3 1227.1 L 1618.6 1243.9 L 1612.5 1260.6 L 1606.0 1277.2 L 1599.0 1293.6 L 1591.7 1309.9 L 1583.9 1326.1 L 1575.7 1342.0 L 1567.1 1357.8 L 1558.0 1373.4 L 1548.6 1388.8 L 1538.8 1404.0 L 1528.6 1418.9 L 1518.0 1433.6 L 1507.1 1448.1 L 1495.7 1462.3 L 1484.0 1476.3 L 1471.9 1490.0 L 1459.5 1503.4 L 1446.7 1516.5 L 1433.6 1529.3 L 1420.1 1541.8 L 1406.3 1554.0 L 1392.2 1565.9 L 1377.8 1577.4 L 1363.1 1588.6 L 1348.0 1599.4 L 1332.7 1609.8 L 1317.1 1619.9 L 1301.3 1629.7 L 1285.1 1639.0 L 1268.7 1648.0 L 1252.1 1656.5 L 1235.2 1664.7 L 1218.1 1672.4 L 1200.8 1679.8 L 1183.3 1686.7 L 1165.6 1693.2 L 1147.7 1699.2 L 1129.6 1704.8 L 1111.4 1710.0 L 1093.0 1714.7 L 1074.5 1719.0 L 1055.9 1722.8 L 1037.1 1726.2 L 1018.2 1729.1 L 999.2 1731.5 L 980.2 1733.5 L 961.0 1735.0 L 941.9 1736.0 L 922.6 1736.5 L 903.3 1736.6 L 884.0 1736.2 L 864.7 1735.3 L 845.4 1733.9 L 826.1 1732.0 L 806.8 1729.7 L 787.5 1726.9 L 768.3 1723.6 L 749.1 1719.8 L 730.1 1715.5 L 711.1 1710.7 L 692.2 1705.5 L 673.4 1699.8 L 654.7 1693.6 L 636.1 1687.0 L 617.7 1679.9 L 599.5 1672.3 L 581.4 1664.2 L 563.5 1655.7 L 545.7 1646.7 L 528.2 1637.3 L 510.9 1627.5 L 493.8 1617.1 L 477.0 1606.4 L 460.4 1595.2 L 444.1 1583.6 L 428.0 1571.6 L 412.2 1559.2 L 396.7 1546.3 L 381.5 1533.1 L 366.6 1519.4 L 352.0 1505.4 L 337.8 1491.0 L 323.9 1476.2 L 310.4 1461.1 L 297.2 1445.6 L 284.4 1429.8 L 271.9 1413.6 L 259.9 1397.1 L 248.2 1380.2 L 237.0 1363.1 L 226.1 1345.7 L 215.7 1328.0 L 205.7 1310.0 L 196.2 1291.7 L 187.1 1273.2 L 178.4 1254.4 L 170.2 1235.4 L 162.5 1216.1 L 155.2 1196.7 L 148.4 1177.0 L 142.1 1157.2 L 136.3 1137.1 L 130.9 1116.9 L 126.1 1096.6 L 121.7 1076.1 L 117.9 1055.5 L 114.6 1034.7 L 111.8 1013.9 L 109.5 992.9 L 107.7 971.9 L 106.4 950.8 L 105.7 929.6 L 105.5 908.4 L 105.8 887.2 L 106.6 866.0 L 108.0 844.7 L 109.9 823.5 L 112.3 802.3 L 115.3 781.1 L 118.8 760.0 L 122.8 739.0 L 127.3 718.0 L 132.4 697.1 L 138.0 676.3 L 144.1 655.6 L 150.7 635.1 L 157.9 614.7 L 165.5 594.4 L 173.7 574.4 L 182.4 554.5 L 191.6 534.8 L 201.3 515.3 L 211.5 496.0 L 222.2 476.9 L 233.3 458.2 L 245.0 439.6 L 257.1 421.3 L 269.7 403.3 L 282.7 385.6 L 296.2 368.3 L 310.1 351.2 L 324.5 334.4 L 339.3 318.0 L 354.6 302.0 L 370.2 286.3 L 386.3 270.9 L 402.7 256.0 L 419.6 241.5 L 436.8 227.3 L 454.4 213.6 L 472.3 200.3 L 490.6 187.4 L 509.3 174.9 L 528.2 163.0 L 547.5 151.4 L 567.1 140.4 L 587.0 129.8 L 607.2 119.7 L 627.6 110.1 L 648.3 100.9 L 669.3 92.3 L 690.4 84.2 L 711.8 76.7 L 733.5 69.6 L 755.3 63.1" fill="none" stroke="rgb(221,221,221)" stroke-width="1.0"/>
<circle cx="960.00" cy="653.33" r="27.23" fill="rgb(25,120,20)" stroke="rgb(51,51,51)" stroke-width="3.0"/>
<circle cx="1030.72" cy="650.15" r="13.31" fill="rgb(210,130,30)" stroke="rgb(51,51,51)" stroke-width="3.0"/>
<circle cx="1102.73" cy="663.61" r="16.96" fill="rgb(240,215,50)" stroke="rgb(51,51,51)" stroke-width="3.0"/>
<circle cx="1172.06" cy="694.08" r="6.65" fill="rgb(45,25,10)" stroke="rgb(51,51,51)" stroke-width="2.0"/>
<circle cx="1234.64" cy="740.99" r="4.70" fill="rgb(15,10,5)" stroke="rgb(51,51,51)" stroke-width="2.0"/>
<circle cx="1286.53" cy="802.75" r="14.50" fill="rgb(230,175,40)" stroke="rgb(51,51,51)" stroke-width="3.0"/>
<circle cx="1345.95" cy="1048.09" r="28.22" fill="rgb(25,120,20)" stroke="rgb(51,51,51)" stroke-width="3.0"/>
<circle cx="1326.72" cy="1136.60" r="20.23" fill="rgb(165,200,50)" stroke="rgb(51,51,51)" stroke-width="3.0"/>
<circle cx="1286.95" cy="1220.73" r="6.65" fill="rgb(45,25,10)" stroke="rgb(51,51,51)" stroke-width="2.0"/>
<circle cx="1227.68" cy="1295.67" r="13.71" fill="rgb(230,175,40)" stroke="rgb(51,51,51)" stroke-width="3.0"/>
<circle cx="1151.12" cy="1356.86" r="11.03" fill="rgb(175,95,25)" stroke="rgb(51,51,51)" stroke-width="3.0"/>
<circle cx="1060.50" cy="1400.31" r="11.99" fill="rgb(175,95,25)" stroke="rgb(51,51,51)" stroke-width="3.0"/>
<circle cx="960.00" cy="1422.79" r="17.60" fill="rgb(240,215,50)" stroke="rgb(51,51,51)" stroke-width="3.0"/>
<circle cx="854.54" cy="1422.06" r="15.24" fill="rgb(240,215,50)" stroke="rgb(51,51,51)" stroke-width="3.0"/>
<circle cx="749.53" cy="1397.05" r="10.52" fill="rgb(130,70,20)" stroke="rgb(51,51,51)" stroke-width="3.0"/>
<circle cx="650.60" cy="1347.98" r="13.31" fill="rgb(210,130,30)" stroke="rgb(51,51,51)" stroke-width="3.0"/>
<circle cx="563.30" cy="1276.35" r="8.15" fill="rgb(85,45,15)" stroke="rgb(51,51,51)" stroke-width="3.0"/>
<circle cx="492.81" cy="1184.99" r="14.88" fill="rgb(230,175,40)" stroke="rgb(51,51,51)" stroke-width="3.0"/>
<circle cx="443.58" cy="1077.87" r="6.65" fill="rgb(45,25,10)" stroke="rgb(51,51,51)" stroke-width="2.0"/>
<circle cx="419.15" cy="960.00" r="11.03" fill="rgb(175,95,25)" stroke="rgb(51,51,51)" stroke-width="3.0"/>
<circle cx="421.84" cy="837.17" r="27.02" fill="rgb(80,165,40)" stroke="rgb(51,51,51)" stroke-width="3.0"/>
<circle cx="452.62" cy="715.66" r="23.05" fill="rgb(80,165,40)" stroke="rgb(51,51,51)" stroke-width="3.0"/>
<circle cx="594.98" cy="502.27" r="17.28" fill="rgb(240,215,50)" stroke="rgb(51,51,51)" stroke-width="3.0"/>
<circle cx="701.14" cy="422.48" r="9.98" fill="rgb(130,70,20)" stroke="rgb(51,51,51)" stroke-width="3.0"/>
<circle cx="824.76" cy="367.48" r="11.52" fill="rgb(175,95,25)" stroke="rgb(51,51,51)" stroke-width="3.0"/>
<circle cx="960.00" cy="341.09" r="21.04" fill="rgb(165,200,50)" stroke="rgb(51,51,51)" stroke-width="3.0"/>
<circle cx="1100.20" cy="345.74" r="7.44" fill="rgb(85,45,15)" stroke="rgb(51,51,51)" stroke-width="2.0"/>
<circle cx="1238.21" cy="382.29" r="9.98" fill="rgb(130,70,20)" stroke="rgb(51,51,51)" stroke-width="3.0"/>
<circle cx="1366.74" cy="449.96" r="9.98" fill="rgb(130,70,20)" stroke="rgb(51,51,51)" stroke-width="3.0"/>
<circle cx="1478.76" cy="546.31" r="7.44" fill="rgb(85,45,15)" stroke="rgb(51,51,51)" stroke-width="2.0"/>
<circle cx="1567.85" cy="667.27" r="5.76" fill="rgb(45,25,10)" stroke="rgb(51,51,51)" stroke-width="2.0"/>
<circle cx="1628.62" cy="807.39" r="3.33" fill="rgb(15,10,5)" stroke="rgb(51,51,51)" stroke-width="2.0"/>
<circle cx="1656.97" cy="960.00" r="25.33" fill="rgb(80,165,40)" stroke="rgb(51,51,51)" stroke-width="3.0"/>
<circle cx="1650.37" cy="1117.57" r="24.22" fill="rgb(80,165,40)" stroke="rgb(51,51,51)" stroke-width="3.0"/>
<circle cx="1608.04" cy="1272.08" r="34.41" fill="rgb(25,120,20)" stroke="rgb(51,51,51)" stroke-width="3.0"/>
<circle cx="1531.07" cy="1415.41" r="14.11" fill="rgb(230,175,40)" stroke="rgb(51,51,51)" stroke-width="3.0"/>
<circle cx="1422.36" cy="1539.79" r="9.41" fill="rgb(85,45,15)" stroke="rgb(51,51,51)" stroke-width="3.0"/>
<circle cx="1286.60" cy="1638.18" r="24.67" fill="rgb(80,165,40)" stroke="rgb(51,51,51)" stroke-width="3.0"/>
<circle cx="1129.98" cy="1704.73" r="11.03" fill="rgb(175,95,25)" stroke="rgb(51,51,51)" stroke-width="3.0"/>
<circle cx="960.00" cy="1735.03" r="27.43" fill="rgb(25,120,20)" stroke="rgb(51,51,51)" stroke-width="3.0"/>
<circle cx="785.06" cy="1726.47" r="29.00" fill="rgb(25,120,20)" stroke="rgb(51,51,51)" stroke-width="3.0"/>
<circle cx="614.05" cy="1678.37" r="12.45" fill="rgb(210,130,30)" stroke="rgb(51,51,51)" stroke-width="3.0"/>
<circle cx="455.92" cy="1592.10" r="20.77" fill="rgb(165,200,50)" stroke="rgb(51,51,51)" stroke-width="3.0"/>
<circle cx="319.18" cy="1471.03" r="12.88" fill="rgb(210,130,30)" stroke="rgb(51,51,51)" stroke-width="3.0"/>
<circle cx="211.49" cy="1320.47" r="19.40" fill="rgb(240,215,50)" stroke="rgb(51,51,51)" stroke-width="3.0"/>
<circle cx="139.17" cy="1147.35" r="13.71" fill="rgb(230,175,40)" stroke="rgb(51,51,51)" stroke-width="3.0"/>
<circle cx="106.91" cy="960.00" r="23.05" fill="rgb(80,165,40)" stroke="rgb(51,51,51)" stroke-width="3.0"/>
<circle cx="117.43" cy="767.69" r="32.93" fill="rgb(25,120,20)" stroke="rgb(51,51,51)" stroke-width="3.0"/>
<circle cx="171.30" cy="580.18" r="20.23" fill="rgb(165,200,50)" stroke="rgb(51,51,51)" stroke-width="3.0"/>
<circle cx="266.87" cy="407.25" r="12.45" fill="rgb(210,130,30)" stroke="rgb(51,51,51)" stroke-width="3.0"/>
<circle cx="400.30" cy="258.15" r="12.45" fill="rgb(210,130,30)" stroke="rgb(51,51,51)" stroke-width="3.0"/>
<circle cx="565.67" cy="141.16" r="5.76" fill="rgb(45,25,10)" stroke="rgb(51,51,51)" stroke-width="2.0"/>
<circle cx="755.28" cy="63.07" r="11.52" fill="rgb(175,95,25)" stroke="rgb(51,51,51)" stroke-width="3.0"/>
<text x="960.00" y="622.11" fill="rgb(34,34,34)" font-size="12.0" font-family="sans-serif" text-anchor="start" dominant-baseline="central">Apr 4</text>
<text x="960.00" y="316.05" fill="rgb(34,34,34)" font-size="12.0" font-family="sans-serif" text-anchor="start" dominant-baseline="central" transform="rotate(360.00 960.00 316.05)">May 2</text>
<rect x="1754.00" y="1553.00" width="150.00" height="351.00" fill="rgba(255,255,255,0.902)" stroke="rgba(153,153,153,0.800)" stroke-width="1.0"/>
<text x="1766.00" y="1578.00" fill="rgb(38,38,38)" font-size="13.0" font-family="sans-serif" text-anchor="start" dominant-baseline="central">Fill: commit-count</text>
<rect x="1766.00" y="1584.00" width="28.00" height="28.00" fill="rgb(15,10,5)" stroke="rgb(102,102,102)" stroke-width="0.5"/>
<text x="1800.00" y="1612.00" fill="rgb(51,51,51)" font-size="12.0" font-family="sans-serif" text-anchor="start" dominant-baseline="central">3</text>
<rect x="1766.00" y="1612.00" width="28.00" height="28.00" fill="rgb(45,25,10)" stroke="rgb(102,102,102)" stroke-width="0.5"/>
<text x="1800.00" y="1640.00" fill="rgb(51,51,51)" font-size="12.0" font-family="sans-serif" text-anchor="start" dominant-baseline="central">5</text>
<rect x="1766.00" y="1640.00" width="28.00" height="28.00" fill="rgb(85,45,15)" stroke="rgb(102,102,102)" stroke-width="0.5"/>
<text x="1800.00" y="1668.00" fill="rgb(51,51,51)" font-size="12.0" font-family="sans-serif" text-anchor="start" dominant-baseline="central">9</text>
<rect x="1766.00" y="1668.00" width="28.00" height="28.00" fill="rgb(130,70,20)" stroke="rgb(102,102,102)" stroke-width="0.5"/>
<text x="1800.00" y="1696.00" fill="rgb(51,51,51)" font-size="12.0" font-family="sans-serif" text-anchor="start" dominant-baseline="central">11</text>
<rect x="1766.00" y="1696.00" width="28.00" height="28.00" fill="rgb(175,95,25)" stroke="rgb(102,102,102)" stroke-width="0.5"/>
<text x="1800.00" y="1724.00" fill="rgb(51,51,51)" font-size="12.0" font-family="sans-serif" text-anchor="start" dominant-baseline="central">14</text>
<rect x="1766.00" y="1724.00" width="28.00" height="28.00" fill="rgb(210,130,30)" stroke="rgb(102,102,102)" stroke-width="0.5"/>
<text x="1800.00" y="1752.00" fill="rgb(51,51,51)" font-size="12.0" font-family="sans-serif" text-anchor="start" dominant-baseline="central">17</text>
<rect x="1766.00" y="1752.00" width="28.00" height="28.00" fill="rgb(230,175,40)" stroke="rgb(102,102,102)" stroke-width="0.5"/>
<text x="1800.00" y="1780.00" fill="rgb(51,51,51)" font-size="12.0" font-family="sans-serif" text-anchor="start" dominant-baseline="central">21</text>
<rect x="1766.00" y="1780.00" width="28.00" height="28.00" fill="rgb(240,215,50)" stroke="rgb(102,102,102)" stroke-width="0.5"/>
<text x="1800.00" y="1808.00" fill="rgb(51,51,51)" font-size="12.0" font-family="sans-serif" text-anchor="start" dominant-baseline="central">37</text>
<rect x="1766.00" y="1808.00" width="28.00" height="28.00" fill="rgb(165,200,50)" stroke="rgb(102,102,102)" stroke-width="0.5"/>
<text x="1800.00" y="1836.00" fill="rgb(51,51,51)" font-size="12.0" font-family="sans-serif" text-anchor="start" dominant-baseline="central">48</text>
<rect x="1766.00" y="1836.00" width="28.00" height="28.00" fill="rgb(80,165,40)" stroke="rgb(102,102,102)" stroke-width="0.5"/>
<text x="1800.00" y="1864.00" fill="rgb(51,51,51)" font-size="12.0" font-family="sans-serif" text-anchor="start" dominant-baseline="central">67</text>
<rect x="1766.00" y="1864.00" width="28.00" height="28.00" fill="rgb(25,120,20)" stroke="rgb(102,102,102)" stroke-width="0.5"/>
</svg>
