<svg xmlns="http://www.w3.org/2000/svg" width="1920" height="1920">
<rect x="0.00" y="0.00" width="1920.00" height="1920.00" fill="rgb(255,255,255)" stroke="rgb(255,255,255)" stroke-width="0.0"/>
<path d="M 960.0 653.3 L 966.2 652.2 L 972.5 651.1 L 978.8 650.2 L 985.2 649.4 L 991.6 648.8 L 998.0 648.3 L 1004.5 647.9 L 1011.0 647.6 L 1017.5 647.5 L 1024.1 647.6 L 1030.7 647.7 L 1037.3 648.0 L 1043.9 648.5 L 1050.5 649.0 L 1057.2 649.8 L 1063.8 650.6 L 1070.5 651.6 L 1077.1 652.8 L 1083.8 654.1 L 1090.4 655.5 L 1097.1 657.1 L 1103.7 658.8 L 1110.3 660.7 L 1116.9 662.7 L 1123.5 664.9 L 1130.1 667.2 L 1136.6 669.6 L 1143.1 672.2 L 1149.6 675.0 L 1156.0 677.8 L 1162.4 680.9 L 1168.7 684.0 L 1175.0 687.4 L 1181.3 690.8 L 1187.5 694.4 L 1193.6 698.2 L 1199.7 702.0 L 1205.7 706.1 L 1211.7 710.2 L 1217.6 714.5 L 1223.4 718.9 L 1229.2 723.5 L 1234.8 728.2 L 1240.4 733.1 L 1245.9 738.0 L 1251.3 743.1 L 1256.7 748.3 L 1261.9 753.7 L 1267.1 759.2 L 1272.1 764.8 L 1277.0 770.5 L 1281.9 776.3 L 1286.6 782.3 L 1291.2 788.4 L 1295.7 794.6 L 1300.1 800.9 L 1304.4 807.3 L 1308.5 813.8 L 1312.6 820.5 L 1316.5 827.2 L 1320.3 834.0 L 1323.9 841.0 L 1327.4 848.0 L 1330.8 855.1 L 1334.0 862.3 L 1337.1 869.6 L 1340.1 877.0 L 1342.9 884.5 L 1345.5 892.0 L 1348.0 899.7 L 1350.4 907.4 L 1352.6 915.1 L 1354.7 923.0 L 1356.6 930.9 L 1358.3 938.8 L 1359.9 946.9 L 1361.3 954.9 L 1362.5 963.1 L 1363.6 971.3 L 1364.5 979.5 L 1365.3 987.7 L 1365.9 996.0 L 1366.3 1004.4 L 1366.5 1012.8 L 1366.6 1021.2 L 1366.5 1029.6 L 1366.2 1038.0 L 1365.7 1046.5 L 1365.1 1055.0 L 1364.3 1063.4 L 1363.3 1071.9 L 1362.1 1080.4 L 1360.8 1088.9 L 1359.2 1097.4 L 1357.5 1105.9 L 1355.6 1114.3 L 1353.6 1122.8 L 1351.3 1131.2 L 1348.9 1139.6 L 1346.3 1148.0 L 1343.5 1156.3 L 1340.5 1164.6 L 1337.4 1172.9 L 1334.1 1181.1 L 1330.5 1189.2 L 1326.9 1197.4 L 1323.0 1205.4 L 1319.0 1213.4 L 1314.8 1221.4 L 1310.4 1229.2 L 1305.8 1237.0 L 1301.1 1244.8 L 1296.2 1252.4 L 1291.1 1260.0 L 1285.8 1267.5 L 1280.4 1274.9 L 1274.9 1282.2 L 1269.1 1289.4 L 1263.2 1296.5 L 1257.1 1303.5 L 1250.9 1310.4 L 1244.5 1317.1 L 1238.0 1323.8 L 1231.3 1330.3 L 1224.5 1336.8 L 1217.5 1343.0 L 1210.3 1349.2 L 1203.1 1355.2 L 1195.6 1361.1 L 1188.1 1366.9 L 1180.4 1372.5 L 1172.5 1378.0 L 1164.6 1383.3 L 1156.5 1388.5 L 1148.2 1393.5 L 1139.9 1398.3 L 1131.4 1403.0 L 1122.9 1407.6 L 1114.2 1411.9 L 1105.4 1416.1 L 1096.4 1420.2 L 1087.4 1424.0 L 1078.3 1427.7 L 1069.1 1431.2 L 1059.8 1434.5 L 1050.4 1437.6 L 1040.9 1440.6 L 1031.4 1443.3 L 1021.7 1445.9 L 1012.0 1448.3 L 1002.2 1450.4 L 992.4 1452.4 L 982.5 1454.2 L 972.5 1455.8 L 962.5 1457.2 L 952.4 1458.4 L 942.3 1459.3 L 932.1 1460.1 L 921.9 1460.6 L 911.6 1461.0 L 901.4 1461.1 L 891.1 1461.1 L 880.8 1460.8 L 870.4 1460.3 L 860.1 1459.6 L 849.7 1458.7 L 839.4 1457.5 L 829.0 1456.2 L 818.7 1454.6 L 808.3 1452.8 L 798.0 1450.8 L 787.7 1448.6 L 777.4 1446.1 L 767.1 1443.5 L 756.9 1440.6 L 746.7 1437.5 L 736.6 1434.2 L 726.5 1430.7 L 716.5 1427.0 L 706.5 1423.0 L 696.5 1418.9 L 686.7 1414.5 L 676.9 1409.9 L 667.1 1405.1 L 657.5 1400.1 L 647.9 1394.9 L 638.5 1389.5 L 629.1 1383.9 L 619.8 1378.0 L 610.6 1372.0 L 601.5 1365.8 L 592.6 1359.3 L 583.7 1352.7 L 575.0 1345.9 L 566.4 1338.9 L 557.9 1331.7 L 549.5 1324.3 L 541.3 1316.7 L 533.2 1308.9 L 525.3 1301.0 L 517.5 1292.8 L 509.8 1284.5 L 502.4 1276.1 L 495.0 1267.4 L 487.9 1258.6 L 480.9 1249.6 L 474.0 1240.5 L 467.4 1231.2 L 460.9 1221.7 L 454.6 1212.1 L 448.5 1202.4 L 442.6 1192.5 L 436.9 1182.4 L 431.3 1172.3 L 426.0 1162.0 L 420.8 1151.5 L 415.9 1141.0 L 411.2 1130.3 L 406.7 1119.5 L 402.4 1108.6 L 398.3 1097.5 L 394.4 1086.4 L 390.8 1075.2 L 387.4 1063.9 L 384.2 1052.5 L 381.2 1041.0 L 378.4 1029.4 L 375.9 1017.7 L 373.7 1006.0 L 371.6 994.2 L 369.8 982.3 L 368.3 970.4 L 366.9 958.4 L 365.9 946.4 L 365.0 934.3 L 364.5 922.2 L 364.1 910.0 L 364.0 897.9 L 364.2 885.7 L 364.6 873.5 L 365.3 861.2 L 366.2 849.0 L 367.3 836.7 L 368.8 824.5 L 370.4 812.3 L 372.4 800.0 L 374.5 787.8 L 377.0 775.6 L 379.6 763.5 L 382.6 751.4 L 385.8 739.3 L 389.2 727.3 L 392.9 715.3 L 396.9 703.3 L 401.1 691.5 L 405.5 679.6 L 410.2 667.9 L 415.2 656.2 L 420.4 644.7 L 425.8 633.2 L 431.5 621.8 L 437.4 610.5 L 443.6 599.2 L 450.0 588.1 L 456.7 577.2 L 463.6 566.3 L 470.7 555.5 L 478.0 544.9 L 485.6 534.4 L 493.4 524.1 L 501.5 513.9 L 509.7 503.8 L 518.2 493.9 L 526.9 484.1 L 535.8 474.6 L 544.9 465.1 L 554.2 455.9 L 563.8 446.8 L 573.5 437.9 L 583.4 429.2 L 593.6 420.6 L 603.9 412.3 L 614.4 404.2 L 625.1 396.2 L 636.0 388.5 L 647.0 381.0 L 658.2 373.7 L 669.6 366.6 L 681.2 359.7 L 692.9 353.1 L 704.7 346.7 L 716.7 340.5 L 728.9 334.5 L 741.2 328.8 L 753.6 323.3 L 766.2 318.1 L 778.9 313.2 L 791.7 308.4 L 804.7 304.0 L 817.7 299.8 L 830.9 295.8 L 844.1 292.1 L 857.5 288.7 L 870.9 285.5 L 884.5 282.7 L 898.1 280.0 L 911.7 277.7 L 925.5 275.6 L 939.3 273.8 L 953.2 272.3 L 967.1 271.1 L 981.1 270.2 L 995.1 269.5 L 1009.2 269.1 L 1023.3 269.0 L 1037.4 269.2 L 1051.5 269.7 L 1065.6 270.5 L 1079.8 271.6 L 1093.9 272.9 L 1108.0 274.6 L 1122.2 276.5 L 1136.3 278.8 L 1150.3 281.3 L 1164.4 284.1 L 1178.4 287.2 L 1192.4 290.6 L 1206.3 294.3 L 1220.2 298.3 L 1234.0 302.5 L 1247.7 307.1 L 1261.4 311.9 L 1275.0 317.0 L 1288.5 322.5 L 1301.9 328.2 L 1315.2 334.1 L 1328.5 340.4 L 1341.6 346.9 L 1354.6 353.8 L 1367.4 360.8 L 1380.2 368.2 L 1392.8 375.8 L 1405.3 383.8 L 1417.6 391.9 L 1429.8 400.4 L 1441.9 409.1 L 1453.7 418.0 L 1465.5 427.2 L 1477.0 436.7 L 1488.4 446.4 L 1499.6 456.4 L 1510.5 466.6 L 1521.4 477.0 L 1532.0 487.7 L 1542.4 498.6 L 1552.6 509.7 L 1562.5 521.1 L 1572.3 532.6 L 1581.9 544.4 L 1591.2 556.4 L 1600.3 568.7 L 1609.1 581.1 L 1617.7 593.7 L 1626.1 606.5 L 1634.2 619.5 L 1642.0 632.7 L 1649.7 646.0 L 1657.0 659.6 L 1664.1 673.3 L 1670.9 687.1 L 1677.4 701.2 L 1683.7 715.3 L 1689.6 729.7 L 1695.3 744.1 L 1700.7 758.7 L 1705.8 773.5 L 1710.7 788.3 L 1715.2 803.3 L 1719.4 818.4 L 1723.3 833.6 L 1727.0 848.9 L 1730.3 864.3 L 1733.3 879.7 L 1736.0 895.3 L 1738.3 910.9 L 1740.4 926.6 L 1742.1 942.4 L 1743.6 958.2 L 1744.7 974.1 L 1745.5 990.0 L 1745.9 1006.0 L 1746.0 1022.0 L 1745.9 1038.0 L 1745.3 1054.0 L 1744.5 1070.1 L 1743.3 1086.1 L 1741.8 1102.2 L 1740.0 1118.2 L 1737.8 1134.2 L 1735.3 1150.2 L 1732.5 1166.2 L 1729.4 1182.1 L 1725.9 1198.0 L 1722.1 1213.8 L 1717.9 1229.6 L 1713.5 1245.3 L 1708.7 1261.0 L 1703.6 1276.6 L 1698.1 1292.0 L 1692.4 1307.4 L 1686.3 1322.7 L 1679.9 1337.9 L 1673.2 1353.0 L 1666.1 1368.0 L 1658.8 1382.8 L 1651.1 1397.5 L 1643.2 1412.1 L 1634.9 1426.5 L 1626.3 1440.8 L 1617.4 1454.9 L 1608.2 1468.9 L 1598.8 1482.7 L 1589.0 1496.3 L 1578.9 1509.7 L 1568.6 1523.0 L 1557.9 1536.0 L 1547.0 1548.9 L 1535.8 1561.5 L 1524.4 1574.0 L 1512.7 1586.2 L 1500.7 1598.2 L 1488.4 1609.9 L 1475.9 1621.5 L 1463.2 1632.8 L 1450.2 1643.8 L 1436.9 1654.6 L 1423.4 1665.1 L 1409.7 1675.4 L 1395.8 1685.4 L 1381.6 1695.1 L 1367.3 1704.6 L 1352.7 1713.8 L 1337.9 1722.7 L 1322.9 1731.3 L 1307.7 1739.6 L 1292.4 1747.6 L 1276.8 1755.3 L 1261.1 1762.7 L 1245.2 1769.8 L 1229.1 1776.6 L 1212.9 1783.0 L 1196.6 1789.1 L 1180.0 1795.0 L 1163.4 1800.4 L 1146.6 1805.6 L 1129.7 1810.4 L 1112.7 1814.9 L 1095.5 1819.0 L 1078.3 1822.8 L 1061.0 1826.2 L 1043.5 1829.3 L 1026.0 1832.0 L 1008.4 1834.4 L 990.8 1836.4 L 973.0 1838.1 L 955.3 1839.4 L 937.4 1840.4 L 919.6 1841.0 L 901.7 1841.2 L 883.7 1841.1 L 865.8 1840.6 L 847.8 1839.7 L 829.9 1838.5 L 811.9 1836.9 L 794.0 1834.9 L 776.1 1832.6 L 758.2 1829.9 L 740.3 1826.8 L 722.5 1823.3 L 704.7 1819.5 L 687.0 1815.4 L 669.3 1810.8 L 651.8 1805.9 L 634.3 1800.7 L 616.9 1795.0 L 599.5 1789.1 L 582.3 1782.7 L 565.2 1776.0 L 548.2 1768.9 L 531.4 1761.5 L 514.6 1753.8 L 498.0 1745.6 L 481.6 1737.2 L 465.3 1728.4 L 449.2 1719.2 L 433.2 1709.7 L 417.4 1699.9 L 401.8 1689.8 L 386.4 1679.3" fill="none" stroke="rgb(221,221,221)" stroke-width="1.0"/>
<circle cx="960.00" cy="653.33" r="27.36" fill="rgb(80,165,40)" stroke="rgb(51,51,51)" stroke-width="3.0"/>
<circle cx="1031.27" cy="647.73" r="13.37" fill="rgb(230,175,40)" stroke="rgb(51,51,51)" stroke-width="3.0"/>
<circle cx="1104.89" cy="659.14" r="17.04" fill="rgb(240,215,50)" stroke="rgb(51,51,51)" stroke-width="3.0"/>
<circle cx="1176.70" cy="688.27" r="6.68" fill="rgb(85,45,15)" stroke="rgb(51,51,51)" stroke-width="2.0"/>
<circle cx="1242.39" cy="734.80" r="4.73" fill="rgb(45,25,10)" stroke="rgb(51,51,51)" stroke-width="2.0"/>
<circle cx="1297.70" cy="797.37" r="14.57" fill="rgb(230,175,40)" stroke="rgb(51,51,51)" stroke-width="3.0"/>
<circle cx="1365.28" cy="1052.50" r="28.36" fill="rgb(25,120,20)" stroke="rgb(51,51,51)" stroke-width="3.0"/>
<circle cx="1346.82" cy="1146.28" r="20.33" fill="rgb(165,200,50)" stroke="rgb(51,51,51)" stroke-width="3.0"/>
<circle cx="1306.32" cy="1236.18" r="6.68" fill="rgb(85,45,15)" stroke="rgb(51,51,51)" stroke-width="2.0"/>
<circle cx="1244.68" cy="1316.98" r="14.18" fill="rgb(230,175,40)" stroke="rgb(51,51,51)" stroke-width="3.0"/>
<circle cx="1164.02" cy="1383.66" r="12.50" fill="rgb(210,130,30)" stroke="rgb(51,51,51)" stroke-width="3.0"/>
<circle cx="1067.67" cy="1431.72" r="13.37" fill="rgb(230,175,40)" stroke="rgb(51,51,51)" stroke-width="3.0"/>
<circle cx="960.00" cy="1457.48" r="18.91" fill="rgb(165,200,50)" stroke="rgb(51,51,51)" stroke-width="3.0"/>
<circle cx="846.27" cy="1458.30" r="15.31" fill="rgb(240,215,50)" stroke="rgb(51,51,51)" stroke-width="3.0"/>
<circle cx="732.32" cy="1432.78" r="10.57" fill="rgb(175,95,25)" stroke="rgb(51,51,51)" stroke-width="3.0"/>
<circle cx="624.33" cy="1380.91" r="13.37" fill="rgb(230,175,40)" stroke="rgb(51,51,51)" stroke-width="3.0"/>
<circle cx="528.43" cy="1304.17" r="8.19" fill="rgb(130,70,20)" stroke="rgb(51,51,51)" stroke-width="3.0"/>
<circle cx="450.39" cy="1205.42" r="14.95" fill="rgb(240,215,50)" stroke="rgb(51,51,51)" stroke-width="3.0"/>
<circle cx="395.26" cy="1088.90" r="6.68" fill="rgb(85,45,15)" stroke="rgb(51,51,51)" stroke-width="2.0"/>
<circle cx="367.11" cy="960.00" r="11.08" fill="rgb(210,130,30)" stroke="rgb(51,51,51)" stroke-width="3.0"/>
<circle cx="368.69" cy="825.04" r="27.56" fill="rgb(25,120,20)" stroke="rgb(51,51,51)" stroke-width="3.0"/>
<circle cx="401.27" cy="690.93" r="22.91" fill="rgb(165,200,50)" stroke="rgb(51,51,51)" stroke-width="3.0"/>
<circle cx="556.35" cy="453.84" r="17.37" fill="rgb(240,215,50)" stroke="rgb(51,51,51)" stroke-width="3.0"/>
<circle cx="673.19" cy="364.43" r="10.03" fill="rgb(175,95,25)" stroke="rgb(51,51,51)" stroke-width="3.0"/>
<circle cx="809.87" cy="302.25" r="11.58" fill="rgb(210,130,30)" stroke="rgb(51,51,51)" stroke-width="3.0"/>
<circle cx="960.00" cy="271.70" r="21.40" fill="rgb(165,200,50)" stroke="rgb(51,51,51)" stroke-width="3.0"/>
<circle cx="1116.19" cy="275.67" r="7.47" fill="rgb(130,70,20)" stroke="rgb(51,51,51)" stroke-width="2.0"/>
<circle cx="1270.47" cy="315.31" r="10.03" fill="rgb(175,95,25)" stroke="rgb(51,51,51)" stroke-width="3.0"/>
<circle cx="1414.64" cy="389.90" r="10.03" fill="rgb(175,95,25)" stroke="rgb(51,51,51)" stroke-width="3.0"/>
<circle cx="1540.76" cy="496.86" r="7.47" fill="rgb(130,70,20)" stroke="rgb(51,51,51)" stroke-width="2.0"/>
<circle cx="1641.53" cy="631.79" r="5.79" fill="rgb(45,25,10)" stroke="rgb(51,51,51)" stroke-width="2.0"/>
<circle cx="1710.77" cy="788.64" r="3.34" fill="rgb(15,10,5)" stroke="rgb(51,51,51)" stroke-width="2.0"/>
<circle cx="1743.70" cy="960.00" r="25.45" fill="rgb(80,165,40)" stroke="rgb(51,51,51)" stroke-width="3.0"/>
<circle cx="1737.34" cy="1137.42" r="24.33" fill="rgb(80,165,40)" stroke="rgb(51,51,51)" stroke-width="3.0"/>
<circle cx="1690.65" cy="1311.86" r="34.41" fill="rgb(25,120,20)" stroke="rgb(51,51,51)" stroke-width="3.0"/>
<circle cx="1604.69" cy="1474.13" r="14.18" fill="rgb(230,175,40)" stroke="rgb(51,51,51)" stroke-width="3.0"/>
<circle cx="1482.62" cy="1615.35" r="9.45" fill="rgb(130,70,20)" stroke="rgb(51,51,51)" stroke-width="3.0"/>
<circle cx="1329.60" cy="1727.49" r="25.67" fill="rgb(80,165,40)" stroke="rgb(51,51,51)" stroke-width="3.0"/>
<circle cx="1152.59" cy="1803.78" r="11.08" fill="rgb(210,130,30)" stroke="rgb(51,51,51)" stroke-width="3.0"/>
<circle cx="960.00" cy="1839.11" r="27.76" fill="rgb(25,120,20)" stroke="rgb(51,51,51)" stroke-width="3.0"/>
<circle cx="761.35" cy="1830.36" r="29.89" fill="rgb(25,120,20)" stroke="rgb(51,51,51)" stroke-width="3.0"/>
<circle cx="566.74" cy="1776.61" r="7.47" fill="rgb(130,70,20)" stroke="rgb(51,51,51)" stroke-width="2.0"/>
<circle cx="386.39" cy="1679.28" r="6.68" fill="rgb(85,45,15)" stroke="rgb(51,51,51)" stroke-width="2.0"/>
<text x="960.00" y="621.98" fill="rgb(34,34,34)" font-size="12.0" font-family="sans-serif" text-anchor="start" dominant-baseline="central">Apr 4</text>
<text x="960.00" y="246.30" fill="rgb(34,34,34)" font-size="12.0" font-family="sans-serif" text-anchor="start" dominant-baseline="central" transform="rotate(360.00 960.00 246.30)">May 2</text>
<rect x="1754.00" y="1553.00" width="150.00" height="351.00" fill="rgba(255,255,255,0.902)" stroke="rgba(153,153,153,0.800)" stroke-width="1.0"/>
<text x="1766.00" y="1578.00" fill="rgb(38,38,38)" font-size="13.0" font-family="sans-serif" text-anchor="start" dominant-baseline="central">Fill: commit-count</text>
<rect x="1766.00" y="1584.00" width="28.00" height="28.00" fill="rgb(15,10,5)" stroke="rgb(102,102,102)" stroke-width="0.5"/>
<text x="1800.00" y="1612.00" fill="rgb(51,51,51)" font-size="12.0" font-family="sans-serif" text-anchor="start" dominant-baseline="central">2</text>
<rect x="1766.00" y="1612.00" width="28.00" height="28.00" fill="rgb(45,25,10)" stroke="rgb(102,102,102)" stroke-width="0.5"/>
<text x="1800.00" y="1640.00" fill="rgb(51,51,51)" font-size="12.0" font-family="sans-serif" text-anchor="start" dominant-baseline="central">4</text>
<rect x="1766.00" y="1640.00" width="28.00" height="28.00" fill="rgb(85,45,15)" stroke="rgb(102,102,102)" stroke-width="0.5"/>
<text x="1800.00" y="1668.00" fill="rgb(51,51,51)" font-size="12.0" font-family="sans-serif" text-anchor="start" dominant-baseline="central">5</text>
<rect x="1766.00" y="1668.00" width="28.00" height="28.00" fill="rgb(130,70,20)" stroke="rgb(102,102,102)" stroke-width="0.5"/>
<text x="1800.00" y="1696.00" fill="rgb(51,51,51)" font-size="12.0" font-family="sans-serif" text-anchor="start" dominant-baseline="central">9</text>
<rect x="1766.00" y="1696.00" width="28.00" height="28.00" fill="rgb(175,95,25)" stroke="rgb(102,102,102)" stroke-width="0.5"/>
<text x="1800.00" y="1724.00" fill="rgb(51,51,51)" font-size="12.0" font-family="sans-serif" text-anchor="start" dominant-baseline="central">11</text>
<rect x="1766.00" y="1724.00" width="28.00" height="28.00" fill="rgb(210,130,30)" stroke="rgb(102,102,102)" stroke-width="0.5"/>
<text x="1800.00" y="1752.00" fill="rgb(51,51,51)" font-size="12.0" font-family="sans-serif" text-anchor="start" dominant-baseline="central">16</text>
<rect x="1766.00" y="1752.00" width="28.00" height="28.00" fill="rgb(230,175,40)" stroke="rgb(102,102,102)" stroke-width="0.5"/>
<text x="1800.00" y="1780.00" fill="rgb(51,51,51)" font-size="12.0" font-family="sans-serif" text-anchor="start" dominant-baseline="central">20</text>
<rect x="1766.00" y="1780.00" width="28.00" height="28.00" fill="rgb(240,215,50)" stroke="rgb(102,102,102)" stroke-width="0.5"/>
<text x="1800.00" y="1808.00" fill="rgb(51,51,51)" font-size="12.0" font-family="sans-serif" text-anchor="start" dominant-baseline="central">32</text>
<rect x="1766.00" y="1808.00" width="28.00" height="28.00" fill="rgb(165,200,50)" stroke="rgb(102,102,102)" stroke-width="0.5"/>
<text x="1800.00" y="1836.00" fill="rgb(51,51,51)" font-size="12.0" font-family="sans-serif" text-anchor="start" dominant-baseline="central">53</text>
<rect x="1766.00" y="1836.00" width="28.00" height="28.00" fill="rgb(80,165,40)" stroke="rgb(102,102,102)" stroke-width="0.5"/>
<text x="1800.00" y="1864.00" fill="rgb(51,51,51)" font-size="12.0" font-family="sans-serif" text-anchor="start" dominant-baseline="central">68</text>
<rect x="1766.00" y="1864.00" width="28.00" height="28.00" fill="rgb(25,120,20)" stroke="rgb(102,102,102)" stroke-width="0.5"/>
</svg>
