<svg xmlns="http://www.w3.org/2000/svg" width="1920" height="1920">
<rect x="0.00" y="0.00" width="1920.00" height="1920.00" fill="rgb(255,255,255)" stroke="rgb(255,255,255)" stroke-width="0.0"/>
<path d="M 960.0 653.3 L 966.6 652.2 L 973.3 651.2 L 980.1 650.3 L 986.9 649.6 L 993.7 649.0 L 1000.6 648.6 L 1007.5 648.3 L 1014.4 648.2 L 1021.3 648.2 L 1028.3 648.4 L 1035.3 648.8 L 1042.3 649.3 L 1049.4 650.0 L 1056.4 650.8 L 1063.4 651.8 L 1070.5 652.9 L 1077.5 654.2 L 1084.6 655.7 L 1091.6 657.3 L 1098.6 659.1 L 1105.6 661.1 L 1112.6 663.2 L 1119.5 665.5 L 1126.5 667.9 L 1133.4 670.6 L 1140.2 673.3 L 1147.0 676.2 L 1153.8 679.3 L 1160.6 682.6 L 1167.2 686.0 L 1173.9 689.6 L 1180.4 693.3 L 1186.9 697.2 L 1193.4 701.2 L 1199.8 705.5 L 1206.1 709.8 L 1212.3 714.3 L 1218.4 719.0 L 1224.5 723.8 L 1230.5 728.8 L 1236.3 733.9 L 1242.1 739.1 L 1247.8 744.5 L 1253.4 750.1 L 1258.9 755.8 L 1264.2 761.6 L 1269.5 767.6 L 1274.6 773.7 L 1279.6 779.9 L 1284.5 786.3 L 1289.3 792.7 L 1294.0 799.4 L 1298.5 806.1 L 1302.8 813.0 L 1307.1 819.9 L 1311.2 827.0 L 1315.1 834.2 L 1318.9 841.5 L 1322.6 848.9 L 1326.1 856.5 L 1329.4 864.1 L 1332.6 871.8 L 1335.6 879.6 L 1338.4 887.5 L 1341.1 895.5 L 1343.7 903.5 L 1346.0 911.7 L 1348.2 919.9 L 1350.2 928.2 L 1352.0 936.5 L 1353.6 944.9 L 1355.1 953.4 L 1356.4 962.0 L 1357.5 970.5 L 1358.4 979.2 L 1359.1 987.9 L 1359.6 996.6 L 1360.0 1005.3 L 1360.1 1014.1 L 1360.1 1022.9 L 1359.8 1031.8 L 1359.4 1040.6 L 1358.8 1049.5 L 1357.9 1058.4 L 1356.9 1067.3 L 1355.7 1076.2 L 1354.2 1085.0 L 1352.6 1093.9 L 1350.8 1102.8 L 1348.8 1111.6 L 1346.5 1120.5 L 1344.1 1129.3 L 1341.5 1138.0 L 1338.6 1146.8 L 1335.6 1155.5 L 1332.4 1164.1 L 1329.0 1172.7 L 1325.3 1181.3 L 1321.5 1189.8 L 1317.5 1198.2 L 1313.3 1206.6 L 1308.9 1214.9 L 1304.3 1223.1 L 1299.5 1231.2 L 1294.5 1239.3 L 1289.3 1247.2 L 1283.9 1255.1 L 1278.4 1262.9 L 1272.6 1270.5 L 1266.7 1278.1 L 1260.6 1285.5 L 1254.3 1292.9 L 1247.9 1300.1 L 1241.2 1307.2 L 1234.4 1314.1 L 1227.4 1321.0 L 1220.3 1327.7 L 1213.0 1334.2 L 1205.5 1340.6 L 1197.9 1346.9 L 1190.1 1353.0 L 1182.2 1358.9 L 1174.1 1364.7 L 1165.9 1370.3 L 1157.5 1375.8 L 1149.0 1381.1 L 1140.3 1386.2 L 1131.5 1391.1 L 1122.6 1395.9 L 1113.6 1400.5 L 1104.4 1404.8 L 1095.1 1409.0 L 1085.7 1413.0 L 1076.2 1416.8 L 1066.6 1420.4 L 1056.9 1423.8 L 1047.1 1427.0 L 1037.2 1430.0 L 1027.2 1432.8 L 1017.1 1435.3 L 1007.0 1437.7 L 996.8 1439.8 L 986.5 1441.7 L 976.1 1443.4 L 965.7 1444.9 L 955.2 1446.1 L 944.7 1447.1 L 934.1 1447.9 L 923.5 1448.4 L 912.8 1448.8 L 902.1 1448.9 L 891.4 1448.7 L 880.7 1448.3 L 870.0 1447.7 L 859.2 1446.9 L 848.4 1445.8 L 837.7 1444.4 L 826.9 1442.9 L 816.2 1441.1 L 805.5 1439.0 L 794.7 1436.7 L 784.1 1434.2 L 773.4 1431.4 L 762.8 1428.4 L 752.2 1425.2 L 741.7 1421.7 L 731.3 1418.0 L 720.9 1414.0 L 710.5 1409.8 L 700.3 1405.4 L 690.1 1400.8 L 679.9 1395.9 L 669.9 1390.7 L 660.0 1385.4 L 650.1 1379.8 L 640.4 1374.0 L 630.8 1367.9 L 621.2 1361.7 L 611.8 1355.2 L 602.6 1348.5 L 593.4 1341.6 L 584.4 1334.4 L 575.5 1327.1 L 566.8 1319.5 L 558.2 1311.8 L 549.7 1303.8 L 541.4 1295.6 L 533.3 1287.3 L 525.4 1278.7 L 517.6 1270.0 L 510.0 1261.0 L 502.5 1251.9 L 495.3 1242.6 L 488.2 1233.1 L 481.4 1223.5 L 474.7 1213.6 L 468.3 1203.7 L 462.0 1193.5 L 455.9 1183.2 L 450.1 1172.7 L 444.5 1162.1 L 439.1 1151.4 L 433.9 1140.5 L 429.0 1129.5 L 424.3 1118.3 L 419.8 1107.1 L 415.5 1095.7 L 411.5 1084.1 L 407.8 1072.5 L 404.3 1060.8 L 401.0 1049.0 L 398.0 1037.1 L 395.3 1025.0 L 392.8 1013.0 L 390.5 1000.8 L 388.6 988.5 L 386.8 976.2 L 385.4 963.9 L 384.2 951.5 L 383.3 939.0 L 382.7 926.5 L 382.3 913.9 L 382.2 901.3 L 382.4 888.7 L 382.8 876.1 L 383.6 863.5 L 384.6 850.8 L 385.9 838.2 L 387.4 825.5 L 389.3 812.9 L 391.4 800.3 L 393.8 787.7 L 396.5 775.1 L 399.5 762.6 L 402.7 750.1 L 406.2 737.7 L 410.0 725.3 L 414.1 713.0 L 418.4 700.7 L 423.1 688.5 L 428.0 676.4 L 433.1 664.4 L 438.6 652.5 L 444.3 640.6 L 450.3 628.9 L 456.5 617.3 L 463.1 605.8 L 469.8 594.4 L 476.9 583.2 L 484.2 572.1 L 491.7 561.1 L 499.5 550.2 L 507.6 539.6 L 515.9 529.0 L 524.4 518.7 L 533.2 508.5 L 542.2 498.5 L 551.5 488.6 L 560.9 479.0 L 570.6 469.5 L 580.6 460.2 L 590.7 451.2 L 601.1 442.3 L 611.7 433.7 L 622.5 425.2 L 633.5 417.0 L 644.6 409.0 L 656.0 401.3 L 667.6 393.7 L 679.3 386.5 L 691.3 379.4 L 703.4 372.6 L 715.6 366.1 L 728.1 359.8 L 740.7 353.8 L 753.4 348.0 L 766.3 342.5 L 779.3 337.3 L 792.5 332.4 L 805.8 327.7 L 819.2 323.3 L 832.7 319.2 L 846.4 315.4 L 860.1 311.9 L 874.0 308.7 L 887.9 305.8 L 902.0 303.1 L 916.1 300.8 L 930.2 298.8 L 944.5 297.1 L 958.8 295.7 L 973.2 294.6 L 987.6 293.8 L 1002.0 293.3 L 1016.5 293.1 L 1031.0 293.3 L 1045.6 293.8 L 1060.1 294.5 L 1074.6 295.6 L 1089.2 297.1 L 1103.7 298.8 L 1118.3 300.9 L 1132.8 303.3 L 1147.2 306.0 L 1161.7 309.0 L 1176.1 312.3 L 1190.4 316.0 L 1204.7 319.9 L 1218.9 324.2 L 1233.1 328.8 L 1247.1 333.8 L 1261.1 339.0 L 1275.0 344.6 L 1288.8 350.4 L 1302.5 356.6 L 1316.1 363.1 L 1329.5 369.8 L 1342.9 376.9 L 1356.0 384.3 L 1369.1 392.0 L 1382.0 400.0 L 1394.7 408.3 L 1407.3 416.8 L 1419.8 425.7 L 1432.0 434.8 L 1444.1 444.2 L 1456.0 453.9 L 1467.6 463.9 L 1479.1 474.1 L 1490.4 484.6 L 1501.5 495.4 L 1512.3 506.4 L 1523.0 517.6 L 1533.4 529.2 L 1543.5 540.9 L 1553.4 552.9 L 1563.1 565.1 L 1572.5 577.6 L 1581.7 590.3 L 1590.6 603.2 L 1599.3 616.3 L 1607.6 629.6 L 1615.7 643.1 L 1623.5 656.9 L 1631.0 670.8 L 1638.3 684.8 L 1645.2 699.1 L 1651.8 713.5 L 1658.1 728.2 L 1664.2 742.9 L 1669.9 757.8 L 1675.2 772.9 L 1680.3 788.1 L 1685.1 803.4 L 1689.5 818.9 L 1693.6 834.4 L 1697.3 850.1 L 1700.7 865.9 L 1703.8 881.8 L 1706.6 897.7 L 1709.0 913.8 L 1711.0 929.9 L 1712.7 946.1 L 1714.1 962.4 L 1715.1 978.7 L 1715.7 995.0 L 1716.0 1011.4 L 1715.9 1027.8 L 1715.5 1044.3 L 1714.8 1060.7 L 1713.6 1077.2 L 1712.1 1093.6 L 1710.3 1110.1 L 1708.1 1126.5 L 1705.5 1142.9 L 1702.5 1159.3 L 1699.3 1175.6 L 1695.6 1191.9 L 1691.6 1208.1 L 1687.2 1224.2 L 1682.5 1240.3 L 1677.4 1256.3 L 1672.0 1272.2 L 1666.2 1288.0 L 1660.0 1303.7 L 1653.5 1319.3 L 1646.7 1334.8 L 1639.5 1350.2 L 1632.0 1365.4 L 1624.1 1380.4 L 1615.9 1395.3 L 1607.4 1410.1 L 1598.5 1424.7 L 1589.3 1439.1 L 1579.8 1453.4 L 1569.9 1467.4 L 1559.8 1481.3 L 1549.3 1494.9 L 1538.5 1508.3 L 1527.4 1521.6 L 1516.0 1534.6 L 1504.3 1547.3 L 1492.3 1559.9 L 1480.0 1572.2 L 1467.5 1584.2 L 1454.7 1596.0 L 1441.5 1607.5 L 1428.2 1618.7 L 1414.5 1629.7 L 1400.6 1640.4 L 1386.5 1650.8 L 1372.1 1660.9 L 1357.5 1670.7 L 1342.6 1680.2 L 1327.6 1689.4 L 1312.3 1698.2 L 1296.7 1706.8 L 1281.0 1715.0 L 1265.1 1722.9 L 1249.0 1730.5 L 1232.7 1737.7 L 1216.2 1744.6 L 1199.6 1751.1 L 1182.8 1757.3 L 1165.9 1763.1 L 1148.8 1768.5 L 1131.5 1773.6 L 1114.1 1778.3 L 1096.6 1782.7 L 1079.0 1786.7 L 1061.3 1790.3 L 1043.5 1793.5 L 1025.6 1796.3 L 1007.6 1798.8 L 989.5 1800.8 L 971.4 1802.5 L 953.2 1803.8 L 934.9 1804.7 L 916.6 1805.1 L 898.3 1805.2 L 880.0 1804.9 L 861.6 1804.2 L 843.2 1803.1 L 824.9 1801.6 L 806.5 1799.7 L 788.2 1797.4 L 769.9 1794.7 L 751.6 1791.6 L 733.4 1788.1 L 715.2 1784.2 L 697.1 1779.9 L 679.1 1775.2 L 661.1 1770.1 L 643.2 1764.6 L 625.5 1758.7 L 607.8 1752.4 L 590.3 1745.7 L 572.9 1738.7 L 555.6 1731.2 L 538.4 1723.4 L 521.4 1715.2 L 504.6 1706.6 L 487.9 1697.6 L 471.4 1688.3 L 455.1 1678.6 L 439.0 1668.5 L 423.1 1658.1 L 407.4 1647.3 L 391.9 1636.1 L 376.6 1624.6 L 361.6 1612.8 L 346.8 1600.6 L 332.2 1588.1 L 317.9 1575.2 L 303.9 1562.1 L 290.1 1548.6 L 276.6 1534.8 L 263.4 1520.7 L 250.5 1506.2 L 237.9 1491.5 L 225.6 1476.5 L 213.6 1461.2 L 201.9 1445.7 L 190.5 1429.8 L 179.5 1413.7 L 168.8 1397.4 L 158.5 1380.8 L 148.5 1363.9 L 138.8 1346.8 L 129.6 1329.5 L 120.7 1312.0 L 112.1 1294.2 L 103.9 1276.3 L 96.1 1258.1 L 88.7 1239.8 L 81.7 1221.3 L 75.1 1202.6 L 68.9 1183.7 L 63.1 1164.7" fill="none" stroke="rgb(221,221,221)" stroke-width="1.0"/>
<circle cx="960.00" cy="653.33" r="27.23" fill="rgb(80,165,40)" stroke="rgb(51,51,51)" stroke-width="3.0"/>
<circle cx="1031.08" cy="648.56" r="13.31" fill="rgb(230,175,40)" stroke="rgb(51,51,51)" stroke-width="3.0"/>
<circle cx="1104.15" cy="660.68" r="16.96" fill="rgb(240,215,50)" stroke="rgb(51,51,51)" stroke-width="3.0"/>
<circle cx="1175.10" cy="690.27" r="6.65" fill="rgb(85,45,15)" stroke="rgb(51,51,51)" stroke-width="2.0"/>
<circle cx="1239.72" cy="736.93" r="4.70" fill="rgb(45,25,10)" stroke="rgb(51,51,51)" stroke-width="2.0"/>
<circle cx="1293.86" cy="799.22" r="14.50" fill="rgb(230,175,40)" stroke="rgb(51,51,51)" stroke-width="3.0"/>
<circle cx="1358.64" cy="1050.99" r="28.22" fill="rgb(25,120,20)" stroke="rgb(51,51,51)" stroke-width="3.0"/>
<circle cx="1339.91" cy="1142.95" r="20.23" fill="rgb(165,200,50)" stroke="rgb(51,51,51)" stroke-width="3.0"/>
<circle cx="1299.66" cy="1230.87" r="6.65" fill="rgb(85,45,15)" stroke="rgb(51,51,51)" stroke-width="2.0"/>
<circle cx="1238.84" cy="1309.65" r="14.11" fill="rgb(230,175,40)" stroke="rgb(51,51,51)" stroke-width="3.0"/>
<circle cx="1159.59" cy="1374.45" r="12.45" fill="rgb(210,130,30)" stroke="rgb(51,51,51)" stroke-width="3.0"/>
<circle cx="1065.20" cy="1420.92" r="13.31" fill="rgb(230,175,40)" stroke="rgb(51,51,51)" stroke-width="3.0"/>
<circle cx="960.00" cy="1445.56" r="19.68" fill="rgb(165,200,50)" stroke="rgb(51,51,51)" stroke-width="3.0"/>
<circle cx="849.11" cy="1445.84" r="15.24" fill="rgb(240,215,50)" stroke="rgb(51,51,51)" stroke-width="3.0"/>
<circle cx="738.24" cy="1420.50" r="10.52" fill="rgb(130,70,20)" stroke="rgb(51,51,51)" stroke-width="3.0"/>
<circle cx="633.36" cy="1369.59" r="13.31" fill="rgb(230,175,40)" stroke="rgb(51,51,51)" stroke-width="3.0"/>
<circle cx="540.42" cy="1294.61" r="8.15" fill="rgb(85,45,15)" stroke="rgb(51,51,51)" stroke-width="3.0"/>
<circle cx="464.97" cy="1198.40" r="14.88" fill="rgb(230,175,40)" stroke="rgb(51,51,51)" stroke-width="3.0"/>
<circle cx="411.87" cy="1085.11" r="6.65" fill="rgb(85,45,15)" stroke="rgb(51,51,51)" stroke-width="2.0"/>
<circle cx="385.00" cy="960.00" r="11.03" fill="rgb(175,95,25)" stroke="rgb(51,51,51)" stroke-width="3.0"/>
<circle cx="386.96" cy="829.21" r="27.43" fill="rgb(25,120,20)" stroke="rgb(51,51,51)" stroke-width="3.0"/>
<circle cx="418.92" cy="699.43" r="23.05" fill="rgb(165,200,50)" stroke="rgb(51,51,51)" stroke-width="3.0"/>
<circle cx="569.63" cy="470.49" r="17.28" fill="rgb(240,215,50)" stroke="rgb(51,51,51)" stroke-width="3.0"/>
<circle cx="682.80" cy="384.38" r="9.98" fill="rgb(130,70,20)" stroke="rgb(51,51,51)" stroke-width="3.0"/>
<circle cx="814.99" cy="324.67" r="11.52" fill="rgb(175,95,25)" stroke="rgb(51,51,51)" stroke-width="3.0"/>
<circle cx="960.00" cy="295.56" r="21.30" fill="rgb(165,200,50)" stroke="rgb(51,51,51)" stroke-width="3.0"/>
<circle cx="1110.70" cy="299.76" r="7.44" fill="rgb(85,45,15)" stroke="rgb(51,51,51)" stroke-width="2.0"/>
<circle cx="1259.38" cy="338.33" r="9.98" fill="rgb(130,70,20)" stroke="rgb(51,51,51)" stroke-width="3.0"/>
<circle cx="1398.17" cy="410.55" r="9.98" fill="rgb(130,70,20)" stroke="rgb(51,51,51)" stroke-width="3.0"/>
<circle cx="1519.44" cy="513.86" r="7.44" fill="rgb(85,45,15)" stroke="rgb(51,51,51)" stroke-width="2.0"/>
<circle cx="1616.21" cy="643.99" r="5.76" fill="rgb(45,25,10)" stroke="rgb(51,51,51)" stroke-width="2.0"/>
<circle cx="1682.53" cy="795.09" r="3.33" fill="rgb(15,10,5)" stroke="rgb(51,51,51)" stroke-width="2.0"/>
<circle cx="1713.89" cy="960.00" r="25.33" fill="rgb(80,165,40)" stroke="rgb(51,51,51)" stroke-width="3.0"/>
<circle cx="1707.44" cy="1130.60" r="24.22" fill="rgb(80,165,40)" stroke="rgb(51,51,51)" stroke-width="3.0"/>
<circle cx="1662.26" cy="1298.19" r="34.41" fill="rgb(25,120,20)" stroke="rgb(51,51,51)" stroke-width="3.0"/>
<circle cx="1579.38" cy="1453.94" r="14.11" fill="rgb(230,175,40)" stroke="rgb(51,51,51)" stroke-width="3.0"/>
<circle cx="1461.91" cy="1589.37" r="9.41" fill="rgb(85,45,15)" stroke="rgb(51,51,51)" stroke-width="3.0"/>
<circle cx="1314.82" cy="1696.79" r="25.55" fill="rgb(80,165,40)" stroke="rgb(51,51,51)" stroke-width="3.0"/>
<circle cx="1144.82" cy="1769.73" r="11.03" fill="rgb(175,95,25)" stroke="rgb(51,51,51)" stroke-width="3.0"/>
<circle cx="960.00" cy="1803.33" r="27.63" fill="rgb(25,120,20)" stroke="rgb(51,51,51)" stroke-width="3.0"/>
<circle cx="769.50" cy="1794.65" r="29.75" fill="rgb(25,120,20)" stroke="rgb(51,51,51)" stroke-width="3.0"/>
<circle cx="583.00" cy="1742.84" r="12.45" fill="rgb(210,130,30)" stroke="rgb(51,51,51)" stroke-width="3.0"/>
<circle cx="410.29" cy="1649.31" r="21.81" fill="rgb(165,200,50)" stroke="rgb(51,51,51)" stroke-width="3.0"/>
<circle cx="260.70" cy="1517.68" r="12.88" fill="rgb(210,130,30)" stroke="rgb(51,51,51)" stroke-width="3.0"/>
<circle cx="142.62" cy="1353.63" r="19.40" fill="rgb(240,215,50)" stroke="rgb(51,51,51)" stroke-width="3.0"/>
<circle cx="63.07" cy="1164.72" r="11.03" fill="rgb(175,95,25)" stroke="rgb(51,51,51)" stroke-width="3.0"/>
<text x="960.00" y="622.11" fill="rgb(34,34,34)" font-size="12.0" font-family="sans-serif" text-anchor="start" dominant-baseline="central">Apr 4</text>
<text x="960.00" y="270.26" fill="rgb(34,34,34)" font-size="12.0" font-family="sans-serif" text-anchor="start" dominant-baseline="central" transform="rotate(360.00 960.00 270.26)">May 2</text>
<rect x="1754.00" y="1553.00" width="150.00" height="351.00" fill="rgba(255,255,255,0.902)" stroke="rgba(153,153,153,0.800)" stroke-width="1.0"/>
<text x="1766.00" y="1578.00" fill="rgb(38,38,38)" font-size="13.0" font-family="sans-serif" text-anchor="start" dominant-baseline="central">Fill: commit-count</text>
<rect x="1766.00" y="1584.00" width="28.00" height="28.00" fill="rgb(15,10,5)" stroke="rgb(102,102,102)" stroke-width="0.5"/>
<text x="1800.00" y="1612.00" fill="rgb(51,51,51)" font-size="12.0" font-family="sans-serif" text-anchor="start" dominant-baseline="central">2</text>
<rect x="1766.00" y="1612.00" width="28.00" height="28.00" fill="rgb(45,25,10)" stroke="rgb(102,102,102)" stroke-width="0.5"/>
<text x="1800.00" y="1640.00" fill="rgb(51,51,51)" font-size="12.0" font-family="sans-serif" text-anchor="start" dominant-baseline="central">4</text>
<rect x="1766.00" y="1640.00" width="28.00" height="28.00" fill="rgb(85,45,15)" stroke="rgb(102,102,102)" stroke-width="0.5"/>
<text x="1800.00" y="1668.00" fill="rgb(51,51,51)" font-size="12.0" font-family="sans-serif" text-anchor="start" dominant-baseline="central">9</text>
<rect x="1766.00" y="1668.00" width="28.00" height="28.00" fill="rgb(130,70,20)" stroke="rgb(102,102,102)" stroke-width="0.5"/>
<text x="1800.00" y="1696.00" fill="rgb(51,51,51)" font-size="12.0" font-family="sans-serif" text-anchor="start" dominant-baseline="central">11</text>
<rect x="1766.00" y="1696.00" width="28.00" height="28.00" fill="rgb(175,95,25)" stroke="rgb(102,102,102)" stroke-width="0.5"/>
<text x="1800.00" y="1724.00" fill="rgb(51,51,51)" font-size="12.0" font-family="sans-serif" text-anchor="start" dominant-baseline="central">14</text>
<rect x="1766.00" y="1724.00" width="28.00" height="28.00" fill="rgb(210,130,30)" stroke="rgb(102,102,102)" stroke-width="0.5"/>
<text x="1800.00" y="1752.00" fill="rgb(51,51,51)" font-size="12.0" font-family="sans-serif" text-anchor="start" dominant-baseline="central">16</text>
<rect x="1766.00" y="1752.00" width="28.00" height="28.00" fill="rgb(230,175,40)" stroke="rgb(102,102,102)" stroke-width="0.5"/>
<text x="1800.00" y="1780.00" fill="rgb(51,51,51)" font-size="12.0" font-family="sans-serif" text-anchor="start" dominant-baseline="central">21</text>
<rect x="1766.00" y="1780.00" width="28.00" height="28.00" fill="rgb(240,215,50)" stroke="rgb(102,102,102)" stroke-width="0.5"/>
<text x="1800.00" y="1808.00" fill="rgb(51,51,51)" font-size="12.0" font-family="sans-serif" text-anchor="start" dominant-baseline="central">35</text>
<rect x="1766.00" y="1808.00" width="28.00" height="28.00" fill="rgb(165,200,50)" stroke="rgb(102,102,102)" stroke-width="0.5"/>
<text x="1800.00" y="1836.00" fill="rgb(51,51,51)" font-size="12.0" font-family="sans-serif" text-anchor="start" dominant-baseline="central">53</text>
<rect x="1766.00" y="1836.00" width="28.00" height="28.00" fill="rgb(80,165,40)" stroke="rgb(102,102,102)" stroke-width="0.5"/>
<text x="1800.00" y="1864.00" fill="rgb(51,51,51)" font-size="12.0" font-family="sans-serif" text-anchor="start" dominant-baseline="central">68</text>
<rect x="1766.00" y="1864.00" width="28.00" height="28.00" fill="rgb(25,120,20)" stroke="rgb(102,102,102)" stroke-width="0.5"/>
</svg>
