<svg xmlns="http://www.w3.org/2000/svg" width="1920" height="1080">
<rect x="0.00" y="0.00" width="1920.00" height="1080.00" fill="rgb(255,255,255)" stroke="rgb(255,255,255)" stroke-width="0.0"/>
<circle cx="740.72" cy="540.00" r="307.21" fill="rgba(102,153,204,0.188)" stroke="rgb(51,51,51)" stroke-width="0.5"/>
<circle cx="1268.23" cy="540.00" r="218.27" fill="rgba(102,153,204,0.188)" stroke="rgb(51,51,51)" stroke-width="0.5"/>
<circle cx="1256.10" cy="540.00" r="192.64" fill="rgba(102,153,204,0.188)" stroke="rgb(51,51,51)" stroke-width="0.5"/>
<circle cx="1203.86" cy="540.00" r="126.90" fill="rgba(102,153,204,0.188)" stroke="rgb(51,51,51)" stroke-width="0.5"/>
<circle cx="702.90" cy="549.58" r="122.74" fill="rgba(102,153,204,0.188)" stroke="rgb(51,51,51)" stroke-width="0.5"/>
<circle cx="930.92" cy="549.58" r="103.26" fill="rgba(102,153,204,0.188)" stroke="rgb(51,51,51)" stroke-width="0.5"/>
<circle cx="835.16" cy="369.42" r="98.73" fill="rgba(102,153,204,0.188)" stroke="rgb(51,51,51)" stroke-width="0.5"/>
<circle cx="687.87" cy="549.58" r="94.20" fill="rgba(102,153,204,0.188)" stroke="rgb(51,51,51)" stroke-width="0.5"/>
<circle cx="1063.12" cy="316.51" r="83.05" fill="rgba(102,153,204,0.188)" stroke="rgb(51,51,51)" stroke-width="0.5"/>
<circle cx="1063.12" cy="316.51" r="69.54" fill="rgba(102,153,204,0.188)" stroke="rgb(51,51,51)" stroke-width="0.5"/>
<circle cx="831.13" cy="670.55" r="51.53" fill="rgba(102,153,204,0.188)" stroke="rgb(51,51,51)" stroke-width="0.5"/>
<circle cx="1384.01" cy="540.00" r="51.23" fill="rgba(102,153,204,0.188)" stroke="rgb(51,51,51)" stroke-width="0.5"/>
<circle cx="800.28" cy="369.42" r="50.35" fill="rgba(102,153,204,0.188)" stroke="rgb(51,51,51)" stroke-width="0.5"/>
<circle cx="687.09" cy="377.98" r="47.56" fill="rgba(102,153,204,0.188)" stroke="rgb(51,51,51)" stroke-width="0.5"/>
<circle cx="656.60" cy="563.21" r="46.59" fill="rgba(102,153,204,0.188)" stroke="rgb(51,51,51)" stroke-width="0.5"/>
<circle cx="598.35" cy="414.22" r="46.27" fill="rgba(102,153,204,0.188)" stroke="rgb(51,51,51)" stroke-width="0.5"/>
<circle cx="1056.85" cy="701.79" r="45.89" fill="rgba(102,153,204,0.188)" stroke="rgb(51,51,51)" stroke-width="0.5"/>
<circle cx="544.89" cy="489.70" r="44.21" fill="rgba(102,153,204,0.188)" stroke="rgb(51,51,51)" stroke-width="0.5"/>
<circle cx="537.72" cy="578.59" r="42.94" fill="rgba(102,153,204,0.188)" stroke="rgb(51,51,51)" stroke-width="0.5"/>
<circle cx="576.16" cy="653.14" r="38.90" fill="rgba(102,153,204,0.188)" stroke="rgb(51,51,51)" stroke-width="0.5"/>
<circle cx="640.08" cy="700.22" r="38.46" fill="rgba(102,153,204,0.188)" stroke="rgb(51,51,51)" stroke-width="0.5"/>
<circle cx="909.75" cy="560.81" r="37.22" fill="rgba(102,153,204,0.188)" stroke="rgb(51,51,51)" stroke-width="0.5"/>
<circle cx="716.36" cy="710.23" r="36.45" fill="rgba(102,153,204,0.188)" stroke="rgb(51,51,51)" stroke-width="0.5"/>
<circle cx="671.81" cy="769.03" r="35.29" fill="rgba(102,153,204,0.188)" stroke="rgb(51,51,51)" stroke-width="0.5"/>
<circle cx="984.26" cy="560.81" r="35.26" fill="rgba(102,153,204,0.188)" stroke="rgb(51,51,51)" stroke-width="0.5"/>
<circle cx="948.93" cy="497.81" r="34.95" fill="rgba(102,153,204,0.188)" stroke="rgb(51,51,51)" stroke-width="0.5"/>
<circle cx="570.44" cy="728.54" r="34.69" fill="rgba(102,153,204,0.188)" stroke="rgb(51,51,51)" stroke-width="0.5"/>
<circle cx="886.52" cy="369.42" r="33.87" fill="rgba(102,153,204,0.188)" stroke="rgb(51,51,51)" stroke-width="0.5"/>
<circle cx="953.41" cy="270.95" r="33.72" fill="rgba(102,153,204,0.188)" stroke="rgb(51,51,51)" stroke-width="0.5"/>
<circle cx="503.92" cy="647.24" r="31.56" fill="rgba(102,153,204,0.188)" stroke="rgb(51,51,51)" stroke-width="0.5"/>
<circle cx="478.62" cy="530.20" r="31.43" fill="rgba(102,153,204,0.188)" stroke="rgb(51,51,51)" stroke-width="0.5"/>
<circle cx="735.94" cy="563.21" r="30.73" fill="rgba(102,153,204,0.188)" stroke="rgb(51,51,51)" stroke-width="0.5"/>
<circle cx="654.23" cy="563.21" r="30.72" fill="rgba(102,153,204,0.188)" stroke="rgb(51,51,51)" stroke-width="0.5"/>
<circle cx="710.54" cy="505.03" r="30.72" fill="rgba(102,153,204,0.188)" stroke="rgb(51,51,51)" stroke-width="0.5"/>
<circle cx="521.93" cy="418.82" r="28.27" fill="rgba(102,153,204,0.188)" stroke="rgb(51,51,51)" stroke-width="0.5"/>
<circle cx="620.52" cy="344.38" r="24.99" fill="rgba(102,153,204,0.188)" stroke="rgb(51,51,51)" stroke-width="0.5"/>
<circle cx="888.01" cy="501.36" r="24.06" fill="rgba(102,153,204,0.188)" stroke="rgb(51,51,51)" stroke-width="0.5"/>
<circle cx="730.56" cy="768.44" r="21.43" fill="rgba(102,153,204,0.188)" stroke="rgb(51,51,51)" stroke-width="0.5"/>
<circle cx="953.41" cy="270.95" r="20.22" fill="rgba(102,153,204,0.188)" stroke="rgb(51,51,51)" stroke-width="0.5"/>
<circle cx="707.91" cy="605.02" r="17.58" fill="rgba(102,153,204,0.188)" stroke="rgb(51,51,51)" stroke-width="0.5"/>
<circle cx="903.16" cy="258.09" r="16.12" fill="rgba(102,153,204,0.188)" stroke="rgb(51,51,51)" stroke-width="0.5"/>
<circle cx="733.59" cy="563.51" r="14.85" fill="rgba(102,153,204,0.188)" stroke="rgb(51,51,51)" stroke-width="0.5"/>
<circle cx="708.17" cy="505.03" r="14.85" fill="rgba(102,153,204,0.188)" stroke="rgb(51,51,51)" stroke-width="0.5"/>
<circle cx="651.87" cy="563.21" r="14.85" fill="rgba(102,153,204,0.188)" stroke="rgb(51,51,51)" stroke-width="0.5"/>
<circle cx="876.40" cy="251.74" r="9.36" fill="rgb(31,120,180)" stroke="rgb(0,68,27)" stroke-width="0.5"/>
<circle cx="859.10" cy="247.32" r="6.48" fill="rgb(106,61,154)" stroke="rgb(244,109,67)" stroke-width="0.5"/>
<circle cx="832.84" cy="240.74" r="3.88" fill="rgb(255,127,0)" stroke="rgb(255,255,255)" stroke-width="0.5"/>
<circle cx="824.26" cy="239.37" r="2.78" fill="rgb(251,154,153)" stroke="rgb(26,152,80)" stroke-width="0.5"/>
<circle cx="845.11" cy="242.08" r="6.44" fill="rgb(31,120,180)" stroke="rgb(0,68,27)" stroke-width="0.5"/>
<circle cx="1039.50" cy="635.48" r="4.43" fill="rgb(178,223,138)" stroke="rgb(254,224,139)" stroke-width="0.5"/>
<circle cx="1038.07" cy="649.50" r="7.64" fill="rgb(227,26,28)" stroke="rgb(255,255,255)" stroke-width="0.5"/>
<circle cx="1080.62" cy="339.49" r="11.73" fill="rgb(166,206,227)" stroke="rgb(244,109,67)" stroke-width="0.5"/>
<circle cx="1038.23" cy="307.79" r="10.76" fill="rgb(166,206,227)" stroke="rgb(255,255,255)" stroke-width="0.5"/>
<circle cx="1029.48" cy="286.05" r="10.65" fill="rgb(166,206,227)" stroke="rgb(165,0,38)" stroke-width="0.5"/>
<circle cx="1053.61" cy="359.79" r="4.11" fill="rgb(166,206,227)" stroke="rgb(244,109,67)" stroke-width="0.5"/>
<circle cx="1029.83" cy="324.47" r="5.89" fill="rgb(166,206,227)" stroke="rgb(244,109,67)" stroke-width="0.5"/>
<circle cx="1044.38" cy="355.61" r="3.99" fill="rgb(166,206,227)" stroke="rgb(255,255,255)" stroke-width="0.5"/>
<circle cx="1018.86" cy="302.87" r="7.21" fill="rgb(166,206,227)" stroke="rgb(244,109,67)" stroke-width="0.5"/>
<circle cx="1103.48" cy="291.43" r="8.51" fill="rgb(166,206,227)" stroke="rgb(165,0,38)" stroke-width="0.5"/>
<circle cx="1064.72" cy="315.71" r="14.85" fill="rgb(166,206,227)" stroke="rgb(165,0,38)" stroke-width="0.5"/>
<circle cx="1043.95" cy="326.00" r="6.30" fill="rgb(166,206,227)" stroke="rgb(254,224,139)" stroke-width="0.5"/>
<circle cx="1022.69" cy="335.07" r="4.87" fill="rgb(166,206,227)" stroke="rgb(165,0,38)" stroke-width="0.5"/>
<circle cx="1054.22" cy="288.60" r="12.19" fill="rgb(166,206,227)" stroke="rgb(244,109,67)" stroke-width="0.5"/>
<circle cx="1080.62" cy="291.22" r="12.32" fill="rgb(166,206,227)" stroke="rgb(244,109,67)" stroke-width="0.5"/>
<circle cx="1070.20" cy="361.45" r="10.55" fill="rgb(166,206,227)" stroke="rgb(165,0,38)" stroke-width="0.5"/>
<circle cx="1041.55" cy="348.20" r="1.91" fill="rgb(166,206,227)" stroke="rgb(26,152,80)" stroke-width="0.5"/>
<circle cx="1025.58" cy="315.48" r="2.03" fill="rgb(166,206,227)" stroke="rgb(244,109,67)" stroke-width="0.5"/>
<circle cx="1055.70" cy="342.44" r="11.34" fill="rgb(166,206,227)" stroke="rgb(244,109,67)" stroke-width="0.5"/>
<circle cx="1069.23" cy="270.46" r="9.33" fill="rgb(166,206,227)" stroke="rgb(255,255,255)" stroke-width="0.5"/>
<circle cx="1096.36" cy="315.71" r="14.76" fill="rgb(166,206,227)" stroke="rgb(165,0,38)" stroke-width="0.5"/>
<circle cx="1035.20" cy="337.05" r="5.77" fill="rgb(166,206,227)" stroke="rgb(255,255,255)" stroke-width="0.5"/>
<circle cx="1102.96" cy="340.21" r="8.59" fill="rgb(166,206,227)" stroke="rgb(165,0,38)" stroke-width="0.5"/>
<circle cx="1457.82" cy="519.12" r="8.13" fill="rgb(31,120,180)" stroke="rgb(166,217,106)" stroke-width="0.5"/>
<circle cx="1461.88" cy="540.00" r="11.11" fill="rgb(31,120,180)" stroke="rgb(166,217,106)" stroke-width="0.5"/>
<circle cx="1154.97" cy="574.81" r="21.98" fill="rgb(31,120,180)" stroke="rgb(255,255,255)" stroke-width="0.5"/>
<circle cx="1279.93" cy="529.71" r="36.63" fill="rgb(31,120,180)" stroke="rgb(255,255,255)" stroke-width="0.5"/>
<circle cx="1145.73" cy="537.24" r="13.30" fill="rgb(31,120,180)" stroke="rgb(26,152,80)" stroke-width="0.5"/>
<circle cx="1200.90" cy="529.71" r="40.36" fill="rgb(31,120,180)" stroke="rgb(255,255,255)" stroke-width="0.5"/>
<circle cx="1197.10" cy="594.48" r="22.49" fill="rgb(31,120,180)" stroke="rgb(165,0,38)" stroke-width="0.5"/>
<circle cx="1158.90" cy="620.14" r="21.50" fill="rgb(31,120,180)" stroke="rgb(165,0,38)" stroke-width="0.5"/>
<circle cx="1143.45" cy="499.43" r="22.56" fill="rgb(31,120,180)" stroke="rgb(165,0,38)" stroke-width="0.5"/>
<circle cx="1243.46" cy="580.53" r="23.89" fill="rgb(31,120,180)" stroke="rgb(255,255,255)" stroke-width="0.5"/>
<circle cx="1181.28" cy="459.88" r="30.15" fill="rgb(31,120,180)" stroke="rgb(165,0,38)" stroke-width="0.5"/>
<circle cx="1228.52" cy="618.93" r="15.29" fill="rgb(31,120,180)" stroke="rgb(255,255,255)" stroke-width="0.5"/>
<circle cx="1243.80" cy="469.97" r="31.15" fill="rgb(31,120,180)" stroke="rgb(165,0,38)" stroke-width="0.5"/>
<circle cx="1370.56" cy="516.51" r="10.65" fill="rgb(31,120,180)" stroke="rgb(0,68,27)" stroke-width="0.5"/>
<circle cx="1394.91" cy="519.89" r="11.91" fill="rgb(31,120,180)" stroke="rgb(0,68,27)" stroke-width="0.5"/>
<circle cx="1353.82" cy="546.63" r="6.82" fill="rgb(31,120,180)" stroke="rgb(26,152,80)" stroke-width="0.5"/>
<circle cx="1377.75" cy="543.53" r="15.28" fill="rgb(31,120,180)" stroke="rgb(255,255,255)" stroke-width="0.5"/>
<circle cx="1356.77" cy="530.84" r="7.21" fill="rgb(31,120,180)" stroke="rgb(255,255,255)" stroke-width="0.5"/>
<circle cx="1408.26" cy="543.53" r="13.21" fill="rgb(31,120,180)" stroke="rgb(165,0,38)" stroke-width="0.5"/>
<circle cx="704.89" cy="377.98" r="16.26" fill="rgb(166,206,227)" stroke="rgb(255,255,255)" stroke-width="0.5"/>
<circle cx="669.82" cy="377.98" r="16.78" fill="rgb(166,206,227)" stroke="rgb(255,255,255)" stroke-width="0.5"/>
<circle cx="687.68" cy="364.71" r="3.44" fill="rgb(166,206,227)" stroke="rgb(255,255,255)" stroke-width="0.5"/>
<circle cx="906.42" cy="612.06" r="2.34" fill="rgb(166,206,227)" stroke="rgb(255,255,255)" stroke-width="0.5"/>
<circle cx="948.24" cy="589.23" r="8.59" fill="rgb(166,206,227)" stroke="rgb(254,224,139)" stroke-width="0.5"/>
<circle cx="860.26" cy="534.23" r="16.93" fill="rgb(166,206,227)" stroke="rgb(254,224,139)" stroke-width="0.5"/>
<circle cx="940.13" cy="615.32" r="4.22" fill="rgb(166,206,227)" stroke="rgb(255,255,255)" stroke-width="0.5"/>
<circle cx="866.43" cy="602.63" r="5.53" fill="rgb(166,206,227)" stroke="rgb(255,255,255)" stroke-width="0.5"/>
<circle cx="853.33" cy="587.74" r="2.24" fill="rgb(166,206,227)" stroke="rgb(255,255,255)" stroke-width="0.5"/>
<circle cx="867.20" cy="585.26" r="9.83" fill="rgb(166,206,227)" stroke="rgb(255,255,255)" stroke-width="0.5"/>
<circle cx="949.66" cy="605.31" r="5.53" fill="rgb(166,206,227)" stroke="rgb(255,255,255)" stroke-width="0.5"/>
<circle cx="916.93" cy="606.68" r="7.18" fill="rgb(166,206,227)" stroke="rgb(255,255,255)" stroke-width="0.5"/>
<circle cx="899.65" cy="620.01" r="6.08" fill="rgb(166,206,227)" stroke="rgb(255,255,255)" stroke-width="0.5"/>
<circle cx="848.28" cy="552.92" r="3.24" fill="rgb(166,206,227)" stroke="rgb(255,255,255)" stroke-width="0.5"/>
<circle cx="881.72" cy="599.04" r="8.16" fill="rgb(166,206,227)" stroke="rgb(255,255,255)" stroke-width="0.5"/>
<circle cx="881.48" cy="529.48" r="2.78" fill="rgb(166,206,227)" stroke="rgb(255,255,255)" stroke-width="0.5"/>
<circle cx="913.19" cy="517.70" r="3.94" fill="rgb(166,206,227)" stroke="rgb(255,255,255)" stroke-width="0.5"/>
<circle cx="897.56" cy="605.23" r="6.82" fill="rgb(166,206,227)" stroke="rgb(254,224,139)" stroke-width="0.5"/>
<circle cx="859.89" cy="563.91" r="10.72" fill="rgb(166,206,227)" stroke="rgb(244,109,67)" stroke-width="0.5"/>
<circle cx="933.98" cy="601.94" r="8.49" fill="rgb(166,206,227)" stroke="rgb(255,255,255)" stroke-width="0.5"/>
<circle cx="874.40" cy="610.90" r="3.76" fill="rgb(166,206,227)" stroke="rgb(255,255,255)" stroke-width="0.5"/>
<circle cx="948.23" cy="539.40" r="4.63" fill="rgb(166,206,227)" stroke="rgb(255,255,255)" stroke-width="0.5"/>
<circle cx="927.89" cy="617.49" r="6.19" fill="rgb(166,206,227)" stroke="rgb(254,224,139)" stroke-width="0.5"/>
<circle cx="885.90" cy="615.17" r="6.48" fill="rgb(166,206,227)" stroke="rgb(255,255,255)" stroke-width="0.5"/>
<circle cx="961.23" cy="594.24" r="3.31" fill="rgb(166,206,227)" stroke="rgb(255,255,255)" stroke-width="0.5"/>
<circle cx="857.89" cy="596.66" r="2.86" fill="rgb(166,206,227)" stroke="rgb(255,255,255)" stroke-width="0.5"/>
<circle cx="852.15" cy="579.18" r="4.38" fill="rgb(166,206,227)" stroke="rgb(255,255,255)" stroke-width="0.5"/>
<circle cx="915.15" cy="620.68" r="4.92" fill="rgb(166,206,227)" stroke="rgb(255,255,255)" stroke-width="0.5"/>
<circle cx="937.95" cy="498.83" r="10.42" fill="rgb(166,206,227)" stroke="rgb(244,109,67)" stroke-width="0.5"/>
<circle cx="960.36" cy="498.83" r="9.97" fill="rgb(166,206,227)" stroke="rgb(254,224,139)" stroke-width="0.5"/>
<circle cx="939.88" cy="482.68" r="3.82" fill="rgb(166,206,227)" stroke="rgb(254,224,139)" stroke-width="0.5"/>
<circle cx="949.49" cy="486.46" r="4.48" fill="rgb(166,206,227)" stroke="rgb(254,224,139)" stroke-width="0.5"/>
<circle cx="893.98" cy="501.36" r="4.58" fill="rgb(166,206,227)" stroke="rgb(254,224,139)" stroke-width="0.5"/>
<circle cx="882.42" cy="501.36" r="4.96" fill="rgb(166,206,227)" stroke="rgb(255,255,255)" stroke-width="0.5"/>
<circle cx="923.25" cy="560.81" r="10.22" fill="rgb(166,206,227)" stroke="rgb(244,109,67)" stroke-width="0.5"/>
<circle cx="898.52" cy="560.81" r="12.49" fill="rgb(166,206,227)" stroke="rgb(244,109,67)" stroke-width="0.5"/>
<circle cx="996.16" cy="560.81" r="9.85" fill="rgb(166,206,227)" stroke="rgb(244,109,67)" stroke-width="0.5"/>
<circle cx="973.39" cy="560.81" r="10.89" fill="rgb(166,206,227)" stroke="rgb(244,109,67)" stroke-width="0.5"/>
<circle cx="832.39" cy="696.84" r="3.82" fill="rgb(166,206,227)" stroke="rgb(166,217,106)" stroke-width="0.5"/>
<circle cx="819.71" cy="651.94" r="8.78" fill="rgb(166,206,227)" stroke="rgb(255,255,255)" stroke-width="0.5"/>
<circle cx="823.81" cy="677.62" r="15.20" fill="rgb(166,206,227)" stroke="rgb(255,255,255)" stroke-width="0.5"/>
<circle cx="803.06" cy="662.08" r="8.70" fill="rgb(166,206,227)" stroke="rgb(255,255,255)" stroke-width="0.5"/>
<circle cx="854.58" cy="677.62" r="13.54" fill="rgb(166,206,227)" stroke="rgb(255,255,255)" stroke-width="0.5"/>
<circle cx="804.87" cy="685.36" r="3.24" fill="rgb(166,206,227)" stroke="rgb(166,217,106)" stroke-width="0.5"/>
<circle cx="840.65" cy="655.64" r="10.46" fill="rgb(166,206,227)" stroke="rgb(255,255,255)" stroke-width="0.5"/>
<circle cx="802.85" cy="676.56" r="3.76" fill="rgb(166,206,227)" stroke="rgb(166,217,106)" stroke-width="0.5"/>
<circle cx="840.30" cy="690.98" r="3.99" fill="rgb(166,206,227)" stroke="rgb(166,217,106)" stroke-width="0.5"/>
<circle cx="823.16" cy="698.34" r="3.51" fill="rgb(166,206,227)" stroke="rgb(166,217,106)" stroke-width="0.5"/>
<circle cx="591.26" cy="653.14" r="10.31" fill="rgb(166,206,227)" stroke="rgb(255,255,255)" stroke-width="0.5"/>
<circle cx="564.84" cy="653.14" r="14.08" fill="rgb(166,206,227)" stroke="rgb(255,255,255)" stroke-width="0.5"/>
<circle cx="514.57" cy="647.24" r="7.40" fill="rgb(166,206,227)" stroke="rgb(26,152,80)" stroke-width="0.5"/>
<circle cx="495.51" cy="647.24" r="9.64" fill="rgb(166,206,227)" stroke="rgb(26,152,80)" stroke-width="0.5"/>
<circle cx="490.13" cy="531.51" r="6.33" fill="rgb(166,206,227)" stroke="rgb(165,0,38)" stroke-width="0.5"/>
<circle cx="471.29" cy="531.51" r="10.48" fill="rgb(166,206,227)" stroke="rgb(165,0,38)" stroke-width="0.5"/>
<circle cx="484.21" cy="519.04" r="5.44" fill="rgb(166,206,227)" stroke="rgb(165,0,38)" stroke-width="0.5"/>
<circle cx="530.28" cy="419.71" r="6.37" fill="rgb(166,206,227)" stroke="rgb(244,109,67)" stroke-width="0.5"/>
<circle cx="514.55" cy="419.71" r="7.33" fill="rgb(166,206,227)" stroke="rgb(244,109,67)" stroke-width="0.5"/>
<circle cx="516.58" cy="407.91" r="2.61" fill="rgb(166,206,227)" stroke="rgb(26,152,80)" stroke-width="0.5"/>
<circle cx="523.13" cy="411.23" r="2.70" fill="rgb(166,206,227)" stroke="rgb(0,68,27)" stroke-width="0.5"/>
<circle cx="653.62" cy="761.57" r="2.14" fill="rgb(166,206,227)" stroke="rgb(166,217,106)" stroke-width="0.5"/>
<circle cx="678.56" cy="756.16" r="6.41" fill="rgb(166,206,227)" stroke="rgb(166,217,106)" stroke-width="0.5"/>
<circle cx="658.26" cy="757.15" r="2.24" fill="rgb(166,206,227)" stroke="rgb(166,217,106)" stroke-width="0.5"/>
<circle cx="684.60" cy="769.86" r="6.55" fill="rgb(166,206,227)" stroke="rgb(166,217,106)" stroke-width="0.5"/>
<circle cx="678.50" cy="783.21" r="6.11" fill="rgb(166,206,227)" stroke="rgb(255,255,255)" stroke-width="0.5"/>
<circle cx="665.98" cy="752.84" r="4.58" fill="rgb(166,206,227)" stroke="rgb(26,152,80)" stroke-width="0.5"/>
<circle cx="665.62" cy="769.86" r="10.42" fill="rgb(166,206,227)" stroke="rgb(26,152,80)" stroke-width="0.5"/>
<circle cx="703.83" cy="698.24" r="5.61" fill="rgb(166,206,227)" stroke="rgb(0,68,27)" stroke-width="0.5"/>
<circle cx="716.97" cy="701.87" r="6.00" fill="rgb(166,206,227)" stroke="rgb(0,68,27)" stroke-width="0.5"/>
<circle cx="705.38" cy="716.24" r="10.44" fill="rgb(166,206,227)" stroke="rgb(166,217,106)" stroke-width="0.5"/>
<circle cx="727.84" cy="716.24" r="9.99" fill="rgb(166,206,227)" stroke="rgb(166,217,106)" stroke-width="0.5"/>
<circle cx="628.84" cy="344.38" r="3.17" fill="rgb(166,206,227)" stroke="rgb(165,0,38)" stroke-width="0.5"/>
<circle cx="616.34" cy="344.38" r="7.30" fill="rgb(166,206,227)" stroke="rgb(165,0,38)" stroke-width="0.5"/>
<circle cx="827.31" cy="319.02" r="4.82" fill="rgb(166,206,227)" stroke="rgb(244,109,67)" stroke-width="0.5"/>
<circle cx="839.21" cy="414.52" r="7.21" fill="rgb(166,206,227)" stroke="rgb(244,109,67)" stroke-width="0.5"/>
<circle cx="839.02" cy="325.22" r="6.41" fill="rgb(166,206,227)" stroke="rgb(255,255,255)" stroke-width="0.5"/>
<circle cx="853.77" cy="401.75" r="10.13" fill="rgb(166,206,227)" stroke="rgb(255,255,255)" stroke-width="0.5"/>
<circle cx="853.81" cy="336.77" r="10.33" fill="rgb(166,206,227)" stroke="rgb(255,255,255)" stroke-width="0.5"/>
<circle cx="897.39" cy="369.42" r="9.50" fill="rgb(166,206,227)" stroke="rgb(255,255,255)" stroke-width="0.5"/>
<circle cx="876.01" cy="369.42" r="9.85" fill="rgb(166,206,227)" stroke="rgb(255,255,255)" stroke-width="0.5"/>
<circle cx="886.93" cy="360.64" r="2.14" fill="rgb(166,206,227)" stroke="rgb(255,255,255)" stroke-width="0.5"/>
<circle cx="805.74" cy="351.83" r="10.11" fill="rgb(166,206,227)" stroke="rgb(166,217,106)" stroke-width="0.5"/>
<circle cx="773.41" cy="351.11" r="4.32" fill="rgb(166,206,227)" stroke="rgb(244,109,67)" stroke-width="0.5"/>
<circle cx="786.62" cy="345.24" r="8.10" fill="rgb(166,206,227)" stroke="rgb(255,255,255)" stroke-width="0.5"/>
<circle cx="805.33" cy="392.83" r="6.37" fill="rgb(166,206,227)" stroke="rgb(244,109,67)" stroke-width="0.5"/>
<circle cx="783.90" cy="374.83" r="19.59" fill="rgb(166,206,227)" stroke="rgb(244,109,67)" stroke-width="0.5"/>
<circle cx="795.14" cy="395.88" r="2.24" fill="rgb(166,206,227)" stroke="rgb(255,255,255)" stroke-width="0.5"/>
<circle cx="820.97" cy="374.83" r="15.46" fill="rgb(166,206,227)" stroke="rgb(244,109,67)" stroke-width="0.5"/>
<circle cx="653.93" cy="700.22" r="11.09" fill="rgb(166,206,227)" stroke="rgb(255,255,255)" stroke-width="0.5"/>
<circle cx="627.97" cy="700.22" r="12.85" fill="rgb(166,206,227)" stroke="rgb(255,255,255)" stroke-width="0.5"/>
<circle cx="642.13" cy="688.61" r="3.44" fill="rgb(166,206,227)" stroke="rgb(255,255,255)" stroke-width="0.5"/>
<circle cx="781.06" cy="584.14" r="3.17" fill="rgb(166,206,227)" stroke="rgb(0,68,27)" stroke-width="0.5"/>
<circle cx="784.42" cy="575.77" r="3.82" fill="rgb(166,206,227)" stroke="rgb(26,152,80)" stroke-width="0.5"/>
<circle cx="791.63" cy="523.59" r="10.74" fill="rgb(166,206,227)" stroke="rgb(255,255,255)" stroke-width="0.5"/>
<circle cx="798.11" cy="549.58" r="14.02" fill="rgb(166,206,227)" stroke="rgb(255,255,255)" stroke-width="0.5"/>
<circle cx="786.77" cy="566.16" r="4.05" fill="rgb(166,206,227)" stroke="rgb(26,152,80)" stroke-width="0.5"/>
<circle cx="705.55" cy="606.39" r="1.35" fill="rgb(51,160,44)" stroke="rgb(0,68,27)" stroke-width="0.5"/>
<circle cx="710.27" cy="606.39" r="1.35" fill="rgb(166,206,227)" stroke="rgb(0,68,27)" stroke-width="0.5"/>
<circle cx="707.91" cy="602.29" r="1.35" fill="rgb(255,127,0)" stroke="rgb(0,68,27)" stroke-width="0.5"/>
<circle cx="688.33" cy="563.21" r="1.35" fill="rgb(255,127,0)" stroke="rgb(0,68,27)" stroke-width="0.5"/>
<circle cx="670.10" cy="563.21" r="1.35" fill="rgb(166,206,227)" stroke="rgb(0,68,27)" stroke-width="0.5"/>
<circle cx="651.87" cy="563.21" r="1.35" fill="rgb(31,120,180)" stroke="rgb(0,68,27)" stroke-width="0.5"/>
<circle cx="726.40" cy="505.03" r="1.35" fill="rgb(31,120,180)" stroke="rgb(0,68,27)" stroke-width="0.5"/>
<circle cx="708.17" cy="505.03" r="1.35" fill="rgb(166,206,227)" stroke="rgb(0,68,27)" stroke-width="0.5"/>
<circle cx="751.82" cy="563.51" r="1.35" fill="rgb(255,127,0)" stroke="rgb(0,68,27)" stroke-width="0.5"/>
<circle cx="751.20" cy="558.83" r="1.35" fill="rgb(255,127,0)" stroke="rgb(0,68,27)" stroke-width="0.5"/>
<circle cx="733.59" cy="563.51" r="1.35" fill="rgb(255,127,0)" stroke="rgb(0,68,27)" stroke-width="0.5"/>
<circle cx="545.79" cy="560.36" r="9.50" fill="rgb(166,206,227)" stroke="rgb(255,255,255)" stroke-width="0.5"/>
<circle cx="525.58" cy="580.67" r="17.12" fill="rgb(166,206,227)" stroke="rgb(255,255,255)" stroke-width="0.5"/>
<circle cx="530.69" cy="558.40" r="3.70" fill="rgb(166,206,227)" stroke="rgb(255,255,255)" stroke-width="0.5"/>
<circle cx="545.19" cy="597.12" r="6.44" fill="rgb(166,206,227)" stroke="rgb(255,255,255)" stroke-width="0.5"/>
<circle cx="555.89" cy="580.67" r="11.16" fill="rgb(166,206,227)" stroke="rgb(244,109,67)" stroke-width="0.5"/>
<circle cx="533.11" cy="479.63" r="5.32" fill="rgb(166,206,227)" stroke="rgb(165,0,38)" stroke-width="0.5"/>
<circle cx="557.25" cy="502.73" r="5.69" fill="rgb(166,206,227)" stroke="rgb(165,0,38)" stroke-width="0.5"/>
<circle cx="519.64" cy="490.74" r="2.94" fill="rgb(166,206,227)" stroke="rgb(165,0,38)" stroke-width="0.5"/>
<circle cx="533.74" cy="467.43" r="4.87" fill="rgb(166,206,227)" stroke="rgb(165,0,38)" stroke-width="0.5"/>
<circle cx="522.21" cy="482.28" r="3.88" fill="rgb(166,206,227)" stroke="rgb(165,0,38)" stroke-width="0.5"/>
<circle cx="554.06" cy="514.39" r="4.38" fill="rgb(166,206,227)" stroke="rgb(165,0,38)" stroke-width="0.5"/>
<circle cx="553.41" cy="466.06" r="4.22" fill="rgb(166,206,227)" stroke="rgb(165,0,38)" stroke-width="0.5"/>
<circle cx="568.94" cy="479.98" r="3.94" fill="rgb(166,206,227)" stroke="rgb(165,0,38)" stroke-width="0.5"/>
<circle cx="568.98" cy="500.85" r="4.16" fill="rgb(166,206,227)" stroke="rgb(165,0,38)" stroke-width="0.5"/>
<circle cx="544.46" cy="473.63" r="5.49" fill="rgb(166,206,227)" stroke="rgb(165,0,38)" stroke-width="0.5"/>
<circle cx="534.34" cy="513.12" r="4.58" fill="rgb(166,206,227)" stroke="rgb(165,0,38)" stroke-width="0.5"/>
<circle cx="562.96" cy="490.30" r="5.96" fill="rgb(166,206,227)" stroke="rgb(165,0,38)" stroke-width="0.5"/>
<circle cx="533.26" cy="501.20" r="5.36" fill="rgb(166,206,227)" stroke="rgb(165,0,38)" stroke-width="0.5"/>
<circle cx="557.29" cy="477.59" r="5.92" fill="rgb(166,206,227)" stroke="rgb(165,0,38)" stroke-width="0.5"/>
<circle cx="545.76" cy="490.30" r="9.21" fill="rgb(166,206,227)" stroke="rgb(165,0,38)" stroke-width="0.5"/>
<circle cx="528.44" cy="489.82" r="3.88" fill="rgb(166,206,227)" stroke="rgb(165,0,38)" stroke-width="0.5"/>
<circle cx="524.25" cy="472.65" r="3.94" fill="rgb(166,206,227)" stroke="rgb(165,0,38)" stroke-width="0.5"/>
<circle cx="544.76" cy="506.99" r="5.49" fill="rgb(166,206,227)" stroke="rgb(165,0,38)" stroke-width="0.5"/>
<circle cx="582.17" cy="728.54" r="9.45" fill="rgb(166,206,227)" stroke="rgb(165,0,38)" stroke-width="0.5"/>
<circle cx="559.98" cy="728.54" r="10.72" fill="rgb(166,206,227)" stroke="rgb(244,109,67)" stroke-width="0.5"/>
<circle cx="592.67" cy="393.82" r="8.38" fill="rgb(166,206,227)" stroke="rgb(165,0,38)" stroke-width="0.5"/>
<circle cx="612.11" cy="430.00" r="8.62" fill="rgb(166,206,227)" stroke="rgb(255,255,255)" stroke-width="0.5"/>
<circle cx="600.57" cy="412.75" r="10.11" fill="rgb(166,206,227)" stroke="rgb(255,255,255)" stroke-width="0.5"/>
<circle cx="590.78" cy="433.59" r="2.34" fill="rgb(166,206,227)" stroke="rgb(255,255,255)" stroke-width="0.5"/>
<circle cx="585.38" cy="423.91" r="6.72" fill="rgb(166,206,227)" stroke="rgb(255,255,255)" stroke-width="0.5"/>
<circle cx="621.89" cy="412.75" r="9.18" fill="rgb(166,206,227)" stroke="rgb(165,0,38)" stroke-width="0.5"/>
<circle cx="612.13" cy="394.96" r="9.08" fill="rgb(166,206,227)" stroke="rgb(165,0,38)" stroke-width="0.5"/>
<circle cx="581.30" cy="407.95" r="7.73" fill="rgb(166,206,227)" stroke="rgb(165,0,38)" stroke-width="0.5"/>
<circle cx="571.70" cy="419.84" r="5.53" fill="rgb(166,206,227)" stroke="rgb(165,0,38)" stroke-width="0.5"/>
<circle cx="597.18" cy="428.40" r="3.88" fill="rgb(166,206,227)" stroke="rgb(165,0,38)" stroke-width="0.5"/>
<circle cx="735.79" cy="768.44" r="2.70" fill="rgb(166,206,227)" stroke="rgb(166,217,106)" stroke-width="0.5"/>
<circle cx="726.84" cy="768.44" r="4.22" fill="rgb(166,206,227)" stroke="rgb(255,255,255)" stroke-width="0.5"/>
<circle cx="1077.19" cy="701.40" r="12.04" fill="rgb(253,191,111)" stroke="rgb(244,109,67)" stroke-width="0.5"/>
<circle cx="1055.89" cy="721.63" r="3.02" fill="rgb(106,61,154)" stroke="rgb(244,109,67)" stroke-width="0.5"/>
<circle cx="1045.38" cy="701.40" r="17.75" fill="rgb(253,191,111)" stroke="rgb(244,109,67)" stroke-width="0.5"/>
<circle cx="1051.60" cy="679.47" r="3.02" fill="rgb(106,61,154)" stroke="rgb(244,109,67)" stroke-width="0.5"/>
<circle cx="1065.31" cy="716.92" r="5.49" fill="rgb(253,191,111)" stroke="rgb(244,109,67)" stroke-width="0.5"/>
<circle cx="1043.79" cy="678.90" r="2.78" fill="rgb(106,61,154)" stroke="rgb(244,109,67)" stroke-width="0.5"/>
<circle cx="1033.70" cy="720.50" r="2.61" fill="rgb(202,178,214)" stroke="rgb(26,152,80)" stroke-width="0.5"/>
<circle cx="1066.02" cy="680.74" r="9.43" fill="rgb(253,191,111)" stroke="rgb(244,109,67)" stroke-width="0.5"/>
<circle cx="1048.19" cy="724.02" r="3.02" fill="rgb(106,61,154)" stroke="rgb(244,109,67)" stroke-width="0.5"/>
<circle cx="1040.47" cy="723.33" r="2.70" fill="rgb(202,178,214)" stroke="rgb(26,152,80)" stroke-width="0.5"/>
<circle cx="903.16" cy="258.09" r="2.61" fill="rgb(31,120,180)" stroke="rgb(255,255,255)" stroke-width="0.5"/>
<circle cx="953.41" cy="270.95" r="6.72" fill="rgb(166,206,227)" stroke="rgb(255,255,255)" stroke-width="0.5"/>
<defs><path id="arc-27780" d="M434.00,540.00 A526.00,526.00 0 0,1 1486.00,540.00" fill="none"/></defs>
<text fill="rgb(34,34,34)" font-size="14.0" font-family="sans-serif"><textPath href="#arc-27780" startOffset="50%" text-anchor="middle">code-visualizer</textPath></text>
<defs><path id="arc-28053" d="M447.50,540.00 A293.21,293.21 0 0,1 1033.93,540.00" fill="none"/></defs>
<text fill="rgb(34,34,34)" font-size="14.0" font-family="sans-serif"><textPath href="#arc-28053" startOffset="50%" text-anchor="middle">internal</textPath></text>
<defs><path id="arc-28319" d="M594.16,549.58 A108.74,108.74 0 0,1 811.63,549.58" fill="none"/></defs>
<text fill="rgb(34,34,34)" font-size="14.0" font-family="sans-serif"><textPath href="#arc-28319" startOffset="50%" text-anchor="middle">scan</textPath></text>
<defs><path id="arc-28580" d="M607.66,549.58 A80.20,80.20 0 0,1 768.07,549.58" fill="none"/></defs>
<text fill="rgb(34,34,34)" font-size="14.0" font-family="sans-serif"><textPath href="#arc-28580" startOffset="50%" text-anchor="middle">testdata</textPath></text>
<defs><path id="arc-28843" d="M624.01,563.21 A32.59,32.59 0 0,1 689.18,563.21" fill="none"/></defs>
<text fill="rgb(34,34,34)" font-size="14.0" font-family="sans-serif"><textPath href="#arc-28843" startOffset="50%" text-anchor="middle">nested</textPath></text>
<defs><path id="arc-29104" d="M637.51,563.21 A16.72,16.72 0 0,1 670.95,563.21" fill="none"/></defs>
<text fill="rgb(34,34,34)" font-size="14.0" font-family="sans-serif"><textPath href="#arc-29104" startOffset="50%" text-anchor="middle">sub</textPath></text>
<defs><path id="arc-29362" d="M841.66,549.58 A89.26,89.26 0 0,1 1020.19,549.58" fill="none"/></defs>
<text fill="rgb(34,34,34)" font-size="14.0" font-family="sans-serif"><textPath href="#arc-29362" startOffset="50%" text-anchor="middle">canvas</textPath></text>
<defs><path id="arc-29624" d="M886.53,560.81 A23.22,23.22 0 0,1 932.97,560.81" fill="none"/></defs>
<text fill="rgb(34,34,34)" font-size="10.1" font-family="sans-serif"><textPath href="#arc-29624" startOffset="50%" text-anchor="middle">raster</textPath></text>
<defs><path id="arc-29885" d="M963.00,560.81 A21.26,21.26 0 0,1 1005.51,560.81" fill="none"/></defs>
<text fill="rgb(34,34,34)" font-size="14.0" font-family="sans-serif"><textPath href="#arc-29885" startOffset="50%" text-anchor="middle">svg</textPath></text>
<defs><path id="arc-30144" d="M750.43,369.42 A84.73,84.73 0 0,1 919.90,369.42" fill="none"/></defs>
<text fill="rgb(34,34,34)" font-size="14.0" font-family="sans-serif"><textPath href="#arc-30144" startOffset="50%" text-anchor="middle">provider</textPath></text>
<defs><path id="arc-30407" d="M763.93,369.42 A36.35,36.35 0 0,1 836.63,369.42" fill="none"/></defs>
<text fill="rgb(34,34,34)" font-size="14.0" font-family="sans-serif"><textPath href="#arc-30407" startOffset="50%" text-anchor="middle">git</textPath></text>
<defs><path id="arc-30665" d="M793.60,670.55 A37.53,37.53 0 0,1 868.66,670.55" fill="none"/></defs>
<text fill="rgb(34,34,34)" font-size="14.0" font-family="sans-serif"><textPath href="#arc-30665" startOffset="50%" text-anchor="middle">config</textPath></text>
<defs><path id="arc-30926" d="M653.53,377.98 A33.56,33.56 0 0,1 720.65,377.98" fill="none"/></defs>
<text fill="rgb(34,34,34)" font-size="8.8" font-family="sans-serif"><textPath href="#arc-30926" startOffset="50%" text-anchor="middle">bubbletree</textPath></text>
<defs><path id="arc-31190" d="M566.09,414.22 A32.27,32.27 0 0,1 630.62,414.22" fill="none"/></defs>
<text fill="rgb(34,34,34)" font-size="12.1" font-family="sans-serif"><textPath href="#arc-31190" startOffset="50%" text-anchor="middle">treemap</textPath></text>
<defs><path id="arc-31452" d="M514.68,489.70 A30.21,30.21 0 0,1 575.10,489.70" fill="none"/></defs>
<text fill="rgb(34,34,34)" font-size="13.2" font-family="sans-serif"><textPath href="#arc-31452" startOffset="50%" text-anchor="middle">stages</textPath></text>
<defs><path id="arc-31713" d="M508.78,578.59 A28.94,28.94 0 0,1 566.66,578.59" fill="none"/></defs>
<text fill="rgb(34,34,34)" font-size="12.6" font-family="sans-serif"><textPath href="#arc-31713" startOffset="50%" text-anchor="middle">spiral</textPath></text>
<defs><path id="arc-31974" d="M551.26,653.14 A24.90,24.90 0 0,1 601.06,653.14" fill="none"/></defs>
<text fill="rgb(34,34,34)" font-size="10.9" font-family="sans-serif"><textPath href="#arc-31974" startOffset="50%" text-anchor="middle">export</textPath></text>
<defs><path id="arc-32235" d="M693.90,710.23 A22.45,22.45 0 0,1 738.81,710.23" fill="none"/></defs>
<text fill="rgb(34,34,34)" font-size="8.4" font-family="sans-serif"><textPath href="#arc-32235" startOffset="50%" text-anchor="middle">palette</textPath></text>
<defs><path id="arc-32496" d="M650.51,769.03 A21.29,21.29 0 0,1 693.10,769.03" fill="none"/></defs>
<text fill="rgb(34,34,34)" font-size="11.1" font-family="sans-serif"><textPath href="#arc-32496" startOffset="50%" text-anchor="middle">model</textPath></text>
<defs><path id="arc-32756" d="M549.76,728.54 A20.69,20.69 0 0,1 591.13,728.54" fill="none"/></defs>
<text fill="rgb(34,34,34)" font-size="10.8" font-family="sans-serif"><textPath href="#arc-32756" startOffset="50%" text-anchor="middle">table</textPath></text>
<defs><path id="arc-33016" d="M486.36,647.24 A17.56,17.56 0 0,1 521.47,647.24" fill="none"/></defs>
<text fill="rgb(34,34,34)" font-size="7.7" font-family="sans-serif"><textPath href="#arc-33016" startOffset="50%" text-anchor="middle">filter</textPath></text>
<defs><path id="arc-33276" d="M461.19,530.20 A17.43,17.43 0 0,1 496.04,530.20" fill="none"/></defs>
<text fill="rgb(34,34,34)" font-size="7.6" font-family="sans-serif"><textPath href="#arc-33276" startOffset="50%" text-anchor="middle">legend</textPath></text>
<defs><path id="arc-33536" d="M1063.96,540.00 A204.27,204.27 0 0,1 1472.50,540.00" fill="none"/></defs>
<text fill="rgb(34,34,34)" font-size="14.0" font-family="sans-serif"><textPath href="#arc-33536" startOffset="50%" text-anchor="middle">docs</textPath></text>
<defs><path id="arc-33799" d="M1077.46,540.00 A178.64,178.64 0 0,1 1434.74,540.00" fill="none"/></defs>
<text fill="rgb(34,34,34)" font-size="14.0" font-family="sans-serif"><textPath href="#arc-33799" startOffset="50%" text-anchor="middle">superpowers</textPath></text>
<defs><path id="arc-34069" d="M1090.96,540.00 A112.90,112.90 0 0,1 1316.76,540.00" fill="none"/></defs>
<text fill="rgb(34,34,34)" font-size="14.0" font-family="sans-serif"><textPath href="#arc-34069" startOffset="50%" text-anchor="middle">plans</textPath></text>
<defs><path id="arc-34333" d="M1346.78,540.00 A37.23,37.23 0 0,1 1421.23,540.00" fill="none"/></defs>
<text fill="rgb(34,34,34)" font-size="14.0" font-family="sans-serif"><textPath href="#arc-34333" startOffset="50%" text-anchor="middle">specs</textPath></text>
<defs><path id="arc-34595" d="M994.07,316.51 A69.05,69.05 0 0,1 1132.16,316.51" fill="none"/></defs>
<text fill="rgb(34,34,34)" font-size="14.0" font-family="sans-serif"><textPath href="#arc-34595" startOffset="50%" text-anchor="middle">cmd</textPath></text>
<defs><path id="arc-34854" d="M1007.58,316.51 A55.54,55.54 0 0,1 1118.66,316.51" fill="none"/></defs>
<text fill="rgb(34,34,34)" font-size="14.0" font-family="sans-serif"><textPath href="#arc-34854" startOffset="50%" text-anchor="middle">codeviz</textPath></text>
<defs><path id="arc-35118" d="M1024.96,701.79 A31.89,31.89 0 0,1 1088.74,701.79" fill="none"/></defs>
<text fill="rgb(34,34,34)" font-size="11.9" font-family="sans-serif"><textPath href="#arc-35118" startOffset="50%" text-anchor="middle">samples</textPath></text>
<defs><path id="arc-35382" d="M933.68,270.95 A19.72,19.72 0 0,1 973.13,270.95" fill="none"/></defs>
<text fill="rgb(34,34,34)" font-size="10.3" font-family="sans-serif"><textPath href="#arc-35382" startOffset="50%" text-anchor="middle">tools</textPath></text>
<rect x="1726.00" y="439.00" width="178.00" height="625.00" fill="rgba(255,255,255,0.902)" stroke="rgba(153,153,153,0.800)" stroke-width="1.0"/>
<text x="1738.00" y="464.00" fill="rgb(38,38,38)" font-size="13.0" font-family="sans-serif" text-anchor="start" dominant-baseline="central">Fill: file-type</text>
<rect x="1738.00" y="470.00" width="28.00" height="28.00" fill="rgb(166,206,227)" stroke="rgb(102,102,102)" stroke-width="0.5"/>
<text x="1772.00" y="484.00" fill="rgb(51,51,51)" font-size="12.0" font-family="sans-serif" text-anchor="start" dominant-baseline="central">go</text>
<rect x="1738.00" y="502.00" width="28.00" height="28.00" fill="rgb(31,120,180)" stroke="rgb(102,102,102)" stroke-width="0.5"/>
<text x="1772.00" y="516.00" fill="rgb(51,51,51)" font-size="12.0" font-family="sans-serif" text-anchor="start" dominant-baseline="central">md</text>
<rect x="1738.00" y="534.00" width="28.00" height="28.00" fill="rgb(178,223,138)" stroke="rgb(102,102,102)" stroke-width="0.5"/>
<text x="1772.00" y="548.00" fill="rgb(51,51,51)" font-size="12.0" font-family="sans-serif" text-anchor="start" dominant-baseline="central">mod</text>
<rect x="1738.00" y="566.00" width="28.00" height="28.00" fill="rgb(51,160,44)" stroke="rgb(102,102,102)" stroke-width="0.5"/>
<text x="1772.00" y="580.00" fill="rgb(51,51,51)" font-size="12.0" font-family="sans-serif" text-anchor="start" dominant-baseline="central">rs</text>
<rect x="1738.00" y="598.00" width="28.00" height="28.00" fill="rgb(251,154,153)" stroke="rgb(102,102,102)" stroke-width="0.5"/>
<text x="1772.00" y="612.00" fill="rgb(51,51,51)" font-size="12.0" font-family="sans-serif" text-anchor="start" dominant-baseline="central">sh</text>
<rect x="1738.00" y="630.00" width="28.00" height="28.00" fill="rgb(227,26,28)" stroke="rgb(102,102,102)" stroke-width="0.5"/>
<text x="1772.00" y="644.00" fill="rgb(51,51,51)" font-size="12.0" font-family="sans-serif" text-anchor="start" dominant-baseline="central">sum</text>
<rect x="1738.00" y="662.00" width="28.00" height="28.00" fill="rgb(253,191,111)" stroke="rgb(102,102,102)" stroke-width="0.5"/>
<text x="1772.00" y="676.00" fill="rgb(51,51,51)" font-size="12.0" font-family="sans-serif" text-anchor="start" dominant-baseline="central">svg</text>
<rect x="1738.00" y="694.00" width="28.00" height="28.00" fill="rgb(255,127,0)" stroke="rgb(102,102,102)" stroke-width="0.5"/>
<text x="1772.00" y="708.00" fill="rgb(51,51,51)" font-size="12.0" font-family="sans-serif" text-anchor="start" dominant-baseline="central">txt</text>
<rect x="1738.00" y="726.00" width="28.00" height="28.00" fill="rgb(202,178,214)" stroke="rgb(102,102,102)" stroke-width="0.5"/>
<text x="1772.00" y="740.00" fill="rgb(51,51,51)" font-size="12.0" font-family="sans-serif" text-anchor="start" dominant-baseline="central">yaml</text>
<rect x="1738.00" y="758.00" width="28.00" height="28.00" fill="rgb(106,61,154)" stroke="rgb(102,102,102)" stroke-width="0.5"/>
<text x="1772.00" y="772.00" fill="rgb(51,51,51)" font-size="12.0" font-family="sans-serif" text-anchor="start" dominant-baseline="central">yml</text>
<text x="1738.00" y="817.00" fill="rgb(38,38,38)" font-size="13.0" font-family="sans-serif" text-anchor="start" dominant-baseline="central">Border: file-freshness</text>
<rect x="1738.00" y="823.00" width="28.00" height="28.00" fill="rgb(165,0,38)" stroke="rgb(102,102,102)" stroke-width="0.5"/>
<text x="1772.00" y="851.00" fill="rgb(51,51,51)" font-size="12.0" font-family="sans-serif" text-anchor="start" dominant-baseline="central">2</text>
<rect x="1738.00" y="851.00" width="28.00" height="28.00" fill="rgb(244,109,67)" stroke="rgb(102,102,102)" stroke-width="0.5"/>
<text x="1772.00" y="879.00" fill="rgb(51,51,51)" font-size="12.0" font-family="sans-serif" text-anchor="start" dominant-baseline="central">4</text>
<rect x="1738.00" y="879.00" width="28.00" height="28.00" fill="rgb(254,224,139)" stroke="rgb(102,102,102)" stroke-width="0.5"/>
<text x="1772.00" y="907.00" fill="rgb(51,51,51)" font-size="12.0" font-family="sans-serif" text-anchor="start" dominant-baseline="central">5</text>
<rect x="1738.00" y="907.00" width="28.00" height="28.00" fill="rgb(255,255,255)" stroke="rgb(102,102,102)" stroke-width="0.5"/>
<text x="1772.00" y="935.00" fill="rgb(51,51,51)" font-size="12.0" font-family="sans-serif" text-anchor="start" dominant-baseline="central">11</text>
<rect x="1738.00" y="935.00" width="28.00" height="28.00" fill="rgb(166,217,106)" stroke="rgb(102,102,102)" stroke-width="0.5"/>
<text x="1772.00" y="963.00" fill="rgb(51,51,51)" font-size="12.0" font-family="sans-serif" text-anchor="start" dominant-baseline="central">17</text>
<rect x="1738.00" y="963.00" width="28.00" height="28.00" fill="rgb(26,152,80)" stroke="rgb(102,102,102)" stroke-width="0.5"/>
<text x="1772.00" y="991.00" fill="rgb(51,51,51)" font-size="12.0" font-family="sans-serif" text-anchor="start" dominant-baseline="central">34</text>
<rect x="1738.00" y="991.00" width="28.00" height="28.00" fill="rgb(0,68,27)" stroke="rgb(102,102,102)" stroke-width="0.5"/>
<text x="1738.00" y="1046.00" fill="rgb(38,38,38)" font-size="13.0" font-family="sans-serif" text-anchor="start" dominant-baseline="central">Size: file-lines</text>
</svg>
