<svg xmlns="http://www.w3.org/2000/svg" width="1920" height="1920">
<rect x="0.00" y="0.00" width="1920.00" height="1920.00" fill="rgb(255,255,255)" stroke="rgb(255,255,255)" stroke-width="0.0"/>
<path d="M 960.0 653.3 L 966.0 652.2 L 972.0 651.1 L 978.0 650.2 L 984.1 649.3 L 990.2 648.6 L 996.4 648.1 L 1002.5 647.6 L 1008.8 647.3 L 1015.0 647.1 L 1021.3 647.0 L 1027.6 647.0 L 1033.9 647.2 L 1040.3 647.5 L 1046.6 647.9 L 1053.0 648.5 L 1059.4 649.2 L 1065.8 650.0 L 1072.1 650.9 L 1078.5 652.0 L 1084.9 653.2 L 1091.3 654.6 L 1097.7 656.0 L 1104.1 657.6 L 1110.5 659.4 L 1116.8 661.3 L 1123.2 663.3 L 1129.5 665.4 L 1135.8 667.7 L 1142.1 670.1 L 1148.3 672.7 L 1154.5 675.3 L 1160.7 678.2 L 1166.8 681.1 L 1172.9 684.2 L 1179.0 687.4 L 1185.0 690.7 L 1191.0 694.2 L 1196.9 697.8 L 1202.8 701.5 L 1208.6 705.4 L 1214.3 709.4 L 1220.0 713.5 L 1225.7 717.8 L 1231.2 722.1 L 1236.7 726.6 L 1242.1 731.3 L 1247.5 736.0 L 1252.7 740.9 L 1257.9 745.8 L 1263.0 750.9 L 1268.0 756.2 L 1272.9 761.5 L 1277.8 767.0 L 1282.5 772.5 L 1287.1 778.2 L 1291.7 784.0 L 1296.1 789.9 L 1300.5 795.9 L 1304.7 802.0 L 1308.8 808.2 L 1312.8 814.5 L 1316.7 820.9 L 1320.5 827.4 L 1324.1 834.0 L 1327.7 840.6 L 1331.1 847.4 L 1334.4 854.3 L 1337.5 861.2 L 1340.6 868.3 L 1343.5 875.4 L 1346.2 882.6 L 1348.9 889.8 L 1351.4 897.2 L 1353.7 904.6 L 1356.0 912.0 L 1358.0 919.6 L 1360.0 927.2 L 1361.8 934.9 L 1363.4 942.6 L 1364.9 950.3 L 1366.2 958.2 L 1367.4 966.0 L 1368.4 974.0 L 1369.3 981.9 L 1370.1 989.9 L 1370.6 998.0 L 1371.0 1006.0 L 1371.3 1014.1 L 1371.4 1022.3 L 1371.3 1030.4 L 1371.1 1038.6 L 1370.7 1046.8 L 1370.1 1055.0 L 1369.4 1063.2 L 1368.5 1071.4 L 1367.5 1079.6 L 1366.2 1087.8 L 1364.9 1096.1 L 1363.3 1104.3 L 1361.6 1112.5 L 1359.7 1120.7 L 1357.7 1128.9 L 1355.4 1137.0 L 1353.1 1145.2 L 1350.5 1153.3 L 1347.8 1161.4 L 1344.9 1169.4 L 1341.9 1177.4 L 1338.6 1185.4 L 1335.2 1193.3 L 1331.7 1201.2 L 1328.0 1209.0 L 1324.1 1216.8 L 1320.1 1224.5 L 1315.9 1232.2 L 1311.5 1239.8 L 1307.0 1247.3 L 1302.3 1254.8 L 1297.4 1262.2 L 1292.4 1269.5 L 1287.3 1276.7 L 1281.9 1283.8 L 1276.5 1290.9 L 1270.8 1297.8 L 1265.1 1304.7 L 1259.1 1311.5 L 1253.1 1318.1 L 1246.8 1324.7 L 1240.5 1331.2 L 1234.0 1337.5 L 1227.3 1343.8 L 1220.5 1349.9 L 1213.6 1355.9 L 1206.6 1361.7 L 1199.4 1367.5 L 1192.0 1373.1 L 1184.6 1378.6 L 1177.0 1384.0 L 1169.3 1389.2 L 1161.5 1394.3 L 1153.6 1399.2 L 1145.5 1404.0 L 1137.3 1408.7 L 1129.0 1413.2 L 1120.7 1417.5 L 1112.2 1421.7 L 1103.6 1425.7 L 1094.9 1429.6 L 1086.1 1433.3 L 1077.2 1436.8 L 1068.2 1440.2 L 1059.2 1443.4 L 1050.0 1446.5 L 1040.8 1449.3 L 1031.5 1452.0 L 1022.1 1454.5 L 1012.7 1456.9 L 1003.2 1459.0 L 993.6 1461.0 L 984.0 1462.8 L 974.3 1464.4 L 964.5 1465.8 L 954.8 1467.0 L 944.9 1468.0 L 935.0 1468.9 L 925.1 1469.5 L 915.2 1470.0 L 905.2 1470.2 L 895.2 1470.3 L 885.1 1470.2 L 875.1 1469.8 L 865.0 1469.3 L 854.9 1468.6 L 844.9 1467.6 L 834.8 1466.5 L 824.7 1465.2 L 814.6 1463.7 L 804.5 1461.9 L 794.5 1460.0 L 784.4 1457.9 L 774.4 1455.5 L 764.4 1453.0 L 754.4 1450.2 L 744.5 1447.3 L 734.6 1444.1 L 724.7 1440.8 L 714.9 1437.3 L 705.1 1433.5 L 695.4 1429.6 L 685.8 1425.4 L 676.2 1421.1 L 666.7 1416.5 L 657.2 1411.8 L 647.8 1406.9 L 638.5 1401.7 L 629.3 1396.4 L 620.1 1390.9 L 611.1 1385.2 L 602.1 1379.3 L 593.3 1373.2 L 584.5 1367.0 L 575.9 1360.5 L 567.3 1353.9 L 558.9 1347.1 L 550.6 1340.1 L 542.4 1332.9 L 534.3 1325.6 L 526.4 1318.1 L 518.6 1310.4 L 510.9 1302.5 L 503.4 1294.5 L 496.0 1286.3 L 488.8 1278.0 L 481.7 1269.5 L 474.7 1260.8 L 468.0 1252.0 L 461.3 1243.0 L 454.9 1233.9 L 448.6 1224.7 L 442.5 1215.3 L 436.5 1205.7 L 430.7 1196.1 L 425.1 1186.3 L 419.7 1176.4 L 414.5 1166.3 L 409.4 1156.1 L 404.6 1145.8 L 399.9 1135.4 L 395.5 1124.9 L 391.2 1114.3 L 387.1 1103.6 L 383.3 1092.7 L 379.6 1081.8 L 376.1 1070.8 L 372.9 1059.7 L 369.9 1048.5 L 367.0 1037.2 L 364.4 1025.9 L 362.0 1014.5 L 359.9 1003.0 L 357.9 991.4 L 356.2 979.8 L 354.7 968.2 L 353.4 956.5 L 352.4 944.7 L 351.6 932.9 L 351.0 921.1 L 350.6 909.2 L 350.5 897.3 L 350.6 885.4 L 350.9 873.4 L 351.5 861.5 L 352.3 849.5 L 353.4 837.5 L 354.7 825.6 L 356.2 813.6 L 357.9 801.6 L 359.9 789.7 L 362.2 777.7 L 364.6 765.8 L 367.3 754.0 L 370.3 742.1 L 373.4 730.3 L 376.9 718.5 L 380.5 706.8 L 384.4 695.1 L 388.5 683.5 L 392.9 672.0 L 397.5 660.5 L 402.3 649.1 L 407.3 637.7 L 412.6 626.4 L 418.1 615.3 L 423.9 604.2 L 429.9 593.2 L 436.1 582.3 L 442.5 571.5 L 449.1 560.8 L 456.0 550.2 L 463.1 539.7 L 470.4 529.4 L 477.9 519.2 L 485.6 509.1 L 493.5 499.1 L 501.7 489.3 L 510.0 479.7 L 518.6 470.1 L 527.3 460.8 L 536.2 451.5 L 545.4 442.5 L 554.7 433.6 L 564.2 424.9 L 574.0 416.3 L 583.9 407.9 L 593.9 399.7 L 604.2 391.7 L 614.6 383.9 L 625.2 376.3 L 635.9 368.8 L 646.9 361.6 L 658.0 354.5 L 669.2 347.7 L 680.6 341.1 L 692.1 334.6 L 703.8 328.4 L 715.6 322.5 L 727.6 316.7 L 739.7 311.2 L 751.9 305.8 L 764.2 300.8 L 776.7 295.9 L 789.2 291.3 L 801.9 286.9 L 814.7 282.8 L 827.6 278.9 L 840.6 275.3 L 853.6 271.9 L 866.8 268.7 L 880.0 265.8 L 893.4 263.2 L 906.8 260.8 L 920.2 258.7 L 933.7 256.8 L 947.3 255.2 L 961.0 253.9 L 974.6 252.8 L 988.4 252.0 L 1002.1 251.4 L 1015.9 251.2 L 1029.7 251.1 L 1043.6 251.4 L 1057.4 251.9 L 1071.3 252.7 L 1085.1 253.8 L 1099.0 255.2 L 1112.9 256.8 L 1126.7 258.7 L 1140.6 260.8 L 1154.4 263.3 L 1168.2 266.0 L 1181.9 269.0 L 1195.6 272.2 L 1209.3 275.7 L 1222.9 279.6 L 1236.5 283.6 L 1250.0 288.0 L 1263.5 292.6 L 1276.9 297.5 L 1290.2 302.6 L 1303.4 308.0 L 1316.5 313.7 L 1329.6 319.7 L 1342.5 325.9 L 1355.4 332.4 L 1368.1 339.1 L 1380.7 346.1 L 1393.2 353.3 L 1405.6 360.8 L 1417.9 368.6 L 1430.0 376.6 L 1442.0 384.9 L 1453.8 393.4 L 1465.5 402.1 L 1477.0 411.1 L 1488.4 420.3 L 1499.6 429.8 L 1510.7 439.5 L 1521.5 449.4 L 1532.2 459.5 L 1542.7 469.9 L 1553.1 480.5 L 1563.2 491.3 L 1573.1 502.3 L 1582.9 513.5 L 1592.4 524.9 L 1601.7 536.6 L 1610.8 548.4 L 1619.7 560.4 L 1628.4 572.6 L 1636.8 585.0 L 1645.0 597.6 L 1653.0 610.4 L 1660.7 623.3 L 1668.2 636.4 L 1675.5 649.7 L 1682.5 663.1 L 1689.2 676.7 L 1695.7 690.4 L 1702.0 704.3 L 1707.9 718.3 L 1713.7 732.5 L 1719.1 746.8 L 1724.3 761.2 L 1729.2 775.7 L 1733.8 790.3 L 1738.1 805.1 L 1742.2 819.9 L 1746.0 834.9 L 1749.5 850.0 L 1752.7 865.1 L 1755.6 880.3 L 1758.2 895.6 L 1760.5 911.0 L 1762.5 926.4 L 1764.3 941.9 L 1765.7 957.5 L 1766.8 973.1 L 1767.6 988.7 L 1768.2 1004.4 L 1768.4 1020.1 L 1768.3 1035.8 L 1767.9 1051.6 L 1767.2 1067.3 L 1766.2 1083.1 L 1764.9 1098.9 L 1763.2 1114.7 L 1761.3 1130.4 L 1759.0 1146.2 L 1756.5 1161.9 L 1753.6 1177.6 L 1750.4 1193.2 L 1747.0 1208.8 L 1743.2 1224.4 L 1739.1 1239.9 L 1734.7 1255.4 L 1729.9 1270.7 L 1724.9 1286.0 L 1719.6 1301.3 L 1714.0 1316.4 L 1708.0 1331.5 L 1701.8 1346.4 L 1695.3 1361.3 L 1688.4 1376.1 L 1681.3 1390.7 L 1673.9 1405.2 L 1666.2 1419.6 L 1658.2 1433.9 L 1649.9 1448.0 L 1641.3 1462.0 L 1632.4 1475.8 L 1623.3 1489.5 L 1613.9 1503.0 L 1604.2 1516.3 L 1594.2 1529.5 L 1584.0 1542.5 L 1573.5 1555.3 L 1562.8 1567.9 L 1551.7 1580.4 L 1540.5 1592.6 L 1528.9 1604.6 L 1517.2 1616.4 L 1505.1 1628.0 L 1492.9 1639.4 L 1480.4 1650.6 L 1467.7 1661.5 L 1454.7 1672.2 L 1441.5 1682.7 L 1428.1 1692.9 L 1414.5 1702.8 L 1400.7 1712.5 L 1386.6 1722.0 L 1372.4 1731.2 L 1358.0 1740.1 L 1343.3 1748.8 L 1328.5 1757.1 L 1313.6 1765.2 L 1298.4 1773.1 L 1283.1 1780.6 L 1267.6 1787.8 L 1251.9 1794.8 L 1236.1 1801.4 L 1220.1 1807.8 L 1204.0 1813.9 L 1187.8 1819.6 L 1171.4 1825.0 L 1154.9 1830.2 L 1138.3 1835.0 L 1121.6 1839.5 L 1104.7 1843.6 L 1087.8 1847.5 L 1070.8 1851.0 L 1053.6 1854.2 L 1036.4 1857.1 L 1019.2 1859.6 L 1001.8 1861.8 L 984.4 1863.7 L 966.9 1865.2 L 949.4 1866.4 L 931.8 1867.3 L 914.2 1867.8 L 896.6 1868.0 L 879.0 1867.8 L 861.3 1867.3 L 843.6 1866.4 L 825.9 1865.2 L 808.2 1863.7 L 790.6 1861.8 L 772.9 1859.5 L 755.3 1856.9" fill="none" stroke="rgb(221,221,221)" stroke-width="1.0"/>
<circle cx="960.00" cy="653.33" r="3.00" fill="rgb(165,200,50)" stroke="rgb(51,51,51)" stroke-width="2.0"/>
<circle cx="1031.41" cy="647.12" r="3.00" fill="rgb(175,95,25)" stroke="rgb(51,51,51)" stroke-width="2.0"/>
<circle cx="1105.44" cy="658.00" r="3.00" fill="rgb(230,175,40)" stroke="rgb(51,51,51)" stroke-width="2.0"/>
<circle cx="1177.88" cy="686.78" r="3.00" fill="rgb(45,25,10)" stroke="rgb(51,51,51)" stroke-width="2.0"/>
<circle cx="1244.37" cy="733.22" r="3.00" fill="rgb(85,45,15)" stroke="rgb(51,51,51)" stroke-width="2.0"/>
<circle cx="1300.55" cy="796.00" r="3.00" fill="rgb(165,200,50)" stroke="rgb(51,51,51)" stroke-width="2.0"/>
<circle cx="1370.23" cy="1053.63" r="3.00" fill="rgb(80,165,40)" stroke="rgb(51,51,51)" stroke-width="2.0"/>
<circle cx="1351.96" cy="1148.76" r="3.00" fill="rgb(165,200,50)" stroke="rgb(51,51,51)" stroke-width="2.0"/>
<circle cx="1311.28" cy="1240.14" r="3.00" fill="rgb(130,70,20)" stroke="rgb(51,51,51)" stroke-width="2.0"/>
<circle cx="1249.03" cy="1322.43" r="3.00" fill="rgb(175,95,25)" stroke="rgb(51,51,51)" stroke-width="2.0"/>
<circle cx="1167.32" cy="1390.51" r="3.00" fill="rgb(210,130,30)" stroke="rgb(51,51,51)" stroke-width="2.0"/>
<circle cx="1069.50" cy="1439.76" r="3.00" fill="rgb(240,215,50)" stroke="rgb(51,51,51)" stroke-width="2.0"/>
<circle cx="960.00" cy="1466.36" r="3.00" fill="rgb(80,165,40)" stroke="rgb(51,51,51)" stroke-width="2.0"/>
<circle cx="844.15" cy="1467.57" r="3.00" fill="rgb(240,215,50)" stroke="rgb(51,51,51)" stroke-width="2.0"/>
<circle cx="727.92" cy="1441.91" r="3.00" fill="rgb(210,130,30)" stroke="rgb(51,51,51)" stroke-width="2.0"/>
<circle cx="617.61" cy="1389.34" r="3.00" fill="rgb(240,215,50)" stroke="rgb(51,51,51)" stroke-width="2.0"/>
<circle cx="519.51" cy="1311.28" r="3.00" fill="rgb(175,95,25)" stroke="rgb(51,51,51)" stroke-width="2.0"/>
<circle cx="439.53" cy="1210.64" r="3.00" fill="rgb(230,175,40)" stroke="rgb(51,51,51)" stroke-width="2.0"/>
<circle cx="382.90" cy="1091.72" r="3.00" fill="rgb(85,45,15)" stroke="rgb(51,51,51)" stroke-width="2.0"/>
<circle cx="353.80" cy="960.00" r="3.00" fill="rgb(85,45,15)" stroke="rgb(51,51,51)" stroke-width="2.0"/>
<circle cx="355.09" cy="821.93" r="4.00" fill="rgb(25,120,20)" stroke="rgb(51,51,51)" stroke-width="2.0"/>
<circle cx="388.13" cy="684.60" r="3.00" fill="rgb(80,165,40)" stroke="rgb(51,51,51)" stroke-width="2.0"/>
<circle cx="546.47" cy="441.45" r="3.00" fill="rgb(210,130,30)" stroke="rgb(51,51,51)" stroke-width="2.0"/>
<circle cx="666.04" cy="349.58" r="3.00" fill="rgb(230,175,40)" stroke="rgb(51,51,51)" stroke-width="2.0"/>
<circle cx="806.06" cy="285.56" r="3.00" fill="rgb(175,95,25)" stroke="rgb(51,51,51)" stroke-width="2.0"/>
<circle cx="960.00" cy="253.95" r="3.00" fill="rgb(165,200,50)" stroke="rgb(51,51,51)" stroke-width="2.0"/>
<circle cx="1120.28" cy="257.75" r="3.00" fill="rgb(130,70,20)" stroke="rgb(51,51,51)" stroke-width="2.0"/>
<circle cx="1278.72" cy="298.17" r="3.00" fill="rgb(45,25,10)" stroke="rgb(51,51,51)" stroke-width="2.0"/>
<circle cx="1426.89" cy="374.54" r="3.00" fill="rgb(45,25,10)" stroke="rgb(51,51,51)" stroke-width="2.0"/>
<circle cx="1556.62" cy="484.21" r="3.00" fill="rgb(130,70,20)" stroke="rgb(51,51,51)" stroke-width="2.0"/>
<circle cx="1660.38" cy="622.71" r="3.00" fill="rgb(45,25,10)" stroke="rgb(51,51,51)" stroke-width="2.0"/>
<circle cx="1731.78" cy="783.85" r="3.00" fill="rgb(15,10,5)" stroke="rgb(51,51,51)" stroke-width="2.0"/>
<circle cx="1765.89" cy="960.00" r="3.00" fill="rgb(230,175,40)" stroke="rgb(51,51,51)" stroke-width="2.0"/>
<circle cx="1759.59" cy="1142.50" r="3.00" fill="rgb(80,165,40)" stroke="rgb(51,51,51)" stroke-width="2.0"/>
<circle cx="1711.79" cy="1322.04" r="3.12" fill="rgb(25,120,20)" stroke="rgb(51,51,51)" stroke-width="2.0"/>
<circle cx="1623.53" cy="1489.14" r="3.00" fill="rgb(175,95,25)" stroke="rgb(51,51,51)" stroke-width="2.0"/>
<circle cx="1498.04" cy="1634.68" r="3.00" fill="rgb(85,45,15)" stroke="rgb(51,51,51)" stroke-width="2.0"/>
<circle cx="1340.61" cy="1750.34" r="3.00" fill="rgb(80,165,40)" stroke="rgb(51,51,51)" stroke-width="2.0"/>
<circle cx="1158.37" cy="1829.12" r="3.00" fill="rgb(240,215,50)" stroke="rgb(51,51,51)" stroke-width="2.0"/>
<circle cx="960.00" cy="1865.74" r="3.33" fill="rgb(25,120,20)" stroke="rgb(51,51,51)" stroke-width="2.0"/>
<circle cx="755.28" cy="1856.93" r="3.00" fill="rgb(130,70,20)" stroke="rgb(51,51,51)" stroke-width="2.0"/>
<text x="960.00" y="646.33" fill="rgb(34,34,34)" font-size="12.0" font-family="sans-serif" text-anchor="start" dominant-baseline="central">Apr 4</text>
<text x="960.00" y="246.95" fill="rgb(34,34,34)" font-size="12.0" font-family="sans-serif" text-anchor="start" dominant-baseline="central" transform="rotate(360.00 960.00 246.95)">May 2</text>
<rect x="1754.00" y="1553.00" width="150.00" height="351.00" fill="rgba(255,255,255,0.902)" stroke="rgba(153,153,153,0.800)" stroke-width="1.0"/>
<text x="1766.00" y="1578.00" fill="rgb(38,38,38)" font-size="13.0" font-family="sans-serif" text-anchor="start" dominant-baseline="central">Fill: commit-count</text>
<rect x="1766.00" y="1584.00" width="28.00" height="28.00" fill="rgb(15,10,5)" stroke="rgb(102,102,102)" stroke-width="0.5"/>
<text x="1800.00" y="1612.00" fill="rgb(51,51,51)" font-size="12.0" font-family="sans-serif" text-anchor="start" dominant-baseline="central">24</text>
<rect x="1766.00" y="1612.00" width="28.00" height="28.00" fill="rgb(45,25,10)" stroke="rgb(102,102,102)" stroke-width="0.5"/>
<text x="1800.00" y="1640.00" fill="rgb(51,51,51)" font-size="12.0" font-family="sans-serif" text-anchor="start" dominant-baseline="central">76</text>
<rect x="1766.00" y="1640.00" width="28.00" height="28.00" fill="rgb(85,45,15)" stroke="rgb(102,102,102)" stroke-width="0.5"/>
<text x="1800.00" y="1668.00" fill="rgb(51,51,51)" font-size="12.0" font-family="sans-serif" text-anchor="start" dominant-baseline="central">120</text>
<rect x="1766.00" y="1668.00" width="28.00" height="28.00" fill="rgb(130,70,20)" stroke="rgb(102,102,102)" stroke-width="0.5"/>
<text x="1800.00" y="1696.00" fill="rgb(51,51,51)" font-size="12.0" font-family="sans-serif" text-anchor="start" dominant-baseline="central">210</text>
<rect x="1766.00" y="1696.00" width="28.00" height="28.00" fill="rgb(175,95,25)" stroke="rgb(102,102,102)" stroke-width="0.5"/>
<text x="1800.00" y="1724.00" fill="rgb(51,51,51)" font-size="12.0" font-family="sans-serif" text-anchor="start" dominant-baseline="central">250</text>
<rect x="1766.00" y="1724.00" width="28.00" height="28.00" fill="rgb(210,130,30)" stroke="rgb(102,102,102)" stroke-width="0.5"/>
<text x="1800.00" y="1752.00" fill="rgb(51,51,51)" font-size="12.0" font-family="sans-serif" text-anchor="start" dominant-baseline="central">350</text>
<rect x="1766.00" y="1752.00" width="28.00" height="28.00" fill="rgb(230,175,40)" stroke="rgb(102,102,102)" stroke-width="0.5"/>
<text x="1800.00" y="1780.00" fill="rgb(51,51,51)" font-size="12.0" font-family="sans-serif" text-anchor="start" dominant-baseline="central">380</text>
<rect x="1766.00" y="1780.00" width="28.00" height="28.00" fill="rgb(240,215,50)" stroke="rgb(102,102,102)" stroke-width="0.5"/>
<text x="1800.00" y="1808.00" fill="rgb(51,51,51)" font-size="12.0" font-family="sans-serif" text-anchor="start" dominant-baseline="central">610</text>
<rect x="1766.00" y="1808.00" width="28.00" height="28.00" fill="rgb(165,200,50)" stroke="rgb(102,102,102)" stroke-width="0.5"/>
<text x="1800.00" y="1836.00" fill="rgb(51,51,51)" font-size="12.0" font-family="sans-serif" text-anchor="start" dominant-baseline="central">910</text>
<rect x="1766.00" y="1836.00" width="28.00" height="28.00" fill="rgb(80,165,40)" stroke="rgb(102,102,102)" stroke-width="0.5"/>
<text x="1800.00" y="1864.00" fill="rgb(51,51,51)" font-size="12.0" font-family="sans-serif" text-anchor="start" dominant-baseline="central">1400</text>
<rect x="1766.00" y="1864.00" width="28.00" height="28.00" fill="rgb(25,120,20)" stroke="rgb(102,102,102)" stroke-width="0.5"/>
</svg>
