<svg xmlns="http://www.w3.org/2000/svg" width="1920" height="1920">
<rect x="0.00" y="0.00" width="1920.00" height="1920.00" fill="rgb(255,255,255)" stroke="rgb(255,255,255)" stroke-width="0.0"/>
<path d="M 960.0 644.3 L 974.0 643.4 L 988.2 643.2 L 1002.4 643.6 L 1016.6 644.7 L 1030.7 646.5 L 1044.9 648.9 L 1059.0 652.0 L 1072.9 655.8 L 1086.8 660.2 L 1100.4 665.3 L 1113.9 671.1 L 1127.1 677.5 L 1140.1 684.5 L 1152.7 692.2 L 1165.1 700.4 L 1177.1 709.3 L 1188.7 718.7 L 1199.9 728.8 L 1210.6 739.3 L 1220.9 750.4 L 1230.7 762.0 L 1240.0 774.1 L 1248.8 786.7 L 1256.9 799.7 L 1264.5 813.1 L 1271.5 826.9 L 1277.8 841.1 L 1283.6 855.6 L 1288.6 870.4 L 1293.0 885.5 L 1296.6 900.8 L 1299.6 916.3 L 1301.8 932.0 L 1303.3 947.9 L 1304.1 963.8 L 1304.2 979.9 L 1303.4 996.0 L 1302.0 1012.0 L 1299.7 1028.1 L 1296.8 1044.1 L 1293.0 1059.9 L 1288.6 1075.7 L 1283.3 1091.2 L 1277.4 1106.6 L 1270.7 1121.7 L 1263.2 1136.6 L 1255.1 1151.1 L 1246.3 1165.3 L 1236.8 1179.1 L 1226.6 1192.5 L 1215.8 1205.4 L 1204.3 1217.9 L 1192.3 1229.8 L 1179.6 1241.2 L 1166.4 1252.1 L 1152.7 1262.4 L 1138.4 1272.0 L 1123.7 1281.0 L 1108.5 1289.3 L 1092.9 1297.0 L 1076.9 1303.9 L 1060.6 1310.1 L 1043.9 1315.6 L 1026.9 1320.2 L 1009.7 1324.1 L 992.3 1327.2 L 974.6 1329.5 L 956.9 1331.0 L 939.0 1331.7 L 921.1 1331.5 L 903.1 1330.5 L 885.2 1328.6 L 867.3 1325.9 L 849.5 1322.4 L 831.8 1318.0 L 814.3 1312.8 L 797.0 1306.7 L 779.9 1299.9 L 763.1 1292.2 L 746.7 1283.8 L 730.6 1274.5 L 714.9 1264.5 L 699.7 1253.7 L 684.9 1242.2 L 670.7 1230.0 L 656.9 1217.1 L 643.8 1203.6 L 631.3 1189.4 L 619.4 1174.6 L 608.1 1159.2 L 597.6 1143.2 L 587.8 1126.8 L 578.7 1109.8 L 570.4 1092.4 L 562.9 1074.6 L 556.3 1056.4 L 550.4 1037.9 L 545.4 1019.0 L 541.3 999.9 L 538.1 980.5 L 535.8 961.0 L 534.3 941.3 L 533.8 921.6 L 534.2 901.7 L 535.6 881.9 L 537.8 862.1 L 541.0 842.3 L 545.1 822.7 L 550.2 803.2 L 556.1 783.9 L 563.0 764.9 L 570.7 746.1 L 579.4 727.7 L 588.9 709.7 L 599.3 692.1 L 610.5 674.9 L 622.5 658.2 L 635.3 642.1 L 648.9 626.5 L 663.3 611.5 L 678.3 597.2 L 694.1 583.6 L 710.5 570.6 L 727.6 558.4 L 745.2 547.0 L 763.4 536.4 L 782.1 526.6 L 801.4 517.7 L 821.0 509.7 L 841.1 502.5 L 861.5 496.3 L 882.2 491.1 L 903.3 486.7 L 924.5 483.4 L 946.0 481.0 L 967.6 479.7 L 989.2 479.3 L 1011.0 480.0 L 1032.7 481.6 L 1054.4 484.3 L 1076.0 488.0 L 1097.4 492.7 L 1118.7 498.4 L 1139.7 505.1 L 1160.5 512.8 L 1180.9 521.5 L 1201.0 531.1 L 1220.6 541.7 L 1239.8 553.2 L 1258.4 565.7 L 1276.5 579.0 L 1294.0 593.1 L 1310.9 608.1 L 1327.1 624.0 L 1342.6 640.5 L 1357.3 657.9 L 1371.3 675.9 L 1384.4 694.6 L 1396.7 714.0 L 1408.1 733.9 L 1418.6 754.4 L 1428.1 775.5 L 1436.7 797.0 L 1444.3 818.9 L 1450.8 841.2 L 1456.4 863.8 L 1460.9 886.8 L 1464.3 909.9 L 1466.7 933.3 L 1467.9 956.8 L 1468.1 980.4 L 1467.2 1004.0 L 1465.2 1027.6 L 1462.1 1051.2 L 1457.9 1074.6 L 1452.6 1097.9 L 1446.2 1120.9 L 1438.7 1143.7 L 1430.2 1166.2 L 1420.6 1188.3 L 1409.9 1210.0 L 1398.2 1231.2 L 1385.6 1251.9 L 1371.9 1272.0 L 1357.3 1291.5 L 1341.8 1310.4 L 1325.4 1328.5 L 1308.1 1346.0 L 1290.0 1362.6 L 1271.1 1378.4 L 1251.4 1393.4 L 1231.0 1407.4 L 1210.0 1420.5 L 1188.2 1432.7 L 1166.0 1443.9 L 1143.1 1454.0 L 1119.8 1463.1 L 1096.0 1471.1 L 1071.8 1478.0 L 1047.3 1483.8 L 1022.4 1488.5 L 997.3 1492.0 L 972.1 1494.4 L 946.7 1495.6 L 921.2 1495.6 L 895.6 1494.4 L 870.2 1492.0 L 844.7 1488.5 L 819.5 1483.7 L 794.4 1477.8 L 769.5 1470.7 L 745.0 1462.4 L 720.8 1453.0 L 697.1 1442.5 L 673.8 1430.8 L 651.0 1418.0 L 628.8 1404.2 L 607.2 1389.3 L 586.3 1373.4 L 566.1 1356.5 L 546.6 1338.7 L 528.0 1319.9 L 510.2 1300.3 L 493.3 1279.8 L 477.4 1258.4 L 462.4 1236.4 L 448.4 1213.6 L 435.5 1190.1 L 423.7 1166.0 L 413.0 1141.4 L 403.4 1116.2 L 394.9 1090.5 L 387.7 1064.5 L 381.6 1038.0 L 376.8 1011.3 L 373.2 984.3 L 370.9 957.1 L 369.8 929.8 L 370.0 902.4 L 371.5 875.0 L 374.3 847.6 L 378.3 820.3 L 383.6 793.2 L 390.1 766.3 L 398.0 739.7 L 407.0 713.4 L 417.3 687.6 L 428.8 662.1 L 441.5 637.2 L 455.4 612.9 L 470.4 589.2 L 486.5 566.1 L 503.7 543.8 L 522.0 522.3 L 541.3 501.5 L 561.5 481.7 L 582.7 462.8 L 604.8 444.9 L 627.8 427.9 L 651.6 412.1 L 676.1 397.3 L 701.3 383.6 L 727.2 371.1 L 753.7 359.8 L 780.7 349.7 L 808.2 340.9 L 836.2 333.3 L 864.5 327.1 L 893.2 322.1 L 922.1 318.5 L 951.2 316.2 L 980.4 315.2 L 1009.7 315.7 L 1039.1 317.4 L 1068.3 320.6 L 1097.4 325.1 L 1126.4 330.9 L 1155.1 338.2 L 1183.4 346.7 L 1211.5 356.6 L 1239.0 367.8 L 1266.1 380.2 L 1292.6 394.0 L 1318.5 409.0 L 1343.7 425.2 L 1368.2 442.6 L 1391.9 461.1 L 1414.8 480.7 L 1436.7 501.5 L 1457.8 523.2 L 1477.8 546.0 L 1496.8 569.7 L 1514.7 594.3 L 1531.4 619.8 L 1547.0 646.0 L 1561.4 673.0 L 1574.5 700.7 L 1586.4 729.1 L 1597.0 757.9 L 1606.2 787.3 L 1614.0 817.2 L 1620.5 847.4 L 1625.6 878.0 L 1629.3 908.8 L 1631.5 939.9 L 1632.3 971.0 L 1631.7 1002.2 L 1629.6 1033.4 L 1626.0 1064.5 L 1621.0 1095.5 L 1614.6 1126.3 L 1606.7 1156.8 L 1597.4 1186.9 L 1586.7 1216.6 L 1574.6 1245.9 L 1561.2 1274.6 L 1546.4 1302.7 L 1530.2 1330.2 L 1512.8 1356.9 L 1494.2 1382.8 L 1474.3 1407.9 L 1453.3 1432.0 L 1431.1 1455.3 L 1407.8 1477.4 L 1383.5 1498.6 L 1358.1 1518.6 L 1331.9 1537.4 L 1304.7 1555.1 L 1276.7 1571.5 L 1247.9 1586.5 L 1218.4 1600.3 L 1188.3 1612.7 L 1157.5 1623.7 L 1126.2 1633.3 L 1094.5 1641.5 L 1062.3 1648.2 L 1029.8 1653.4 L 997.1 1657.0 L 964.2 1659.2 L 931.1 1659.9 L 898.0 1659.0 L 864.9 1656.5 L 831.9 1652.6 L 799.1 1647.0 L 766.5 1640.0 L 734.2 1631.5 L 702.3 1621.4 L 670.9 1609.9 L 639.9 1596.8 L 609.6 1582.4 L 579.9 1566.5 L 550.9 1549.2 L 522.7 1530.6 L 495.4 1510.7 L 468.9 1489.5 L 443.5 1467.0 L 419.0 1443.4 L 395.7 1418.5 L 373.4 1392.6 L 352.4 1365.7 L 332.6 1337.8 L 314.1 1308.9 L 297.0 1279.1 L 281.2 1248.6 L 266.8 1217.2 L 253.8 1185.2 L 242.4 1152.6 L 232.4 1119.5 L 224.0 1085.8 L 217.2 1051.8 L 211.9 1017.4 L 208.2 982.7 L 206.1 947.9 L 205.6 912.9 L 206.8 877.9 L 209.6 842.9 L 214.0 808.1 L 220.0 773.4 L 227.7 739.0 L 236.9 704.9 L 247.7 671.3 L 260.1 638.1 L 274.1 605.5 L 289.6 573.5 L 306.5 542.2 L 324.9 511.7 L 344.8 482.0 L 366.0 453.3 L 388.6 425.5 L 412.5 398.7 L 437.6 373.1 L 463.9 348.6 L 491.4 325.3 L 520.0 303.2 L 549.6 282.5 L 580.2 263.2 L 611.7 245.2 L 644.1 228.8 L 677.2 213.8 L 711.1 200.3 L 745.6 188.4 L 780.6 178.1 L 816.2 169.5 L 852.1 162.4 L 888.4 157.1 L 925.0 153.4 L 961.8 151.4 L 998.7 151.1 L 1035.6 152.6 L 1072.4 155.7 L 1109.1 160.6 L 1145.6 167.2 L 1181.9 175.4 L 1217.7 185.4 L 1253.1 197.0 L 1288.0 210.3 L 1322.3 225.2 L 1355.9 241.7 L 1388.7 259.7 L 1420.8 279.3 L 1451.9 300.4 L 1482.1 322.9 L 1511.2 346.9 L 1539.2 372.2 L 1566.1 398.8 L 1591.7 426.7 L 1616.1 455.8 L 1639.1 486.0 L 1660.7 517.3 L 1680.9 549.6 L 1699.6 582.9 L 1716.8 617.1 L 1732.3 652.0 L 1746.3 687.7 L 1758.6 724.1 L 1769.2 761.0 L 1778.1 798.5 L 1785.3 836.4 L 1790.7 874.6 L 1794.4 913.1 L 1796.2 951.8 L 1796.3 990.5 L 1794.6 1029.3 L 1791.0 1068.1 L 1785.7 1106.6 L 1778.6 1145.0 L 1769.7 1183.0 L 1759.0 1220.7 L 1746.6 1257.8 L 1732.4 1294.4 L 1716.6 1330.3 L 1699.0 1365.5 L 1679.9 1400.0 L 1659.1 1433.5 L 1636.8 1466.1 L 1612.9 1497.6 L 1587.6 1528.1 L 1560.8 1557.4 L 1532.7 1585.5 L 1503.3 1612.2 L 1472.6 1637.7 L 1440.7 1661.6 L 1407.7 1684.2 L 1373.6 1705.2 L 1338.6 1724.6 L 1302.6 1742.4 L 1265.9 1758.6 L 1228.3 1773.0 L 1190.1 1785.7 L 1151.2 1796.6 L 1111.9 1805.8 L 1072.1 1813.1 L 1031.9 1818.6 L 991.5 1822.2 L 950.9 1823.9 L 910.2 1823.7 L 869.6 1821.7 L 828.9 1817.8 L 788.5 1812.0 L 748.3 1804.3 L 708.5 1794.7 L 669.1 1783.3 L 630.2 1770.0 L 591.9 1755.0 L 554.3 1738.2 L 517.5 1719.6 L 481.5 1699.3 L 446.5 1677.3 L 412.5 1653.7 L 379.5 1628.5 L 347.8 1601.8 L 317.2 1573.6 L 287.9 1544.0 L 260.1 1513.0 L 233.6 1480.7 L 208.6 1447.1 L 185.2 1412.4 L 163.4 1376.6 L 143.3 1339.8" fill="none" stroke="rgb(221,221,221)" stroke-width="1.0"/>
<circle cx="960.00" cy="644.33" r="23.79" fill="rgb(80,165,40)" stroke="rgb(51,51,51)" stroke-width="3.0"/>
<circle cx="1028.54" cy="646.19" r="11.72" fill="rgb(230,175,40)" stroke="rgb(51,51,51)" stroke-width="3.0"/>
<circle cx="1096.20" cy="663.68" r="14.64" fill="rgb(165,200,50)" stroke="rgb(51,51,51)" stroke-width="3.0"/>
<circle cx="1159.37" cy="696.49" r="5.86" fill="rgb(85,45,15)" stroke="rgb(51,51,51)" stroke-width="2.0"/>
<circle cx="1214.59" cy="743.47" r="4.14" fill="rgb(45,25,10)" stroke="rgb(51,51,51)" stroke-width="2.0"/>
<circle cx="1258.67" cy="802.67" r="12.77" fill="rgb(230,175,40)" stroke="rgb(51,51,51)" stroke-width="3.0"/>
<circle cx="1300.35" cy="1024.18" r="24.15" fill="rgb(25,120,20)" stroke="rgb(51,51,51)" stroke-width="3.0"/>
<circle cx="1279.82" cy="1100.52" r="17.82" fill="rgb(165,200,50)" stroke="rgb(51,51,51)" stroke-width="3.0"/>
<circle cx="1242.12" cy="1171.48" r="5.86" fill="rgb(85,45,15)" stroke="rgb(51,51,51)" stroke-width="2.0"/>
<circle cx="1188.64" cy="1233.20" r="10.96" fill="rgb(230,175,40)" stroke="rgb(51,51,51)" stroke-width="3.0"/>
<circle cx="1121.65" cy="1282.18" r="9.71" fill="rgb(210,130,30)" stroke="rgb(51,51,51)" stroke-width="3.0"/>
<circle cx="1044.21" cy="1315.45" r="10.56" fill="rgb(210,130,30)" stroke="rgb(51,51,51)" stroke-width="3.0"/>
<circle cx="960.00" cy="1330.81" r="14.64" fill="rgb(165,200,50)" stroke="rgb(51,51,51)" stroke-width="3.0"/>
<circle cx="873.18" cy="1326.89" r="13.42" fill="rgb(240,215,50)" stroke="rgb(51,51,51)" stroke-width="3.0"/>
<circle cx="788.16" cy="1303.32" r="8.79" fill="rgb(175,95,25)" stroke="rgb(51,51,51)" stroke-width="3.0"/>
<circle cx="709.41" cy="1260.73" r="11.72" fill="rgb(230,175,40)" stroke="rgb(51,51,51)" stroke-width="3.0"/>
<circle cx="641.19" cy="1200.75" r="7.17" fill="rgb(85,45,15)" stroke="rgb(51,51,51)" stroke-width="2.0"/>
<circle cx="587.32" cy="1125.97" r="13.10" fill="rgb(240,215,50)" stroke="rgb(51,51,51)" stroke-width="3.0"/>
<circle cx="551.01" cy="1039.85" r="5.86" fill="rgb(85,45,15)" stroke="rgb(51,51,51)" stroke-width="2.0"/>
<circle cx="534.62" cy="946.50" r="9.71" fill="rgb(210,130,30)" stroke="rgb(51,51,51)" stroke-width="3.0"/>
<circle cx="539.56" cy="850.54" r="23.61" fill="rgb(80,165,40)" stroke="rgb(51,51,51)" stroke-width="3.0"/>
<circle cx="566.17" cy="756.84" r="20.08" fill="rgb(80,165,40)" stroke="rgb(51,51,51)" stroke-width="3.0"/>
<circle cx="680.15" cy="595.58" r="14.93" fill="rgb(165,200,50)" stroke="rgb(51,51,51)" stroke-width="3.0"/>
<circle cx="762.71" cy="536.81" r="8.79" fill="rgb(175,95,25)" stroke="rgb(51,51,51)" stroke-width="3.0"/>
<circle cx="857.51" cy="497.46" r="9.71" fill="rgb(210,130,30)" stroke="rgb(51,51,51)" stroke-width="3.0"/>
<circle cx="960.00" cy="480.05" r="18.29" fill="rgb(165,200,50)" stroke="rgb(51,51,51)" stroke-width="3.0"/>
<circle cx="1065.10" cy="486.02" r="5.86" fill="rgb(85,45,15)" stroke="rgb(51,51,51)" stroke-width="2.0"/>
<circle cx="1167.48" cy="515.67" r="8.79" fill="rgb(175,95,25)" stroke="rgb(51,51,51)" stroke-width="3.0"/>
<circle cx="1261.80" cy="568.05" r="8.79" fill="rgb(175,95,25)" stroke="rgb(51,51,51)" stroke-width="3.0"/>
<circle cx="1343.04" cy="641.04" r="6.55" fill="rgb(85,45,15)" stroke="rgb(51,51,51)" stroke-width="2.0"/>
<circle cx="1406.69" cy="731.39" r="5.07" fill="rgb(45,25,10)" stroke="rgb(51,51,51)" stroke-width="2.0"/>
<circle cx="1449.08" cy="834.87" r="3.00" fill="rgb(15,10,5)" stroke="rgb(51,51,51)" stroke-width="2.0"/>
<circle cx="1467.52" cy="946.50" r="19.65" fill="rgb(80,165,40)" stroke="rgb(51,51,51)" stroke-width="3.0"/>
<circle cx="1460.52" cy="1060.74" r="18.75" fill="rgb(80,165,40)" stroke="rgb(51,51,51)" stroke-width="3.0"/>
<circle cx="1427.83" cy="1171.80" r="28.24" fill="rgb(25,120,20)" stroke="rgb(51,51,51)" stroke-width="3.0"/>
<circle cx="1370.56" cy="1273.91" r="11.34" fill="rgb(230,175,40)" stroke="rgb(51,51,51)" stroke-width="3.0"/>
<circle cx="1291.07" cy="1361.65" r="7.75" fill="rgb(130,70,20)" stroke="rgb(51,51,51)" stroke-width="2.0"/>
<circle cx="1192.93" cy="1430.19" r="19.43" fill="rgb(80,165,40)" stroke="rgb(51,51,51)" stroke-width="3.0"/>
<circle cx="1080.77" cy="1475.62" r="9.71" fill="rgb(210,130,30)" stroke="rgb(51,51,51)" stroke-width="3.0"/>
<circle cx="960.00" cy="1495.09" r="23.79" fill="rgb(80,165,40)" stroke="rgb(51,51,51)" stroke-width="3.0"/>
<circle cx="836.62" cy="1487.06" r="24.85" fill="rgb(25,120,20)" stroke="rgb(51,51,51)" stroke-width="3.0"/>
<circle cx="716.88" cy="1451.34" r="9.71" fill="rgb(210,130,30)" stroke="rgb(51,51,51)" stroke-width="3.0"/>
<circle cx="606.98" cy="1389.17" r="14.93" fill="rgb(165,200,50)" stroke="rgb(51,51,51)" stroke-width="3.0"/>
<circle cx="512.74" cy="1303.18" r="9.71" fill="rgb(210,130,30)" stroke="rgb(51,51,51)" stroke-width="3.0"/>
<circle cx="439.30" cy="1197.25" r="14.35" fill="rgb(240,215,50)" stroke="rgb(51,51,51)" stroke-width="3.0"/>
<circle cx="390.84" cy="1076.41" r="10.56" fill="rgb(210,130,30)" stroke="rgb(51,51,51)" stroke-width="3.0"/>
<circle cx="370.33" cy="946.50" r="18.75" fill="rgb(80,165,40)" stroke="rgb(51,51,51)" stroke-width="3.0"/>
<circle cx="379.40" cy="813.98" r="28.55" fill="rgb(25,120,20)" stroke="rgb(51,51,51)" stroke-width="3.0"/>
<circle cx="418.16" cy="685.56" r="17.33" fill="rgb(165,200,50)" stroke="rgb(51,51,51)" stroke-width="3.0"/>
<circle cx="485.22" cy="567.88" r="10.15" fill="rgb(210,130,30)" stroke="rgb(51,51,51)" stroke-width="3.0"/>
<circle cx="577.72" cy="467.13" r="10.15" fill="rgb(210,130,30)" stroke="rgb(51,51,51)" stroke-width="3.0"/>
<circle cx="691.43" cy="388.80" r="5.07" fill="rgb(45,25,10)" stroke="rgb(51,51,51)" stroke-width="2.0"/>
<circle cx="820.95" cy="337.30" r="13.10" fill="rgb(240,215,50)" stroke="rgb(51,51,51)" stroke-width="3.0"/>
<circle cx="960.00" cy="315.76" r="13.42" fill="rgb(240,215,50)" stroke="rgb(51,51,51)" stroke-width="3.0"/>
<circle cx="1101.66" cy="325.86" r="18.98" fill="rgb(80,165,40)" stroke="rgb(51,51,51)" stroke-width="3.0"/>
<circle cx="1238.76" cy="367.65" r="14.93" fill="rgb(165,200,50)" stroke="rgb(51,51,51)" stroke-width="3.0"/>
<circle cx="1364.23" cy="439.61" r="10.15" fill="rgb(210,130,30)" stroke="rgb(51,51,51)" stroke-width="3.0"/>
<circle cx="1471.48" cy="538.61" r="3.00" fill="rgb(15,10,5)" stroke="rgb(51,51,51)" stroke-width="2.0"/>
<circle cx="1554.71" cy="660.11" r="8.28" fill="rgb(130,70,20)" stroke="rgb(51,51,51)" stroke-width="3.0"/>
<circle cx="1609.24" cy="798.31" r="13.74" fill="rgb(240,215,50)" stroke="rgb(51,51,51)" stroke-width="3.0"/>
<circle cx="1631.81" cy="946.50" r="31.95" fill="rgb(25,120,20)" stroke="rgb(51,51,51)" stroke-width="3.0"/>
<circle cx="1620.68" cy="1097.30" r="19.43" fill="rgb(80,165,40)" stroke="rgb(51,51,51)" stroke-width="3.0"/>
<circle cx="1575.85" cy="1243.08" r="5.86" fill="rgb(85,45,15)" stroke="rgb(51,51,51)" stroke-width="2.0"/>
<circle cx="1499.00" cy="1376.34" r="13.10" fill="rgb(240,215,50)" stroke="rgb(51,51,51)" stroke-width="3.0"/>
<circle cx="1393.50" cy="1490.09" r="8.79" fill="rgb(175,95,25)" stroke="rgb(51,51,51)" stroke-width="3.0"/>
<circle cx="1264.21" cy="1578.21" r="7.75" fill="rgb(130,70,20)" stroke="rgb(51,51,51)" stroke-width="2.0"/>
<circle cx="1117.32" cy="1635.79" r="4.14" fill="rgb(45,25,10)" stroke="rgb(51,51,51)" stroke-width="2.0"/>
<circle cx="960.00" cy="1659.38" r="23.97" fill="rgb(25,120,20)" stroke="rgb(51,51,51)" stroke-width="3.0"/>
<circle cx="800.06" cy="1647.23" r="33.26" fill="rgb(25,120,20)" stroke="rgb(51,51,51)" stroke-width="3.0"/>
<circle cx="645.60" cy="1599.35" r="32.08" fill="rgb(25,120,20)" stroke="rgb(51,51,51)" stroke-width="3.0"/>
<circle cx="504.55" cy="1517.61" r="14.35" fill="rgb(240,215,50)" stroke="rgb(51,51,51)" stroke-width="3.0"/>
<circle cx="384.30" cy="1405.61" r="9.26" fill="rgb(175,95,25)" stroke="rgb(51,51,51)" stroke-width="3.0"/>
<circle cx="291.29" cy="1268.54" r="4.14" fill="rgb(45,25,10)" stroke="rgb(51,51,51)" stroke-width="2.0"/>
<circle cx="230.67" cy="1112.96" r="12.08" fill="rgb(230,175,40)" stroke="rgb(51,51,51)" stroke-width="3.0"/>
<circle cx="206.05" cy="946.50" r="10.96" fill="rgb(230,175,40)" stroke="rgb(51,51,51)" stroke-width="3.0"/>
<circle cx="219.23" cy="777.42" r="33.90" fill="rgb(25,120,20)" stroke="rgb(51,51,51)" stroke-width="3.0"/>
<circle cx="270.14" cy="614.28" r="10.56" fill="rgb(210,130,30)" stroke="rgb(51,51,51)" stroke-width="3.0"/>
<circle cx="356.78" cy="465.45" r="5.07" fill="rgb(45,25,10)" stroke="rgb(51,51,51)" stroke-width="2.0"/>
<circle cx="475.29" cy="338.69" r="18.29" fill="rgb(165,200,50)" stroke="rgb(51,51,51)" stroke-width="3.0"/>
<circle cx="620.14" cy="240.78" r="11.34" fill="rgb(230,175,40)" stroke="rgb(51,51,51)" stroke-width="3.0"/>
<circle cx="784.40" cy="177.13" r="6.55" fill="rgb(85,45,15)" stroke="rgb(51,51,51)" stroke-width="2.0"/>
<circle cx="960.00" cy="151.48" r="8.28" fill="rgb(130,70,20)" stroke="rgb(51,51,51)" stroke-width="3.0"/>
<circle cx="1138.21" cy="165.69" r="24.68" fill="rgb(25,120,20)" stroke="rgb(51,51,51)" stroke-width="3.0"/>
<circle cx="1310.04" cy="219.64" r="13.10" fill="rgb(240,215,50)" stroke="rgb(51,51,51)" stroke-width="3.0"/>
<circle cx="1466.66" cy="311.17" r="8.79" fill="rgb(175,95,25)" stroke="rgb(51,51,51)" stroke-width="3.0"/>
<circle cx="1599.92" cy="436.18" r="9.26" fill="rgb(175,95,25)" stroke="rgb(51,51,51)" stroke-width="3.0"/>
<circle cx="1702.72" cy="588.82" r="7.75" fill="rgb(130,70,20)" stroke="rgb(51,51,51)" stroke-width="2.0"/>
<circle cx="1769.41" cy="761.76" r="7.17" fill="rgb(85,45,15)" stroke="rgb(51,51,51)" stroke-width="2.0"/>
<circle cx="1796.09" cy="946.50" r="8.79" fill="rgb(175,95,25)" stroke="rgb(51,51,51)" stroke-width="3.0"/>
<circle cx="1780.85" cy="1133.85" r="8.28" fill="rgb(130,70,20)" stroke="rgb(51,51,51)" stroke-width="3.0"/>
<circle cx="1723.87" cy="1314.36" r="8.79" fill="rgb(175,95,25)" stroke="rgb(51,51,51)" stroke-width="3.0"/>
<circle cx="1627.44" cy="1478.77" r="6.55" fill="rgb(85,45,15)" stroke="rgb(51,51,51)" stroke-width="2.0"/>
<circle cx="1495.93" cy="1618.53" r="5.86" fill="rgb(85,45,15)" stroke="rgb(51,51,51)" stroke-width="2.0"/>
<circle cx="1335.50" cy="1726.22" r="5.07" fill="rgb(45,25,10)" stroke="rgb(51,51,51)" stroke-width="2.0"/>
<circle cx="1153.88" cy="1795.95" r="10.15" fill="rgb(210,130,30)" stroke="rgb(51,51,51)" stroke-width="3.0"/>
<circle cx="960.00" cy="1823.66" r="15.50" fill="rgb(165,200,50)" stroke="rgb(51,51,51)" stroke-width="3.0"/>
<circle cx="763.51" cy="1807.39" r="4.14" fill="rgb(45,25,10)" stroke="rgb(51,51,51)" stroke-width="2.0"/>
<circle cx="402.12" cy="1646.06" r="12.43" fill="rgb(230,175,40)" stroke="rgb(51,51,51)" stroke-width="3.0"/>
<circle cx="255.86" cy="1508.04" r="7.75" fill="rgb(130,70,20)" stroke="rgb(51,51,51)" stroke-width="2.0"/>
<circle cx="143.27" cy="1339.82" r="5.86" fill="rgb(85,45,15)" stroke="rgb(51,51,51)" stroke-width="2.0"/>
<text x="960.00" y="616.54" fill="rgb(34,34,34)" font-size="12.0" font-family="sans-serif" text-anchor="start" dominant-baseline="central">Apr 4</text>
<text x="960.00" y="457.76" fill="rgb(34,34,34)" font-size="12.0" font-family="sans-serif" text-anchor="start" dominant-baseline="central" transform="rotate(360.00 960.00 457.76)">May 2</text>
<text x="960.00" y="298.34" fill="rgb(34,34,34)" font-size="12.0" font-family="sans-serif" text-anchor="start" dominant-baseline="central" transform="rotate(720.00 960.00 298.34)">May 30</text>
<text x="960.00" y="139.20" fill="rgb(34,34,34)" font-size="12.0" font-family="sans-serif" text-anchor="start" dominant-baseline="central" transform="rotate(1080.00 960.00 139.20)">Jun 27</text>
<rect x="1796.00" y="1534.00" width="108.00" height="370.00" fill="rgba(255,255,255,0.902)" stroke="rgba(153,153,153,0.800)" stroke-width="1.0"/>
<text x="1850.00" y="1554.00" fill="rgb(38,38,38)" font-size="13.0" font-family="sans-serif" text-anchor="middle" dominant-baseline="central">Fill</text>
<text x="1850.00" y="1570.00" fill="rgb(38,38,38)" font-size="13.0" font-family="sans-serif" text-anchor="middle" dominant-baseline="central">commit-count</text>
<rect x="1826.00" y="1584.00" width="28.00" height="28.00" fill="rgb(15,10,5)" stroke="rgb(102,102,102)" stroke-width="0.5"/>
<text x="1860.00" y="1612.00" fill="rgb(51,51,51)" font-size="12.0" font-family="sans-serif" text-anchor="start" dominant-baseline="central">2</text>
<rect x="1826.00" y="1612.00" width="28.00" height="28.00" fill="rgb(45,25,10)" stroke="rgb(102,102,102)" stroke-width="0.5"/>
<text x="1860.00" y="1640.00" fill="rgb(51,51,51)" font-size="12.0" font-family="sans-serif" text-anchor="start" dominant-baseline="central">4</text>
<rect x="1826.00" y="1640.00" width="28.00" height="28.00" fill="rgb(85,45,15)" stroke="rgb(102,102,102)" stroke-width="0.5"/>
<text x="1860.00" y="1668.00" fill="rgb(51,51,51)" font-size="12.0" font-family="sans-serif" text-anchor="start" dominant-baseline="central">7</text>
<rect x="1826.00" y="1668.00" width="28.00" height="28.00" fill="rgb(130,70,20)" stroke="rgb(102,102,102)" stroke-width="0.5"/>
<text x="1860.00" y="1696.00" fill="rgb(51,51,51)" font-size="12.0" font-family="sans-serif" text-anchor="start" dominant-baseline="central">9</text>
<rect x="1826.00" y="1696.00" width="28.00" height="28.00" fill="rgb(175,95,25)" stroke="rgb(102,102,102)" stroke-width="0.5"/>
<text x="1860.00" y="1724.00" fill="rgb(51,51,51)" font-size="12.0" font-family="sans-serif" text-anchor="start" dominant-baseline="central">11</text>
<rect x="1826.00" y="1724.00" width="28.00" height="28.00" fill="rgb(210,130,30)" stroke="rgb(102,102,102)" stroke-width="0.5"/>
<text x="1860.00" y="1752.00" fill="rgb(51,51,51)" font-size="12.0" font-family="sans-serif" text-anchor="start" dominant-baseline="central">14</text>
<rect x="1826.00" y="1752.00" width="28.00" height="28.00" fill="rgb(230,175,40)" stroke="rgb(102,102,102)" stroke-width="0.5"/>
<text x="1860.00" y="1780.00" fill="rgb(51,51,51)" font-size="12.0" font-family="sans-serif" text-anchor="start" dominant-baseline="central">20</text>
<rect x="1826.00" y="1780.00" width="28.00" height="28.00" fill="rgb(240,215,50)" stroke="rgb(102,102,102)" stroke-width="0.5"/>
<text x="1860.00" y="1808.00" fill="rgb(51,51,51)" font-size="12.0" font-family="sans-serif" text-anchor="start" dominant-baseline="central">25</text>
<rect x="1826.00" y="1808.00" width="28.00" height="28.00" fill="rgb(165,200,50)" stroke="rgb(102,102,102)" stroke-width="0.5"/>
<text x="1860.00" y="1836.00" fill="rgb(51,51,51)" font-size="12.0" font-family="sans-serif" text-anchor="start" dominant-baseline="central">41</text>
<rect x="1826.00" y="1836.00" width="28.00" height="28.00" fill="rgb(80,165,40)" stroke="rgb(102,102,102)" stroke-width="0.5"/>
<text x="1860.00" y="1864.00" fill="rgb(51,51,51)" font-size="12.0" font-family="sans-serif" text-anchor="start" dominant-baseline="central">67</text>
<rect x="1826.00" y="1864.00" width="28.00" height="28.00" fill="rgb(25,120,20)" stroke="rgb(102,102,102)" stroke-width="0.5"/>
<text x="960.00" y="1906.00" fill="rgba(128,128,128,0.784)" font-size="13.0" font-family="sans-serif" text-anchor="middle" dominant-baseline="central">Generated by github.com/theunrepentantgeek/code-visualizer</text>
</svg>
