<svg xmlns="http://www.w3.org/2000/svg" width="1920" height="1920">
<rect x="0.00" y="0.00" width="1920.00" height="1920.00" fill="rgb(255,255,255)" stroke="rgb(255,255,255)" stroke-width="0.0"/>
<path d="M 960.0 644.3 L 973.4 643.4 L 986.8 643.1 L 1000.3 643.4 L 1013.8 644.2 L 1027.4 645.7 L 1040.9 647.8 L 1054.3 650.5 L 1067.7 653.8 L 1080.9 657.7 L 1094.1 662.3 L 1107.0 667.4 L 1119.8 673.1 L 1132.3 679.4 L 1144.6 686.2 L 1156.7 693.6 L 1168.4 701.6 L 1179.8 710.2 L 1190.9 719.2 L 1201.6 728.8 L 1211.9 738.9 L 1221.7 749.5 L 1231.1 760.5 L 1240.1 772.0 L 1248.6 783.9 L 1256.5 796.2 L 1264.0 808.9 L 1270.9 822.0 L 1277.2 835.4 L 1282.9 849.2 L 1288.1 863.2 L 1292.6 877.5 L 1296.5 892.0 L 1299.8 906.7 L 1302.4 921.7 L 1304.4 936.7 L 1305.7 951.9 L 1306.4 967.2 L 1306.3 982.6 L 1305.6 998.0 L 1304.2 1013.4 L 1302.1 1028.8 L 1299.3 1044.1 L 1295.8 1059.4 L 1291.6 1074.5 L 1286.8 1089.4 L 1281.2 1104.2 L 1275.0 1118.8 L 1268.2 1133.2 L 1260.7 1147.2 L 1252.5 1161.0 L 1243.7 1174.4 L 1234.3 1187.5 L 1224.3 1200.2 L 1213.7 1212.5 L 1202.5 1224.3 L 1190.8 1235.7 L 1178.6 1246.5 L 1165.8 1256.9 L 1152.6 1266.7 L 1138.8 1275.9 L 1124.7 1284.6 L 1110.1 1292.6 L 1095.1 1300.0 L 1079.8 1306.8 L 1064.2 1312.9 L 1048.2 1318.3 L 1032.0 1323.0 L 1015.5 1327.0 L 998.8 1330.3 L 981.9 1332.8 L 964.9 1334.6 L 947.7 1335.7 L 930.5 1336.0 L 913.2 1335.5 L 896.0 1334.2 L 878.7 1332.2 L 861.5 1329.4 L 844.3 1325.9 L 827.3 1321.6 L 810.5 1316.5 L 793.8 1310.6 L 777.4 1304.0 L 761.2 1296.7 L 745.3 1288.6 L 729.8 1279.8 L 714.6 1270.3 L 699.8 1260.1 L 685.4 1249.3 L 671.5 1237.7 L 658.1 1225.6 L 645.1 1212.8 L 632.7 1199.4 L 620.9 1185.4 L 609.7 1170.9 L 599.1 1155.9 L 589.2 1140.3 L 579.9 1124.3 L 571.3 1107.9 L 563.4 1091.0 L 556.3 1073.7 L 549.9 1056.2 L 544.3 1038.2 L 539.5 1020.0 L 535.4 1001.6 L 532.2 982.9 L 529.8 964.1 L 528.2 945.1 L 527.5 926.1 L 527.6 906.9 L 528.6 887.7 L 530.4 868.6 L 533.1 849.5 L 536.6 830.4 L 541.0 811.5 L 546.2 792.8 L 552.3 774.2 L 559.1 755.9 L 566.9 737.9 L 575.4 720.1 L 584.7 702.7 L 594.8 685.7 L 605.7 669.2 L 617.4 653.0 L 629.8 637.4 L 642.8 622.3 L 656.6 607.7 L 671.1 593.7 L 686.2 580.4 L 701.9 567.7 L 718.2 555.6 L 735.1 544.3 L 752.4 533.7 L 770.3 523.9 L 788.7 514.8 L 807.5 506.5 L 826.7 499.1 L 846.2 492.5 L 866.1 486.7 L 886.3 481.8 L 906.7 477.8 L 927.3 474.7 L 948.1 472.5 L 969.0 471.2 L 990.0 470.9 L 1011.0 471.5 L 1032.1 473.0 L 1053.1 475.4 L 1074.1 478.8 L 1094.9 483.1 L 1115.6 488.4 L 1136.1 494.5 L 1156.3 501.6 L 1176.2 509.6 L 1195.9 518.5 L 1215.1 528.3 L 1234.0 538.9 L 1252.4 550.4 L 1270.3 562.7 L 1287.7 575.9 L 1304.6 589.8 L 1320.8 604.5 L 1336.5 619.9 L 1351.4 636.1 L 1365.7 652.9 L 1379.3 670.4 L 1392.0 688.5 L 1404.1 707.2 L 1415.3 726.5 L 1425.6 746.3 L 1435.1 766.6 L 1443.7 787.3 L 1451.4 808.4 L 1458.2 829.9 L 1464.1 851.8 L 1469.0 873.9 L 1472.9 896.3 L 1475.8 918.9 L 1477.7 941.6 L 1478.6 964.5 L 1478.6 987.4 L 1477.4 1010.3 L 1475.3 1033.3 L 1472.2 1056.2 L 1468.0 1078.9 L 1462.9 1101.5 L 1456.7 1123.9 L 1449.5 1146.1 L 1441.3 1168.0 L 1432.2 1189.5 L 1422.1 1210.7 L 1411.0 1231.4 L 1399.0 1251.7 L 1386.1 1271.5 L 1372.3 1290.7 L 1357.6 1309.4 L 1342.1 1327.4 L 1325.8 1344.8 L 1308.7 1361.4 L 1290.8 1377.3 L 1272.2 1392.5 L 1252.9 1406.8 L 1232.9 1420.3 L 1212.3 1433.0 L 1191.2 1444.7 L 1169.4 1455.5 L 1147.2 1465.4 L 1124.5 1474.3 L 1101.4 1482.2 L 1078.0 1489.1 L 1054.1 1495.0 L 1030.0 1499.8 L 1005.7 1503.5 L 981.2 1506.2 L 956.5 1507.8 L 931.7 1508.3 L 906.8 1507.7 L 882.0 1506.1 L 857.2 1503.3 L 832.5 1499.4 L 807.9 1494.4 L 783.6 1488.3 L 759.5 1481.2 L 735.6 1472.9 L 712.1 1463.6 L 689.0 1453.3 L 666.3 1441.9 L 644.1 1429.5 L 622.4 1416.1 L 601.3 1401.7 L 580.8 1386.4 L 561.0 1370.1 L 541.9 1353.0 L 523.5 1334.9 L 505.8 1316.1 L 489.0 1296.5 L 473.0 1276.0 L 458.0 1254.9 L 443.8 1233.1 L 430.6 1210.6 L 418.4 1187.5 L 407.2 1163.9 L 397.0 1139.7 L 387.8 1115.0 L 379.8 1090.0 L 372.9 1064.5 L 367.0 1038.7 L 362.3 1012.6 L 358.8 986.3 L 356.4 959.8 L 355.2 933.2 L 355.2 906.5 L 356.3 879.7 L 358.7 853.0 L 362.2 826.4 L 366.9 799.8 L 372.7 773.5 L 379.8 747.4 L 388.0 721.6 L 397.4 696.1 L 407.8 671.0 L 419.5 646.4 L 432.2 622.2 L 446.0 598.6 L 460.8 575.6 L 476.7 553.2 L 493.6 531.5 L 511.5 510.5 L 530.3 490.3 L 550.0 470.9 L 570.6 452.3 L 592.1 434.7 L 614.3 417.9 L 637.3 402.2 L 661.0 387.4 L 685.4 373.7 L 710.4 361.0 L 736.1 349.5 L 762.2 339.0 L 788.8 329.8 L 815.9 321.6 L 843.3 314.7 L 871.1 309.0 L 899.2 304.5 L 927.5 301.2 L 955.9 299.2 L 984.5 298.4 L 1013.1 298.9 L 1041.7 300.7 L 1070.3 303.7 L 1098.8 308.0 L 1127.1 313.6 L 1155.2 320.4 L 1183.0 328.5 L 1210.5 337.8 L 1237.5 348.3 L 1264.2 360.0 L 1290.3 373.0 L 1315.9 387.1 L 1340.9 402.3 L 1365.3 418.6 L 1388.9 436.1 L 1411.8 454.6 L 1433.9 474.1 L 1455.1 494.6 L 1475.5 516.1 L 1494.9 538.5 L 1513.4 561.8 L 1530.8 585.9 L 1547.2 610.8 L 1562.5 636.4 L 1576.7 662.7 L 1589.7 689.7 L 1601.5 717.3 L 1612.2 745.4 L 1621.6 774.1 L 1629.7 803.1 L 1636.6 832.6 L 1642.1 862.3 L 1646.4 892.4 L 1649.3 922.6 L 1650.9 953.0 L 1651.1 983.5 L 1650.0 1014.1 L 1647.6 1044.6 L 1643.8 1075.0 L 1638.7 1105.3 L 1632.2 1135.3 L 1624.4 1165.1 L 1615.2 1194.6 L 1604.8 1223.7 L 1593.0 1252.4 L 1580.0 1280.6 L 1565.7 1308.2 L 1550.2 1335.2 L 1533.5 1361.5 L 1515.6 1387.1 L 1496.5 1412.0 L 1476.4 1436.0 L 1455.2 1459.1 L 1432.9 1481.3 L 1409.6 1502.6 L 1385.4 1522.8 L 1360.3 1542.0 L 1334.3 1560.1 L 1307.5 1577.1 L 1279.9 1592.9 L 1251.6 1607.4 L 1222.7 1620.8 L 1193.1 1632.8 L 1163.0 1643.6 L 1132.3 1653.0 L 1101.3 1661.1 L 1069.8 1667.9 L 1038.1 1673.2 L 1006.1 1677.2 L 973.8 1679.7 L 941.5 1680.8 L 909.1 1680.5 L 876.7 1678.7 L 844.3 1675.5 L 812.0 1670.9 L 780.0 1664.9 L 748.2 1657.4 L 716.7 1648.5 L 685.5 1638.2 L 654.8 1626.6 L 624.6 1613.6 L 594.9 1599.2 L 565.9 1583.5 L 537.5 1566.5 L 509.9 1548.3 L 483.1 1528.8 L 457.1 1508.1 L 432.0 1486.3 L 407.8 1463.3 L 384.7 1439.3 L 362.6 1414.2 L 341.5 1388.1 L 321.7 1361.1 L 303.0 1333.2 L 285.5 1304.5 L 269.3 1274.9 L 254.4 1244.6 L 240.8 1213.7 L 228.6 1182.1 L 217.7 1150.0 L 208.3 1117.4 L 200.3 1084.3 L 193.8 1050.9 L 188.7 1017.1 L 185.2 983.1 L 183.1 948.9 L 182.5 914.7 L 183.5 880.3 L 185.9 846.0 L 189.9 811.8 L 195.4 777.8 L 202.4 743.9 L 210.9 710.4 L 220.9 677.2 L 232.4 644.4 L 245.3 612.2 L 259.7 580.4 L 275.4 549.3 L 292.6 518.9 L 311.1 489.2 L 330.9 460.3 L 352.0 432.3 L 374.3 405.2 L 397.9 379.1 L 422.6 354.0 L 448.5 329.9 L 475.4 307.0 L 503.4 285.3 L 532.3 264.8 L 562.1 245.6 L 592.9 227.6 L 624.4 211.1 L 656.7 195.9 L 689.6 182.1 L 723.2 169.8 L 757.4 158.9 L 792.0 149.6 L 827.1 141.7 L 862.5 135.5 L 898.3 130.7 L 934.2 127.6 L 970.3 126.1 L 1006.5 126.1 L 1042.8 127.7 L 1078.9 131.0 L 1115.0 135.8 L 1150.8 142.3 L 1186.4 150.3 L 1221.6 159.9 L 1256.5 171.0 L 1290.8 183.7 L 1324.6 198.0 L 1357.8 213.7 L 1390.4 230.9 L 1422.1 249.5 L 1453.1 269.6 L 1483.2 291.0 L 1512.4 313.8 L 1540.5 337.9 L 1567.7 363.2 L 1593.7 389.7 L 1618.5 417.4 L 1642.2 446.3 L 1664.6 476.1 L 1685.6 507.0 L 1705.4 538.8 L 1723.7 571.5 L 1740.6 605.0 L 1756.0 639.3 L 1769.9 674.3 L 1782.3 709.9 L 1793.1 746.1 L 1802.3 782.7 L 1809.9 819.8 L 1815.8 857.3 L 1820.1 895.0 L 1822.8 932.9 L 1823.8 971.0 L 1823.1 1009.1 L 1820.7 1047.2 L 1816.6 1085.2 L 1810.8 1123.1 L 1803.4 1160.7 L 1794.3 1198.0 L 1783.6 1234.9 L 1771.2 1271.3 L 1757.2 1307.3 L 1741.6 1342.6 L 1724.4 1377.2 L 1705.8 1411.1 L 1685.6 1444.2 L 1663.9 1476.4 L 1640.8 1507.7 L 1616.3 1537.9 L 1590.5 1567.1 L 1563.4 1595.2 L 1535.0 1622.1 L 1505.4 1647.7 L 1474.7 1672.0 L 1442.9 1695.0 L 1410.0 1716.6 L 1376.2 1736.8 L 1341.5 1755.4 L 1306.0 1772.6 L 1269.7 1788.1 L 1232.7 1802.1 L 1195.0 1814.5 L 1156.8 1825.2 L 1118.1 1834.2 L 1079.0 1841.5 L 1039.6 1847.1 L 999.9 1850.9 L 960.0 1853.0" fill="none" stroke="rgb(221,221,221)" stroke-width="1.0"/>
<circle cx="960.00" cy="644.33" r="23.97" fill="rgb(80,165,40)" stroke="rgb(51,51,51)" stroke-width="3.0"/>
<circle cx="1028.61" cy="645.90" r="11.72" fill="rgb(230,175,40)" stroke="rgb(51,51,51)" stroke-width="3.0"/>
<circle cx="1096.46" cy="663.15" r="14.93" fill="rgb(165,200,50)" stroke="rgb(51,51,51)" stroke-width="3.0"/>
<circle cx="1159.93" cy="695.79" r="5.86" fill="rgb(45,25,10)" stroke="rgb(51,51,51)" stroke-width="2.0"/>
<circle cx="1215.53" cy="742.72" r="4.14" fill="rgb(15,10,5)" stroke="rgb(51,51,51)" stroke-width="2.0"/>
<circle cx="1260.02" cy="802.02" r="12.77" fill="rgb(230,175,40)" stroke="rgb(51,51,51)" stroke-width="3.0"/>
<circle cx="1302.69" cy="1024.72" r="24.15" fill="rgb(25,120,20)" stroke="rgb(51,51,51)" stroke-width="3.0"/>
<circle cx="1282.25" cy="1101.69" r="17.82" fill="rgb(165,200,50)" stroke="rgb(51,51,51)" stroke-width="3.0"/>
<circle cx="1244.46" cy="1173.35" r="5.86" fill="rgb(45,25,10)" stroke="rgb(51,51,51)" stroke-width="2.0"/>
<circle cx="1190.69" cy="1235.78" r="10.96" fill="rgb(210,130,30)" stroke="rgb(51,51,51)" stroke-width="3.0"/>
<circle cx="1123.21" cy="1285.41" r="9.71" fill="rgb(175,95,25)" stroke="rgb(51,51,51)" stroke-width="3.0"/>
<circle cx="1045.08" cy="1319.25" r="10.56" fill="rgb(210,130,30)" stroke="rgb(51,51,51)" stroke-width="3.0"/>
<circle cx="960.00" cy="1335.00" r="15.50" fill="rgb(165,200,50)" stroke="rgb(51,51,51)" stroke-width="3.0"/>
<circle cx="872.18" cy="1331.27" r="13.42" fill="rgb(240,215,50)" stroke="rgb(51,51,51)" stroke-width="3.0"/>
<circle cx="786.08" cy="1307.64" r="9.26" fill="rgb(175,95,25)" stroke="rgb(51,51,51)" stroke-width="3.0"/>
<circle cx="706.24" cy="1264.71" r="11.72" fill="rgb(230,175,40)" stroke="rgb(51,51,51)" stroke-width="3.0"/>
<circle cx="636.97" cy="1204.11" r="7.17" fill="rgb(85,45,15)" stroke="rgb(51,51,51)" stroke-width="2.0"/>
<circle cx="582.19" cy="1128.44" r="13.42" fill="rgb(240,215,50)" stroke="rgb(51,51,51)" stroke-width="3.0"/>
<circle cx="545.17" cy="1041.18" r="5.86" fill="rgb(45,25,10)" stroke="rgb(51,51,51)" stroke-width="2.0"/>
<circle cx="528.33" cy="946.50" r="9.71" fill="rgb(175,95,25)" stroke="rgb(51,51,51)" stroke-width="3.0"/>
<circle cx="533.14" cy="849.07" r="23.61" fill="rgb(80,165,40)" stroke="rgb(51,51,51)" stroke-width="3.0"/>
<circle cx="559.97" cy="753.86" r="20.08" fill="rgb(80,165,40)" stroke="rgb(51,51,51)" stroke-width="3.0"/>
<circle cx="675.48" cy="589.72" r="14.93" fill="rgb(165,200,50)" stroke="rgb(51,51,51)" stroke-width="3.0"/>
<circle cx="759.33" cy="529.80" r="8.79" fill="rgb(175,95,25)" stroke="rgb(51,51,51)" stroke-width="3.0"/>
<circle cx="855.71" cy="489.58" r="10.15" fill="rgb(210,130,30)" stroke="rgb(51,51,51)" stroke-width="3.0"/>
<circle cx="960.00" cy="471.67" r="18.52" fill="rgb(165,200,50)" stroke="rgb(51,51,51)" stroke-width="3.0"/>
<circle cx="1067.03" cy="477.56" r="6.55" fill="rgb(85,45,15)" stroke="rgb(51,51,51)" stroke-width="2.0"/>
<circle cx="1171.37" cy="507.58" r="8.79" fill="rgb(175,95,25)" stroke="rgb(51,51,51)" stroke-width="3.0"/>
<circle cx="1267.59" cy="560.80" r="8.79" fill="rgb(175,95,25)" stroke="rgb(51,51,51)" stroke-width="3.0"/>
<circle cx="1350.52" cy="635.07" r="6.55" fill="rgb(85,45,15)" stroke="rgb(51,51,51)" stroke-width="2.0"/>
<circle cx="1415.59" cy="727.10" r="5.07" fill="rgb(45,25,10)" stroke="rgb(51,51,51)" stroke-width="2.0"/>
<circle cx="1459.00" cy="832.61" r="3.00" fill="rgb(15,10,5)" stroke="rgb(51,51,51)" stroke-width="2.0"/>
<circle cx="1478.00" cy="946.50" r="19.65" fill="rgb(80,165,40)" stroke="rgb(51,51,51)" stroke-width="3.0"/>
<circle cx="1471.02" cy="1063.14" r="18.75" fill="rgb(165,200,50)" stroke="rgb(51,51,51)" stroke-width="3.0"/>
<circle cx="1437.81" cy="1176.60" r="28.24" fill="rgb(25,120,20)" stroke="rgb(51,51,51)" stroke-width="3.0"/>
<circle cx="1379.45" cy="1281.00" r="11.34" fill="rgb(230,175,40)" stroke="rgb(51,51,51)" stroke-width="3.0"/>
<circle cx="1298.35" cy="1370.77" r="7.75" fill="rgb(85,45,15)" stroke="rgb(51,51,51)" stroke-width="2.0"/>
<circle cx="1198.13" cy="1440.98" r="19.43" fill="rgb(80,165,40)" stroke="rgb(51,51,51)" stroke-width="3.0"/>
<circle cx="1083.50" cy="1487.58" r="9.71" fill="rgb(175,95,25)" stroke="rgb(51,51,51)" stroke-width="3.0"/>
<circle cx="960.00" cy="1507.67" r="23.79" fill="rgb(80,165,40)" stroke="rgb(51,51,51)" stroke-width="3.0"/>
<circle cx="833.76" cy="1499.61" r="24.85" fill="rgb(25,120,20)" stroke="rgb(51,51,51)" stroke-width="3.0"/>
<circle cx="711.17" cy="1463.21" r="9.71" fill="rgb(175,95,25)" stroke="rgb(51,51,51)" stroke-width="3.0"/>
<circle cx="598.58" cy="1399.70" r="14.93" fill="rgb(165,200,50)" stroke="rgb(51,51,51)" stroke-width="3.0"/>
<circle cx="501.98" cy="1311.76" r="9.71" fill="rgb(175,95,25)" stroke="rgb(51,51,51)" stroke-width="3.0"/>
<circle cx="426.63" cy="1203.36" r="14.35" fill="rgb(240,215,50)" stroke="rgb(51,51,51)" stroke-width="3.0"/>
<circle cx="376.83" cy="1079.60" r="10.56" fill="rgb(210,130,30)" stroke="rgb(51,51,51)" stroke-width="3.0"/>
<circle cx="355.67" cy="946.50" r="18.75" fill="rgb(165,200,50)" stroke="rgb(51,51,51)" stroke-width="3.0"/>
<circle cx="364.81" cy="810.65" r="28.55" fill="rgb(25,120,20)" stroke="rgb(51,51,51)" stroke-width="3.0"/>
<circle cx="404.40" cy="678.94" r="17.33" fill="rgb(165,200,50)" stroke="rgb(51,51,51)" stroke-width="3.0"/>
<circle cx="473.05" cy="558.17" r="10.15" fill="rgb(210,130,30)" stroke="rgb(51,51,51)" stroke-width="3.0"/>
<circle cx="567.82" cy="454.73" r="10.15" fill="rgb(210,130,30)" stroke="rgb(51,51,51)" stroke-width="3.0"/>
<circle cx="684.41" cy="374.23" r="5.07" fill="rgb(45,25,10)" stroke="rgb(51,51,51)" stroke-width="2.0"/>
<circle cx="817.29" cy="321.25" r="13.10" fill="rgb(240,215,50)" stroke="rgb(51,51,51)" stroke-width="3.0"/>
<circle cx="960.00" cy="299.00" r="13.42" fill="rgb(240,215,50)" stroke="rgb(51,51,51)" stroke-width="3.0"/>
<circle cx="1105.45" cy="309.22" r="18.98" fill="rgb(80,165,40)" stroke="rgb(51,51,51)" stroke-width="3.0"/>
<circle cx="1246.29" cy="352.01" r="14.93" fill="rgb(165,200,50)" stroke="rgb(51,51,51)" stroke-width="3.0"/>
<circle cx="1375.24" cy="425.80" r="10.15" fill="rgb(210,130,30)" stroke="rgb(51,51,51)" stroke-width="3.0"/>
<circle cx="1485.52" cy="527.41" r="3.00" fill="rgb(15,10,5)" stroke="rgb(51,51,51)" stroke-width="2.0"/>
<circle cx="1571.16" cy="652.18" r="8.28" fill="rgb(130,70,20)" stroke="rgb(51,51,51)" stroke-width="3.0"/>
<circle cx="1627.34" cy="794.18" r="13.74" fill="rgb(240,215,50)" stroke="rgb(51,51,51)" stroke-width="3.0"/>
<circle cx="1650.67" cy="946.50" r="31.95" fill="rgb(25,120,20)" stroke="rgb(51,51,51)" stroke-width="3.0"/>
<circle cx="1639.36" cy="1101.56" r="19.43" fill="rgb(80,165,40)" stroke="rgb(51,51,51)" stroke-width="3.0"/>
<circle cx="1593.38" cy="1251.52" r="5.86" fill="rgb(45,25,10)" stroke="rgb(51,51,51)" stroke-width="2.0"/>
<circle cx="1514.45" cy="1388.66" r="13.10" fill="rgb(240,215,50)" stroke="rgb(51,51,51)" stroke-width="3.0"/>
<circle cx="1406.00" cy="1505.77" r="8.79" fill="rgb(175,95,25)" stroke="rgb(51,51,51)" stroke-width="3.0"/>
<circle cx="1273.05" cy="1596.55" r="7.75" fill="rgb(85,45,15)" stroke="rgb(51,51,51)" stroke-width="2.0"/>
<circle cx="1121.92" cy="1655.92" r="4.14" fill="rgb(15,10,5)" stroke="rgb(51,51,51)" stroke-width="2.0"/>
<circle cx="960.00" cy="1680.33" r="23.97" fill="rgb(80,165,40)" stroke="rgb(51,51,51)" stroke-width="3.0"/>
<circle cx="795.33" cy="1667.95" r="33.26" fill="rgb(25,120,20)" stroke="rgb(51,51,51)" stroke-width="3.0"/>
<circle cx="636.25" cy="1618.77" r="32.08" fill="rgb(25,120,20)" stroke="rgb(51,51,51)" stroke-width="3.0"/>
<circle cx="490.93" cy="1534.70" r="14.35" fill="rgb(240,215,50)" stroke="rgb(51,51,51)" stroke-width="3.0"/>
<circle cx="366.98" cy="1419.42" r="9.26" fill="rgb(175,95,25)" stroke="rgb(51,51,51)" stroke-width="3.0"/>
<circle cx="271.06" cy="1278.28" r="4.14" fill="rgb(15,10,5)" stroke="rgb(51,51,51)" stroke-width="2.0"/>
<circle cx="208.49" cy="1118.03" r="12.08" fill="rgb(230,175,40)" stroke="rgb(51,51,51)" stroke-width="3.0"/>
<circle cx="183.00" cy="946.50" r="10.96" fill="rgb(210,130,30)" stroke="rgb(51,51,51)" stroke-width="3.0"/>
<circle cx="196.47" cy="772.23" r="33.90" fill="rgb(25,120,20)" stroke="rgb(51,51,51)" stroke-width="3.0"/>
<circle cx="248.84" cy="604.02" r="10.56" fill="rgb(210,130,30)" stroke="rgb(51,51,51)" stroke-width="3.0"/>
<circle cx="338.05" cy="450.51" r="5.07" fill="rgb(45,25,10)" stroke="rgb(51,51,51)" stroke-width="2.0"/>
<circle cx="460.17" cy="319.73" r="18.29" fill="rgb(165,200,50)" stroke="rgb(51,51,51)" stroke-width="3.0"/>
<circle cx="609.49" cy="218.67" r="11.72" fill="rgb(230,175,40)" stroke="rgb(51,51,51)" stroke-width="3.0"/>
<circle cx="778.87" cy="152.91" r="6.55" fill="rgb(85,45,15)" stroke="rgb(51,51,51)" stroke-width="2.0"/>
<circle cx="960.00" cy="126.33" r="8.28" fill="rgb(130,70,20)" stroke="rgb(51,51,51)" stroke-width="3.0"/>
<circle cx="1143.88" cy="140.88" r="24.85" fill="rgb(25,120,20)" stroke="rgb(51,51,51)" stroke-width="3.0"/>
<circle cx="1321.21" cy="196.44" r="13.10" fill="rgb(240,215,50)" stroke="rgb(51,51,51)" stroke-width="3.0"/>
<circle cx="1482.90" cy="290.80" r="8.79" fill="rgb(175,95,25)" stroke="rgb(51,51,51)" stroke-width="3.0"/>
<circle cx="1620.52" cy="419.76" r="9.71" fill="rgb(175,95,25)" stroke="rgb(51,51,51)" stroke-width="3.0"/>
<circle cx="1726.72" cy="577.26" r="7.75" fill="rgb(85,45,15)" stroke="rgb(51,51,51)" stroke-width="2.0"/>
<circle cx="1795.68" cy="755.76" r="8.28" fill="rgb(130,70,20)" stroke="rgb(51,51,51)" stroke-width="3.0"/>
<circle cx="1823.33" cy="946.50" r="8.79" fill="rgb(175,95,25)" stroke="rgb(51,51,51)" stroke-width="3.0"/>
<circle cx="1807.70" cy="1139.98" r="8.28" fill="rgb(130,70,20)" stroke="rgb(51,51,51)" stroke-width="3.0"/>
<circle cx="1748.95" cy="1326.44" r="8.79" fill="rgb(175,95,25)" stroke="rgb(51,51,51)" stroke-width="3.0"/>
<circle cx="1649.45" cy="1496.31" r="6.55" fill="rgb(85,45,15)" stroke="rgb(51,51,51)" stroke-width="2.0"/>
<circle cx="1513.66" cy="1640.77" r="5.86" fill="rgb(45,25,10)" stroke="rgb(51,51,51)" stroke-width="2.0"/>
<circle cx="1347.96" cy="1752.12" r="4.14" fill="rgb(15,10,5)" stroke="rgb(51,51,51)" stroke-width="2.0"/>
<circle cx="1160.34" cy="1824.26" r="8.79" fill="rgb(175,95,25)" stroke="rgb(51,51,51)" stroke-width="3.0"/>
<circle cx="960.00" cy="1853.00" r="12.43" fill="rgb(230,175,40)" stroke="rgb(51,51,51)" stroke-width="3.0"/>
<text x="960.00" y="616.36" fill="rgb(34,34,34)" font-size="12.0" font-family="sans-serif" text-anchor="start" dominant-baseline="central">Apr 4</text>
<text x="960.00" y="449.14" fill="rgb(34,34,34)" font-size="12.0" font-family="sans-serif" text-anchor="start" dominant-baseline="central" transform="rotate(360.00 960.00 449.14)">May 2</text>
<text x="960.00" y="281.58" fill="rgb(34,34,34)" font-size="12.0" font-family="sans-serif" text-anchor="start" dominant-baseline="central" transform="rotate(720.00 960.00 281.58)">May 30</text>
<text x="960.00" y="114.05" fill="rgb(34,34,34)" font-size="12.0" font-family="sans-serif" text-anchor="start" dominant-baseline="central" transform="rotate(1080.00 960.00 114.05)">Jun 27</text>
<rect x="1796.00" y="1534.00" width="108.00" height="370.00" fill="rgba(255,255,255,0.902)" stroke="rgba(153,153,153,0.800)" stroke-width="1.0"/>
<text x="1850.00" y="1554.00" fill="rgb(38,38,38)" font-size="13.0" font-family="sans-serif" text-anchor="middle" dominant-baseline="central">Fill</text>
<text x="1850.00" y="1570.00" fill="rgb(38,38,38)" font-size="13.0" font-family="sans-serif" text-anchor="middle" dominant-baseline="central">commit-count</text>
<rect x="1826.00" y="1584.00" width="28.00" height="28.00" fill="rgb(15,10,5)" stroke="rgb(102,102,102)" stroke-width="0.5"/>
<text x="1860.00" y="1612.00" fill="rgb(51,51,51)" font-size="12.0" font-family="sans-serif" text-anchor="start" dominant-baseline="central">3</text>
<rect x="1826.00" y="1612.00" width="28.00" height="28.00" fill="rgb(45,25,10)" stroke="rgb(102,102,102)" stroke-width="0.5"/>
<text x="1860.00" y="1640.00" fill="rgb(51,51,51)" font-size="12.0" font-family="sans-serif" text-anchor="start" dominant-baseline="central">5</text>
<rect x="1826.00" y="1640.00" width="28.00" height="28.00" fill="rgb(85,45,15)" stroke="rgb(102,102,102)" stroke-width="0.5"/>
<text x="1860.00" y="1668.00" fill="rgb(51,51,51)" font-size="12.0" font-family="sans-serif" text-anchor="start" dominant-baseline="central">8</text>
<rect x="1826.00" y="1668.00" width="28.00" height="28.00" fill="rgb(130,70,20)" stroke="rgb(102,102,102)" stroke-width="0.5"/>
<text x="1860.00" y="1696.00" fill="rgb(51,51,51)" font-size="12.0" font-family="sans-serif" text-anchor="start" dominant-baseline="central">9</text>
<rect x="1826.00" y="1696.00" width="28.00" height="28.00" fill="rgb(175,95,25)" stroke="rgb(102,102,102)" stroke-width="0.5"/>
<text x="1860.00" y="1724.00" fill="rgb(51,51,51)" font-size="12.0" font-family="sans-serif" text-anchor="start" dominant-baseline="central">12</text>
<rect x="1826.00" y="1724.00" width="28.00" height="28.00" fill="rgb(210,130,30)" stroke="rgb(102,102,102)" stroke-width="0.5"/>
<text x="1860.00" y="1752.00" fill="rgb(51,51,51)" font-size="12.0" font-family="sans-serif" text-anchor="start" dominant-baseline="central">15</text>
<rect x="1826.00" y="1752.00" width="28.00" height="28.00" fill="rgb(230,175,40)" stroke="rgb(102,102,102)" stroke-width="0.5"/>
<text x="1860.00" y="1780.00" fill="rgb(51,51,51)" font-size="12.0" font-family="sans-serif" text-anchor="start" dominant-baseline="central">20</text>
<rect x="1826.00" y="1780.00" width="28.00" height="28.00" fill="rgb(240,215,50)" stroke="rgb(102,102,102)" stroke-width="0.5"/>
<text x="1860.00" y="1808.00" fill="rgb(51,51,51)" font-size="12.0" font-family="sans-serif" text-anchor="start" dominant-baseline="central">26</text>
<rect x="1826.00" y="1808.00" width="28.00" height="28.00" fill="rgb(165,200,50)" stroke="rgb(102,102,102)" stroke-width="0.5"/>
<text x="1860.00" y="1836.00" fill="rgb(51,51,51)" font-size="12.0" font-family="sans-serif" text-anchor="start" dominant-baseline="central">42</text>
<rect x="1826.00" y="1836.00" width="28.00" height="28.00" fill="rgb(80,165,40)" stroke="rgb(102,102,102)" stroke-width="0.5"/>
<text x="1860.00" y="1864.00" fill="rgb(51,51,51)" font-size="12.0" font-family="sans-serif" text-anchor="start" dominant-baseline="central">68</text>
<rect x="1826.00" y="1864.00" width="28.00" height="28.00" fill="rgb(25,120,20)" stroke="rgb(102,102,102)" stroke-width="0.5"/>
<text x="960.00" y="1906.00" fill="rgba(128,128,128,0.784)" font-size="13.0" font-family="sans-serif" text-anchor="middle" dominant-baseline="central">Generated by github.com/theunrepentantgeek/code-visualizer</text>
</svg>
