<svg xmlns="http://www.w3.org/2000/svg" width="1920" height="1920">
<rect x="0.000" y="0.000" width="1920.000" height="1920.000" fill="rgb(255,255,255)" stroke="rgb(255,255,255)" stroke-width="0.000"/>
<circle cx="960.000" cy="946.500" r="135.214" fill="rgb(229,231,235)" stroke="rgb(75,85,99)" stroke-width="1.000"/>
<polygon points="960.000,689.593 983.215,690.644 1006.239,693.788 1028.886,699.000 1050.968,706.238 1072.307,715.441 1019.109,824.890 1007.878,820.046 996.256,816.237 984.337,813.494 972.218,811.839 960.000,811.286 960.000,689.593" fill="rgb(166,206,227)"/>
<polygon points="960.500,690.093 983.468,691.169 1006.248,694.298 1028.655,699.455 1050.511,706.599 1071.638,715.672 1018.877,824.222 1007.775,819.473 996.293,815.729 984.525,813.020 972.562,811.368 960.500,810.787 960.500,690.093" fill="rgba(0,0,0,0.000)" stroke="rgb(0,104,55)" stroke-width="1.000"/>
<polygon points="960.000,554.379 995.433,555.983 1030.576,560.782 1065.141,568.738 1098.847,579.784 1131.416,593.830 1078.218,703.280 1055.756,693.592 1032.511,685.974 1008.673,680.488 984.436,677.178 960.000,676.071 960.000,554.379" fill="rgb(166,206,227)"/>
<polygon points="960.500,554.879 995.686,556.508 1030.584,561.292 1064.911,569.192 1098.389,580.145 1130.747,594.062 1077.986,702.612 1055.653,693.019 1032.549,685.466 1008.861,680.014 984.780,676.707 960.500,675.572 960.500,554.879" fill="rgba(0,0,0,0.000)" stroke="rgb(0,104,55)" stroke-width="1.000"/>
<polygon points="1072.307,715.441 1090.702,725.325 1108.233,736.671 1124.785,749.403 1046.729,842.765 1038.017,836.064 1028.790,830.092 1019.109,824.890 1072.307,715.441" fill="rgb(178,223,138)"/>
<polygon points="1072.538,716.109 1090.591,725.840 1107.808,736.983 1124.080,749.466 1046.665,842.061 1038.170,835.559 1029.188,829.747 1019.777,824.660 1072.538,716.109" fill="rgba(0,0,0,0.000)" stroke="rgb(26,152,80)" stroke-width="1.000"/>
<polygon points="1131.416,593.830 1146.188,601.401 1160.627,609.591 1098.364,714.149 1088.406,708.501 1078.218,703.280 1131.416,593.830" fill="rgb(178,223,138)"/>
<polygon points="1131.647,594.499 1145.951,601.841 1159.942,609.765 1098.190,713.464 1088.643,708.061 1078.886,703.049 1131.647,594.499" fill="rgba(0,0,0,0.000)" stroke="rgb(166,217,106)" stroke-width="1.000"/>
<polygon points="1190.525,472.220 1194.793,474.319 1199.043,476.456 1143.879,584.928 1140.610,583.284 1137.327,581.669 1190.525,472.220" fill="rgb(178,223,138)"/>
<polygon points="1190.756,472.889 1194.571,474.767 1198.370,476.675 1143.660,584.255 1140.833,582.836 1137.995,581.439 1190.756,472.889" fill="rgba(0,0,0,0.000)" stroke="rgb(254,224,139)" stroke-width="1.000"/>
<polygon points="1199.043,476.456 1210.166,482.281 1221.148,488.368 1160.883,594.091 1152.436,589.408 1143.879,584.928 1199.043,476.456" fill="rgb(178,223,138)"/>
<polygon points="1199.262,477.128 1209.929,482.721 1220.466,488.555 1160.696,593.409 1152.673,588.968 1144.551,584.709 1199.262,477.128" fill="rgba(0,0,0,0.000)" stroke="rgb(217,239,139)" stroke-width="1.000"/>
<polygon points="1260.336,355.932 1266.439,359.075 1272.509,362.282 1215.110,469.588 1210.154,466.970 1205.172,464.403 1260.336,355.932" fill="rgb(178,223,138)"/>
<polygon points="1260.555,356.604 1266.208,359.519 1271.833,362.487 1214.905,468.911 1210.386,466.526 1205.844,464.185 1260.555,356.604" fill="rgba(0,0,0,0.000)" stroke="rgb(165,0,38)" stroke-width="1.000"/>
<polygon points="1272.509,362.282 1280.338,366.538 1288.109,370.899 1227.844,476.621 1221.501,473.062 1215.110,469.588 1272.509,362.282" fill="rgb(178,223,138)"/>
<polygon points="1272.714,362.959 1280.097,366.976 1287.427,371.086 1227.657,475.940 1221.742,472.624 1215.786,469.383 1272.714,362.959" fill="rgba(0,0,0,0.000)" stroke="rgb(253,174,97)" stroke-width="1.000"/>
<polygon points="1221.148,488.368 1225.491,490.871 1229.809,493.415 1167.545,597.973 1164.224,596.016 1160.883,594.091 1221.148,488.368" fill="rgb(178,223,138)"/>
<polygon points="1221.335,489.051 1225.239,491.303 1229.124,493.589 1167.372,597.288 1164.475,595.584 1161.565,593.905 1221.335,489.051" fill="rgba(0,0,0,0.000)" stroke="rgb(215,48,39)" stroke-width="1.000"/>
<polygon points="1160.627,609.591 1165.369,612.460 1170.069,615.396 1104.875,718.152 1101.634,716.127 1098.364,714.149 1160.627,609.591" fill="rgb(178,223,138)"/>
<polygon points="1160.801,610.276 1165.107,612.886 1169.379,615.550 1104.721,717.462 1101.895,715.701 1099.049,713.975 1160.801,610.276" fill="rgba(0,0,0,0.000)" stroke="rgb(215,48,39)" stroke-width="1.000"/>
<polygon points="1170.069,615.396 1174.420,618.197 1178.734,621.055 1110.851,722.055 1107.876,720.084 1104.875,718.152 1170.069,615.396" fill="rgb(227,26,28)"/>
<polygon points="1170.223,616.086 1174.147,618.615 1178.040,621.191 1110.715,721.362 1108.150,719.665 1105.565,717.998 1170.223,616.086" fill="rgba(0,0,0,0.000)" stroke="rgb(217,239,139)" stroke-width="1.000"/>
<polygon points="1178.734,621.055 1195.446,632.933 1211.513,645.667 1133.457,739.029 1122.376,730.247 1110.851,722.055 1178.734,621.055" fill="rgb(178,223,138)"/>
<polygon points="1178.870,621.749 1195.145,633.332 1210.809,645.730 1133.394,738.325 1122.677,729.847 1111.545,721.919 1178.870,621.749" fill="rgba(0,0,0,0.000)" stroke="rgb(215,48,39)" stroke-width="1.000"/>
<polygon points="1254.160,508.833 1267.303,517.959 1280.164,527.480 1206.280,624.177 1196.387,616.853 1186.277,609.833 1254.160,508.833" fill="rgb(178,223,138)"/>
<polygon points="1254.296,509.527 1267.012,518.365 1279.463,527.574 1206.186,623.476 1196.679,616.447 1186.971,609.697 1254.296,509.527" fill="rgba(0,0,0,0.000)" stroke="rgb(165,0,38)" stroke-width="1.000"/>
<polygon points="1280.164,527.480 1289.282,534.607 1298.242,541.932 1220.186,635.294 1213.294,629.659 1206.280,624.177 1280.164,527.480" fill="rgb(178,223,138)"/>
<polygon points="1280.258,528.181 1288.970,534.997 1297.538,541.995 1220.123,634.590 1213.606,629.268 1206.981,624.083 1280.258,528.181" fill="rgba(0,0,0,0.000)" stroke="rgb(165,0,38)" stroke-width="1.000"/>
<polygon points="1124.785,749.403 1143.182,766.373 1159.841,785.054 1174.603,805.266 1187.328,826.819 1197.895,849.509 1206.204,873.118 1212.176,897.425 1215.755,922.197 1216.906,947.199 1215.619,972.196 1211.905,996.948 1205.801,1021.221 1197.363,1044.785 1186.672,1067.417 1173.830,1088.900 1158.959,1109.032 1142.198,1127.622 1123.709,1144.492 1103.665,1159.482 1082.258,1172.452 1059.691,1183.276 1036.177,1191.853 1011.940,1198.102 987.210,1201.962 962.222,1203.398 937.213,1202.395 912.420,1198.963 888.079,1193.135 864.420,1184.966 841.669,1174.533 820.041,1161.936 799.741,1147.294 780.962,1130.747 763.883,1112.450 748.665,1092.578 735.453,1071.320 724.373,1048.877 715.529,1025.463 709.005,1001.298 704.864,976.614 703.144,951.644 703.863,926.625 707.012,901.795 712.563,877.389 720.463,853.639 730.636,830.770 742.986,809.000 757.396,788.535 773.729,769.569 791.830,752.283 811.528,736.840 832.634,723.387 892.965,829.072 881.857,836.153 871.490,844.281 861.963,853.379 853.366,863.361 845.782,874.132 839.282,885.590 833.928,897.626 829.770,910.126 826.849,922.971 825.191,936.039 824.813,949.207 825.718,962.350 827.897,975.341 831.331,988.059 835.986,1000.383 841.818,1012.195 848.771,1023.383 856.781,1033.842 865.770,1043.472 875.653,1052.181 886.337,1059.887 897.721,1066.517 909.695,1072.008 922.147,1076.308 934.958,1079.375 948.007,1081.181 961.170,1081.709 974.321,1080.954 987.337,1078.922 1000.093,1075.633 1012.469,1071.119 1024.346,1065.422 1035.613,1058.596 1046.163,1050.706 1055.894,1041.827 1064.715,1032.043 1072.542,1021.448 1079.301,1010.140 1084.928,998.229 1089.369,985.827 1092.582,973.052 1094.536,960.024 1095.214,946.868 1094.608,933.709 1092.724,920.671 1089.581,907.878 1085.208,895.452 1079.646,883.510 1072.949,872.166 1065.179,861.528 1056.412,851.696 1046.729,842.765 1124.785,749.403" fill="rgb(166,206,227)"/>
<polygon points="1124.847,750.107 1143.162,767.067 1159.742,785.727 1174.428,805.911 1187.082,827.427 1197.584,850.071 1205.834,873.630 1211.755,897.879 1215.290,922.589 1216.405,947.525 1215.090,972.452 1211.358,997.133 1205.244,1021.333 1196.805,1044.825 1186.123,1067.385 1173.297,1088.799 1158.450,1108.865 1141.722,1127.392 1123.272,1144.204 1103.274,1159.143 1081.919,1172.067 1059.408,1182.853 1035.955,1191.399 1011.783,1197.624 987.119,1201.469 962.199,1202.898 937.258,1201.897 912.532,1198.475 888.256,1192.665 864.660,1184.523 841.968,1174.125 820.394,1161.569 800.143,1146.975 781.407,1130.482 764.364,1112.244 749.175,1092.436 735.984,1071.245 724.916,1048.872 716.076,1025.528 709.547,1001.436 705.392,976.823 703.650,951.922 704.338,926.970 707.448,902.204 712.952,877.857 720.797,854.160 730.909,831.339 743.193,809.609 757.531,789.176 773.787,770.235 791.809,752.963 811.424,737.527 832.448,724.070 892.284,828.887 881.176,836.023 870.814,844.205 861.296,853.355 852.712,863.387 845.144,874.205 838.663,885.708 833.330,897.786 829.196,910.325 826.300,923.206 824.669,936.308 824.319,949.506 825.253,962.675 827.462,975.692 830.926,988.432 835.612,1000.776 841.474,1012.606 848.458,1023.810 856.498,1034.282 865.518,1043.924 875.431,1052.644 886.146,1060.359 897.559,1066.997 909.562,1072.494 922.044,1076.798 934.884,1079.870 947.963,1081.679 961.155,1082.209 974.336,1081.455 987.382,1079.423 1000.168,1076.134 1012.574,1071.617 1024.483,1065.917 1035.781,1059.086 1046.363,1051.189 1056.126,1042.302 1064.981,1032.508 1072.841,1021.901 1079.634,1010.579 1085.294,998.651 1089.769,986.230 1093.015,973.432 1095.003,960.380 1095.712,947.196 1095.138,934.006 1093.284,920.934 1090.170,908.104 1085.823,895.637 1080.285,883.652 1073.609,872.261 1065.858,861.573 1057.105,851.689 1047.432,842.702 1124.847,750.107" fill="rgba(0,0,0,0.000)" stroke="rgb(0,68,27)" stroke-width="1.000"/>
<polygon points="1211.513,645.667 1231.510,663.584 1250.234,682.827 1160.162,764.657 1147.249,751.386 1133.457,739.029 1211.513,645.667" fill="rgb(166,206,227)"/>
<polygon points="1211.576,646.372 1231.164,663.945 1249.528,682.794 1160.195,763.951 1147.595,751.025 1134.161,738.967 1211.576,646.372" fill="rgba(0,0,0,0.000)" stroke="rgb(244,109,67)" stroke-width="1.000"/>
<polygon points="1250.234,682.827 1270.655,707.225 1289.031,733.198 1305.240,760.574 1198.097,818.275 1186.918,799.395 1174.245,781.483 1160.162,764.657 1250.234,682.827" fill="rgb(166,206,227)"/>
<polygon points="1250.200,683.534 1270.361,707.662 1288.521,733.330 1304.563,760.371 1198.299,817.598 1187.247,798.983 1174.743,781.310 1160.868,764.691 1250.200,683.534" fill="rgba(0,0,0,0.000)" stroke="rgb(102,189,99)" stroke-width="1.000"/>
<polygon points="1305.240,760.574 1321.456,794.484 1334.350,829.790 1343.805,866.169 1349.733,903.286 1228.781,916.697 1224.693,891.100 1218.173,866.011 1209.280,841.661 1198.097,818.275 1305.240,760.574" fill="rgb(166,206,227)"/>
<polygon points="1305.037,761.252 1321.092,794.908 1333.873,829.939 1343.264,866.027 1349.181,902.844 1229.223,916.145 1225.131,890.752 1218.650,865.862 1209.838,841.698 1198.774,818.479 1305.037,761.252" fill="rgba(0,0,0,0.000)" stroke="rgb(0,68,27)" stroke-width="1.000"/>
<polygon points="1424.289,696.462 1434.520,716.470 1443.890,736.896 1332.223,785.266 1325.015,769.554 1317.145,754.163 1424.289,696.462" fill="rgb(166,206,227)"/>
<polygon points="1424.085,697.139 1434.070,716.688 1443.232,736.636 1332.483,784.609 1325.465,769.336 1317.822,754.366 1424.085,697.139" fill="rgba(0,0,0,0.000)" stroke="rgb(166,217,106)" stroke-width="1.000"/>
<polygon points="1443.890,736.896 1446.718,743.549 1449.454,750.241 1336.503,795.531 1334.398,790.384 1332.223,785.266 1443.890,736.896" fill="rgb(166,206,227)"/>
<polygon points="1443.629,737.554 1446.256,743.742 1448.804,749.963 1336.781,794.881 1334.860,790.192 1332.880,785.527 1443.629,737.554" fill="rgba(0,0,0,0.000)" stroke="rgb(215,48,39)" stroke-width="1.000"/>
<polygon points="1449.454,750.241 1453.423,760.443 1457.179,770.727 1342.445,811.290 1339.556,803.380 1336.503,795.531 1449.454,750.241" fill="rgb(166,206,227)"/>
<polygon points="1449.176,750.891 1452.955,760.620 1456.540,770.422 1342.750,810.652 1340.024,803.203 1337.153,795.809 1449.176,750.891" fill="rgba(0,0,0,0.000)" stroke="rgb(253,174,97)" stroke-width="1.000"/>
<polygon points="1457.179,770.727 1466.684,800.368 1474.423,830.519 1355.710,857.284 1349.757,834.091 1342.445,811.290 1457.179,770.727" fill="rgb(166,206,227)"/>
<polygon points="1456.874,771.365 1466.203,800.507 1473.825,830.141 1356.088,856.686 1350.237,833.952 1343.083,811.595 1456.874,771.365" fill="rgba(0,0,0,0.000)" stroke="rgb(255,255,255)" stroke-width="1.000"/>
<polygon points="1474.423,830.519 1478.957,852.869 1482.520,875.395 1361.938,891.804 1359.198,874.476 1355.710,857.284 1474.423,830.519" fill="rgb(166,206,227)"/>
<polygon points="1474.045,831.117 1478.465,852.958 1481.957,874.967 1362.366,891.241 1359.690,874.388 1356.308,857.662 1474.045,831.117" fill="rgba(0,0,0,0.000)" stroke="rgb(244,109,67)" stroke-width="1.000"/>
<polygon points="1482.520,875.395 1483.362,881.885 1484.124,888.385 1363.172,901.796 1362.586,896.796 1361.938,891.804 1482.520,875.395" fill="rgb(166,206,227)"/>
<polygon points="1482.092,875.958 1482.866,881.946 1483.571,887.943 1363.614,901.244 1363.082,896.735 1362.501,892.232 1482.092,875.958" fill="rgba(0,0,0,0.000)" stroke="rgb(255,255,191)" stroke-width="1.000"/>
<polygon points="1349.733,903.286 1351.944,934.692 1351.628,966.174 1348.787,997.530 1228.129,981.693 1230.088,960.069 1230.306,938.357 1228.781,916.697 1349.733,903.286" fill="rgb(166,206,227)"/>
<polygon points="1349.291,903.838 1351.449,934.874 1351.136,965.983 1348.356,996.969 1228.689,981.262 1230.596,959.927 1230.811,938.508 1229.333,917.139 1349.291,903.838" fill="rgba(0,0,0,0.000)" stroke="rgb(0,104,55)" stroke-width="1.000"/>
<polygon points="1348.787,997.530 1343.781,1026.944 1336.553,1055.893 1219.692,1021.944 1224.677,1001.979 1228.129,981.693 1348.787,997.530" fill="rgb(166,206,227)"/>
<polygon points="1348.226,997.960 1343.292,1026.842 1336.212,1055.273 1220.311,1021.603 1225.166,1002.081 1228.559,982.254 1348.226,997.960" fill="rgba(0,0,0,0.000)" stroke="rgb(255,255,191)" stroke-width="1.000"/>
<polygon points="1336.553,1055.893 1333.303,1066.517 1329.753,1077.044 1215.002,1036.531 1217.450,1029.270 1219.692,1021.944 1336.553,1055.893" fill="rgb(166,206,227)"/>
<polygon points="1335.933,1056.234 1332.827,1066.364 1329.448,1076.406 1215.640,1036.226 1217.926,1029.423 1220.032,1022.563 1335.933,1056.234" fill="rgba(0,0,0,0.000)" stroke="rgb(255,255,255)" stroke-width="1.000"/>
<polygon points="1329.753,1077.044 1326.597,1085.661 1323.241,1094.201 1210.511,1048.363 1212.826,1042.473 1215.002,1036.531 1329.753,1077.044" fill="rgb(166,206,227)"/>
<polygon points="1329.115,1077.349 1326.130,1085.483 1322.965,1093.549 1211.162,1048.088 1213.293,1042.650 1215.307,1037.168 1329.115,1077.349" fill="rgba(0,0,0,0.000)" stroke="rgb(253,174,97)" stroke-width="1.000"/>
<polygon points="1323.241,1094.201 1312.396,1118.477 1299.931,1141.963 1194.435,1081.302 1203.032,1065.105 1210.511,1048.363 1323.241,1094.201" fill="rgb(166,206,227)"/>
<polygon points="1322.589,1094.476 1311.947,1118.258 1299.747,1141.280 1195.118,1081.118 1203.481,1065.324 1210.785,1049.014 1322.589,1094.476" fill="rgba(0,0,0,0.000)" stroke="rgb(255,255,191)" stroke-width="1.000"/>
<polygon points="1299.931,1141.963 1285.673,1164.896 1269.869,1186.792 1173.703,1112.219 1184.602,1097.118 1194.435,1081.302 1299.931,1141.963" fill="rgb(31,120,180)"/>
<polygon points="1299.248,1142.147 1285.257,1164.617 1269.780,1186.090 1174.404,1112.130 1185.017,1097.396 1194.619,1081.985 1299.248,1142.147" fill="rgba(0,0,0,0.000)" stroke="rgb(26,152,80)" stroke-width="1.000"/>
<polygon points="1417.149,1209.364 1397.973,1240.204 1376.721,1269.651 1280.554,1195.078 1296.903,1172.426 1311.653,1148.703 1417.149,1209.364" fill="rgb(31,120,180)"/>
<polygon points="1416.466,1209.549 1397.558,1239.926 1376.632,1268.950 1281.256,1194.989 1297.318,1172.705 1311.837,1149.386 1416.466,1209.549" fill="rgba(0,0,0,0.000)" stroke="rgb(217,239,139)" stroke-width="1.000"/>
<polygon points="1269.869,1186.792 1257.566,1201.870 1244.529,1216.319 1156.227,1132.582 1165.218,1122.617 1173.703,1112.219 1269.869,1186.792" fill="rgb(166,206,227)"/>
<polygon points="1269.168,1186.880 1257.186,1201.545 1244.510,1215.612 1156.933,1132.563 1165.597,1122.943 1173.791,1112.920 1269.168,1186.880" fill="rgba(0,0,0,0.000)" stroke="rgb(26,152,80)" stroke-width="1.000"/>
<polygon points="1244.529,1216.319 1224.716,1235.783 1203.574,1253.796 1127.982,1158.428 1142.563,1146.006 1156.227,1132.582 1244.529,1216.319" fill="rgb(166,206,227)"/>
<polygon points="1243.822,1216.338 1224.378,1235.414 1203.655,1253.093 1128.684,1158.509 1142.900,1146.375 1156.245,1133.289 1243.822,1216.338" fill="rgba(0,0,0,0.000)" stroke="rgb(255,255,191)" stroke-width="1.000"/>
<polygon points="1203.574,1253.796 1189.820,1264.214 1175.620,1274.017 1108.703,1172.374 1118.496,1165.613 1127.982,1158.428 1203.574,1253.796" fill="rgb(166,206,227)"/>
<polygon points="1202.872,1253.714 1189.526,1263.809 1175.762,1273.324 1109.396,1172.516 1118.789,1166.018 1127.901,1159.130 1202.872,1253.714" fill="rgba(0,0,0,0.000)" stroke="rgb(0,104,55)" stroke-width="1.000"/>
<polygon points="1175.620,1274.017 1157.272,1285.385 1138.327,1295.726 1082.984,1187.346 1096.050,1180.214 1108.703,1172.374 1175.620,1274.017" fill="rgb(166,206,227)"/>
<polygon points="1174.927,1273.874 1157.020,1284.953 1138.544,1295.053 1083.656,1187.563 1096.301,1180.646 1108.560,1173.066 1174.927,1273.874" fill="rgba(0,0,0,0.000)" stroke="rgb(26,152,80)" stroke-width="1.000"/>
<polygon points="1138.327,1295.726 1126.634,1301.454 1114.758,1306.790 1066.730,1194.976 1074.920,1191.296 1082.984,1187.346 1138.327,1295.726" fill="rgb(166,206,227)"/>
<polygon points="1137.654,1295.508 1126.422,1301.001 1115.020,1306.133 1067.386,1195.238 1075.133,1191.748 1082.766,1188.018 1137.654,1295.508" fill="rgba(0,0,0,0.000)" stroke="rgb(166,217,106)" stroke-width="1.000"/>
<polygon points="1114.758,1306.790 1102.933,1311.643 1090.955,1316.108 1050.314,1201.402 1058.574,1198.323 1066.730,1194.976 1114.758,1306.790" fill="rgb(166,206,227)"/>
<polygon points="1114.101,1306.528 1102.750,1311.178 1091.259,1315.469 1050.952,1201.706 1058.756,1198.788 1066.468,1195.632 1114.101,1306.528" fill="rgba(0,0,0,0.000)" stroke="rgb(102,189,99)" stroke-width="1.000"/>
<polygon points="1090.955,1316.108 1064.120,1324.545 1036.749,1331.037 1012.931,1211.698 1031.807,1207.221 1050.314,1201.402 1090.955,1316.108" fill="rgb(166,206,227)"/>
<polygon points="1090.317,1315.803 1063.987,1324.063 1037.142,1330.449 1013.519,1212.090 1031.940,1207.703 1050.009,1202.040 1090.317,1315.803" fill="rgba(0,0,0,0.000)" stroke="rgb(215,48,39)" stroke-width="1.000"/>
<polygon points="1136.112,1443.559 1100.024,1454.906 1063.215,1463.636 1039.396,1344.297 1067.710,1337.581 1095.471,1328.853 1136.112,1443.559" fill="rgb(31,120,180)"/>
<polygon points="1135.474,1443.254 1099.891,1454.424 1063.607,1463.048 1039.984,1344.689 1067.843,1338.063 1095.166,1329.491 1135.474,1443.254" fill="rgba(0,0,0,0.000)" stroke="rgb(165,0,38)" stroke-width="1.000"/>
<polygon points="1036.749,1331.037 998.983,1336.679 960.847,1338.621 922.703,1336.844 884.912,1331.365 847.834,1322.237 811.819,1309.545 777.209,1293.410 744.333,1273.986 713.503,1251.456 685.009,1226.034 770.351,1139.282 790.002,1156.815 811.264,1172.352 833.938,1185.749 857.806,1196.876 882.644,1205.629 908.215,1211.924 934.278,1215.702 960.584,1216.928 986.885,1215.589 1012.931,1211.698 1036.749,1331.037" fill="rgb(166,206,227)"/>
<polygon points="1036.161,1330.644 998.535,1336.221 960.546,1338.121 922.551,1336.327 884.910,1330.855 847.977,1321.757 812.100,1309.120 777.619,1293.061 744.859,1273.733 714.128,1251.319 685.717,1226.028 770.357,1139.989 789.999,1157.455 811.240,1172.935 833.881,1186.284 857.710,1197.376 882.501,1206.108 908.021,1212.396 934.031,1216.181 960.285,1217.428 986.536,1216.126 1012.538,1212.286 1036.161,1330.644" fill="rgba(0,0,0,0.000)" stroke="rgb(0,68,27)" stroke-width="1.000"/>
<polygon points="1063.215,1463.636 1053.559,1465.470 1043.870,1467.123 1024.516,1346.980 1031.968,1345.708 1039.396,1344.297 1063.215,1463.636" fill="rgb(166,206,227)"/>
<polygon points="1062.626,1463.243 1053.470,1464.978 1044.284,1466.550 1025.089,1347.393 1032.057,1346.200 1039.003,1344.885 1062.626,1463.243" fill="rgba(0,0,0,0.000)" stroke="rgb(165,0,38)" stroke-width="1.000"/>
<polygon points="1043.870,1467.123 1021.390,1470.250 998.796,1472.407 989.843,1351.044 1007.223,1349.385 1024.516,1346.980 1043.870,1467.123" fill="rgb(166,206,227)"/>
<polygon points="1043.297,1466.709 1021.332,1469.754 999.258,1471.871 990.379,1351.505 1007.281,1349.881 1024.102,1347.552 1043.297,1466.709" fill="rgba(0,0,0,0.000)" stroke="rgb(255,255,191)" stroke-width="1.000"/>
<polygon points="998.796,1472.407 947.202,1473.680 895.730,1469.905 844.874,1461.115 795.121,1447.397 746.947,1428.881 700.813,1405.744 760.626,1299.765 796.113,1317.562 833.170,1331.805 871.442,1342.358 910.562,1349.119 950.155,1352.023 989.843,1351.044 998.796,1472.407" fill="rgb(166,206,227)"/>
<polygon points="998.261,1471.945 946.881,1473.172 895.626,1469.388 844.983,1460.627 795.435,1446.974 747.454,1428.558 701.495,1405.554 760.815,1300.446 796.216,1318.154 833.172,1332.332 871.333,1342.846 910.335,1349.595 949.810,1352.515 989.381,1351.579 998.261,1471.945" fill="rgba(0,0,0,0.000)" stroke="rgb(102,189,99)" stroke-width="1.000"/>
<polygon points="700.813,1405.744 661.543,1381.249 624.572,1353.404 590.185,1322.425 675.527,1235.673 701.979,1259.503 730.418,1280.922 760.626,1299.765 700.813,1405.744" fill="rgb(166,206,227)"/>
<polygon points="700.624,1405.063 661.689,1380.742 625.019,1353.124 590.892,1322.419 675.533,1236.380 701.789,1259.995 729.997,1281.240 759.945,1299.954 700.624,1405.063" fill="rgba(0,0,0,0.000)" stroke="rgb(0,104,55)" stroke-width="1.000"/>
<polygon points="634.355,1523.499 585.016,1492.723 538.565,1457.739 495.361,1418.816 580.703,1332.064 615.971,1363.838 653.890,1392.396 694.167,1417.520 634.355,1523.499" fill="rgb(166,206,227)"/>
<polygon points="634.166,1522.818 585.161,1492.216 539.012,1457.459 496.068,1418.811 580.709,1332.771 615.782,1364.330 653.470,1392.714 693.486,1417.709 634.166,1522.818" fill="rgba(0,0,0,0.000)" stroke="rgb(253,174,97)" stroke-width="1.000"/>
<polygon points="685.009,1226.034 661.006,1200.196 639.421,1172.307 738.911,1102.229 753.797,1121.463 770.351,1139.282 685.009,1226.034" fill="rgb(166,206,227)"/>
<polygon points="685.004,1225.327 661.387,1199.873 640.118,1172.427 738.791,1102.925 753.416,1121.787 769.645,1139.288 685.004,1225.327" fill="rgba(0,0,0,0.000)" stroke="rgb(217,239,139)" stroke-width="1.000"/>
<polygon points="639.421,1172.307 623.563,1147.919 609.557,1122.422 718.315,1067.826 727.975,1085.409 738.911,1102.229 639.421,1172.307" fill="rgb(166,206,227)"/>
<polygon points="639.543,1171.610 623.992,1147.662 610.228,1122.644 718.093,1068.497 727.546,1085.666 738.215,1102.108 639.543,1171.610" fill="rgba(0,0,0,0.000)" stroke="rgb(0,68,27)" stroke-width="1.000"/>
<polygon points="528.877,1250.171 507.550,1217.373 488.714,1183.085 597.472,1128.488 611.962,1154.864 628.367,1180.093 528.877,1250.171" fill="rgb(251,154,153)"/>
<polygon points="528.998,1249.474 507.979,1217.116 489.385,1183.307 597.250,1129.159 611.533,1155.121 627.671,1179.972 528.998,1249.474" fill="rgba(0,0,0,0.000)" stroke="rgb(0,68,27)" stroke-width="1.000"/>
<polygon points="418.333,1328.035 411.017,1317.431 403.909,1306.687 506.048,1240.530 511.851,1249.301 517.823,1257.957 418.333,1328.035" fill="rgb(166,206,227)"/>
<polygon points="418.454,1327.338 411.431,1317.151 404.600,1306.835 505.900,1241.222 511.436,1249.581 517.126,1257.836 418.454,1327.338" fill="rgba(0,0,0,0.000)" stroke="rgb(102,189,99)" stroke-width="1.000"/>
<polygon points="403.909,1306.687 397.011,1295.807 390.325,1284.795 494.960,1222.659 500.417,1231.649 506.048,1240.530 403.909,1306.687" fill="rgb(166,206,227)"/>
<polygon points="404.057,1305.996 397.436,1295.544 391.011,1284.969 494.785,1223.344 499.992,1231.912 505.357,1240.383 404.057,1305.996" fill="rgba(0,0,0,0.000)" stroke="rgb(102,189,99)" stroke-width="1.000"/>
<polygon points="290.421,1380.195 282.115,1367.094 274.065,1353.835 378.699,1291.699 385.521,1302.936 392.560,1314.038 290.421,1380.195" fill="rgb(166,206,227)"/>
<polygon points="290.569,1379.503 282.540,1366.831 274.751,1354.009 378.525,1292.384 385.096,1303.199 391.869,1313.890 290.569,1379.503" fill="rgba(0,0,0,0.000)" stroke="rgb(217,239,139)" stroke-width="1.000"/>
<polygon points="176.933,1453.703 167.219,1438.382 157.805,1422.874 262.439,1360.739 270.625,1374.223 279.072,1387.546 176.933,1453.703" fill="rgb(178,223,138)"/>
<polygon points="177.081,1453.011 167.644,1438.118 158.491,1423.049 262.265,1361.424 270.200,1374.487 278.380,1387.398 177.081,1453.011" fill="rgba(0,0,0,0.000)" stroke="rgb(254,224,139)" stroke-width="1.000"/>
<polygon points="390.325,1284.795 385.028,1275.711 379.876,1266.544 486.429,1207.760 490.635,1215.244 494.960,1222.659 390.325,1284.795" fill="rgb(166,206,227)"/>
<polygon points="390.500,1284.110 385.462,1275.463 380.555,1266.740 486.233,1208.440 490.201,1215.492 494.275,1222.484 390.500,1284.110" fill="rgba(0,0,0,0.000)" stroke="rgb(217,239,139)" stroke-width="1.000"/>
<polygon points="274.065,1353.835 267.687,1342.897 261.483,1331.859 368.036,1273.076 373.294,1282.430 378.699,1291.699 274.065,1353.835" fill="rgb(166,206,227)"/>
<polygon points="274.240,1353.149 268.121,1342.648 262.162,1332.055 367.840,1273.755 372.860,1282.678 378.014,1291.524 274.240,1353.149" fill="rgba(0,0,0,0.000)" stroke="rgb(254,224,139)" stroke-width="1.000"/>
<polygon points="379.876,1266.544 373.763,1255.204 367.871,1243.748 476.630,1189.151 481.439,1198.503 486.429,1207.760 379.876,1266.544" fill="rgb(251,154,153)"/>
<polygon points="380.072,1265.865 374.205,1254.971 368.543,1243.970 476.407,1189.822 480.996,1198.736 485.750,1207.564 380.072,1265.865" fill="rgba(0,0,0,0.000)" stroke="rgb(102,189,99)" stroke-width="1.000"/>
<polygon points="261.483,1331.859 254.122,1318.205 247.029,1304.410 355.787,1249.814 361.799,1261.504 368.036,1273.076 261.483,1331.859" fill="rgb(251,154,153)"/>
<polygon points="261.679,1331.180 254.565,1317.972 247.700,1304.633 355.565,1250.485 361.356,1261.737 367.357,1272.879 261.679,1331.180" fill="rgba(0,0,0,0.000)" stroke="rgb(254,224,139)" stroke-width="1.000"/>
<polygon points="609.557,1122.422 596.712,1094.085 586.155,1064.818 577.951,1034.807 696.518,1007.401 702.176,1028.099 709.457,1048.283 718.315,1067.826 609.557,1122.422" fill="rgb(166,206,227)"/>
<polygon points="609.779,1121.751 597.113,1093.742 586.682,1064.826 578.552,1035.182 696.144,1008.001 701.750,1028.409 708.931,1048.316 717.644,1067.603 609.779,1121.751" fill="rgba(0,0,0,0.000)" stroke="rgb(166,217,106)" stroke-width="1.000"/>
<polygon points="577.951,1034.807 575.636,1024.111 573.620,1013.355 693.531,992.607 694.921,1000.025 696.518,1007.401 577.951,1034.807" fill="rgb(166,206,227)"/>
<polygon points="578.326,1034.207 576.126,1024.012 574.198,1013.762 693.124,993.184 694.431,1000.124 695.919,1007.027 578.326,1034.207" fill="rgba(0,0,0,0.000)" stroke="rgb(253,174,97)" stroke-width="1.000"/>
<polygon points="573.620,1013.355 569.534,982.491 567.909,951.400 568.756,920.278 572.070,889.322 692.462,907.067 690.177,928.416 689.593,949.879 690.713,971.321 693.531,992.607 573.620,1013.355" fill="rgb(166,206,227)"/>
<polygon points="574.028,1012.777 570.009,982.196 568.409,951.394 569.239,920.561 572.492,889.889 691.895,907.489 689.661,928.632 689.093,949.885 690.192,971.118 692.953,992.199 574.028,1012.777" fill="rgba(0,0,0,0.000)" stroke="rgb(0,104,55)" stroke-width="1.000"/>
<polygon points="572.070,889.322 578.337,856.541 587.369,824.412 599.101,793.167 613.447,763.033 630.303,734.229 732.623,800.106 720.998,819.971 711.104,840.753 703.013,862.301 696.784,884.459 692.462,907.067 572.070,889.322" fill="rgb(166,206,227)"/>
<polygon points="572.638,888.900 578.893,856.364 587.875,824.473 599.522,793.455 613.748,763.533 630.453,734.920 731.932,800.256 720.416,820.003 710.605,840.650 702.569,862.051 696.367,884.053 692.041,906.499 572.638,888.900" fill="rgba(0,0,0,0.000)" stroke="rgb(0,104,55)" stroke-width="1.000"/>
<polygon points="630.303,734.229 651.886,703.961 676.239,675.873 764.303,759.861 747.508,779.232 732.623,800.106 630.303,734.229" fill="rgb(166,206,227)"/>
<polygon points="630.994,734.079 652.279,704.270 676.256,676.580 763.596,759.878 747.115,778.922 732.473,799.415 630.994,734.079" fill="rgba(0,0,0,0.000)" stroke="rgb(255,255,255)" stroke-width="1.000"/>
<polygon points="676.239,675.873 682.339,669.618 688.577,663.500 772.812,751.328 768.510,755.547 764.303,759.861 676.239,675.873" fill="rgb(166,206,227)"/>
<polygon points="676.946,675.856 682.693,669.971 688.563,664.207 772.105,751.313 768.156,755.194 764.286,759.154 676.946,675.856" fill="rgba(0,0,0,0.000)" stroke="rgb(255,255,255)" stroke-width="1.000"/>
<polygon points="688.577,663.500 709.268,645.016 731.214,628.041 754.306,612.660 818.142,716.266 802.217,726.873 787.081,738.580 772.812,751.328 688.577,663.500" fill="rgb(166,206,227)"/>
<polygon points="689.284,663.515 709.716,645.294 731.371,628.544 754.143,613.348 817.454,716.102 801.790,726.564 786.890,738.089 772.827,750.621 689.284,663.515" fill="rgba(0,0,0,0.000)" stroke="rgb(166,217,106)" stroke-width="1.000"/>
<polygon points="754.306,612.660 759.925,609.263 765.599,605.960 825.931,711.645 822.017,713.922 818.142,716.266 754.306,612.660" fill="rgb(166,206,227)"/>
<polygon points="754.994,612.824 760.180,609.693 765.413,606.642 825.249,711.459 821.762,713.492 818.306,715.578 754.994,612.824" fill="rgba(0,0,0,0.000)" stroke="rgb(166,217,106)" stroke-width="1.000"/>
<polygon points="832.634,723.387 854.000,712.480 876.291,703.613 899.311,696.864 922.860,692.292 946.734,689.936 953.018,811.466 940.453,812.706 928.058,815.113 915.942,818.665 904.211,823.332 892.965,829.072 832.634,723.387" fill="rgb(178,223,138)"/>
<polygon points="833.316,723.574 854.480,712.812 876.548,704.053 899.332,697.374 922.636,692.830 946.260,690.461 952.493,810.994 940.084,812.255 927.843,814.650 915.874,818.160 904.278,822.753 893.152,828.391 833.316,723.574" fill="rgba(0,0,0,0.000)" stroke="rgb(102,189,99)" stroke-width="1.000"/>
<polygon points="765.599,605.960 770.855,603.013 776.154,600.148 833.210,707.636 829.555,709.613 825.931,711.645 765.599,605.960" fill="rgb(178,223,138)"/>
<polygon points="766.282,606.146 771.096,603.451 775.947,600.824 832.534,707.429 829.314,709.175 826.117,710.963 766.282,606.146" fill="rgba(0,0,0,0.000)" stroke="rgb(215,48,39)" stroke-width="1.000"/>
<polygon points="776.154,600.148 786.401,594.900 796.797,589.956 847.446,700.607 840.276,704.017 833.210,707.636 776.154,600.148" fill="rgb(178,223,138)"/>
<polygon points="776.831,600.355 786.622,595.348 796.550,590.619 846.783,700.361 840.055,703.569 833.417,706.961 776.831,600.355" fill="rgba(0,0,0,0.000)" stroke="rgb(254,224,139)" stroke-width="1.000"/>
<polygon points="796.797,589.956 804.016,586.738 811.300,583.668 857.448,696.271 852.425,698.389 847.446,700.607 796.797,589.956" fill="rgb(51,160,44)"/>
<polygon points="797.460,590.202 804.215,587.197 811.027,584.320 856.796,695.998 852.226,697.930 847.693,699.945 797.460,590.202" fill="rgba(0,0,0,0.000)" stroke="rgb(244,109,67)" stroke-width="1.000"/>
<polygon points="811.300,583.668 828.461,577.100 845.911,571.343 881.318,687.771 869.283,691.741 857.448,696.271 811.300,583.668" fill="rgb(178,223,138)"/>
<polygon points="811.952,583.941 828.628,577.571 845.578,571.967 880.694,687.439 869.116,691.270 857.721,695.619 811.952,583.941" fill="rgba(0,0,0,0.000)" stroke="rgb(244,109,67)" stroke-width="1.000"/>
<polygon points="845.911,571.343 851.398,569.718 856.909,568.173 888.903,685.585 885.102,686.650 881.318,687.771 845.911,571.343" fill="rgb(178,223,138)"/>
<polygon points="846.535,571.676 851.537,570.198 856.558,568.787 888.289,685.234 884.964,686.170 881.651,687.148 846.535,571.676" fill="rgba(0,0,0,0.000)" stroke="rgb(244,109,67)" stroke-width="1.000"/>
<polygon points="856.909,568.173 860.710,567.157 864.522,566.180 894.153,684.211 891.524,684.884 888.903,685.585 856.909,568.173" fill="rgb(178,223,138)"/>
<polygon points="857.523,568.524 860.837,567.641 864.158,566.787 893.546,683.848 891.398,684.401 889.254,684.971 857.523,568.524" fill="rgba(0,0,0,0.000)" stroke="rgb(244,109,67)" stroke-width="1.000"/>
<polygon points="864.522,566.180 901.862,558.712 939.751,554.902 946.035,676.432 919.905,679.060 894.153,684.211 864.522,566.180" fill="rgb(178,223,138)"/>
<polygon points="865.128,566.544 901.936,559.207 939.278,555.427 945.510,675.959 919.831,678.566 894.516,683.604 865.128,566.544" fill="rgba(0,0,0,0.000)" stroke="rgb(254,224,139)" stroke-width="1.000"/>
<polygon points="946.734,689.936 950.279,689.777 953.826,689.667 956.750,811.325 954.884,811.383 953.018,811.466 946.734,689.936" fill="rgb(178,223,138)"/>
<polygon points="947.259,690.410 950.298,690.276 953.338,690.179 956.238,810.838 954.865,810.883 953.491,810.942 947.259,690.410" fill="rgba(0,0,0,0.000)" stroke="rgb(255,255,255)" stroke-width="1.000"/>
<polygon points="953.826,689.667 956.913,689.611 960.000,689.593 960.000,811.286 958.375,811.295 956.750,811.325 953.826,689.667" fill="rgb(166,206,227)"/>
<polygon points="954.338,690.155 956.919,690.111 959.500,690.093 959.500,810.787 958.369,810.796 957.238,810.814 954.338,690.155" fill="rgba(0,0,0,0.000)" stroke="rgb(253,174,97)" stroke-width="1.000"/>
<polygon points="950.576,554.492 955.288,554.407 960.000,554.379 960.000,676.071 956.750,676.091 953.501,676.150 950.576,554.492" fill="rgb(166,206,227)"/>
<polygon points="951.088,554.980 955.294,554.907 959.500,554.879 959.500,675.572 956.744,675.591 953.989,675.638 951.088,554.980" fill="rgba(0,0,0,0.000)" stroke="rgb(253,174,97)" stroke-width="1.000"/>
<text x="960.000" y="946.500" fill="rgb(34,34,34)" font-size="14.000" font-family="sans-serif" text-anchor="middle" dominant-baseline="central">theunrepentantgeek-crispy-spoon</text>
<text x="1008.684" y="734.969" fill="rgb(0,0,0)" font-size="14.000" font-family="sans-serif" text-anchor="middle" dominant-baseline="central" transform="rotate(12.961 1008.684 734.969)">cmd</text>
<text x="1005.544" y="748.613" fill="rgb(0,0,0)" font-size="14.000" font-family="sans-serif" text-anchor="middle" dominant-baseline="central" transform="rotate(12.961 1005.544 748.613)">6542</text>
<text x="1002.404" y="762.256" fill="rgb(0,0,0)" font-size="14.000" font-family="sans-serif" text-anchor="middle" dominant-baseline="central" transform="rotate(12.961 1002.404 762.256)">go</text>
<text x="999.264" y="775.899" fill="rgb(0,0,0)" font-size="14.000" font-family="sans-serif" text-anchor="middle" dominant-baseline="central" transform="rotate(12.961 999.264 775.899)">1127</text>
<text x="1039.011" y="603.200" fill="rgb(0,0,0)" font-size="14.000" font-family="sans-serif" text-anchor="middle" dominant-baseline="central" transform="rotate(12.961 1039.011 603.200)">codeviz</text>
<text x="1035.871" y="616.843" fill="rgb(0,0,0)" font-size="14.000" font-family="sans-serif" text-anchor="middle" dominant-baseline="central" transform="rotate(12.961 1035.871 616.843)">6542</text>
<text x="1032.731" y="630.487" fill="rgb(0,0,0)" font-size="14.000" font-family="sans-serif" text-anchor="middle" dominant-baseline="central" transform="rotate(12.961 1032.731 630.487)">go</text>
<text x="1029.591" y="644.130" fill="rgb(0,0,0)" font-size="14.000" font-family="sans-serif" text-anchor="middle" dominant-baseline="central" transform="rotate(12.961 1029.591 644.130)">1127</text>
<text x="1077.933" y="764.272" fill="rgb(0,0,0)" font-size="14.000" font-family="sans-serif" text-anchor="middle" dominant-baseline="central" transform="rotate(32.910 1077.933 764.272)">docs</text>
<text x="1070.327" y="776.025" fill="rgb(0,0,0)" font-size="14.000" font-family="sans-serif" text-anchor="middle" dominant-baseline="central" transform="rotate(32.910 1070.327 776.025)">3406</text>
<text x="1062.720" y="787.779" fill="rgb(0,0,0)" font-size="14.000" font-family="sans-serif" text-anchor="middle" dominant-baseline="central" transform="rotate(32.910 1062.720 787.779)">md</text>
<text x="1055.114" y="799.532" fill="rgb(0,0,0)" font-size="14.000" font-family="sans-serif" text-anchor="middle" dominant-baseline="central" transform="rotate(32.910 1055.114 799.532)">1021</text>
<text x="1122.995" y="644.390" fill="rgb(0,0,0)" font-size="8.537" font-family="sans-serif" text-anchor="middle" dominant-baseline="central" transform="rotate(28.348 1122.995 644.390)">content</text>
<text x="1119.196" y="651.431" fill="rgb(0,0,0)" font-size="8.537" font-family="sans-serif" text-anchor="middle" dominant-baseline="central" transform="rotate(28.348 1119.196 651.431)">1293</text>
<text x="1115.398" y="658.471" fill="rgb(0,0,0)" font-size="8.537" font-family="sans-serif" text-anchor="middle" dominant-baseline="central" transform="rotate(28.348 1115.398 658.471)">md</text>
<text x="1111.599" y="665.512" fill="rgb(0,0,0)" font-size="8.537" font-family="sans-serif" text-anchor="middle" dominant-baseline="central" transform="rotate(28.348 1111.599 665.512)">480</text>
<text x="1188.417" y="522.640" fill="rgb(0,0,0)" font-size="10.033" font-family="sans-serif" text-anchor="middle" dominant-baseline="central" transform="rotate(28.320 1188.417 522.640)">docs</text>
<text x="1183.673" y="531.443" fill="rgb(0,0,0)" font-size="10.033" font-family="sans-serif" text-anchor="middle" dominant-baseline="central" transform="rotate(28.320 1183.673 531.443)">1183</text>
<text x="1178.929" y="540.246" fill="rgb(0,0,0)" font-size="10.033" font-family="sans-serif" text-anchor="middle" dominant-baseline="central" transform="rotate(28.320 1178.929 540.246)">md</text>
<text x="1174.185" y="549.049" fill="rgb(0,0,0)" font-size="10.033" font-family="sans-serif" text-anchor="middle" dominant-baseline="central" transform="rotate(28.320 1174.185 549.049)">305</text>
<text x="1164.315" y="674.393" fill="rgb(0,0,0)" font-size="6.063" font-family="sans-serif" text-anchor="middle" dominant-baseline="central" transform="rotate(36.901 1164.315 674.393)">superpowers</text>
<text x="1160.712" y="679.191" fill="rgb(0,0,0)" font-size="6.063" font-family="sans-serif" text-anchor="middle" dominant-baseline="central" transform="rotate(36.901 1160.712 679.191)">1676</text>
<text x="1157.110" y="683.989" fill="rgb(0,0,0)" font-size="6.063" font-family="sans-serif" text-anchor="middle" dominant-baseline="central" transform="rotate(36.901 1157.110 683.989)">md</text>
<text x="1153.507" y="688.787" fill="rgb(0,0,0)" font-size="6.063" font-family="sans-serif" text-anchor="middle" dominant-baseline="central" transform="rotate(36.901 1153.507 688.787)">6</text>
<text x="1241.461" y="553.997" fill="rgb(0,0,0)" font-size="11.657" font-family="sans-serif" text-anchor="middle" dominant-baseline="central" transform="rotate(35.644 1241.461 553.997)">plans</text>
<text x="1235.051" y="562.936" fill="rgb(0,0,0)" font-size="11.657" font-family="sans-serif" text-anchor="middle" dominant-baseline="central" transform="rotate(35.644 1235.051 562.936)">1040</text>
<text x="1228.640" y="571.876" fill="rgb(0,0,0)" font-size="11.657" font-family="sans-serif" text-anchor="middle" dominant-baseline="central" transform="rotate(35.644 1228.640 571.876)">md</text>
<text x="1222.230" y="580.815" fill="rgb(0,0,0)" font-size="11.657" font-family="sans-serif" text-anchor="middle" dominant-baseline="central" transform="rotate(35.644 1222.230 580.815)">3</text>
<text x="1257.845" y="573.931" fill="rgb(0,0,0)" font-size="7.963" font-family="sans-serif" text-anchor="middle" dominant-baseline="central" transform="rotate(38.640 1257.845 573.931)">specs</text>
<text x="1253.474" y="579.399" fill="rgb(0,0,0)" font-size="7.963" font-family="sans-serif" text-anchor="middle" dominant-baseline="central" transform="rotate(38.640 1253.474 579.399)">636</text>
<text x="1249.103" y="584.867" fill="rgb(0,0,0)" font-size="7.963" font-family="sans-serif" text-anchor="middle" dominant-baseline="central" transform="rotate(38.640 1249.103 584.867)">md</text>
<text x="1244.732" y="590.334" fill="rgb(0,0,0)" font-size="7.963" font-family="sans-serif" text-anchor="middle" dominant-baseline="central" transform="rotate(38.640 1244.732 590.334)">3</text>
<text x="944.473" y="1120.871" fill="rgb(0,0,0)" font-size="14.000" font-family="sans-serif" text-anchor="middle" dominant-baseline="central" transform="rotate(365.089 944.473 1120.871)">internal</text>
<text x="943.231" y="1134.816" fill="rgb(0,0,0)" font-size="14.000" font-family="sans-serif" text-anchor="middle" dominant-baseline="central" transform="rotate(365.089 943.231 1134.816)">75962</text>
<text x="941.989" y="1148.760" fill="rgb(0,0,0)" font-size="14.000" font-family="sans-serif" text-anchor="middle" dominant-baseline="central" transform="rotate(365.089 941.989 1148.760)">go</text>
<text x="940.747" y="1162.705" fill="rgb(0,0,0)" font-size="14.000" font-family="sans-serif" text-anchor="middle" dominant-baseline="central" transform="rotate(365.089 940.747 1162.705)">21752</text>
<text x="1203.920" y="692.333" fill="rgb(0,0,0)" font-size="14.000" font-family="sans-serif" text-anchor="middle" dominant-baseline="central" transform="rotate(43.821 1203.920 692.333)">alluvial</text>
<text x="1194.226" y="702.434" fill="rgb(0,0,0)" font-size="14.000" font-family="sans-serif" text-anchor="middle" dominant-baseline="central" transform="rotate(43.821 1194.226 702.434)">1975</text>
<text x="1184.533" y="712.535" fill="rgb(0,0,0)" font-size="14.000" font-family="sans-serif" text-anchor="middle" dominant-baseline="central" transform="rotate(43.821 1184.533 712.535)">go</text>
<text x="1174.839" y="722.636" fill="rgb(0,0,0)" font-size="14.000" font-family="sans-serif" text-anchor="middle" dominant-baseline="central" transform="rotate(43.821 1174.839 722.636)">27</text>
<text x="1247.578" y="743.039" fill="rgb(0,0,0)" font-size="14.000" font-family="sans-serif" text-anchor="middle" dominant-baseline="central" transform="rotate(54.721 1247.578 743.039)">bubbletree</text>
<text x="1236.149" y="751.125" fill="rgb(0,0,0)" font-size="14.000" font-family="sans-serif" text-anchor="middle" dominant-baseline="central" transform="rotate(54.721 1236.149 751.125)">3735</text>
<text x="1224.720" y="759.210" fill="rgb(0,0,0)" font-size="14.000" font-family="sans-serif" text-anchor="middle" dominant-baseline="central" transform="rotate(54.721 1224.720 759.210)">go</text>
<text x="1213.292" y="767.296" fill="rgb(0,0,0)" font-size="14.000" font-family="sans-serif" text-anchor="middle" dominant-baseline="central" transform="rotate(54.721 1213.292 767.296)">504</text>
<text x="1296.310" y="841.650" fill="rgb(0,0,0)" font-size="14.000" font-family="sans-serif" text-anchor="middle" dominant-baseline="central" transform="rotate(72.684 1296.310 841.650)">canvas</text>
<text x="1282.944" y="845.817" fill="rgb(0,0,0)" font-size="14.000" font-family="sans-serif" text-anchor="middle" dominant-baseline="central" transform="rotate(72.684 1282.944 845.817)">6050</text>
<text x="1269.579" y="849.984" fill="rgb(0,0,0)" font-size="14.000" font-family="sans-serif" text-anchor="middle" dominant-baseline="central" transform="rotate(72.684 1269.579 849.984)">go</text>
<text x="1256.213" y="854.151" fill="rgb(0,0,0)" font-size="14.000" font-family="sans-serif" text-anchor="middle" dominant-baseline="central" transform="rotate(72.684 1256.213 854.151)">2276</text>
<text x="1387.866" y="739.086" fill="rgb(0,0,0)" font-size="6.958" font-family="sans-serif" text-anchor="middle" dominant-baseline="central" transform="rotate(64.138 1387.866 739.086)">legendlayout</text>
<text x="1382.467" y="741.704" fill="rgb(0,0,0)" font-size="6.958" font-family="sans-serif" text-anchor="middle" dominant-baseline="central" transform="rotate(64.138 1382.467 741.704)">966</text>
<text x="1377.068" y="744.321" fill="rgb(0,0,0)" font-size="6.958" font-family="sans-serif" text-anchor="middle" dominant-baseline="central" transform="rotate(64.138 1377.068 744.321)">go</text>
<text x="1371.669" y="746.938" fill="rgb(0,0,0)" font-size="6.958" font-family="sans-serif" text-anchor="middle" dominant-baseline="central" transform="rotate(64.138 1371.669 746.938)">361</text>
<text x="1406.314" y="778.207" fill="rgb(0,0,0)" font-size="7.136" font-family="sans-serif" text-anchor="middle" dominant-baseline="central" transform="rotate(69.340 1406.314 778.207)">model</text>
<text x="1399.764" y="780.677" fill="rgb(0,0,0)" font-size="7.136" font-family="sans-serif" text-anchor="middle" dominant-baseline="central" transform="rotate(69.340 1399.764 780.677)">343</text>
<text x="1393.214" y="783.146" fill="rgb(0,0,0)" font-size="7.136" font-family="sans-serif" text-anchor="middle" dominant-baseline="central" transform="rotate(69.340 1393.214 783.146)">go</text>
<text x="1386.665" y="785.616" fill="rgb(0,0,0)" font-size="7.136" font-family="sans-serif" text-anchor="middle" dominant-baseline="central" transform="rotate(69.340 1386.665 785.616)">111</text>
<text x="1428.398" y="811.410" fill="rgb(0,0,0)" font-size="14.000" font-family="sans-serif" text-anchor="middle" dominant-baseline="central" transform="rotate(73.912 1428.398 811.410)">raster</text>
<text x="1414.946" y="815.290" fill="rgb(0,0,0)" font-size="14.000" font-family="sans-serif" text-anchor="middle" dominant-baseline="central" transform="rotate(73.912 1414.946 815.290)">1434</text>
<text x="1401.494" y="819.169" fill="rgb(0,0,0)" font-size="14.000" font-family="sans-serif" text-anchor="middle" dominant-baseline="central" transform="rotate(73.912 1401.494 819.169)">go</text>
<text x="1388.043" y="823.049" fill="rgb(0,0,0)" font-size="14.000" font-family="sans-serif" text-anchor="middle" dominant-baseline="central" transform="rotate(73.912 1388.043 823.049)">281</text>
<text x="1439.744" y="859.944" fill="rgb(0,0,0)" font-size="14.000" font-family="sans-serif" text-anchor="middle" dominant-baseline="central" transform="rotate(79.773 1439.744 859.944)">svg</text>
<text x="1425.966" y="862.430" fill="rgb(0,0,0)" font-size="14.000" font-family="sans-serif" text-anchor="middle" dominant-baseline="central" transform="rotate(79.773 1425.966 862.430)">984</text>
<text x="1412.188" y="864.916" fill="rgb(0,0,0)" font-size="14.000" font-family="sans-serif" text-anchor="middle" dominant-baseline="central" transform="rotate(79.773 1412.188 864.916)">go</text>
<text x="1398.411" y="867.402" fill="rgb(0,0,0)" font-size="14.000" font-family="sans-serif" text-anchor="middle" dominant-baseline="central" transform="rotate(79.773 1398.411 867.402)">72</text>
<text x="1270.259" y="949.615" fill="rgb(0,0,0)" font-size="14.000" font-family="sans-serif" text-anchor="middle" dominant-baseline="central" transform="rotate(270.575 1270.259 949.615)">config</text>
<text x="1284.259" y="949.755" fill="rgb(0,0,0)" font-size="14.000" font-family="sans-serif" text-anchor="middle" dominant-baseline="central" transform="rotate(270.575 1284.259 949.755)">3693</text>
<text x="1298.258" y="949.896" fill="rgb(0,0,0)" font-size="14.000" font-family="sans-serif" text-anchor="middle" dominant-baseline="central" transform="rotate(270.575 1298.258 949.896)">go</text>
<text x="1312.257" y="950.037" fill="rgb(0,0,0)" font-size="14.000" font-family="sans-serif" text-anchor="middle" dominant-baseline="central" transform="rotate(270.575 1312.257 950.037)">1617</text>
<text x="1268.080" y="1011.077" fill="rgb(0,0,0)" font-size="11.966" font-family="sans-serif" text-anchor="middle" dominant-baseline="central" transform="rotate(281.838 1268.080 1011.077)">donuttree</text>
<text x="1278.846" y="1013.333" fill="rgb(0,0,0)" font-size="11.966" font-family="sans-serif" text-anchor="middle" dominant-baseline="central" transform="rotate(281.838 1278.846 1013.333)">2227</text>
<text x="1289.612" y="1015.590" fill="rgb(0,0,0)" font-size="11.966" font-family="sans-serif" text-anchor="middle" dominant-baseline="central" transform="rotate(281.838 1289.612 1015.590)">go</text>
<text x="1300.378" y="1017.847" fill="rgb(0,0,0)" font-size="11.966" font-family="sans-serif" text-anchor="middle" dominant-baseline="central" transform="rotate(281.838 1300.378 1017.847)">241</text>
<text x="1266.809" y="1045.139" fill="rgb(0,0,0)" font-size="6.916" font-family="sans-serif" text-anchor="middle" dominant-baseline="central" transform="rotate(287.823 1266.809 1045.139)">export</text>
<text x="1272.521" y="1046.975" fill="rgb(0,0,0)" font-size="6.916" font-family="sans-serif" text-anchor="middle" dominant-baseline="central" transform="rotate(287.823 1272.521 1046.975)">648</text>
<text x="1278.233" y="1048.812" fill="rgb(0,0,0)" font-size="6.916" font-family="sans-serif" text-anchor="middle" dominant-baseline="central" transform="rotate(287.823 1278.233 1048.812)">go</text>
<text x="1283.945" y="1050.648" fill="rgb(0,0,0)" font-size="6.916" font-family="sans-serif" text-anchor="middle" dominant-baseline="central" transform="rotate(287.823 1283.945 1050.648)">259</text>
<text x="1258.493" y="1059.808" fill="rgb(0,0,0)" font-size="8.040" font-family="sans-serif" text-anchor="middle" dominant-baseline="central" transform="rotate(290.787 1258.493 1059.808)">filter</text>
<text x="1265.972" y="1062.647" fill="rgb(0,0,0)" font-size="8.040" font-family="sans-serif" text-anchor="middle" dominant-baseline="central" transform="rotate(290.787 1265.972 1062.647)">485</text>
<text x="1273.451" y="1065.486" fill="rgb(0,0,0)" font-size="8.040" font-family="sans-serif" text-anchor="middle" dominant-baseline="central" transform="rotate(290.787 1273.451 1065.486)">go</text>
<text x="1280.930" y="1068.326" fill="rgb(0,0,0)" font-size="8.040" font-family="sans-serif" text-anchor="middle" dominant-baseline="central" transform="rotate(290.787 1280.930 1068.326)">125</text>
<text x="1244.234" y="1085.213" fill="rgb(0,0,0)" font-size="10.846" font-family="sans-serif" text-anchor="middle" dominant-baseline="central" transform="rotate(296.013 1244.234 1085.213)">geometry</text>
<text x="1253.220" y="1089.598" fill="rgb(0,0,0)" font-size="10.846" font-family="sans-serif" text-anchor="middle" dominant-baseline="central" transform="rotate(296.013 1253.220 1089.598)">1953</text>
<text x="1262.207" y="1093.984" fill="rgb(0,0,0)" font-size="10.846" font-family="sans-serif" text-anchor="middle" dominant-baseline="central" transform="rotate(296.013 1262.207 1093.984)">go</text>
<text x="1271.194" y="1098.370" fill="rgb(0,0,0)" font-size="10.846" font-family="sans-serif" text-anchor="middle" dominant-baseline="central" transform="rotate(296.013 1271.194 1098.370)">235</text>
<text x="1223.925" y="1123.488" fill="rgb(255,255,255)" font-size="9.829" font-family="sans-serif" text-anchor="middle" dominant-baseline="central" transform="rotate(303.846 1223.925 1123.488)">goldentest</text>
<text x="1231.400" y="1128.500" fill="rgb(255,255,255)" font-size="9.829" font-family="sans-serif" text-anchor="middle" dominant-baseline="central" transform="rotate(303.846 1231.400 1128.500)">1988</text>
<text x="1238.875" y="1133.513" fill="rgb(255,255,255)" font-size="9.829" font-family="sans-serif" text-anchor="middle" dominant-baseline="central" transform="rotate(303.846 1238.875 1133.513)">golden</text>
<text x="1246.349" y="1138.526" fill="rgb(255,255,255)" font-size="9.829" font-family="sans-serif" text-anchor="middle" dominant-baseline="central" transform="rotate(303.846 1246.349 1138.526)">944</text>
<text x="1329.997" y="1194.619" fill="rgb(255,255,255)" font-size="14.000" font-family="sans-serif" text-anchor="middle" dominant-baseline="central" transform="rotate(303.846 1329.997 1194.619)">testdata</text>
<text x="1341.624" y="1202.417" fill="rgb(255,255,255)" font-size="14.000" font-family="sans-serif" text-anchor="middle" dominant-baseline="central" transform="rotate(303.846 1341.624 1202.417)">1110</text>
<text x="1353.252" y="1210.214" fill="rgb(255,255,255)" font-size="14.000" font-family="sans-serif" text-anchor="middle" dominant-baseline="central" transform="rotate(303.846 1353.252 1210.214)">golden</text>
<text x="1364.879" y="1218.012" fill="rgb(255,255,255)" font-size="14.000" font-family="sans-serif" text-anchor="middle" dominant-baseline="central" transform="rotate(303.846 1364.879 1218.012)">292</text>
<text x="1195.456" y="1148.567" fill="rgb(0,0,0)" font-size="14.000" font-family="sans-serif" text-anchor="middle" dominant-baseline="central" transform="rotate(310.636 1195.456 1148.567)">inks</text>
<text x="1206.080" y="1157.685" fill="rgb(0,0,0)" font-size="14.000" font-family="sans-serif" text-anchor="middle" dominant-baseline="central" transform="rotate(310.636 1206.080 1157.685)">1352</text>
<text x="1216.704" y="1166.803" fill="rgb(0,0,0)" font-size="14.000" font-family="sans-serif" text-anchor="middle" dominant-baseline="central" transform="rotate(310.636 1216.704 1166.803)">go</text>
<text x="1227.328" y="1175.920" fill="rgb(0,0,0)" font-size="14.000" font-family="sans-serif" text-anchor="middle" dominant-baseline="central" transform="rotate(310.636 1227.328 1175.920)">935</text>
<text x="1169.462" y="1175.402" fill="rgb(0,0,0)" font-size="14.000" font-family="sans-serif" text-anchor="middle" dominant-baseline="central" transform="rotate(317.539 1169.462 1175.402)">legend</text>
<text x="1178.913" y="1185.730" fill="rgb(0,0,0)" font-size="14.000" font-family="sans-serif" text-anchor="middle" dominant-baseline="central" transform="rotate(317.539 1178.913 1185.730)">2053</text>
<text x="1188.365" y="1196.059" fill="rgb(0,0,0)" font-size="14.000" font-family="sans-serif" text-anchor="middle" dominant-baseline="central" transform="rotate(317.539 1188.365 1196.059)">go</text>
<text x="1197.816" y="1206.387" fill="rgb(0,0,0)" font-size="14.000" font-family="sans-serif" text-anchor="middle" dominant-baseline="central" transform="rotate(317.539 1197.816 1206.387)">218</text>
<text x="1145.366" y="1202.760" fill="rgb(0,0,0)" font-size="10.742" font-family="sans-serif" text-anchor="middle" dominant-baseline="central" transform="rotate(324.120 1145.366 1202.760)">metric</text>
<text x="1151.227" y="1210.862" fill="rgb(0,0,0)" font-size="10.742" font-family="sans-serif" text-anchor="middle" dominant-baseline="central" transform="rotate(324.120 1151.227 1210.862)">1166</text>
<text x="1157.088" y="1218.965" fill="rgb(0,0,0)" font-size="10.742" font-family="sans-serif" text-anchor="middle" dominant-baseline="central" transform="rotate(324.120 1157.088 1218.965)">go</text>
<text x="1162.949" y="1227.067" fill="rgb(0,0,0)" font-size="10.742" font-family="sans-serif" text-anchor="middle" dominant-baseline="central" transform="rotate(324.120 1162.949 1227.067)">1290</text>
<text x="1116.851" y="1215.947" fill="rgb(0,0,0)" font-size="13.438" font-family="sans-serif" text-anchor="middle" dominant-baseline="central" transform="rotate(329.795 1116.851 1215.947)">model</text>
<text x="1123.391" y="1227.182" fill="rgb(0,0,0)" font-size="13.438" font-family="sans-serif" text-anchor="middle" dominant-baseline="central" transform="rotate(329.795 1123.391 1227.182)">1531</text>
<text x="1129.931" y="1238.417" fill="rgb(0,0,0)" font-size="13.438" font-family="sans-serif" text-anchor="middle" dominant-baseline="central" transform="rotate(329.795 1129.931 1238.417)">go</text>
<text x="1136.471" y="1249.652" fill="rgb(0,0,0)" font-size="13.438" font-family="sans-serif" text-anchor="middle" dominant-baseline="central" transform="rotate(329.795 1136.471 1249.652)">957</text>
<text x="1096.315" y="1236.870" fill="rgb(0,0,0)" font-size="7.333" font-family="sans-serif" text-anchor="middle" dominant-baseline="central" transform="rotate(334.852 1096.315 1236.870)">palette</text>
<text x="1099.290" y="1243.207" fill="rgb(0,0,0)" font-size="7.333" font-family="sans-serif" text-anchor="middle" dominant-baseline="central" transform="rotate(334.852 1099.290 1243.207)">809</text>
<text x="1102.265" y="1249.543" fill="rgb(0,0,0)" font-size="7.333" font-family="sans-serif" text-anchor="middle" dominant-baseline="central" transform="rotate(334.852 1102.265 1249.543)">go</text>
<text x="1105.239" y="1255.880" fill="rgb(0,0,0)" font-size="7.333" font-family="sans-serif" text-anchor="middle" dominant-baseline="central" transform="rotate(334.852 1105.239 1255.880)">373</text>
<text x="1077.473" y="1246.602" fill="rgb(0,0,0)" font-size="6.171" font-family="sans-serif" text-anchor="middle" dominant-baseline="central" transform="rotate(338.623 1077.473 1246.602)">pipeline</text>
<text x="1079.660" y="1252.189" fill="rgb(0,0,0)" font-size="6.171" font-family="sans-serif" text-anchor="middle" dominant-baseline="central" transform="rotate(338.623 1079.660 1252.189)">789</text>
<text x="1081.847" y="1257.777" fill="rgb(0,0,0)" font-size="6.171" font-family="sans-serif" text-anchor="middle" dominant-baseline="central" transform="rotate(338.623 1081.847 1257.777)">go</text>
<text x="1084.034" y="1263.364" fill="rgb(0,0,0)" font-size="6.171" font-family="sans-serif" text-anchor="middle" dominant-baseline="central" transform="rotate(338.623 1084.034 1263.364)">587</text>
<text x="1043.184" y="1248.529" fill="rgb(0,0,0)" font-size="12.325" font-family="sans-serif" text-anchor="middle" dominant-baseline="central" transform="rotate(344.602 1043.184 1248.529)">progress</text>
<text x="1046.370" y="1260.098" fill="rgb(0,0,0)" font-size="12.325" font-family="sans-serif" text-anchor="middle" dominant-baseline="central" transform="rotate(344.602 1046.370 1260.098)">2083</text>
<text x="1049.557" y="1271.668" fill="rgb(0,0,0)" font-size="12.325" font-family="sans-serif" text-anchor="middle" dominant-baseline="central" transform="rotate(344.602 1049.557 1271.668)">go</text>
<text x="1052.743" y="1283.237" fill="rgb(0,0,0)" font-size="12.325" font-family="sans-serif" text-anchor="middle" dominant-baseline="central" transform="rotate(344.602 1052.743 1283.237)">22</text>
<text x="1078.291" y="1375.997" fill="rgb(255,255,255)" font-size="14.000" font-family="sans-serif" text-anchor="middle" dominant-baseline="central" transform="rotate(344.602 1078.291 1375.997)">testdata</text>
<text x="1082.008" y="1389.495" fill="rgb(255,255,255)" font-size="14.000" font-family="sans-serif" text-anchor="middle" dominant-baseline="central" transform="rotate(344.602 1082.008 1389.495)">12</text>
<text x="1085.726" y="1402.992" fill="rgb(255,255,255)" font-size="14.000" font-family="sans-serif" text-anchor="middle" dominant-baseline="central" transform="rotate(344.602 1085.726 1402.992)">golden</text>
<text x="1089.443" y="1416.490" fill="rgb(255,255,255)" font-size="14.000" font-family="sans-serif" text-anchor="middle" dominant-baseline="central" transform="rotate(344.602 1089.443 1416.490)">4</text>
<text x="871.246" y="1243.810" fill="rgb(0,0,0)" font-size="14.000" font-family="sans-serif" text-anchor="middle" dominant-baseline="central" transform="rotate(376.622 871.246 1243.810)">provider</text>
<text x="867.241" y="1257.225" fill="rgb(0,0,0)" font-size="14.000" font-family="sans-serif" text-anchor="middle" dominant-baseline="central" transform="rotate(376.622 867.241 1257.225)">15810</text>
<text x="863.236" y="1270.640" fill="rgb(0,0,0)" font-size="14.000" font-family="sans-serif" text-anchor="middle" dominant-baseline="central" transform="rotate(376.622 863.236 1270.640)">go</text>
<text x="859.232" y="1284.055" fill="rgb(0,0,0)" font-size="14.000" font-family="sans-serif" text-anchor="middle" dominant-baseline="central" transform="rotate(376.622 859.232 1284.055)">3135</text>
<text x="1012.910" y="1397.899" fill="rgb(0,0,0)" font-size="8.924" font-family="sans-serif" text-anchor="middle" dominant-baseline="central" transform="rotate(353.315 1012.910 1397.899)">filesystem</text>
<text x="1013.841" y="1405.845" fill="rgb(0,0,0)" font-size="8.924" font-family="sans-serif" text-anchor="middle" dominant-baseline="central" transform="rotate(353.315 1013.841 1405.845)">1056</text>
<text x="1014.772" y="1413.790" fill="rgb(0,0,0)" font-size="8.924" font-family="sans-serif" text-anchor="middle" dominant-baseline="central" transform="rotate(353.315 1014.772 1413.790)">go</text>
<text x="1015.704" y="1421.736" fill="rgb(0,0,0)" font-size="8.924" font-family="sans-serif" text-anchor="middle" dominant-baseline="central" transform="rotate(353.315 1015.704 1421.736)">220</text>
<text x="862.743" y="1381.243" fill="rgb(0,0,0)" font-size="14.000" font-family="sans-serif" text-anchor="middle" dominant-baseline="central" transform="rotate(372.610 862.743 1381.243)">git</text>
<text x="859.686" y="1394.906" fill="rgb(0,0,0)" font-size="14.000" font-family="sans-serif" text-anchor="middle" dominant-baseline="central" transform="rotate(372.610 859.686 1394.906)">8770</text>
<text x="856.630" y="1408.568" fill="rgb(0,0,0)" font-size="14.000" font-family="sans-serif" text-anchor="middle" dominant-baseline="central" transform="rotate(372.610 856.630 1408.568)">go</text>
<text x="853.573" y="1422.230" fill="rgb(0,0,0)" font-size="14.000" font-family="sans-serif" text-anchor="middle" dominant-baseline="central" transform="rotate(372.610 853.573 1422.230)">554</text>
<text x="691.991" y="1302.354" fill="rgb(0,0,0)" font-size="14.000" font-family="sans-serif" text-anchor="middle" dominant-baseline="central" transform="rotate(396.985 691.991 1302.354)">golang</text>
<text x="683.569" y="1313.537" fill="rgb(0,0,0)" font-size="14.000" font-family="sans-serif" text-anchor="middle" dominant-baseline="central" transform="rotate(396.985 683.569 1313.537)">3784</text>
<text x="675.146" y="1324.720" fill="rgb(0,0,0)" font-size="14.000" font-family="sans-serif" text-anchor="middle" dominant-baseline="central" transform="rotate(396.985 675.146 1324.720)">go</text>
<text x="666.724" y="1335.903" fill="rgb(0,0,0)" font-size="14.000" font-family="sans-serif" text-anchor="middle" dominant-baseline="central" transform="rotate(396.985 666.724 1335.903)">1610</text>
<text x="610.646" y="1410.362" fill="rgb(0,0,0)" font-size="14.000" font-family="sans-serif" text-anchor="middle" dominant-baseline="central" transform="rotate(396.985 610.646 1410.362)">testdata</text>
<text x="602.223" y="1421.545" fill="rgb(0,0,0)" font-size="14.000" font-family="sans-serif" text-anchor="middle" dominant-baseline="central" transform="rotate(396.985 602.223 1421.545)">45</text>
<text x="593.801" y="1432.728" fill="rgb(0,0,0)" font-size="14.000" font-family="sans-serif" text-anchor="middle" dominant-baseline="central" transform="rotate(396.985 593.801 1432.728)">go</text>
<text x="585.378" y="1443.912" fill="rgb(0,0,0)" font-size="14.000" font-family="sans-serif" text-anchor="middle" dominant-baseline="central" transform="rotate(396.985 585.378 1443.912)">106</text>
<text x="723.414" y="1147.243" fill="rgb(0,0,0)" font-size="14.000" font-family="sans-serif" text-anchor="middle" dominant-baseline="central" transform="rotate(409.685 723.414 1147.243)">radialtree</text>
<text x="712.739" y="1156.301" fill="rgb(0,0,0)" font-size="14.000" font-family="sans-serif" text-anchor="middle" dominant-baseline="central" transform="rotate(409.685 712.739 1156.301)">2685</text>
<text x="702.064" y="1165.359" fill="rgb(0,0,0)" font-size="14.000" font-family="sans-serif" text-anchor="middle" dominant-baseline="central" transform="rotate(409.685 702.064 1165.359)">go</text>
<text x="691.389" y="1174.416" fill="rgb(0,0,0)" font-size="14.000" font-family="sans-serif" text-anchor="middle" dominant-baseline="central" transform="rotate(409.685 691.389 1174.416)">290</text>
<text x="693.787" y="1105.877" fill="rgb(0,0,0)" font-size="14.000" font-family="sans-serif" text-anchor="middle" dominant-baseline="central" transform="rotate(419.092 693.787 1105.877)">scan</text>
<text x="681.775" y="1113.068" fill="rgb(0,0,0)" font-size="14.000" font-family="sans-serif" text-anchor="middle" dominant-baseline="central" transform="rotate(419.092 681.775 1113.068)">2164</text>
<text x="669.763" y="1120.260" fill="rgb(0,0,0)" font-size="14.000" font-family="sans-serif" text-anchor="middle" dominant-baseline="central" transform="rotate(419.092 669.763 1120.260)">go</text>
<text x="657.751" y="1127.451" fill="rgb(0,0,0)" font-size="14.000" font-family="sans-serif" text-anchor="middle" dominant-baseline="central" transform="rotate(419.092 657.751 1127.451)">2632</text>
<text x="577.774" y="1175.332" fill="rgb(255,255,255)" font-size="14.000" font-family="sans-serif" text-anchor="middle" dominant-baseline="central" transform="rotate(419.092 577.774 1175.332)">testdata</text>
<text x="565.762" y="1182.523" fill="rgb(255,255,255)" font-size="14.000" font-family="sans-serif" text-anchor="middle" dominant-baseline="central" transform="rotate(419.092 565.762 1182.523)">11</text>
<text x="553.750" y="1189.714" fill="rgb(255,255,255)" font-size="14.000" font-family="sans-serif" text-anchor="middle" dominant-baseline="central" transform="rotate(419.092 553.750 1189.714)">txt</text>
<text x="541.738" y="1196.906" fill="rgb(255,255,255)" font-size="14.000" font-family="sans-serif" text-anchor="middle" dominant-baseline="central" transform="rotate(419.092 541.738 1196.906)">1940</text>
<text x="478.834" y="1271.609" fill="rgb(0,0,0)" font-size="14.000" font-family="sans-serif" text-anchor="middle" dominant-baseline="central" transform="rotate(415.954 478.834 1271.609)">flat</text>
<text x="467.234" y="1279.447" fill="rgb(0,0,0)" font-size="14.000" font-family="sans-serif" text-anchor="middle" dominant-baseline="central" transform="rotate(415.954 467.234 1279.447)">3</text>
<text x="455.634" y="1287.285" fill="rgb(0,0,0)" font-size="14.000" font-family="sans-serif" text-anchor="middle" dominant-baseline="central" transform="rotate(415.954 455.634 1287.285)">go</text>
<text x="444.033" y="1295.123" fill="rgb(0,0,0)" font-size="14.000" font-family="sans-serif" text-anchor="middle" dominant-baseline="central" transform="rotate(415.954 444.033 1295.123)">534</text>
<text x="457.636" y="1258.192" fill="rgb(0,0,0)" font-size="7.800" font-family="sans-serif" text-anchor="middle" dominant-baseline="central" transform="rotate(418.182 457.636 1258.192)">nested</text>
<text x="451.688" y="1261.883" fill="rgb(0,0,0)" font-size="7.800" font-family="sans-serif" text-anchor="middle" dominant-baseline="central" transform="rotate(418.182 451.688 1261.883)">3</text>
<text x="445.740" y="1265.573" fill="rgb(0,0,0)" font-size="7.800" font-family="sans-serif" text-anchor="middle" dominant-baseline="central" transform="rotate(418.182 445.740 1265.573)">go</text>
<text x="439.792" y="1269.264" fill="rgb(0,0,0)" font-size="7.800" font-family="sans-serif" text-anchor="middle" dominant-baseline="central" transform="rotate(418.182 439.792 1269.264)">534</text>
<text x="351.662" y="1323.944" fill="rgb(0,0,0)" font-size="14.000" font-family="sans-serif" text-anchor="middle" dominant-baseline="central" transform="rotate(418.182 351.662 1323.944)">sub</text>
<text x="339.766" y="1331.325" fill="rgb(0,0,0)" font-size="14.000" font-family="sans-serif" text-anchor="middle" dominant-baseline="central" transform="rotate(418.182 339.766 1331.325)">2</text>
<text x="327.870" y="1338.706" fill="rgb(0,0,0)" font-size="14.000" font-family="sans-serif" text-anchor="middle" dominant-baseline="central" transform="rotate(418.182 327.870 1338.706)">go</text>
<text x="315.974" y="1346.087" fill="rgb(0,0,0)" font-size="14.000" font-family="sans-serif" text-anchor="middle" dominant-baseline="central" transform="rotate(418.182 315.974 1346.087)">356</text>
<text x="236.767" y="1395.231" fill="rgb(0,0,0)" font-size="14.000" font-family="sans-serif" text-anchor="middle" dominant-baseline="central" transform="rotate(418.182 236.767 1395.231)">deep</text>
<text x="224.870" y="1402.612" fill="rgb(0,0,0)" font-size="14.000" font-family="sans-serif" text-anchor="middle" dominant-baseline="central" transform="rotate(418.182 224.870 1402.612)">1</text>
<text x="212.974" y="1409.993" fill="rgb(0,0,0)" font-size="14.000" font-family="sans-serif" text-anchor="middle" dominant-baseline="central" transform="rotate(418.182 212.974 1409.993)">md</text>
<text x="201.078" y="1417.374" fill="rgb(0,0,0)" font-size="14.000" font-family="sans-serif" text-anchor="middle" dominant-baseline="central" transform="rotate(418.182 201.078 1417.374)">178</text>
<text x="338.715" y="1302.229" fill="rgb(0,0,0)" font-size="14.000" font-family="sans-serif" text-anchor="middle" dominant-baseline="central" transform="rotate(420.206 338.715 1302.229)">src</text>
<text x="326.565" y="1309.185" fill="rgb(0,0,0)" font-size="14.000" font-family="sans-serif" text-anchor="middle" dominant-baseline="central" transform="rotate(420.206 326.565 1309.185)">1</text>
<text x="314.416" y="1316.141" fill="rgb(0,0,0)" font-size="14.000" font-family="sans-serif" text-anchor="middle" dominant-baseline="central" transform="rotate(420.206 314.416 1316.141)">go</text>
<text x="302.266" y="1323.098" fill="rgb(0,0,0)" font-size="14.000" font-family="sans-serif" text-anchor="middle" dominant-baseline="central" transform="rotate(420.206 302.266 1323.098)">169</text>
<text x="315.924" y="1285.661" fill="rgb(255,255,255)" font-size="6.800" font-family="sans-serif" text-anchor="middle" dominant-baseline="central" transform="rotate(422.229 315.924 1285.661)">target-dir</text>
<text x="310.615" y="1288.457" fill="rgb(255,255,255)" font-size="6.800" font-family="sans-serif" text-anchor="middle" dominant-baseline="central" transform="rotate(422.229 310.615 1288.457)">1</text>
<text x="305.306" y="1291.252" fill="rgb(255,255,255)" font-size="6.800" font-family="sans-serif" text-anchor="middle" dominant-baseline="central" transform="rotate(422.229 305.306 1291.252)">txt</text>
<text x="299.997" y="1294.048" fill="rgb(255,255,255)" font-size="6.800" font-family="sans-serif" text-anchor="middle" dominant-baseline="central" transform="rotate(422.229 299.997 1294.048)">178</text>
<text x="668.134" y="1051.784" fill="rgb(0,0,0)" font-size="14.000" font-family="sans-serif" text-anchor="middle" dominant-baseline="central" transform="rotate(430.164 668.134 1051.784)">scatter</text>
<text x="654.964" y="1056.534" fill="rgb(0,0,0)" font-size="14.000" font-family="sans-serif" text-anchor="middle" dominant-baseline="central" transform="rotate(430.164 654.964 1056.534)">3646</text>
<text x="641.795" y="1061.285" fill="rgb(0,0,0)" font-size="14.000" font-family="sans-serif" text-anchor="middle" dominant-baseline="central" transform="rotate(430.164 641.795 1061.285)">go</text>
<text x="628.626" y="1066.035" fill="rgb(0,0,0)" font-size="14.000" font-family="sans-serif" text-anchor="middle" dominant-baseline="central" transform="rotate(430.164 628.626 1066.035)">440</text>
<text x="644.101" y="1010.287" fill="rgb(0,0,0)" font-size="6.164" font-family="sans-serif" text-anchor="middle" dominant-baseline="central" transform="rotate(438.584 644.101 1010.287)">source</text>
<text x="638.219" y="1011.474" fill="rgb(0,0,0)" font-size="6.164" font-family="sans-serif" text-anchor="middle" dominant-baseline="central" transform="rotate(438.584 638.219 1011.474)">634</text>
<text x="632.338" y="1012.662" fill="rgb(0,0,0)" font-size="6.164" font-family="sans-serif" text-anchor="middle" dominant-baseline="central" transform="rotate(438.584 632.338 1012.662)">go</text>
<text x="626.457" y="1013.849" fill="rgb(0,0,0)" font-size="6.164" font-family="sans-serif" text-anchor="middle" dominant-baseline="central" transform="rotate(438.584 626.457 1013.849)">96</text>
<text x="649.749" y="950.377" fill="rgb(0,0,0)" font-size="14.000" font-family="sans-serif" text-anchor="middle" dominant-baseline="central" transform="rotate(449.284 649.749 950.377)">spiral</text>
<text x="635.750" y="950.552" fill="rgb(0,0,0)" font-size="14.000" font-family="sans-serif" text-anchor="middle" dominant-baseline="central" transform="rotate(449.284 635.750 950.552)">4961</text>
<text x="621.751" y="950.727" fill="rgb(0,0,0)" font-size="14.000" font-family="sans-serif" text-anchor="middle" dominant-baseline="central" transform="rotate(449.284 621.751 950.727)">go</text>
<text x="607.753" y="950.902" fill="rgb(0,0,0)" font-size="14.000" font-family="sans-serif" text-anchor="middle" dominant-baseline="central" transform="rotate(449.284 607.753 950.902)">1209</text>
<text x="630.206" y="822.671" fill="rgb(0,0,0)" font-size="14.000" font-family="sans-serif" text-anchor="middle" dominant-baseline="central" transform="rotate(290.580 630.206 822.671)">stages</text>
<text x="643.313" y="827.592" fill="rgb(0,0,0)" font-size="14.000" font-family="sans-serif" text-anchor="middle" dominant-baseline="central" transform="rotate(290.580 643.313 827.592)">6746</text>
<text x="656.419" y="832.514" fill="rgb(0,0,0)" font-size="14.000" font-family="sans-serif" text-anchor="middle" dominant-baseline="central" transform="rotate(290.580 656.419 832.514)">go</text>
<text x="669.526" y="837.435" fill="rgb(0,0,0)" font-size="14.000" font-family="sans-serif" text-anchor="middle" dominant-baseline="central" transform="rotate(290.580 669.526 837.435)">1882</text>
<text x="683.196" y="728.607" fill="rgb(0,0,0)" font-size="14.000" font-family="sans-serif" text-anchor="middle" dominant-baseline="central" transform="rotate(308.209 683.196 728.607)">surface</text>
<text x="694.197" y="737.267" fill="rgb(0,0,0)" font-size="14.000" font-family="sans-serif" text-anchor="middle" dominant-baseline="central" transform="rotate(308.209 694.197 737.267)">2846</text>
<text x="705.197" y="745.926" fill="rgb(0,0,0)" font-size="14.000" font-family="sans-serif" text-anchor="middle" dominant-baseline="central" transform="rotate(308.209 705.197 745.926)">go</text>
<text x="716.198" y="754.585" fill="rgb(0,0,0)" font-size="14.000" font-family="sans-serif" text-anchor="middle" dominant-baseline="central" transform="rotate(308.209 716.198 754.585)">257</text>
<text x="719.052" y="706.227" fill="rgb(0,0,0)" font-size="6.667" font-family="sans-serif" text-anchor="middle" dominant-baseline="central" transform="rotate(314.920 719.052 706.227)">table</text>
<text x="723.300" y="710.464" fill="rgb(0,0,0)" font-size="6.667" font-family="sans-serif" text-anchor="middle" dominant-baseline="central" transform="rotate(314.920 723.300 710.464)">448</text>
<text x="727.549" y="714.701" fill="rgb(0,0,0)" font-size="6.667" font-family="sans-serif" text-anchor="middle" dominant-baseline="central" transform="rotate(314.920 727.549 714.701)">go</text>
<text x="731.797" y="718.937" fill="rgb(0,0,0)" font-size="6.667" font-family="sans-serif" text-anchor="middle" dominant-baseline="central" transform="rotate(314.920 731.797 718.937)">273</text>
<text x="744.470" y="667.852" fill="rgb(0,0,0)" font-size="14.000" font-family="sans-serif" text-anchor="middle" dominant-baseline="central" transform="rotate(322.279 744.470 667.852)">treemap</text>
<text x="753.035" y="678.926" fill="rgb(0,0,0)" font-size="14.000" font-family="sans-serif" text-anchor="middle" dominant-baseline="central" transform="rotate(322.279 753.035 678.926)">3220</text>
<text x="761.601" y="690.000" fill="rgb(0,0,0)" font-size="14.000" font-family="sans-serif" text-anchor="middle" dominant-baseline="central" transform="rotate(322.279 761.601 690.000)">go</text>
<text x="770.167" y="701.074" fill="rgb(0,0,0)" font-size="14.000" font-family="sans-serif" text-anchor="middle" dominant-baseline="central" transform="rotate(322.279 770.167 701.074)">490</text>
<text x="786.379" y="653.852" fill="rgb(0,0,0)" font-size="6.753" font-family="sans-serif" text-anchor="middle" dominant-baseline="central" transform="rotate(329.320 786.379 653.852)">viz</text>
<text x="789.440" y="659.012" fill="rgb(0,0,0)" font-size="6.753" font-family="sans-serif" text-anchor="middle" dominant-baseline="central" transform="rotate(329.320 789.440 659.012)">265</text>
<text x="792.502" y="664.173" fill="rgb(0,0,0)" font-size="6.753" font-family="sans-serif" text-anchor="middle" dominant-baseline="central" transform="rotate(329.320 792.502 664.173)">go</text>
<text x="795.563" y="669.333" fill="rgb(0,0,0)" font-size="6.753" font-family="sans-serif" text-anchor="middle" dominant-baseline="central" transform="rotate(329.320 795.563 669.333)">438</text>
<text x="898.932" y="738.207" fill="rgb(0,0,0)" font-size="14.000" font-family="sans-serif" text-anchor="middle" dominant-baseline="central" transform="rotate(343.660 898.932 738.207)">samples</text>
<text x="902.871" y="751.641" fill="rgb(0,0,0)" font-size="14.000" font-family="sans-serif" text-anchor="middle" dominant-baseline="central" transform="rotate(343.660 902.871 751.641)">6762</text>
<text x="906.810" y="765.076" fill="rgb(0,0,0)" font-size="14.000" font-family="sans-serif" text-anchor="middle" dominant-baseline="central" transform="rotate(343.660 906.810 765.076)">md</text>
<text x="910.749" y="778.510" fill="rgb(0,0,0)" font-size="14.000" font-family="sans-serif" text-anchor="middle" dominant-baseline="central" transform="rotate(343.660 910.749 778.510)">619</text>
<text x="845.853" y="625.942" fill="rgb(0,0,0)" font-size="6.488" font-family="sans-serif" text-anchor="middle" dominant-baseline="central" transform="rotate(340.400 845.853 625.942)">radial-tree</text>
<text x="847.866" y="631.594" fill="rgb(0,0,0)" font-size="6.488" font-family="sans-serif" text-anchor="middle" dominant-baseline="central" transform="rotate(340.400 847.866 631.594)">1488</text>
<text x="849.878" y="637.247" fill="rgb(0,0,0)" font-size="6.488" font-family="sans-serif" text-anchor="middle" dominant-baseline="central" transform="rotate(340.400 849.878 637.247)">md</text>
<text x="851.891" y="642.899" fill="rgb(0,0,0)" font-size="6.488" font-family="sans-serif" text-anchor="middle" dominant-baseline="central" transform="rotate(340.400 851.891 642.899)">94</text>
<text x="907.770" y="598.118" fill="rgb(0,0,0)" font-size="14.000" font-family="sans-serif" text-anchor="middle" dominant-baseline="central" transform="rotate(351.474 907.770 598.118)">tree-map</text>
<text x="909.846" y="611.964" fill="rgb(0,0,0)" font-size="14.000" font-family="sans-serif" text-anchor="middle" dominant-baseline="central" transform="rotate(351.474 909.846 611.964)">3450</text>
<text x="911.921" y="625.809" fill="rgb(0,0,0)" font-size="14.000" font-family="sans-serif" text-anchor="middle" dominant-baseline="central" transform="rotate(351.474 911.921 625.809)">md</text>
<text x="913.997" y="639.654" fill="rgb(0,0,0)" font-size="14.000" font-family="sans-serif" text-anchor="middle" dominant-baseline="central" transform="rotate(351.474 913.997 639.654)">164</text>
<rect x="467.000" y="1715.000" width="986.000" height="162.000" fill="rgba(255,255,255,0.902)" stroke="rgba(153,153,153,0.800)" stroke-width="1.000"/>
<polygon points="479.000,1735.126 496.196,1733.314 513.438,1732.019 530.711,1731.241 548.000,1730.981 565.289,1731.241 582.562,1732.019 599.804,1733.314 617.000,1735.126 601.820,1861.019 588.407,1859.605 574.959,1858.595 561.485,1857.988 548.000,1857.786 534.515,1857.988 521.041,1858.595 507.593,1859.605 494.180,1861.019 479.000,1735.126" fill="rgb(255,255,255)" stroke="rgb(102,102,102)" stroke-width="0.500"/>
<text x="548.000" y="1772.000" fill="rgb(51,51,51)" font-size="12.000" font-family="sans-serif" text-anchor="middle" dominant-baseline="central">directory-name</text>
<text x="548.000" y="1788.000" fill="rgb(51,51,51)" font-size="12.000" font-family="sans-serif" text-anchor="middle" dominant-baseline="central">file-lines.sum</text>
<text x="548.000" y="1804.000" fill="rgb(51,51,51)" font-size="12.000" font-family="sans-serif" text-anchor="middle" dominant-baseline="central">file-type.mode</text>
<text x="548.000" y="1820.000" fill="rgb(51,51,51)" font-size="12.000" font-family="sans-serif" text-anchor="middle" dominant-baseline="central">file-freshness.sum</text>
<text x="752.000" y="1735.000" fill="rgb(38,38,38)" font-size="13.000" font-family="sans-serif" text-anchor="middle" dominant-baseline="central">Fill</text>
<text x="752.000" y="1751.000" fill="rgb(38,38,38)" font-size="13.000" font-family="sans-serif" text-anchor="middle" dominant-baseline="central">file-type.mode</text>
<rect x="631.000" y="1765.000" width="28.000" height="28.000" fill="rgb(166,206,227)" stroke="rgb(102,102,102)" stroke-width="0.500"/>
<text x="645.000" y="1809.000" fill="rgb(51,51,51)" font-size="12.000" font-family="sans-serif" text-anchor="middle" dominant-baseline="central">go</text>
<rect x="669.000" y="1765.000" width="28.000" height="28.000" fill="rgb(31,120,180)" stroke="rgb(102,102,102)" stroke-width="0.500"/>
<text x="683.000" y="1809.000" fill="rgb(51,51,51)" font-size="12.000" font-family="sans-serif" text-anchor="middle" dominant-baseline="central">golden</text>
<rect x="721.000" y="1765.000" width="28.000" height="28.000" fill="rgb(178,223,138)" stroke="rgb(102,102,102)" stroke-width="0.500"/>
<text x="735.000" y="1809.000" fill="rgb(51,51,51)" font-size="12.000" font-family="sans-serif" text-anchor="middle" dominant-baseline="central">md</text>
<rect x="759.000" y="1765.000" width="28.000" height="28.000" fill="rgb(51,160,44)" stroke="rgb(102,102,102)" stroke-width="0.500"/>
<text x="773.000" y="1809.000" fill="rgb(51,51,51)" font-size="12.000" font-family="sans-serif" text-anchor="middle" dominant-baseline="central">svg</text>
<rect x="797.000" y="1765.000" width="28.000" height="28.000" fill="rgb(251,154,153)" stroke="rgb(102,102,102)" stroke-width="0.500"/>
<text x="811.000" y="1809.000" fill="rgb(51,51,51)" font-size="12.000" font-family="sans-serif" text-anchor="middle" dominant-baseline="central">txt</text>
<rect x="835.000" y="1765.000" width="28.000" height="28.000" fill="rgb(227,26,28)" stroke="rgb(102,102,102)" stroke-width="0.500"/>
<text x="849.000" y="1809.000" fill="rgb(51,51,51)" font-size="12.000" font-family="sans-serif" text-anchor="middle" dominant-baseline="central">yml</text>
<text x="1108.000" y="1735.000" fill="rgb(38,38,38)" font-size="13.000" font-family="sans-serif" text-anchor="middle" dominant-baseline="central">Border</text>
<text x="1108.000" y="1751.000" fill="rgb(38,38,38)" font-size="13.000" font-family="sans-serif" text-anchor="middle" dominant-baseline="central">file-freshness.sum</text>
<rect x="887.000" y="1765.000" width="28.000" height="28.000" fill="rgb(255,255,255)" stroke="rgb(165,0,38)" stroke-width="6.000"/>
<text x="915.000" y="1809.000" fill="rgb(51,51,51)" font-size="12.000" font-family="sans-serif" text-anchor="middle" dominant-baseline="central">6</text>
<rect x="921.000" y="1765.000" width="28.000" height="28.000" fill="rgb(255,255,255)" stroke="rgb(215,48,39)" stroke-width="6.000"/>
<text x="949.000" y="1809.000" fill="rgb(51,51,51)" font-size="12.000" font-family="sans-serif" text-anchor="middle" dominant-baseline="central">27</text>
<rect x="955.000" y="1765.000" width="28.000" height="28.000" fill="rgb(255,255,255)" stroke="rgb(244,109,67)" stroke-width="6.000"/>
<text x="983.000" y="1809.000" fill="rgb(51,51,51)" font-size="12.000" font-family="sans-serif" text-anchor="middle" dominant-baseline="central">96</text>
<rect x="989.000" y="1765.000" width="28.000" height="28.000" fill="rgb(255,255,255)" stroke="rgb(253,174,97)" stroke-width="6.000"/>
<text x="1017.000" y="1809.000" fill="rgb(51,51,51)" font-size="12.000" font-family="sans-serif" text-anchor="middle" dominant-baseline="central">130</text>
<rect x="1023.000" y="1765.000" width="28.000" height="28.000" fill="rgb(255,255,255)" stroke="rgb(254,224,139)" stroke-width="6.000"/>
<text x="1051.000" y="1809.000" fill="rgb(51,51,51)" font-size="12.000" font-family="sans-serif" text-anchor="middle" dominant-baseline="central">180</text>
<rect x="1057.000" y="1765.000" width="28.000" height="28.000" fill="rgb(255,255,255)" stroke="rgb(255,255,191)" stroke-width="6.000"/>
<text x="1085.000" y="1809.000" fill="rgb(51,51,51)" font-size="12.000" font-family="sans-serif" text-anchor="middle" dominant-baseline="central">250</text>
<rect x="1091.000" y="1765.000" width="28.000" height="28.000" fill="rgb(255,255,255)" stroke="rgb(255,255,255)" stroke-width="6.000"/>
<text x="1119.000" y="1809.000" fill="rgb(51,51,51)" font-size="12.000" font-family="sans-serif" text-anchor="middle" dominant-baseline="central">290</text>
<rect x="1125.000" y="1765.000" width="28.000" height="28.000" fill="rgb(255,255,255)" stroke="rgb(217,239,139)" stroke-width="6.000"/>
<text x="1153.000" y="1809.000" fill="rgb(51,51,51)" font-size="12.000" font-family="sans-serif" text-anchor="middle" dominant-baseline="central">360</text>
<rect x="1159.000" y="1765.000" width="28.000" height="28.000" fill="rgb(255,255,255)" stroke="rgb(166,217,106)" stroke-width="6.000"/>
<text x="1187.000" y="1809.000" fill="rgb(51,51,51)" font-size="12.000" font-family="sans-serif" text-anchor="middle" dominant-baseline="central">500</text>
<rect x="1193.000" y="1765.000" width="28.000" height="28.000" fill="rgb(255,255,255)" stroke="rgb(102,189,99)" stroke-width="6.000"/>
<text x="1221.000" y="1809.000" fill="rgb(51,51,51)" font-size="12.000" font-family="sans-serif" text-anchor="middle" dominant-baseline="central">620</text>
<rect x="1227.000" y="1765.000" width="28.000" height="28.000" fill="rgb(255,255,255)" stroke="rgb(26,152,80)" stroke-width="6.000"/>
<text x="1255.000" y="1809.000" fill="rgb(51,51,51)" font-size="12.000" font-family="sans-serif" text-anchor="middle" dominant-baseline="central">1100</text>
<rect x="1261.000" y="1765.000" width="28.000" height="28.000" fill="rgb(255,255,255)" stroke="rgb(0,104,55)" stroke-width="6.000"/>
<text x="1289.000" y="1809.000" fill="rgb(51,51,51)" font-size="12.000" font-family="sans-serif" text-anchor="middle" dominant-baseline="central">1900</text>
<rect x="1295.000" y="1765.000" width="28.000" height="28.000" fill="rgb(255,255,255)" stroke="rgb(0,68,27)" stroke-width="6.000"/>
<text x="1392.000" y="1735.000" fill="rgb(38,38,38)" font-size="13.000" font-family="sans-serif" text-anchor="middle" dominant-baseline="central">Size</text>
<text x="1392.000" y="1751.000" fill="rgb(38,38,38)" font-size="13.000" font-family="sans-serif" text-anchor="middle" dominant-baseline="central">file-lines.sum</text>
<text x="960.000" y="1906.000" fill="rgba(128,128,128,0.784)" font-size="13.000" font-family="sans-serif" text-anchor="middle" dominant-baseline="central">Generated by github.com/theunrepentantgeek/code-visualizer</text>
</svg>
